<?xml version="1.0" encoding="UTF-8"?>
<svg width="521px" height="252px" viewBox="0 0 521 252" version="1.1" xmlns="http://www.w3.org/2000/svg" xmlns:xlink="http://www.w3.org/1999/xlink">
    <!-- Generator: Sketch 52.2 (67145) - http://www.bohemiancoding.com/sketch -->
    <title>Group 14</title>
    <desc>Created with Sketch.</desc>
    <g id="Page-1" stroke="none" stroke-width="1" fill="none" fill-rule="evenodd">
        <g id="Homepage" transform="translate(-730.000000, -650.000000)">
            <g id="fronteers" transform="translate(190.000000, 123.000000)" fill="#000000" fill-rule="nonzero">
                <g id="Group-13" transform="translate(540.000000, 399.000000)">
                    <g id="Group">
                        <g id="Group-14" transform="translate(0.000000, 128.000000)">
                            <path d="M419.652893,71.5013499 L419.652893,44.0404638 L410.436797,44.0404638 C407.434235,44.0404638 405,41.6068366 405,38.6050248 L405,24.3167049 C405,21.3148931 407.434235,18.8812659 410.436797,18.8812659 C413.439722,18.8812659 415.873594,21.3148931 415.873594,24.3167049 L415.873594,33.1695857 L419.652893,33.1695857 L419.652893,6.52252688 C419.652893,2.92028023 422.573903,-2.4158453e-13 426.17705,-2.4158453e-13 C429.780559,-2.4158453e-13 432.701207,2.92028023 432.701207,6.52252688 L432.701207,22.5433023 L438.126406,22.5433023 L438.126406,14.1321416 C438.126406,11.1303297 440.560641,8.6967025 443.563203,8.6967025 C446.565765,8.6967025 449,11.1303297 449,14.1321416 L449,27.9787414 C449,30.9805532 446.565765,33.4141805 443.563203,33.4141805 L432.701207,33.4141805 L432.701207,70.8697687 C460.200396,70.5527588 489.311079,76.7060185 521,92.9492188 C521,92.9492188 521,145.966146 521,252 L1,252 C0.333333333,145.966146 0,92.9492188 0,92.9492188 C184.92978,243.427841 283.880143,83.0141506 419.652893,71.5013499 Z" id="Combined-Shape" opacity="0.0442010789"></path>
                            <path d="M1,150.570313 C315.625,241.90625 306,-12.0429688 521,161 C521,214.9375 521,245.270833 521,252 L1,252 C1,184.380208 1,150.570313 1,150.570313 Z" id="Rectangle" opacity="0.0389229911"></path>
                        </g>
                    </g>
                </g>
            </g>
            <g id="Page"></g>
        </g>
    </g>
</svg>