<?xml version="1.0" encoding="UTF-8"?>
<svg width="433px" height="335px" viewBox="0 0 433 335" version="1.1" xmlns="http://www.w3.org/2000/svg" xmlns:xlink="http://www.w3.org/1999/xlink">
    <!-- Generator: Sketch 52.2 (67145) - http://www.bohemiancoding.com/sketch -->
    <title>tech-bg-phyto</title>
    <desc>Created with Sketch.</desc>
    <defs>
        <polygon id="path-1" points="0 0.151709176 66.8495471 0.151709176 66.8495471 54.4766355 0 54.4766355"></polygon>
        <polygon id="path-3" points="0 0.151709176 66.8495471 0.151709176 66.8495471 54.4766355 0 54.4766355"></polygon>
        <polygon id="path-5" points="-2.13162821e-13 0.151709176 66.8495471 0.151709176 66.8495471 54.4766355 -2.13162821e-13 54.4766355"></polygon>
        <polygon id="path-7" points="0 0.151709176 66.8495471 0.151709176 66.8495471 54.4766355 0 54.4766355"></polygon>
        <polygon id="path-9" points="-2.13162821e-13 0.151709176 66.8495471 0.151709176 66.8495471 54.4766355 -2.13162821e-13 54.4766355"></polygon>
        <polygon id="path-11" points="0 0.151709176 66.8495471 0.151709176 66.8495471 54.4766355 0 54.4766355"></polygon>
        <polygon id="path-13" points="-2.13162821e-13 0.151709176 66.8495471 0.151709176 66.8495471 54.4766355 -2.13162821e-13 54.4766355"></polygon>
        <polygon id="path-15" points="0 0.151709176 66.8495471 0.151709176 66.8495471 54.4766355 0 54.4766355"></polygon>
        <polygon id="path-17" points="0 0.151709176 66.8495471 0.151709176 66.8495471 54.4766355 0 54.4766355"></polygon>
    </defs>
    <g id="Page-1" stroke="none" stroke-width="1" fill="none" fill-rule="evenodd">
        <g id="Homepage" transform="translate(-239.000000, -149.000000)">
            <g id="fronteers" transform="translate(190.000000, 123.000000)">
                <g id="Group-12">
                    <g id="tech-bg-phyto" transform="translate(41.000000, 21.000000)">
                        <g id="Group-8" opacity="0.0946103051" transform="translate(363.000000, 48.000000)">
                            <path d="M27.2383178,24.4205607 C25.6820636,24.4205607 24.4205607,25.682018 24.4205607,27.2382159 C24.4205607,28.7944138 25.6820636,30.0560748 27.2383178,30.0560748 C28.7945719,30.0560748 30.0560748,28.7944138 30.0560748,27.2382159 C30.0560748,25.682018 28.7945719,24.4205607 27.2383178,24.4205607" id="Fill-1" fill="#000000"></path>
                            <path d="M39.7616822,24.4205607 C38.2054281,24.4205607 36.9439252,25.682018 36.9439252,27.2382159 C36.9439252,28.7944138 38.2054281,30.0560748 39.7616822,30.0560748 C41.3179364,30.0560748 42.5794393,28.7944138 42.5794393,27.2382159 C42.5794393,25.682018 41.3179364,24.4205607 39.7616822,24.4205607" id="Fill-3" fill="#000000"></path>
                            <g id="Group-7">
                                <mask id="mask-2" fill="white">
                                    <use xlink:href="#path-1"></use>
                                </mask>
                                <g id="Clip-6"></g>
                                <path d="M49.9153483,37.7779372 C47.1349508,40.5781188 43.4567122,42.120179 39.557804,42.120179 L27.0558498,42.120179 C23.1569416,42.120179 19.4787031,40.5781188 16.6983055,37.7779372 C13.9181128,34.9779619 12.3869477,31.2733444 12.3869477,27.3466932 C12.3869477,23.4202485 13.9181128,19.7156309 16.6983055,16.9154493 C19.4787031,14.115474 23.1569416,12.5734138 27.0558498,12.5734138 L39.557804,12.5734138 C43.4567122,12.5734138 47.1349508,14.115474 49.9153483,16.9156556 C52.695541,19.7156309 54.2267061,23.4202485 54.2267061,27.3468996 C54.2267061,31.2733444 52.695541,34.9779619 49.9153483,37.7779372 M65.3128498,25.7666645 L57.0587367,25.7666645 C57.0460333,25.7666645 57.0337398,25.7681089 57.0210364,25.7685216 C56.6989446,22.1520159 55.2857979,18.8402904 53.1131128,16.1742369 C53.1133177,16.1742369 53.1133177,16.1742369 53.1135226,16.1740305 L58.9501037,10.295919 C59.5502352,9.69172362 59.5502352,8.71176323 58.9501037,8.10736147 C58.3499722,7.50295971 57.3769355,7.50295971 56.776804,8.10736147 L50.9625563,13.9629807 C48.3337795,11.6858986 45.0360272,10.1739657 41.4155685,9.78540692 L41.4155685,1.69934087 C41.4155685,0.844635472 40.7275379,0.151709176 39.8788713,0.151709176 C39.0302046,0.151709176 38.342174,0.844635472 38.342174,1.69934087 L38.342174,9.68450134 L28.5073116,9.68450134 L28.5073116,1.69934087 C28.5073116,0.844635472 27.819281,0.151709176 26.9706144,0.151709176 C26.1219477,0.151709176 25.4339171,0.844635472 25.4339171,1.69934087 L25.4339171,9.76353373 C21.7796511,10.1052508 18.4425593,11.5876756 15.7775165,13.852583 L10.0726817,8.10736147 C9.47275505,7.50295971 8.49971835,7.50295971 7.89958685,8.10736147 C7.29945535,8.71176323 7.29945535,9.69172362 7.89958685,10.295919 L13.6081098,16.0450612 C11.375596,18.7325753 9.92044618,22.0917614 9.59282232,25.7666645 L1.53663578,25.7666645 C0.687969113,25.7666645 -6.14678899e-05,26.4593844 -6.14678899e-05,27.3142962 C-6.14678899e-05,28.1690016 0.687969113,28.8619278 1.53663578,28.8619278 L9.5877,28.8619278 C9.9024156,32.545704 11.3489599,35.9162394 13.5779905,38.613452 L7.89958685,44.3322606 C7.29945535,44.9366623 7.29945535,45.9166227 7.89958685,46.5210245 C8.19955015,46.8231222 8.59294465,46.974171 8.98613425,46.974171 C9.37952875,46.974171 9.77271835,46.8231222 10.0726817,46.5210245 L15.7426847,40.8106763 C18.4134645,43.0922981 21.7636694,44.5868976 25.4339171,44.9300591 L25.4339171,52.9290451 C25.4339171,53.7837505 26.1219477,54.4766768 26.9706144,54.4766768 C27.819281,54.4766768 28.5073116,53.7837505 28.5073116,52.9290451 L28.5073116,45.0090915 L38.342174,45.0090915 L38.342174,52.9290451 C38.342174,53.7837505 39.0302046,54.4766768 39.8788713,54.4766768 C40.7275379,54.4766768 41.4155685,53.7837505 41.4155685,52.9290451 L41.4155685,44.9081859 C45.0520089,44.5179764 48.3628743,42.9942814 50.9973881,40.7002785 L56.776804,46.5210245 C57.0769722,46.8231222 57.4701618,46.974171 57.8635563,46.974171 C58.2567459,46.974171 58.6499355,46.8231222 58.9501037,46.5210245 C59.5502352,45.9166227 59.5502352,44.9366623 58.9501037,44.3322606 L53.1417979,38.4828318 C55.3107948,35.8070798 56.7165654,32.4856559 57.0261587,28.8600707 C57.037018,28.8604834 57.0478774,28.8619278 57.0587367,28.8619278 L65.3128498,28.8619278 C66.1615165,28.8619278 66.8495471,28.1690016 66.8495471,27.3142962 C66.8495471,26.4593844 66.1615165,25.7666645 65.3128498,25.7666645" id="Fill-5" fill="#000000" mask="url(#mask-2)"></path>
                            </g>
                        </g>
                        <g id="Group-8-Copy" opacity="0.0946103051" transform="translate(254.732491, 136.324394) rotate(-49.000000) translate(-254.732491, -136.324394) translate(221.232491, 108.824394)">
                            <path d="M27.2383178,24.4205607 C25.6820636,24.4205607 24.4205607,25.682018 24.4205607,27.2382159 C24.4205607,28.7944138 25.6820636,30.0560748 27.2383178,30.0560748 C28.7945719,30.0560748 30.0560748,28.7944138 30.0560748,27.2382159 C30.0560748,25.682018 28.7945719,24.4205607 27.2383178,24.4205607" id="Fill-1" fill="#000000"></path>
                            <path d="M39.7616822,24.4205607 C38.2054281,24.4205607 36.9439252,25.682018 36.9439252,27.2382159 C36.9439252,28.7944138 38.2054281,30.0560748 39.7616822,30.0560748 C41.3179364,30.0560748 42.5794393,28.7944138 42.5794393,27.2382159 C42.5794393,25.682018 41.3179364,24.4205607 39.7616822,24.4205607" id="Fill-3" fill="#000000"></path>
                            <g id="Group-7">
                                <mask id="mask-4" fill="white">
                                    <use xlink:href="#path-3"></use>
                                </mask>
                                <g id="Clip-6"></g>
                                <mask id="mask-6" fill="white">
                                    <use xlink:href="#path-5"></use>
                                </mask>
                                <g id="Clip-6"></g>
                                <path d="M49.9153483,37.7779372 C47.1349508,40.5781188 43.4567122,42.120179 39.557804,42.120179 L27.0558498,42.120179 C23.1569416,42.120179 19.4787031,40.5781188 16.6983055,37.7779372 C13.9181128,34.9779619 12.3869477,31.2733444 12.3869477,27.3466932 C12.3869477,23.4202485 13.9181128,19.7156309 16.6983055,16.9154493 C19.4787031,14.115474 23.1569416,12.5734138 27.0558498,12.5734138 L39.557804,12.5734138 C43.4567122,12.5734138 47.1349508,14.115474 49.9153483,16.9156556 C52.695541,19.7156309 54.2267061,23.4202485 54.2267061,27.3468996 C54.2267061,31.2733444 52.695541,34.9779619 49.9153483,37.7779372 M65.3128498,25.7666645 L57.0587367,25.7666645 C57.0460333,25.7666645 57.0337398,25.7681089 57.0210364,25.7685216 C56.6989446,22.1520159 55.2857979,18.8402904 53.1131128,16.1742369 C53.1133177,16.1742369 53.1133177,16.1742369 53.1135226,16.1740305 L58.9501037,10.295919 C59.5502352,9.69172362 59.5502352,8.71176323 58.9501037,8.10736147 C58.3499722,7.50295971 57.3769355,7.50295971 56.776804,8.10736147 L50.9625563,13.9629807 C48.3337795,11.6858986 45.0360272,10.1739657 41.4155685,9.78540692 L41.4155685,1.69934087 C41.4155685,0.844635472 40.7275379,0.151709176 39.8788713,0.151709176 C39.0302046,0.151709176 38.342174,0.844635472 38.342174,1.69934087 L38.342174,9.68450134 L28.5073116,9.68450134 L28.5073116,1.69934087 C28.5073116,0.844635472 27.819281,0.151709176 26.9706144,0.151709176 C26.1219477,0.151709176 25.4339171,0.844635472 25.4339171,1.69934087 L25.4339171,9.76353373 C21.7796511,10.1052508 18.4425593,11.5876756 15.7775165,13.852583 L10.0726817,8.10736147 C9.47275505,7.50295971 8.49971835,7.50295971 7.89958685,8.10736147 C7.29945535,8.71176323 7.29945535,9.69172362 7.89958685,10.295919 L13.6081098,16.0450612 C11.375596,18.7325753 9.92044618,22.0917614 9.59282232,25.7666645 L1.53663578,25.7666645 C0.687969113,25.7666645 -6.14678899e-05,26.4593844 -6.14678899e-05,27.3142962 C-6.14678899e-05,28.1690016 0.687969113,28.8619278 1.53663578,28.8619278 L9.5877,28.8619278 C9.9024156,32.545704 11.3489599,35.9162394 13.5779905,38.613452 L7.89958685,44.3322606 C7.29945535,44.9366623 7.29945535,45.9166227 7.89958685,46.5210245 C8.19955015,46.8231222 8.59294465,46.974171 8.98613425,46.974171 C9.37952875,46.974171 9.77271835,46.8231222 10.0726817,46.5210245 L15.7426847,40.8106763 C18.4134645,43.0922981 21.7636694,44.5868976 25.4339171,44.9300591 L25.4339171,52.9290451 C25.4339171,53.7837505 26.1219477,54.4766768 26.9706144,54.4766768 C27.819281,54.4766768 28.5073116,53.7837505 28.5073116,52.9290451 L28.5073116,45.0090915 L38.342174,45.0090915 L38.342174,52.9290451 C38.342174,53.7837505 39.0302046,54.4766768 39.8788713,54.4766768 C40.7275379,54.4766768 41.4155685,53.7837505 41.4155685,52.9290451 L41.4155685,44.9081859 C45.0520089,44.5179764 48.3628743,42.9942814 50.9973881,40.7002785 L56.776804,46.5210245 C57.0769722,46.8231222 57.4701618,46.974171 57.8635563,46.974171 C58.2567459,46.974171 58.6499355,46.8231222 58.9501037,46.5210245 C59.5502352,45.9166227 59.5502352,44.9366623 58.9501037,44.3322606 L53.1417979,38.4828318 C55.3107948,35.8070798 56.7165654,32.4856559 57.0261587,28.8600707 C57.037018,28.8604834 57.0478774,28.8619278 57.0587367,28.8619278 L65.3128498,28.8619278 C66.1615165,28.8619278 66.8495471,28.1690016 66.8495471,27.3142962 C66.8495471,26.4593844 66.1615165,25.7666645 65.3128498,25.7666645" id="Fill-5" fill="#000000" mask="url(#mask-6)"></path>
                            </g>
                        </g>
                        <g id="Group-8-Copy-4" opacity="0.0946103051" transform="translate(159.164807, 39.402270) rotate(-26.000000) translate(-159.164807, -39.402270) translate(125.664807, 11.902270)">
                            <path d="M27.2383178,24.4205607 C25.6820636,24.4205607 24.4205607,25.682018 24.4205607,27.2382159 C24.4205607,28.7944138 25.6820636,30.0560748 27.2383178,30.0560748 C28.7945719,30.0560748 30.0560748,28.7944138 30.0560748,27.2382159 C30.0560748,25.682018 28.7945719,24.4205607 27.2383178,24.4205607" id="Fill-1" fill="#000000"></path>
                            <path d="M39.7616822,24.4205607 C38.2054281,24.4205607 36.9439252,25.682018 36.9439252,27.2382159 C36.9439252,28.7944138 38.2054281,30.0560748 39.7616822,30.0560748 C41.3179364,30.0560748 42.5794393,28.7944138 42.5794393,27.2382159 C42.5794393,25.682018 41.3179364,24.4205607 39.7616822,24.4205607" id="Fill-3" fill="#000000"></path>
                            <g id="Group-7">
                                <mask id="mask-8" fill="white">
                                    <use xlink:href="#path-7"></use>
                                </mask>
                                <g id="Clip-6"></g>
                                <mask id="mask-10" fill="white">
                                    <use xlink:href="#path-9"></use>
                                </mask>
                                <g id="Clip-6"></g>
                                <path d="M49.9153483,37.7779372 C47.1349508,40.5781188 43.4567122,42.120179 39.557804,42.120179 L27.0558498,42.120179 C23.1569416,42.120179 19.4787031,40.5781188 16.6983055,37.7779372 C13.9181128,34.9779619 12.3869477,31.2733444 12.3869477,27.3466932 C12.3869477,23.4202485 13.9181128,19.7156309 16.6983055,16.9154493 C19.4787031,14.115474 23.1569416,12.5734138 27.0558498,12.5734138 L39.557804,12.5734138 C43.4567122,12.5734138 47.1349508,14.115474 49.9153483,16.9156556 C52.695541,19.7156309 54.2267061,23.4202485 54.2267061,27.3468996 C54.2267061,31.2733444 52.695541,34.9779619 49.9153483,37.7779372 M65.3128498,25.7666645 L57.0587367,25.7666645 C57.0460333,25.7666645 57.0337398,25.7681089 57.0210364,25.7685216 C56.6989446,22.1520159 55.2857979,18.8402904 53.1131128,16.1742369 C53.1133177,16.1742369 53.1133177,16.1742369 53.1135226,16.1740305 L58.9501037,10.295919 C59.5502352,9.69172362 59.5502352,8.71176323 58.9501037,8.10736147 C58.3499722,7.50295971 57.3769355,7.50295971 56.776804,8.10736147 L50.9625563,13.9629807 C48.3337795,11.6858986 45.0360272,10.1739657 41.4155685,9.78540692 L41.4155685,1.69934087 C41.4155685,0.844635472 40.7275379,0.151709176 39.8788713,0.151709176 C39.0302046,0.151709176 38.342174,0.844635472 38.342174,1.69934087 L38.342174,9.68450134 L28.5073116,9.68450134 L28.5073116,1.69934087 C28.5073116,0.844635472 27.819281,0.151709176 26.9706144,0.151709176 C26.1219477,0.151709176 25.4339171,0.844635472 25.4339171,1.69934087 L25.4339171,9.76353373 C21.7796511,10.1052508 18.4425593,11.5876756 15.7775165,13.852583 L10.0726817,8.10736147 C9.47275505,7.50295971 8.49971835,7.50295971 7.89958685,8.10736147 C7.29945535,8.71176323 7.29945535,9.69172362 7.89958685,10.295919 L13.6081098,16.0450612 C11.375596,18.7325753 9.92044618,22.0917614 9.59282232,25.7666645 L1.53663578,25.7666645 C0.687969113,25.7666645 -6.14678899e-05,26.4593844 -6.14678899e-05,27.3142962 C-6.14678899e-05,28.1690016 0.687969113,28.8619278 1.53663578,28.8619278 L9.5877,28.8619278 C9.9024156,32.545704 11.3489599,35.9162394 13.5779905,38.613452 L7.89958685,44.3322606 C7.29945535,44.9366623 7.29945535,45.9166227 7.89958685,46.5210245 C8.19955015,46.8231222 8.59294465,46.974171 8.98613425,46.974171 C9.37952875,46.974171 9.77271835,46.8231222 10.0726817,46.5210245 L15.7426847,40.8106763 C18.4134645,43.0922981 21.7636694,44.5868976 25.4339171,44.9300591 L25.4339171,52.9290451 C25.4339171,53.7837505 26.1219477,54.4766768 26.9706144,54.4766768 C27.819281,54.4766768 28.5073116,53.7837505 28.5073116,52.9290451 L28.5073116,45.0090915 L38.342174,45.0090915 L38.342174,52.9290451 C38.342174,53.7837505 39.0302046,54.4766768 39.8788713,54.4766768 C40.7275379,54.4766768 41.4155685,53.7837505 41.4155685,52.9290451 L41.4155685,44.9081859 C45.0520089,44.5179764 48.3628743,42.9942814 50.9973881,40.7002785 L56.776804,46.5210245 C57.0769722,46.8231222 57.4701618,46.974171 57.8635563,46.974171 C58.2567459,46.974171 58.6499355,46.8231222 58.9501037,46.5210245 C59.5502352,45.9166227 59.5502352,44.9366623 58.9501037,44.3322606 L53.1417979,38.4828318 C55.3107948,35.8070798 56.7165654,32.4856559 57.0261587,28.8600707 C57.037018,28.8604834 57.0478774,28.8619278 57.0587367,28.8619278 L65.3128498,28.8619278 C66.1615165,28.8619278 66.8495471,28.1690016 66.8495471,27.3142962 C66.8495471,26.4593844 66.1615165,25.7666645 65.3128498,25.7666645" id="Fill-5" fill="#000000" mask="url(#mask-10)"></path>
                            </g>
                        </g>
                        <g id="Group-8-Copy-5" opacity="0.0946103051" transform="translate(185.164807, 307.402270) rotate(-125.000000) translate(-185.164807, -307.402270) translate(151.664807, 279.902270)">
                            <path d="M27.2383178,24.4205607 C25.6820636,24.4205607 24.4205607,25.682018 24.4205607,27.2382159 C24.4205607,28.7944138 25.6820636,30.0560748 27.2383178,30.0560748 C28.7945719,30.0560748 30.0560748,28.7944138 30.0560748,27.2382159 C30.0560748,25.682018 28.7945719,24.4205607 27.2383178,24.4205607" id="Fill-1" fill="#000000"></path>
                            <path d="M39.7616822,24.4205607 C38.2054281,24.4205607 36.9439252,25.682018 36.9439252,27.2382159 C36.9439252,28.7944138 38.2054281,30.0560748 39.7616822,30.0560748 C41.3179364,30.0560748 42.5794393,28.7944138 42.5794393,27.2382159 C42.5794393,25.682018 41.3179364,24.4205607 39.7616822,24.4205607" id="Fill-3" fill="#000000"></path>
                            <g id="Group-7">
                                <mask id="mask-12" fill="white">
                                    <use xlink:href="#path-11"></use>
                                </mask>
                                <g id="Clip-6"></g>
                                <mask id="mask-14" fill="white">
                                    <use xlink:href="#path-13"></use>
                                </mask>
                                <g id="Clip-6"></g>
                                <path d="M49.9153483,37.7779372 C47.1349508,40.5781188 43.4567122,42.120179 39.557804,42.120179 L27.0558498,42.120179 C23.1569416,42.120179 19.4787031,40.5781188 16.6983055,37.7779372 C13.9181128,34.9779619 12.3869477,31.2733444 12.3869477,27.3466932 C12.3869477,23.4202485 13.9181128,19.7156309 16.6983055,16.9154493 C19.4787031,14.115474 23.1569416,12.5734138 27.0558498,12.5734138 L39.557804,12.5734138 C43.4567122,12.5734138 47.1349508,14.115474 49.9153483,16.9156556 C52.695541,19.7156309 54.2267061,23.4202485 54.2267061,27.3468996 C54.2267061,31.2733444 52.695541,34.9779619 49.9153483,37.7779372 M65.3128498,25.7666645 L57.0587367,25.7666645 C57.0460333,25.7666645 57.0337398,25.7681089 57.0210364,25.7685216 C56.6989446,22.1520159 55.2857979,18.8402904 53.1131128,16.1742369 C53.1133177,16.1742369 53.1133177,16.1742369 53.1135226,16.1740305 L58.9501037,10.295919 C59.5502352,9.69172362 59.5502352,8.71176323 58.9501037,8.10736147 C58.3499722,7.50295971 57.3769355,7.50295971 56.776804,8.10736147 L50.9625563,13.9629807 C48.3337795,11.6858986 45.0360272,10.1739657 41.4155685,9.78540692 L41.4155685,1.69934087 C41.4155685,0.844635472 40.7275379,0.151709176 39.8788713,0.151709176 C39.0302046,0.151709176 38.342174,0.844635472 38.342174,1.69934087 L38.342174,9.68450134 L28.5073116,9.68450134 L28.5073116,1.69934087 C28.5073116,0.844635472 27.819281,0.151709176 26.9706144,0.151709176 C26.1219477,0.151709176 25.4339171,0.844635472 25.4339171,1.69934087 L25.4339171,9.76353373 C21.7796511,10.1052508 18.4425593,11.5876756 15.7775165,13.852583 L10.0726817,8.10736147 C9.47275505,7.50295971 8.49971835,7.50295971 7.89958685,8.10736147 C7.29945535,8.71176323 7.29945535,9.69172362 7.89958685,10.295919 L13.6081098,16.0450612 C11.375596,18.7325753 9.92044618,22.0917614 9.59282232,25.7666645 L1.53663578,25.7666645 C0.687969113,25.7666645 -6.14678899e-05,26.4593844 -6.14678899e-05,27.3142962 C-6.14678899e-05,28.1690016 0.687969113,28.8619278 1.53663578,28.8619278 L9.5877,28.8619278 C9.9024156,32.545704 11.3489599,35.9162394 13.5779905,38.613452 L7.89958685,44.3322606 C7.29945535,44.9366623 7.29945535,45.9166227 7.89958685,46.5210245 C8.19955015,46.8231222 8.59294465,46.974171 8.98613425,46.974171 C9.37952875,46.974171 9.77271835,46.8231222 10.0726817,46.5210245 L15.7426847,40.8106763 C18.4134645,43.0922981 21.7636694,44.5868976 25.4339171,44.9300591 L25.4339171,52.9290451 C25.4339171,53.7837505 26.1219477,54.4766768 26.9706144,54.4766768 C27.819281,54.4766768 28.5073116,53.7837505 28.5073116,52.9290451 L28.5073116,45.0090915 L38.342174,45.0090915 L38.342174,52.9290451 C38.342174,53.7837505 39.0302046,54.4766768 39.8788713,54.4766768 C40.7275379,54.4766768 41.4155685,53.7837505 41.4155685,52.9290451 L41.4155685,44.9081859 C45.0520089,44.5179764 48.3628743,42.9942814 50.9973881,40.7002785 L56.776804,46.5210245 C57.0769722,46.8231222 57.4701618,46.974171 57.8635563,46.974171 C58.2567459,46.974171 58.6499355,46.8231222 58.9501037,46.5210245 C59.5502352,45.9166227 59.5502352,44.9366623 58.9501037,44.3322606 L53.1417979,38.4828318 C55.3107948,35.8070798 56.7165654,32.4856559 57.0261587,28.8600707 C57.037018,28.8604834 57.0478774,28.8619278 57.0587367,28.8619278 L65.3128498,28.8619278 C66.1615165,28.8619278 66.8495471,28.1690016 66.8495471,27.3142962 C66.8495471,26.4593844 66.1615165,25.7666645 65.3128498,25.7666645" id="Fill-5" fill="#000000" mask="url(#mask-14)"></path>
                            </g>
                        </g>
                        <g id="Group-8-Copy-2" opacity="0.0946103051" transform="translate(338.567726, 253.237956) rotate(-24.000000) translate(-338.567726, -253.237956) translate(305.067726, 225.999638)">
                            <path d="M27.2383178,24.4205607 C25.6820636,24.4205607 24.4205607,25.682018 24.4205607,27.2382159 C24.4205607,28.7944138 25.6820636,30.0560748 27.2383178,30.0560748 C28.7945719,30.0560748 30.0560748,28.7944138 30.0560748,27.2382159 C30.0560748,25.682018 28.7945719,24.4205607 27.2383178,24.4205607" id="Fill-1" fill="#000000"></path>
                            <path d="M39.7616822,24.4205607 C38.2054281,24.4205607 36.9439252,25.682018 36.9439252,27.2382159 C36.9439252,28.7944138 38.2054281,30.0560748 39.7616822,30.0560748 C41.3179364,30.0560748 42.5794393,28.7944138 42.5794393,27.2382159 C42.5794393,25.682018 41.3179364,24.4205607 39.7616822,24.4205607" id="Fill-3" fill="#000000"></path>
                            <g id="Group-7">
                                <mask id="mask-16" fill="white">
                                    <use xlink:href="#path-15"></use>
                                </mask>
                                <g id="Clip-6"></g>
                                <path d="M49.9153483,37.7779372 C47.1349508,40.5781188 43.4567122,42.120179 39.557804,42.120179 L27.0558498,42.120179 C23.1569416,42.120179 19.4787031,40.5781188 16.6983055,37.7779372 C13.9181128,34.9779619 12.3869477,31.2733444 12.3869477,27.3466932 C12.3869477,23.4202485 13.9181128,19.7156309 16.6983055,16.9154493 C19.4787031,14.115474 23.1569416,12.5734138 27.0558498,12.5734138 L39.557804,12.5734138 C43.4567122,12.5734138 47.1349508,14.115474 49.9153483,16.9156556 C52.695541,19.7156309 54.2267061,23.4202485 54.2267061,27.3468996 C54.2267061,31.2733444 52.695541,34.9779619 49.9153483,37.7779372 M65.3128498,25.7666645 L57.0587367,25.7666645 C57.0460333,25.7666645 57.0337398,25.7681089 57.0210364,25.7685216 C56.6989446,22.1520159 55.2857979,18.8402904 53.1131128,16.1742369 C53.1133177,16.1742369 53.1133177,16.1742369 53.1135226,16.1740305 L58.9501037,10.295919 C59.5502352,9.69172362 59.5502352,8.71176323 58.9501037,8.10736147 C58.3499722,7.50295971 57.3769355,7.50295971 56.776804,8.10736147 L50.9625563,13.9629807 C48.3337795,11.6858986 45.0360272,10.1739657 41.4155685,9.78540692 L41.4155685,1.69934087 C41.4155685,0.844635472 40.7275379,0.151709176 39.8788713,0.151709176 C39.0302046,0.151709176 38.342174,0.844635472 38.342174,1.69934087 L38.342174,9.68450134 L28.5073116,9.68450134 L28.5073116,1.69934087 C28.5073116,0.844635472 27.819281,0.151709176 26.9706144,0.151709176 C26.1219477,0.151709176 25.4339171,0.844635472 25.4339171,1.69934087 L25.4339171,9.76353373 C21.7796511,10.1052508 18.4425593,11.5876756 15.7775165,13.852583 L10.0726817,8.10736147 C9.47275505,7.50295971 8.49971835,7.50295971 7.89958685,8.10736147 C7.29945535,8.71176323 7.29945535,9.69172362 7.89958685,10.295919 L13.6081098,16.0450612 C11.375596,18.7325753 9.92044618,22.0917614 9.59282232,25.7666645 L1.53663578,25.7666645 C0.687969113,25.7666645 -6.14678899e-05,26.4593844 -6.14678899e-05,27.3142962 C-6.14678899e-05,28.1690016 0.687969113,28.8619278 1.53663578,28.8619278 L9.5877,28.8619278 C9.9024156,32.545704 11.3489599,35.9162394 13.5779905,38.613452 L7.89958685,44.3322606 C7.29945535,44.9366623 7.29945535,45.9166227 7.89958685,46.5210245 C8.19955015,46.8231222 8.59294465,46.974171 8.98613425,46.974171 C9.37952875,46.974171 9.77271835,46.8231222 10.0726817,46.5210245 L15.7426847,40.8106763 C18.4134645,43.0922981 21.7636694,44.5868976 25.4339171,44.9300591 L25.4339171,52.9290451 C25.4339171,53.7837505 26.1219477,54.4766768 26.9706144,54.4766768 C27.819281,54.4766768 28.5073116,53.7837505 28.5073116,52.9290451 L28.5073116,45.0090915 L38.342174,45.0090915 L38.342174,52.9290451 C38.342174,53.7837505 39.0302046,54.4766768 39.8788713,54.4766768 C40.7275379,54.4766768 41.4155685,53.7837505 41.4155685,52.9290451 L41.4155685,44.9081859 C45.0520089,44.5179764 48.3628743,42.9942814 50.9973881,40.7002785 L56.776804,46.5210245 C57.0769722,46.8231222 57.4701618,46.974171 57.8635563,46.974171 C58.2567459,46.974171 58.6499355,46.8231222 58.9501037,46.5210245 C59.5502352,45.9166227 59.5502352,44.9366623 58.9501037,44.3322606 L53.1417979,38.4828318 C55.3107948,35.8070798 56.7165654,32.4856559 57.0261587,28.8600707 C57.037018,28.8604834 57.0478774,28.8619278 57.0587367,28.8619278 L65.3128498,28.8619278 C66.1615165,28.8619278 66.8495471,28.1690016 66.8495471,27.3142962 C66.8495471,26.4593844 66.1615165,25.7666645 65.3128498,25.7666645" id="Fill-5" fill="#000000" mask="url(#mask-16)"></path>
                            </g>
                        </g>
                        <g id="Group-8-Copy-3" opacity="0.0946103051" transform="translate(40.214347, 118.712881) rotate(16.000000) translate(-40.214347, -118.712881) translate(6.714347, 91.212881)">
                            <path d="M27.2383178,24.4205607 C25.6820636,24.4205607 24.4205607,25.682018 24.4205607,27.2382159 C24.4205607,28.7944138 25.6820636,30.0560748 27.2383178,30.0560748 C28.7945719,30.0560748 30.0560748,28.7944138 30.0560748,27.2382159 C30.0560748,25.682018 28.7945719,24.4205607 27.2383178,24.4205607" id="Fill-1" fill="#000000"></path>
                            <path d="M39.7616822,24.4205607 C38.2054281,24.4205607 36.9439252,25.682018 36.9439252,27.2382159 C36.9439252,28.7944138 38.2054281,30.0560748 39.7616822,30.0560748 C41.3179364,30.0560748 42.5794393,28.7944138 42.5794393,27.2382159 C42.5794393,25.682018 41.3179364,24.4205607 39.7616822,24.4205607" id="Fill-3" fill="#000000"></path>
                            <g id="Group-7" transform="translate(0.000000, -0.000000)">
                                <mask id="mask-18" fill="white">
                                    <use xlink:href="#path-17"></use>
                                </mask>
                                <g id="Clip-6"></g>
                                <path d="M49.9153483,37.7779372 C47.1349508,40.5781188 43.4567122,42.120179 39.557804,42.120179 L27.0558498,42.120179 C23.1569416,42.120179 19.4787031,40.5781188 16.6983055,37.7779372 C13.9181128,34.9779619 12.3869477,31.2733444 12.3869477,27.3466932 C12.3869477,23.4202485 13.9181128,19.7156309 16.6983055,16.9154493 C19.4787031,14.115474 23.1569416,12.5734138 27.0558498,12.5734138 L39.557804,12.5734138 C43.4567122,12.5734138 47.1349508,14.115474 49.9153483,16.9156556 C52.695541,19.7156309 54.2267061,23.4202485 54.2267061,27.3468996 C54.2267061,31.2733444 52.695541,34.9779619 49.9153483,37.7779372 M65.3128498,25.7666645 L57.0587367,25.7666645 C57.0460333,25.7666645 57.0337398,25.7681089 57.0210364,25.7685216 C56.6989446,22.1520159 55.2857979,18.8402904 53.1131128,16.1742369 C53.1133177,16.1742369 53.1133177,16.1742369 53.1135226,16.1740305 L58.9501037,10.295919 C59.5502352,9.69172362 59.5502352,8.71176323 58.9501037,8.10736147 C58.3499722,7.50295971 57.3769355,7.50295971 56.776804,8.10736147 L50.9625563,13.9629807 C48.3337795,11.6858986 45.0360272,10.1739657 41.4155685,9.78540692 L41.4155685,1.69934087 C41.4155685,0.844635472 40.7275379,0.151709176 39.8788713,0.151709176 C39.0302046,0.151709176 38.342174,0.844635472 38.342174,1.69934087 L38.342174,9.68450134 L28.5073116,9.68450134 L28.5073116,1.69934087 C28.5073116,0.844635472 27.819281,0.151709176 26.9706144,0.151709176 C26.1219477,0.151709176 25.4339171,0.844635472 25.4339171,1.69934087 L25.4339171,9.76353373 C21.7796511,10.1052508 18.4425593,11.5876756 15.7775165,13.852583 L10.0726817,8.10736147 C9.47275505,7.50295971 8.49971835,7.50295971 7.89958685,8.10736147 C7.29945535,8.71176323 7.29945535,9.69172362 7.89958685,10.295919 L13.6081098,16.0450612 C11.375596,18.7325753 9.92044618,22.0917614 9.59282232,25.7666645 L1.53663578,25.7666645 C0.687969113,25.7666645 -6.14678899e-05,26.4593844 -6.14678899e-05,27.3142962 C-6.14678899e-05,28.1690016 0.687969113,28.8619278 1.53663578,28.8619278 L9.5877,28.8619278 C9.9024156,32.545704 11.3489599,35.9162394 13.5779905,38.613452 L7.89958685,44.3322606 C7.29945535,44.9366623 7.29945535,45.9166227 7.89958685,46.5210245 C8.19955015,46.8231222 8.59294465,46.974171 8.98613425,46.974171 C9.37952875,46.974171 9.77271835,46.8231222 10.0726817,46.5210245 L15.7426847,40.8106763 C18.4134645,43.0922981 21.7636694,44.5868976 25.4339171,44.9300591 L25.4339171,52.9290451 C25.4339171,53.7837505 26.1219477,54.4766768 26.9706144,54.4766768 C27.819281,54.4766768 28.5073116,53.7837505 28.5073116,52.9290451 L28.5073116,45.0090915 L38.342174,45.0090915 L38.342174,52.9290451 C38.342174,53.7837505 39.0302046,54.4766768 39.8788713,54.4766768 C40.7275379,54.4766768 41.4155685,53.7837505 41.4155685,52.9290451 L41.4155685,44.9081859 C45.0520089,44.5179764 48.3628743,42.9942814 50.9973881,40.7002785 L56.776804,46.5210245 C57.0769722,46.8231222 57.4701618,46.974171 57.8635563,46.974171 C58.2567459,46.974171 58.6499355,46.8231222 58.9501037,46.5210245 C59.5502352,45.9166227 59.5502352,44.9366623 58.9501037,44.3322606 L53.1417979,38.4828318 C55.3107948,35.8070798 56.7165654,32.4856559 57.0261587,28.8600707 C57.037018,28.8604834 57.0478774,28.8619278 57.0587367,28.8619278 L65.3128498,28.8619278 C66.1615165,28.8619278 66.8495471,28.1690016 66.8495471,27.3142962 C66.8495471,26.4593844 66.1615165,25.7666645 65.3128498,25.7666645" id="Fill-5" fill="#000000" mask="url(#mask-18)"></path>
                            </g>
                        </g>
                        <g id="Group-11" transform="translate(37.000000, 6.000000)" opacity="0.515183222" stroke="#FFFFFF" stroke-opacity="0.263020833" stroke-width="2">
                            <circle id="Oval" cx="250" cy="26" r="26"></circle>
                            <circle id="Oval-Copy" cx="298" cy="163" r="8"></circle>
                            <circle id="Oval-Copy-6" cx="386" cy="129" r="14"></circle>
                            <circle id="Oval-Copy-2" cx="108" cy="108" r="14"></circle>
                            <circle id="Oval-Copy-3" cx="389" cy="239" r="14"></circle>
                            <circle id="Oval-Copy-4" cx="252" cy="313" r="8"></circle>
                            <circle id="Oval-Copy-5" cx="11" cy="19" r="11"></circle>
                        </g>
                    </g>
                </g>
            </g>
            <g id="Page"></g>
        </g>
    </g>
</svg>