<?xml version="1.0" encoding="UTF-8"?>
<svg width="503px" height="366px" viewBox="0 0 503 366" version="1.1" xmlns="http://www.w3.org/2000/svg" xmlns:xlink="http://www.w3.org/1999/xlink">
    <!-- Generator: Sketch 52.2 (67145) - http://www.bohemiancoding.com/sketch -->
    <title>Group 21</title>
    <desc>Created with Sketch.</desc>
    <defs>
        <polygon id="path-1" points="3.51897313e-06 0.243623188 67.8632775 0.243623188 67.8632775 71.499956 3.51897313e-06 71.499956"></polygon>
        <polygon id="path-3" points="3.51897313e-06 0.243623188 77.8632776 0.243623188 77.8632776 81.9999406 3.51897313e-06 81.9999406"></polygon>
        <polygon id="path-5" points="2.96975688e-06 0.205600217 65.710932 0.205600217 65.710932 69.2019741 2.96975688e-06 69.2019741"></polygon>
        <polygon id="path-7" points="3.51897313e-06 0.243623188 77.7632775 0.243623188 77.7632775 81.8949407 3.51897313e-06 81.8949407"></polygon>
    </defs>
    <g id="Page-1" stroke="none" stroke-width="1" fill="none" fill-rule="evenodd">
        <g id="Homepage" transform="translate(-190.000000, -522.000000)">
            <g id="fronteers" transform="translate(190.000000, 123.000000)">
                <g id="Group-16" transform="translate(0.000000, 399.000000)">
                    <g id="Group-21" transform="translate(-32.000000, -33.000000)">
                        <g id="Group-15">
                            <g id="Group-8" opacity="0.049999997" transform="translate(432.000000, 64.000000)" fill="#000000">
                                <path d="M46.4998538,39.0767967 C42.3220117,39.0767967 38.9232033,35.677696 38.9232033,31.4998538 C38.9232033,27.3220117 42.3220117,23.9232033 46.4998538,23.9232033 C50.677696,23.9232033 54.0767967,27.3220117 54.0767967,31.4998538 C54.0767967,35.677696 50.677696,39.0767967 46.4998538,39.0767967 M46.4998538,21 C40.7101574,21 36,25.7101574 36,31.4998538 C36,37.2898426 40.7101574,42 46.4998538,42 C52.2898426,42 57,37.2898426 57,31.4998538 C57,25.7101574 52.2898426,21 46.4998538,21" id="Fill-1"></path>
                                <path d="M24.5001502,59.9957668 C23.1239861,59.9957668 22.0040691,58.876089 22.0040691,57.4998498 C22.0040691,56.1236105 23.1239861,55.0042332 24.5001502,55.0042332 C25.8763143,55.0042332 26.9959309,56.1236105 26.9959309,57.4998498 C26.9959309,58.876089 25.8763143,59.9957668 24.5001502,59.9957668 M24.5001502,52 C21.467242,52 19,54.4673768 19,57.4998498 C19,60.5326232 21.467242,63 24.5001502,63 C27.532758,63 30,60.5326232 30,57.4998498 C30,54.4673768 27.532758,52 24.5001502,52" id="Fill-3"></path>
                                <g id="Group-7">
                                    <path d="M59.419362,50.0639116 C55.8755521,54.9803464 51.4529817,58.4778246 49.5643734,59.9719478 C42.3225331,65.7009551 34.8312707,68.8558754 28.4708601,68.8558754 L28.4690806,68.8558754 C26.2079703,68.8558754 24.0500692,68.4550855 22.0558791,67.6650928 C19.4456966,66.6308826 16.7391262,64.8277739 14.8155217,62.8428391 C13.3293696,61.3089043 11.5668068,58.9020855 11.6115901,56.1485493 C11.6394684,54.4262522 12.3465103,52.6270058 13.7137346,50.8004261 C14.8819551,49.2400493 16.1050426,48.2554551 16.2405787,48.1484986 C18.0304266,46.7345928 19.365324,46.5049333 21.0558183,46.2143681 C23.0995369,45.8631942 25.6426928,45.4264551 27.9669741,42.9394188 C31.904343,38.725629 30.8188677,33.4116725 29.9469285,29.1417304 C29.2247612,25.6062232 28.6010578,22.5523174 29.9771795,19.8849406 C32.0980084,15.7721652 38.5693392,13.6205565 43.8659247,13.6205565 C44.4534456,13.6205565 45.0261376,13.6458101 45.5682821,13.6957232 C51.2705863,14.2162449 55.3974684,17.4656435 57.8555065,20.100042 C61.1205331,23.5998971 63.4335445,28.1722884 64.2010882,32.6451507 C65.193438,38.4255565 63.5845027,44.2861797 59.419362,50.0639116 M76.4912783,35.8372087 L67.7736662,35.1797232 C67.6594837,35.1719986 67.5482669,35.1803174 67.4397194,35.1975493 C67.4038335,34.1787884 67.2988449,33.1600275 67.1241605,32.1418609 C66.7765711,30.1165203 66.1451567,28.0766217 65.2815217,26.1050565 C65.4099399,26.0836652 65.5380616,26.0468246 65.6623278,25.989187 L73.5364722,22.3268174 C74.2791034,21.9812884 74.6017802,21.0980058 74.2568601,20.3537667 C73.9119399,19.6095275 73.0302137,19.2865783 72.2875825,19.6318101 L64.413438,23.2941797 C64.2624798,23.3645928 64.133765,23.4614478 64.0198791,23.5704841 C62.9080084,21.587629 61.5612479,19.7206435 60.0223049,18.0714333 C59.4235141,17.4296942 58.7360464,16.7558681 57.9619779,16.0867957 C58.1304342,15.9955855 58.2849513,15.8722884 58.4121833,15.7136362 L63.8493468,8.95249855 C64.3630198,8.31373043 64.2624798,7.37845507 63.6248373,6.86387536 C62.9866015,6.34870145 62.0535673,6.44941884 61.5395977,7.08878116 L56.1027308,13.8496217 C55.9615597,14.0255058 55.8711034,14.2242667 55.8209817,14.430158 C53.5761833,12.8828536 50.8144494,11.5503536 47.5411186,10.9671435 C47.6689437,10.7639261 47.7540616,10.5307014 47.7703734,10.2740058 L48.3042137,1.82295507 C48.3558183,1.00414348 47.7353772,0.298527536 46.9180084,0.246534783 C46.1036053,0.194244928 45.3962669,0.816672464 45.3443658,1.63548406 L44.8102289,10.0865348 C44.7971795,10.292129 44.8268373,10.4902957 44.8911947,10.6727159 C44.5545787,10.6575638 44.2123278,10.649542 43.8659247,10.649542 C41.0988525,10.649542 38.2297574,11.1427304 35.6613924,12.0488899 C35.6403354,11.8929116 35.6008905,11.7375275 35.5276357,11.5886797 L31.7782973,3.98228841 C31.4155825,3.24666522 30.5267384,2.94451304 29.7921148,3.30816522 C29.0577878,3.67152029 28.7561681,4.56252754 29.1188829,5.29785362 L32.8685179,12.9042449 C32.9177498,13.004071 32.9791414,13.0932014 33.0455749,13.1760928 C30.4641605,14.5154261 28.5361072,16.2947667 27.4153392,18.3881435 L19.485438,17.5307087 C18.6716281,17.4383101 17.9399703,18.032513 17.8521833,18.8483536 C17.7640996,19.6638971 18.3528068,20.3965493 19.1672099,20.4841942 L26.4043049,21.2664623 C25.8796586,24.0491145 26.4677726,26.9292159 27.0413544,29.7371217 C27.2148525,30.5859406 27.3892403,31.4409986 27.5283354,32.2913029 L20.6972555,32.7375493 C19.8798867,32.7907304 19.2606319,33.4975348 19.3137194,34.3163464 C19.3647308,35.1021797 20.0172023,35.7052957 20.7921605,35.7052957 C20.8244875,35.7052957 20.8574076,35.7044043 20.8900312,35.7020275 L27.8127536,35.2501362 C27.8260996,37.3093464 27.3477194,39.2544696 25.8016586,40.9090275 C24.1589133,42.6669768 22.4082137,42.9676435 20.5537118,43.2864333 C19.6432175,43.4430058 18.7173011,43.6031435 17.7282137,43.9477812 L16.0320844,38.0351652 C15.806092,37.246658 14.9848677,36.7909043 14.1974532,37.0175928 C13.4100388,37.2442812 12.9553848,38.0669551 13.1816738,38.8554623 L15.0424038,45.3426725 C14.8330198,45.4897377 14.6212631,45.6439333 14.4044646,45.8150638 C14.1325027,46.0301652 12.7059627,47.1945058 11.341111,49.0181145 C10.5148449,50.1218464 9.87927833,51.2356797 9.43144563,52.3524841 L2.04487529,49.3250203 C1.28682205,49.0154406 0.420814449,49.3782014 0.110593916,50.1372957 C-0.19903346,50.896687 0.163681369,51.7642232 0.921734601,52.0749913 L8.51442662,55.1868319 C8.5752251,55.2114913 8.63720989,55.2257522 8.6988981,55.2420928 C8.66894373,55.5284986 8.65085247,55.8146072 8.6464038,56.1004188 C8.61051787,58.3123391 9.36263954,60.2910348 10.3677422,61.9420275 C10.0667156,61.946187 9.76390951,62.0379913 9.50381065,62.2317014 L2.56744563,67.3962159 C1.90993232,67.8852449 1.77320989,68.8160638 2.26167376,69.4744406 C2.55261673,69.8666145 3.00015285,70.0739913 3.45302738,70.0739913 C3.76057871,70.0739913 4.07079924,69.9783246 4.3362365,69.7804551 L11.2728981,64.6159406 C11.5208373,64.4314406 11.6943354,64.1842522 11.7883506,63.9127014 C12.0899703,64.2718971 12.393073,64.6079188 12.6875749,64.9121507 C14.4139551,66.6938681 16.6895977,68.3439696 19.0293011,69.5442594 C18.8282213,69.7043971 18.6624342,69.9141507 18.5642669,70.1720348 L15.4706624,78.2944913 C15.1788297,79.061013 15.5626015,79.9193391 16.3277726,80.2119841 C16.5018639,80.2782377 16.6804038,80.3097304 16.8559779,80.3097304 C17.4532859,80.3097304 18.0161909,79.9454841 18.2418867,79.3533609 L21.3354913,71.2309043 C21.4149741,71.022042 21.4401833,70.8066435 21.425651,70.597187 C23.638419,71.4100565 26.0039247,71.8268899 28.4690806,71.8268899 L28.4708601,71.8268899 C29.0978259,71.8268899 29.7339856,71.7986652 30.3775597,71.7454841 C30.3808221,71.8236217 30.3852707,71.9023536 30.4009894,71.9813826 L32.1822365,80.8082667 C32.3245939,81.5132884 32.9429589,81.9999406 33.6342821,81.9999406 C33.7315597,81.9999406 33.8303202,81.9904333 33.9293772,81.9702304 C34.7322137,81.8077159 35.2515217,81.0239623 35.088997,80.2200058 L33.3077498,71.3931217 C33.3035977,71.3729188 33.2947004,71.3547957 33.2896586,71.3345928 C36.3877118,70.7237522 39.6215977,69.5502014 42.8839551,67.8611797 L47.1638715,75.2497957 C47.4387992,75.7248609 47.9361605,75.9901725 48.4477574,75.9901725 C48.7001452,75.9901725 48.9563886,75.9254043 49.1906852,75.7890348 C49.8986167,75.3772522 50.1400312,74.4684188 49.7286776,73.7586435 L45.4751567,66.4157812 C47.4592631,65.2273754 49.4427764,63.8535783 51.4022669,62.3036 C52.0885483,61.7607957 53.0980996,60.9604043 54.2752175,59.9357014 L59.9048601,66.201571 C60.1975825,66.5274913 60.6018183,66.693571 61.0075369,66.693571 C61.3610578,66.693571 61.715765,66.5676 61.998997,66.3120928 C62.6078715,65.7633464 62.6571034,64.8242087 62.109324,64.2142594 L56.4639627,57.9302667 C58.2090274,56.244513 60.1047536,54.188571 61.8237194,51.8034406 C62.2937954,51.1513029 62.733324,50.4976797 63.1446776,49.8422739 L70.3562669,54.2670058 C70.5976814,54.4152594 70.8651947,54.4862667 71.129149,54.4862667 C71.6282897,54.4862667 72.1155673,54.2337304 72.3952403,53.7761942 C72.8229057,53.0768174 72.6037346,52.162042 71.9052935,51.7336217 L64.6106624,47.2577884 C66.1481224,44.2279478 67.0639551,41.1716652 67.3528221,38.1073609 C67.4180692,38.1216217 67.4824266,38.1373681 67.5512327,38.1427159 L76.2688449,38.8002014 C76.3065103,38.8028754 76.3441757,38.8043609 76.3815445,38.8043609 C77.1502745,38.8043609 77.8003734,38.2104551 77.8590958,37.4302667 C77.9204875,36.6123464 77.308054,35.8990058 76.4912783,35.8372087" id="Fill-5"></path>
                                </g>
                            </g>
                            <g id="Group-9" opacity="0.214541481" transform="translate(297.000000, 0.000000)" fill="#000000">
                                <path d="M99.9,200.968571 C99.9,220.822245 84.2520968,236.917143 64.9498075,236.917143 C45.6475182,236.917143 30,220.822245 30,200.968571 L39.8969908,200.968571 L42.6288282,209.615618 L58.8462011,209.615618 L61.5780386,200.968571 L69.6719011,200.968571 L74.2665475,209.153445 L88.0616527,209.153445 L92.6562991,200.968571 L99.9,200.968571 Z M97.0930804,203.740822 L94.2122336,203.740822 L90.395747,210.53957 L89.6179722,211.925696 L88.0616527,211.925696 L74.2665475,211.925696 L72.710228,211.925696 L71.9320682,210.53957 L68.1159666,203.740822 L63.5363367,203.740822 L61.4093924,210.47264 L60.8044993,212.38787 L58.8462011,212.38787 L42.6288282,212.38787 L40.6705301,212.38787 L40.065637,210.47264 L37.9386926,203.740822 L32.8065346,203.740822 C34.1803466,220.74185 48.0720961,234.144892 64.9498075,234.144892 C81.8275189,234.144892 95.7196534,220.74185 97.0930804,203.740822 Z M78.1664544,179 L91.6471687,181.946922 L95.9057143,195.427834 L86.6843149,205.961429 L73.2036006,203.014507 L68.9442857,189.533594 L78.1664544,179 Z M79.1269448,182.041078 L71.9857743,190.19862 L75.2838295,200.638059 L85.7234399,202.919955 L92.8646104,194.762808 L89.5669398,184.32337 L79.1269448,182.041078 Z M46.9682544,179 L61.9542857,185.814646 L60.2394488,202.478326 L44.1936693,205.961429 L35.9914286,191.451417 L46.9682544,179 Z M47.6689112,182.366549 L39.342819,191.811422 L45.5646041,202.817248 L57.7355454,200.175086 L59.0355966,187.535909 L47.6689112,182.366549 Z" id="Combined-Shape" opacity="0.336216518" transform="translate(64.950000, 207.958571) rotate(-13.000000) translate(-64.950000, -207.958571) "></path>
                                <path d="M68.5178411,30.8941277 C68.5178411,47.9359079 55.0861645,61.7512706 38.5176758,61.7512706 C21.9491872,61.7512706 8.51784107,47.9359079 8.51784107,30.8941277 L17.0131121,30.8941277 L19.3580369,38.3164857 L33.2785287,38.3164857 L35.6234536,30.8941277 L42.5709751,30.8941277 L46.5148776,37.91977 L58.3561696,37.91977 L62.3000721,30.8941277 L68.5178411,30.8941277 Z M66.108468,33.2737424 L63.6356382,33.2737424 L60.359684,39.1095773 L59.6920662,40.2993846 L58.3561696,40.2993846 L46.5148776,40.2993846 L45.178981,40.2993846 L44.5110327,39.1095773 L41.235409,33.2737424 L37.3043962,33.2737424 L35.4786929,39.0521266 L34.9594713,40.6961004 L33.2785287,40.6961004 L19.3580369,40.6961004 L17.6770944,40.6961004 L17.1578728,39.0521266 L15.3321695,33.2737424 L10.9268837,33.2737424 C12.1061214,47.8668991 24.0303699,59.371656 38.5176758,59.371656 C53.0049817,59.371656 64.9295607,47.8668991 66.108468,33.2737424 Z M49.8624372,12.0369849 L61.4338657,14.5665317 L65.0892696,26.13813 L57.1739053,35.179842 L45.6024768,32.6502952 L41.9464125,21.0786969 L49.8624372,12.0369849 Z M50.6868924,14.6473522 L44.5571323,21.6495343 L47.388081,30.6104258 L56.34912,32.5691351 L62.47888,25.5672926 L59.6482615,16.6064011 L50.6868924,14.6473522 Z M23.0828663,12.0369849 L35.9464125,17.8864661 L34.4744495,32.1900541 L20.7012482,35.179842 L13.6606982,22.7248963 L23.0828663,12.0369849 Z M23.6842884,14.9267262 L16.5374282,23.0339139 L21.8780163,32.4809745 L32.3251762,30.2130244 L33.4411,19.3639458 L23.6842884,14.9267262 Z" id="Combined-Shape-Copy" opacity="0.336216518" transform="translate(38.517841, 36.894128) rotate(-28.000000) translate(-38.517841, -36.894128) "></path>
                                <path d="M213.517841,366.894128 C213.517841,383.935908 200.086164,397.751271 183.517676,397.751271 C166.949187,397.751271 153.517841,383.935908 153.517841,366.894128 L162.013112,366.894128 L164.358037,374.316486 L178.278529,374.316486 L180.623454,366.894128 L187.570975,366.894128 L191.514878,373.91977 L203.35617,373.91977 L207.300072,366.894128 L213.517841,366.894128 Z M211.108468,369.273742 L208.635638,369.273742 L205.359684,375.109577 L204.692066,376.299385 L203.35617,376.299385 L191.514878,376.299385 L190.178981,376.299385 L189.511033,375.109577 L186.235409,369.273742 L182.304396,369.273742 L180.478693,375.052127 L179.959471,376.6961 L178.278529,376.6961 L164.358037,376.6961 L162.677094,376.6961 L162.157873,375.052127 L160.33217,369.273742 L155.926884,369.273742 C157.106121,383.866899 169.03037,395.371656 183.517676,395.371656 C198.004982,395.371656 209.929561,383.866899 211.108468,369.273742 Z M194.862437,348.036985 L206.433866,350.566532 L210.08927,362.13813 L202.173905,371.179842 L190.602477,368.650295 L186.946412,357.078697 L194.862437,348.036985 Z M195.686892,350.647352 L189.557132,357.649534 L192.388081,366.610426 L201.34912,368.569135 L207.47888,361.567293 L204.648261,352.606401 L195.686892,350.647352 Z M168.082866,348.036985 L180.946412,353.886466 L179.474449,368.190054 L165.701248,371.179842 L158.660698,358.724896 L168.082866,348.036985 Z M168.684288,350.926726 L161.537428,359.033914 L166.878016,368.480975 L177.325176,366.213024 L178.4411,355.363946 L168.684288,350.926726 Z" id="Combined-Shape-Copy-2" opacity="0.336216518" transform="translate(183.517841, 372.894128) rotate(29.000000) translate(-183.517841, -372.894128) "></path>
                            </g>
                            <g id="Group-8-Copy-6" opacity="0.0453636533" transform="translate(227.182593, 115.499921) rotate(55.000000) translate(-227.182593, -115.499921) translate(193.182593, 79.499921)">
                                <path d="M46.4998538,39.0767967 C42.3220117,39.0767967 38.9232033,35.677696 38.9232033,31.4998538 C38.9232033,27.3220117 42.3220117,23.9232033 46.4998538,23.9232033 C50.677696,23.9232033 54.0767967,27.3220117 54.0767967,31.4998538 C54.0767967,35.677696 50.677696,39.0767967 46.4998538,39.0767967 M46.4998538,21 C40.7101574,21 36,25.7101574 36,31.4998538 C36,37.2898426 40.7101574,42 46.4998538,42 C52.2898426,42 57,37.2898426 57,31.4998538 C57,25.7101574 52.2898426,21 46.4998538,21" id="Fill-1" fill="#000000"></path>
                                <path d="M24.5001502,59.9957668 C23.1239861,59.9957668 22.0040691,58.876089 22.0040691,57.4998498 C22.0040691,56.1236105 23.1239861,55.0042332 24.5001502,55.0042332 C25.8763143,55.0042332 26.9959309,56.1236105 26.9959309,57.4998498 C26.9959309,58.876089 25.8763143,59.9957668 24.5001502,59.9957668 M24.5001502,52 C21.467242,52 19,54.4673768 19,57.4998498 C19,60.5326232 21.467242,63 24.5001502,63 C27.532758,63 30,60.5326232 30,57.4998498 C30,54.4673768 27.532758,52 24.5001502,52" id="Fill-3" fill="#000000"></path>
                                <g id="Group-7">
                                    <mask id="mask-2" fill="white">
                                        <use xlink:href="#path-1"></use>
                                    </mask>
                                    <g id="Clip-6"></g>
                                    <path d="M59.419362,50.0639116 C55.8755521,54.9803464 51.4529817,58.4778246 49.5643734,59.9719478 C42.3225331,65.7009551 34.8312707,68.8558754 28.4708601,68.8558754 L28.4690806,68.8558754 C26.2079703,68.8558754 24.0500692,68.4550855 22.0558791,67.6650928 C19.4456966,66.6308826 16.7391262,64.8277739 14.8155217,62.8428391 C13.3293696,61.3089043 11.5668068,58.9020855 11.6115901,56.1485493 C11.6394684,54.4262522 12.3465103,52.6270058 13.7137346,50.8004261 C14.8819551,49.2400493 16.1050426,48.2554551 16.2405787,48.1484986 C18.0304266,46.7345928 19.365324,46.5049333 21.0558183,46.2143681 C23.0995369,45.8631942 25.6426928,45.4264551 27.9669741,42.9394188 C31.904343,38.725629 30.8188677,33.4116725 29.9469285,29.1417304 C29.2247612,25.6062232 28.6010578,22.5523174 29.9771795,19.8849406 C32.0980084,15.7721652 38.5693392,13.6205565 43.8659247,13.6205565 C44.4534456,13.6205565 45.0261376,13.6458101 45.5682821,13.6957232 C51.2705863,14.2162449 55.3974684,17.4656435 57.8555065,20.100042 C61.1205331,23.5998971 63.4335445,28.1722884 64.2010882,32.6451507 C65.193438,38.4255565 63.5845027,44.2861797 59.419362,50.0639116 M76.4912783,35.8372087 L67.7736662,35.1797232 C67.6594837,35.1719986 67.5482669,35.1803174 67.4397194,35.1975493 C67.4038335,34.1787884 67.2988449,33.1600275 67.1241605,32.1418609 C66.7765711,30.1165203 66.1451567,28.0766217 65.2815217,26.1050565 C65.4099399,26.0836652 65.5380616,26.0468246 65.6623278,25.989187 L73.5364722,22.3268174 C74.2791034,21.9812884 74.6017802,21.0980058 74.2568601,20.3537667 C73.9119399,19.6095275 73.0302137,19.2865783 72.2875825,19.6318101 L64.413438,23.2941797 C64.2624798,23.3645928 64.133765,23.4614478 64.0198791,23.5704841 C62.9080084,21.587629 61.5612479,19.7206435 60.0223049,18.0714333 C59.4235141,17.4296942 58.7360464,16.7558681 57.9619779,16.0867957 C58.1304342,15.9955855 58.2849513,15.8722884 58.4121833,15.7136362 L63.8493468,8.95249855 C64.3630198,8.31373043 64.2624798,7.37845507 63.6248373,6.86387536 C62.9866015,6.34870145 62.0535673,6.44941884 61.5395977,7.08878116 L56.1027308,13.8496217 C55.9615597,14.0255058 55.8711034,14.2242667 55.8209817,14.430158 C53.5761833,12.8828536 50.8144494,11.5503536 47.5411186,10.9671435 C47.6689437,10.7639261 47.7540616,10.5307014 47.7703734,10.2740058 L48.3042137,1.82295507 C48.3558183,1.00414348 47.7353772,0.298527536 46.9180084,0.246534783 C46.1036053,0.194244928 45.3962669,0.816672464 45.3443658,1.63548406 L44.8102289,10.0865348 C44.7971795,10.292129 44.8268373,10.4902957 44.8911947,10.6727159 C44.5545787,10.6575638 44.2123278,10.649542 43.8659247,10.649542 C41.0988525,10.649542 38.2297574,11.1427304 35.6613924,12.0488899 C35.6403354,11.8929116 35.6008905,11.7375275 35.5276357,11.5886797 L31.7782973,3.98228841 C31.4155825,3.24666522 30.5267384,2.94451304 29.7921148,3.30816522 C29.0577878,3.67152029 28.7561681,4.56252754 29.1188829,5.29785362 L32.8685179,12.9042449 C32.9177498,13.004071 32.9791414,13.0932014 33.0455749,13.1760928 C30.4641605,14.5154261 28.5361072,16.2947667 27.4153392,18.3881435 L19.485438,17.5307087 C18.6716281,17.4383101 17.9399703,18.032513 17.8521833,18.8483536 C17.7640996,19.6638971 18.3528068,20.3965493 19.1672099,20.4841942 L26.4043049,21.2664623 C25.8796586,24.0491145 26.4677726,26.9292159 27.0413544,29.7371217 C27.2148525,30.5859406 27.3892403,31.4409986 27.5283354,32.2913029 L20.6972555,32.7375493 C19.8798867,32.7907304 19.2606319,33.4975348 19.3137194,34.3163464 C19.3647308,35.1021797 20.0172023,35.7052957 20.7921605,35.7052957 C20.8244875,35.7052957 20.8574076,35.7044043 20.8900312,35.7020275 L27.8127536,35.2501362 C27.8260996,37.3093464 27.3477194,39.2544696 25.8016586,40.9090275 C24.1589133,42.6669768 22.4082137,42.9676435 20.5537118,43.2864333 C19.6432175,43.4430058 18.7173011,43.6031435 17.7282137,43.9477812 L16.0320844,38.0351652 C15.806092,37.246658 14.9848677,36.7909043 14.1974532,37.0175928 C13.4100388,37.2442812 12.9553848,38.0669551 13.1816738,38.8554623 L15.0424038,45.3426725 C14.8330198,45.4897377 14.6212631,45.6439333 14.4044646,45.8150638 C14.1325027,46.0301652 12.7059627,47.1945058 11.341111,49.0181145 C10.5148449,50.1218464 9.87927833,51.2356797 9.43144563,52.3524841 L2.04487529,49.3250203 C1.28682205,49.0154406 0.420814449,49.3782014 0.110593916,50.1372957 C-0.19903346,50.896687 0.163681369,51.7642232 0.921734601,52.0749913 L8.51442662,55.1868319 C8.5752251,55.2114913 8.63720989,55.2257522 8.6988981,55.2420928 C8.66894373,55.5284986 8.65085247,55.8146072 8.6464038,56.1004188 C8.61051787,58.3123391 9.36263954,60.2910348 10.3677422,61.9420275 C10.0667156,61.946187 9.76390951,62.0379913 9.50381065,62.2317014 L2.56744563,67.3962159 C1.90993232,67.8852449 1.77320989,68.8160638 2.26167376,69.4744406 C2.55261673,69.8666145 3.00015285,70.0739913 3.45302738,70.0739913 C3.76057871,70.0739913 4.07079924,69.9783246 4.3362365,69.7804551 L11.2728981,64.6159406 C11.5208373,64.4314406 11.6943354,64.1842522 11.7883506,63.9127014 C12.0899703,64.2718971 12.393073,64.6079188 12.6875749,64.9121507 C14.4139551,66.6938681 16.6895977,68.3439696 19.0293011,69.5442594 C18.8282213,69.7043971 18.6624342,69.9141507 18.5642669,70.1720348 L15.4706624,78.2944913 C15.1788297,79.061013 15.5626015,79.9193391 16.3277726,80.2119841 C16.5018639,80.2782377 16.6804038,80.3097304 16.8559779,80.3097304 C17.4532859,80.3097304 18.0161909,79.9454841 18.2418867,79.3533609 L21.3354913,71.2309043 C21.4149741,71.022042 21.4401833,70.8066435 21.425651,70.597187 C23.638419,71.4100565 26.0039247,71.8268899 28.4690806,71.8268899 L28.4708601,71.8268899 C29.0978259,71.8268899 29.7339856,71.7986652 30.3775597,71.7454841 C30.3808221,71.8236217 30.3852707,71.9023536 30.4009894,71.9813826 L32.1822365,80.8082667 C32.3245939,81.5132884 32.9429589,81.9999406 33.6342821,81.9999406 C33.7315597,81.9999406 33.8303202,81.9904333 33.9293772,81.9702304 C34.7322137,81.8077159 35.2515217,81.0239623 35.088997,80.2200058 L33.3077498,71.3931217 C33.3035977,71.3729188 33.2947004,71.3547957 33.2896586,71.3345928 C36.3877118,70.7237522 39.6215977,69.5502014 42.8839551,67.8611797 L47.1638715,75.2497957 C47.4387992,75.7248609 47.9361605,75.9901725 48.4477574,75.9901725 C48.7001452,75.9901725 48.9563886,75.9254043 49.1906852,75.7890348 C49.8986167,75.3772522 50.1400312,74.4684188 49.7286776,73.7586435 L45.4751567,66.4157812 C47.4592631,65.2273754 49.4427764,63.8535783 51.4022669,62.3036 C52.0885483,61.7607957 53.0980996,60.9604043 54.2752175,59.9357014 L59.9048601,66.201571 C60.1975825,66.5274913 60.6018183,66.693571 61.0075369,66.693571 C61.3610578,66.693571 61.715765,66.5676 61.998997,66.3120928 C62.6078715,65.7633464 62.6571034,64.8242087 62.109324,64.2142594 L56.4639627,57.9302667 C58.2090274,56.244513 60.1047536,54.188571 61.8237194,51.8034406 C62.2937954,51.1513029 62.733324,50.4976797 63.1446776,49.8422739 L70.3562669,54.2670058 C70.5976814,54.4152594 70.8651947,54.4862667 71.129149,54.4862667 C71.6282897,54.4862667 72.1155673,54.2337304 72.3952403,53.7761942 C72.8229057,53.0768174 72.6037346,52.162042 71.9052935,51.7336217 L64.6106624,47.2577884 C66.1481224,44.2279478 67.0639551,41.1716652 67.3528221,38.1073609 C67.4180692,38.1216217 67.4824266,38.1373681 67.5512327,38.1427159 L76.2688449,38.8002014 C76.3065103,38.8028754 76.3441757,38.8043609 76.3815445,38.8043609 C77.1502745,38.8043609 77.8003734,38.2104551 77.8590958,37.4302667 C77.9204875,36.6123464 77.308054,35.8990058 76.4912783,35.8372087" id="Fill-5" fill="#000000" mask="url(#mask-2)"></path>
                                </g>
                            </g>
                            <g id="Group-8-Copy-7" opacity="0.0453636533" transform="translate(465.326552, 271.971258) rotate(8.000000) translate(-465.326552, -271.971258) translate(426.326552, 230.971258)">
                                <path d="M46.4998538,39.0767967 C42.3220117,39.0767967 38.9232033,35.677696 38.9232033,31.4998538 C38.9232033,27.3220117 42.3220117,23.9232033 46.4998538,23.9232033 C50.677696,23.9232033 54.0767967,27.3220117 54.0767967,31.4998538 C54.0767967,35.677696 50.677696,39.0767967 46.4998538,39.0767967 M46.4998538,21 C40.7101574,21 36,25.7101574 36,31.4998538 C36,37.2898426 40.7101574,42 46.4998538,42 C52.2898426,42 57,37.2898426 57,31.4998538 C57,25.7101574 52.2898426,21 46.4998538,21" id="Fill-1" fill="#000000"></path>
                                <path d="M24.5001502,59.9957668 C23.1239861,59.9957668 22.0040691,58.876089 22.0040691,57.4998498 C22.0040691,56.1236105 23.1239861,55.0042332 24.5001502,55.0042332 C25.8763143,55.0042332 26.9959309,56.1236105 26.9959309,57.4998498 C26.9959309,58.876089 25.8763143,59.9957668 24.5001502,59.9957668 M24.5001502,52 C21.467242,52 19,54.4673768 19,57.4998498 C19,60.5326232 21.467242,63 24.5001502,63 C27.532758,63 30,60.5326232 30,57.4998498 C30,54.4673768 27.532758,52 24.5001502,52" id="Fill-3" fill="#000000"></path>
                                <g id="Group-7">
                                    <mask id="mask-4" fill="white">
                                        <use xlink:href="#path-3"></use>
                                    </mask>
                                    <g id="Clip-6"></g>
                                    <path d="M59.419362,50.0639116 C55.8755521,54.9803464 51.4529817,58.4778246 49.5643734,59.9719478 C42.3225331,65.7009551 34.8312707,68.8558754 28.4708601,68.8558754 L28.4690806,68.8558754 C26.2079703,68.8558754 24.0500692,68.4550855 22.0558791,67.6650928 C19.4456966,66.6308826 16.7391262,64.8277739 14.8155217,62.8428391 C13.3293696,61.3089043 11.5668068,58.9020855 11.6115901,56.1485493 C11.6394684,54.4262522 12.3465103,52.6270058 13.7137346,50.8004261 C14.8819551,49.2400493 16.1050426,48.2554551 16.2405787,48.1484986 C18.0304266,46.7345928 19.365324,46.5049333 21.0558183,46.2143681 C23.0995369,45.8631942 25.6426928,45.4264551 27.9669741,42.9394188 C31.904343,38.725629 30.8188677,33.4116725 29.9469285,29.1417304 C29.2247612,25.6062232 28.6010578,22.5523174 29.9771795,19.8849406 C32.0980084,15.7721652 38.5693392,13.6205565 43.8659247,13.6205565 C44.4534456,13.6205565 45.0261376,13.6458101 45.5682821,13.6957232 C51.2705863,14.2162449 55.3974684,17.4656435 57.8555065,20.100042 C61.1205331,23.5998971 63.4335445,28.1722884 64.2010882,32.6451507 C65.193438,38.4255565 63.5845027,44.2861797 59.419362,50.0639116 M76.4912783,35.8372087 L67.7736662,35.1797232 C67.6594837,35.1719986 67.5482669,35.1803174 67.4397194,35.1975493 C67.4038335,34.1787884 67.2988449,33.1600275 67.1241605,32.1418609 C66.7765711,30.1165203 66.1451567,28.0766217 65.2815217,26.1050565 C65.4099399,26.0836652 65.5380616,26.0468246 65.6623278,25.989187 L73.5364722,22.3268174 C74.2791034,21.9812884 74.6017802,21.0980058 74.2568601,20.3537667 C73.9119399,19.6095275 73.0302137,19.2865783 72.2875825,19.6318101 L64.413438,23.2941797 C64.2624798,23.3645928 64.133765,23.4614478 64.0198791,23.5704841 C62.9080084,21.587629 61.5612479,19.7206435 60.0223049,18.0714333 C59.4235141,17.4296942 58.7360464,16.7558681 57.9619779,16.0867957 C58.1304342,15.9955855 58.2849513,15.8722884 58.4121833,15.7136362 L63.8493468,8.95249855 C64.3630198,8.31373043 64.2624798,7.37845507 63.6248373,6.86387536 C62.9866015,6.34870145 62.0535673,6.44941884 61.5395977,7.08878116 L56.1027308,13.8496217 C55.9615597,14.0255058 55.8711034,14.2242667 55.8209817,14.430158 C53.5761833,12.8828536 50.8144494,11.5503536 47.5411186,10.9671435 C47.6689437,10.7639261 47.7540616,10.5307014 47.7703734,10.2740058 L48.3042137,1.82295507 C48.3558183,1.00414348 47.7353772,0.298527536 46.9180084,0.246534783 C46.1036053,0.194244928 45.3962669,0.816672464 45.3443658,1.63548406 L44.8102289,10.0865348 C44.7971795,10.292129 44.8268373,10.4902957 44.8911947,10.6727159 C44.5545787,10.6575638 44.2123278,10.649542 43.8659247,10.649542 C41.0988525,10.649542 38.2297574,11.1427304 35.6613924,12.0488899 C35.6403354,11.8929116 35.6008905,11.7375275 35.5276357,11.5886797 L31.7782973,3.98228841 C31.4155825,3.24666522 30.5267384,2.94451304 29.7921148,3.30816522 C29.0577878,3.67152029 28.7561681,4.56252754 29.1188829,5.29785362 L32.8685179,12.9042449 C32.9177498,13.004071 32.9791414,13.0932014 33.0455749,13.1760928 C30.4641605,14.5154261 28.5361072,16.2947667 27.4153392,18.3881435 L19.485438,17.5307087 C18.6716281,17.4383101 17.9399703,18.032513 17.8521833,18.8483536 C17.7640996,19.6638971 18.3528068,20.3965493 19.1672099,20.4841942 L26.4043049,21.2664623 C25.8796586,24.0491145 26.4677726,26.9292159 27.0413544,29.7371217 C27.2148525,30.5859406 27.3892403,31.4409986 27.5283354,32.2913029 L20.6972555,32.7375493 C19.8798867,32.7907304 19.2606319,33.4975348 19.3137194,34.3163464 C19.3647308,35.1021797 20.0172023,35.7052957 20.7921605,35.7052957 C20.8244875,35.7052957 20.8574076,35.7044043 20.8900312,35.7020275 L27.8127536,35.2501362 C27.8260996,37.3093464 27.3477194,39.2544696 25.8016586,40.9090275 C24.1589133,42.6669768 22.4082137,42.9676435 20.5537118,43.2864333 C19.6432175,43.4430058 18.7173011,43.6031435 17.7282137,43.9477812 L16.0320844,38.0351652 C15.806092,37.246658 14.9848677,36.7909043 14.1974532,37.0175928 C13.4100388,37.2442812 12.9553848,38.0669551 13.1816738,38.8554623 L15.0424038,45.3426725 C14.8330198,45.4897377 14.6212631,45.6439333 14.4044646,45.8150638 C14.1325027,46.0301652 12.7059627,47.1945058 11.341111,49.0181145 C10.5148449,50.1218464 9.87927833,51.2356797 9.43144563,52.3524841 L2.04487529,49.3250203 C1.28682205,49.0154406 0.420814449,49.3782014 0.110593916,50.1372957 C-0.19903346,50.896687 0.163681369,51.7642232 0.921734601,52.0749913 L8.51442662,55.1868319 C8.5752251,55.2114913 8.63720989,55.2257522 8.6988981,55.2420928 C8.66894373,55.5284986 8.65085247,55.8146072 8.6464038,56.1004188 C8.61051787,58.3123391 9.36263954,60.2910348 10.3677422,61.9420275 C10.0667156,61.946187 9.76390951,62.0379913 9.50381065,62.2317014 L2.56744563,67.3962159 C1.90993232,67.8852449 1.77320989,68.8160638 2.26167376,69.4744406 C2.55261673,69.8666145 3.00015285,70.0739913 3.45302738,70.0739913 C3.76057871,70.0739913 4.07079924,69.9783246 4.3362365,69.7804551 L11.2728981,64.6159406 C11.5208373,64.4314406 11.6943354,64.1842522 11.7883506,63.9127014 C12.0899703,64.2718971 12.393073,64.6079188 12.6875749,64.9121507 C14.4139551,66.6938681 16.6895977,68.3439696 19.0293011,69.5442594 C18.8282213,69.7043971 18.6624342,69.9141507 18.5642669,70.1720348 L15.4706624,78.2944913 C15.1788297,79.061013 15.5626015,79.9193391 16.3277726,80.2119841 C16.5018639,80.2782377 16.6804038,80.3097304 16.8559779,80.3097304 C17.4532859,80.3097304 18.0161909,79.9454841 18.2418867,79.3533609 L21.3354913,71.2309043 C21.4149741,71.022042 21.4401833,70.8066435 21.425651,70.597187 C23.638419,71.4100565 26.0039247,71.8268899 28.4690806,71.8268899 L28.4708601,71.8268899 C29.0978259,71.8268899 29.7339856,71.7986652 30.3775597,71.7454841 C30.3808221,71.8236217 30.3852707,71.9023536 30.4009894,71.9813826 L32.1822365,80.8082667 C32.3245939,81.5132884 32.9429589,81.9999406 33.6342821,81.9999406 C33.7315597,81.9999406 33.8303202,81.9904333 33.9293772,81.9702304 C34.7322137,81.8077159 35.2515217,81.0239623 35.088997,80.2200058 L33.3077498,71.3931217 C33.3035977,71.3729188 33.2947004,71.3547957 33.2896586,71.3345928 C36.3877118,70.7237522 39.6215977,69.5502014 42.8839551,67.8611797 L47.1638715,75.2497957 C47.4387992,75.7248609 47.9361605,75.9901725 48.4477574,75.9901725 C48.7001452,75.9901725 48.9563886,75.9254043 49.1906852,75.7890348 C49.8986167,75.3772522 50.1400312,74.4684188 49.7286776,73.7586435 L45.4751567,66.4157812 C47.4592631,65.2273754 49.4427764,63.8535783 51.4022669,62.3036 C52.0885483,61.7607957 53.0980996,60.9604043 54.2752175,59.9357014 L59.9048601,66.201571 C60.1975825,66.5274913 60.6018183,66.693571 61.0075369,66.693571 C61.3610578,66.693571 61.715765,66.5676 61.998997,66.3120928 C62.6078715,65.7633464 62.6571034,64.8242087 62.109324,64.2142594 L56.4639627,57.9302667 C58.2090274,56.244513 60.1047536,54.188571 61.8237194,51.8034406 C62.2937954,51.1513029 62.733324,50.4976797 63.1446776,49.8422739 L70.3562669,54.2670058 C70.5976814,54.4152594 70.8651947,54.4862667 71.129149,54.4862667 C71.6282897,54.4862667 72.1155673,54.2337304 72.3952403,53.7761942 C72.8229057,53.0768174 72.6037346,52.162042 71.9052935,51.7336217 L64.6106624,47.2577884 C66.1481224,44.2279478 67.0639551,41.1716652 67.3528221,38.1073609 C67.4180692,38.1216217 67.4824266,38.1373681 67.5512327,38.1427159 L76.2688449,38.8002014 C76.3065103,38.8028754 76.3441757,38.8043609 76.3815445,38.8043609 C77.1502745,38.8043609 77.8003734,38.2104551 77.8590958,37.4302667 C77.9204875,36.6123464 77.308054,35.8990058 76.4912783,35.8372087" id="Fill-5" fill="#000000" mask="url(#mask-4)"></path>
                                </g>
                            </g>
                            <g id="Group-8-Copy-8" opacity="0.0453636533" transform="translate(38.475457, 161.636143) rotate(8.000000) translate(-38.475457, -161.636143) translate(5.475457, 126.899301)">
                                <path d="M40.381452,33.9351129 C36.753326,33.9351129 33.8017292,30.9832623 33.8017292,27.3551362 C33.8017292,23.7270102 36.753326,20.7754134 40.381452,20.7754134 C44.0095781,20.7754134 46.9614287,23.7270102 46.9614287,27.3551362 C46.9614287,30.9832623 44.0095781,33.9351129 40.381452,33.9351129 M40.381452,18.2368421 C35.3535578,18.2368421 31.2631579,22.327242 31.2631579,27.3551362 C31.2631579,32.3832843 35.3535578,36.4736842 40.381452,36.4736842 C45.4096001,36.4736842 49.5,32.3832843 49.5,27.3551362 C49.5,22.327242 45.4096001,18.2368421 40.381452,18.2368421" id="Fill-1" fill="#000000"></path>
                                <g id="Group-7">
                                    <mask id="mask-6" fill="white">
                                        <use xlink:href="#path-5"></use>
                                    </mask>
                                    <g id="Clip-6"></g>
                                    <path d="M50.1456114,42.250293 C47.1548941,46.3994057 43.422567,49.3510225 41.8287192,50.6119535 C35.7171337,55.4468182 29.3950542,58.109341 24.0273311,58.109341 L24.0258294,58.109341 C22.1176171,58.109341 20.2965058,57.7711035 18.6135546,57.1044072 C16.4107508,56.2316092 14.1266027,54.7099169 12.5032206,53.0347766 C11.2490166,51.7402474 9.76154205,49.7090677 9.79933587,47.3852838 C9.82286314,45.9317905 10.4195549,44.4133577 11.5733926,42.8718576 C12.5592856,41.5550132 13.5914823,40.7240875 13.7058649,40.633824 C15.2163661,39.4405905 16.3429222,39.2467747 17.7695762,39.0015588 C19.4943258,38.7051937 21.640564,38.3366177 23.6020881,36.2377403 C26.9249405,32.6816088 26.0088784,28.1970167 25.2730253,24.5934968 C24.6635687,21.6097863 24.1372085,19.0325124 25.2985549,16.7814407 C27.0883799,13.3105581 32.5497115,11.4947571 37.0196438,11.4947571 C37.5154686,11.4947571 37.9987789,11.5160693 38.4563094,11.5581923 C43.2686385,11.9974747 46.7514263,14.7397303 48.8258313,16.9629707 C51.5812758,19.9165933 53.5332889,23.7753584 54.1810398,27.5501282 C55.0185108,32.4283695 53.6606866,37.3743083 50.1456114,42.250293 M64.5530646,30.2439925 L57.1960353,29.6891227 C57.0996736,29.6826036 57.0058147,29.6896241 56.9142085,29.7041666 C56.8839234,28.8444067 56.7953207,27.9846467 56.6478998,27.1253883 C56.3545597,25.4161484 55.8216919,23.6946227 55.0928469,22.0307653 C55.2012226,22.0127126 55.3093479,21.9816218 55.4142195,21.9329798 L62.0594236,18.8422068 C62.6861502,18.5506055 62.9584659,17.8051794 62.6673785,17.1770958 C62.376291,16.5490122 61.6321783,16.2764666 61.0054517,16.5678171 L54.3602476,19.6585901 C54.2328499,19.7180136 54.124224,19.7997522 54.0281125,19.8917709 C53.0897747,18.2183857 51.953207,16.642786 50.6544513,15.2509728 C50.1491154,14.7093917 49.5689428,14.1407316 48.9156854,13.5760832 C49.0578503,13.4991085 49.1882514,13.3950547 49.2956259,13.2611639 L53.8841957,7.55525637 C54.3176983,7.01618263 54.2328499,6.22687838 53.694726,5.7926106 C53.1561016,5.35784136 52.3686887,5.4428395 51.9349358,5.98241471 L47.3466163,11.6880715 C47.2274782,11.8365048 47.1511397,12.0042445 47.1088407,12.1780017 C45.2143943,10.8721896 42.8836922,9.74765673 40.1212396,9.25546987 C40.2291147,9.0839692 40.3009479,8.8871446 40.3147139,8.67051218 L40.7652362,1.53844123 C40.8087867,0.847423919 40.2851797,0.251935486 39.5953799,0.20805739 C38.9080831,0.163928563 38.3111411,0.689212045 38.2673403,1.38022936 L37.8165677,8.51230031 C37.8055549,8.68580683 37.8305839,8.85304506 37.8848969,9.00699449 C37.6008175,8.99420716 37.3119827,8.98743739 37.0196438,8.98743739 C34.6844364,8.98743739 32.2631293,9.40365247 30.0956164,10.168385 C30.0778458,10.0367507 30.0445572,9.90561787 29.9827355,9.78000116 L26.8185671,3.36076121 C26.5124622,2.73994884 25.7623426,2.48495443 25.1423738,2.79185036 C24.5226554,3.09849556 24.2681103,3.85044075 24.5742151,4.47100238 L27.7386338,10.8902423 C27.780182,10.9744883 27.831992,11.0497079 27.888057,11.1196621 C25.7095314,12.2499618 24.0823949,13.7515956 23.1365484,15.5182531 L16.4442897,14.7946406 C15.7574935,14.716663 15.1400276,15.2181269 15.0659417,15.9066369 C14.9916055,16.5948962 15.4884315,17.2132012 16.1757283,17.2871671 L22.2833092,17.9473444 C21.8405459,20.2957001 22.3368713,22.7262958 22.8209325,25.0959637 C22.9673522,25.8123049 23.1145228,26.5339115 23.2319089,27.2515064 L17.4669754,27.6281059 C16.7771756,27.6729869 16.2545697,28.2694782 16.2993717,28.9604956 C16.3424216,29.6236816 16.89306,30.1326675 17.5470682,30.1326675 C17.5743498,30.1326675 17.602132,30.1319153 17.629664,30.1299095 L23.4719372,29.7485461 C23.4832003,31.4863694 23.0794822,33.1279117 21.7747195,34.524238 C20.3883623,36.0078191 18.9108994,36.2615599 17.3458349,36.5305953 C16.5774441,36.662731 15.7960381,36.7978755 14.9613204,37.0887246 L13.5299109,32.0989077 C13.3391898,31.433465 12.6461363,31.0488422 11.9816159,31.2401506 C11.3170955,31.4314591 10.9334006,32.125736 11.124372,32.7911786 L12.6946926,38.2659112 C12.5179877,38.3900236 12.3392806,38.5201535 12.1563184,38.6645751 C11.9268023,38.846105 10.7229066,39.8287236 9.57107123,41.3677165 C8.8737628,42.2991857 8.33739096,43.2391799 7.9594528,44.1816814 L1.72572572,41.6267226 C1.08598404,41.3654599 0.355136728,41.6716036 0.0933332059,42.3122238 C-0.167969736,42.9530947 0.138135147,43.6852321 0.777876832,43.9474977 L7.18555558,46.5736644 C7.23686507,46.5944752 7.28917571,46.6065103 7.34123607,46.6203005 C7.31595676,46.8620062 7.30068906,47.1034611 7.29693471,47.3446652 C7.2666496,49.2113647 7.90138548,50.8812397 8.74961888,52.2745572 C8.49557435,52.2780675 8.24002808,52.3555437 8.0205236,52.5190209 L2.16673701,56.8774948 C1.61184369,57.2901996 1.49645992,58.0757429 1.90868784,58.6313649 C2.1542225,58.9623311 2.53191037,59.1373421 2.91410347,59.1373421 C3.17365438,59.1373421 3.4354579,59.0566064 3.65946761,58.8896189 L9.51350449,54.531145 C9.72274707,54.3754404 9.86916683,54.1668314 9.94850881,53.9376624 C10.2030539,54.2407974 10.4588505,54.5243752 10.7073886,54.7811248 C12.1643277,56.2847644 14.0848042,57.6773298 16.0593434,58.6902869 C15.8896467,58.8254315 15.7497345,59.0024483 15.6668884,59.2200836 L13.0561116,66.074845 C12.8098261,66.7217335 13.1337016,67.4460981 13.7794502,67.6930691 C13.9263705,67.7489824 14.0770452,67.77556 14.225217,67.77556 C14.7293014,67.77556 15.2043522,67.4681626 15.394823,66.9684537 L18.0055998,60.1136924 C18.0726776,59.9374278 18.0939522,59.7556471 18.081688,59.5788811 C19.949103,60.2648837 21.9454174,60.6166607 24.0258294,60.6166607 L24.0273311,60.6166607 C24.5564445,60.6166607 25.093317,60.5928412 25.6364466,60.5479601 C25.6391998,60.6139026 25.6429542,60.6803466 25.6562196,60.7470413 L27.1594623,68.1962882 C27.2796016,68.7912752 27.8014566,69.2019741 28.384883,69.2019741 C28.4669782,69.2019741 28.5503248,69.1939507 28.6339218,69.1769009 C29.3114573,69.0397506 29.7497154,68.3783196 29.6125563,67.6998389 L28.1093136,60.250592 C28.1058095,60.2335422 28.0983008,60.2182476 28.0940459,60.2011978 C30.708577,59.6856929 33.4377411,58.6953016 36.190933,57.2698903 L39.8028705,63.5053437 C40.0348895,63.9062642 40.4546261,64.1301678 40.8863767,64.1301678 C41.0993736,64.1301678 41.3156243,64.0755082 41.5133535,63.9604223 C42.1107962,63.6129078 42.3145324,62.8459187 41.9673799,62.24692 L38.3777182,56.0500793 C40.0521595,55.0471514 41.7261002,53.8877668 43.3797674,52.5796981 C43.9589388,52.1216107 44.8109266,51.4461388 45.8043283,50.5813642 L50.5553364,55.8693015 C50.8023728,56.1443545 51.1435183,56.2845137 51.4859152,56.2845137 C51.7842611,56.2845137 52.0836082,56.1782033 52.3226353,55.9625738 C52.836481,55.4994719 52.8780292,54.7069081 52.4157432,54.1921554 L47.6514698,48.8889234 C49.1241772,47.4662702 50.7240319,45.731205 52.1747138,43.7183287 C52.5714237,43.167972 52.9423538,42.6163617 53.2895062,42.063247 L59.3755621,45.7973982 C59.5792983,45.9225135 59.80506,45.9824384 60.0278183,45.9824384 C60.4490567,45.9824384 60.8602834,45.7693162 61.0963071,45.383189 C61.4572255,44.7929659 61.272261,44.0209622 60.6828277,43.6594067 L54.5266906,39.8821295 C55.8241948,37.3251649 56.5970909,34.7458851 56.8408735,32.1598355 C56.8959373,32.1718707 56.9502503,32.1851594 57.0083176,32.1896726 L64.365347,32.7445425 C64.3971339,32.7467991 64.4289207,32.7480527 64.4604573,32.7480527 C65.1092094,32.7480527 65.6578455,32.2468395 65.7074029,31.5884174 C65.759213,30.8981522 65.2423638,30.2961448 64.5530646,30.2439925" id="Fill-5" fill="#000000" mask="url(#mask-6)"></path>
                                </g>
                            </g>
                            <g id="Group-8-Copy-9" opacity="0.0453636533" transform="translate(284.346083, 299.876398)">
                                <path d="M46.4998538,39.0767967 C42.3220117,39.0767967 38.9232033,35.677696 38.9232033,31.4998538 C38.9232033,27.3220117 42.3220117,23.9232033 46.4998538,23.9232033 C50.677696,23.9232033 54.0767967,27.3220117 54.0767967,31.4998538 C54.0767967,35.677696 50.677696,39.0767967 46.4998538,39.0767967 M46.4998538,21 C40.7101574,21 36,25.7101574 36,31.4998538 C36,37.2898426 40.7101574,42 46.4998538,42 C52.2898426,42 57,37.2898426 57,31.4998538 C57,25.7101574 52.2898426,21 46.4998538,21" id="Fill-1" fill="#000000"></path>
                                <path d="M24.5001502,59.9957668 C23.1239861,59.9957668 22.0040691,58.876089 22.0040691,57.4998498 C22.0040691,56.1236105 23.1239861,55.0042332 24.5001502,55.0042332 C25.8763143,55.0042332 26.9959309,56.1236105 26.9959309,57.4998498 C26.9959309,58.876089 25.8763143,59.9957668 24.5001502,59.9957668 M24.5001502,52 C21.467242,52 19,54.4673768 19,57.4998498 C19,60.5326232 21.467242,63 24.5001502,63 C27.532758,63 30,60.5326232 30,57.4998498 C30,54.4673768 27.532758,52 24.5001502,52" id="Fill-3" fill="#000000"></path>
                                <g id="Group-7">
                                    <mask id="mask-8" fill="white">
                                        <use xlink:href="#path-7"></use>
                                    </mask>
                                    <g id="Clip-6"></g>
                                    <path d="M59.419362,50.0639116 C55.8755521,54.9803464 51.4529817,58.4778246 49.5643734,59.9719478 C42.3225331,65.7009551 34.8312707,68.8558754 28.4708601,68.8558754 L28.4690806,68.8558754 C26.2079703,68.8558754 24.0500692,68.4550855 22.0558791,67.6650928 C19.4456966,66.6308826 16.7391262,64.8277739 14.8155217,62.8428391 C13.3293696,61.3089043 11.5668068,58.9020855 11.6115901,56.1485493 C11.6394684,54.4262522 12.3465103,52.6270058 13.7137346,50.8004261 C14.8819551,49.2400493 16.1050426,48.2554551 16.2405787,48.1484986 C18.0304266,46.7345928 19.365324,46.5049333 21.0558183,46.2143681 C23.0995369,45.8631942 25.6426928,45.4264551 27.9669741,42.9394188 C31.904343,38.725629 30.8188677,33.4116725 29.9469285,29.1417304 C29.2247612,25.6062232 28.6010578,22.5523174 29.9771795,19.8849406 C32.0980084,15.7721652 38.5693392,13.6205565 43.8659247,13.6205565 C44.4534456,13.6205565 45.0261376,13.6458101 45.5682821,13.6957232 C51.2705863,14.2162449 55.3974684,17.4656435 57.8555065,20.100042 C61.1205331,23.5998971 63.4335445,28.1722884 64.2010882,32.6451507 C65.193438,38.4255565 63.5845027,44.2861797 59.419362,50.0639116 M76.4912783,35.8372087 L67.7736662,35.1797232 C67.6594837,35.1719986 67.5482669,35.1803174 67.4397194,35.1975493 C67.4038335,34.1787884 67.2988449,33.1600275 67.1241605,32.1418609 C66.7765711,30.1165203 66.1451567,28.0766217 65.2815217,26.1050565 C65.4099399,26.0836652 65.5380616,26.0468246 65.6623278,25.989187 L73.5364722,22.3268174 C74.2791034,21.9812884 74.6017802,21.0980058 74.2568601,20.3537667 C73.9119399,19.6095275 73.0302137,19.2865783 72.2875825,19.6318101 L64.413438,23.2941797 C64.2624798,23.3645928 64.133765,23.4614478 64.0198791,23.5704841 C62.9080084,21.587629 61.5612479,19.7206435 60.0223049,18.0714333 C59.4235141,17.4296942 58.7360464,16.7558681 57.9619779,16.0867957 C58.1304342,15.9955855 58.2849513,15.8722884 58.4121833,15.7136362 L63.8493468,8.95249855 C64.3630198,8.31373043 64.2624798,7.37845507 63.6248373,6.86387536 C62.9866015,6.34870145 62.0535673,6.44941884 61.5395977,7.08878116 L56.1027308,13.8496217 C55.9615597,14.0255058 55.8711034,14.2242667 55.8209817,14.430158 C53.5761833,12.8828536 50.8144494,11.5503536 47.5411186,10.9671435 C47.6689437,10.7639261 47.7540616,10.5307014 47.7703734,10.2740058 L48.3042137,1.82295507 C48.3558183,1.00414348 47.7353772,0.298527536 46.9180084,0.246534783 C46.1036053,0.194244928 45.3962669,0.816672464 45.3443658,1.63548406 L44.8102289,10.0865348 C44.7971795,10.292129 44.8268373,10.4902957 44.8911947,10.6727159 C44.5545787,10.6575638 44.2123278,10.649542 43.8659247,10.649542 C41.0988525,10.649542 38.2297574,11.1427304 35.6613924,12.0488899 C35.6403354,11.8929116 35.6008905,11.7375275 35.5276357,11.5886797 L31.7782973,3.98228841 C31.4155825,3.24666522 30.5267384,2.94451304 29.7921148,3.30816522 C29.0577878,3.67152029 28.7561681,4.56252754 29.1188829,5.29785362 L32.8685179,12.9042449 C32.9177498,13.004071 32.9791414,13.0932014 33.0455749,13.1760928 C30.4641605,14.5154261 28.5361072,16.2947667 27.4153392,18.3881435 L19.485438,17.5307087 C18.6716281,17.4383101 17.9399703,18.032513 17.8521833,18.8483536 C17.7640996,19.6638971 18.3528068,20.3965493 19.1672099,20.4841942 L26.4043049,21.2664623 C25.8796586,24.0491145 26.4677726,26.9292159 27.0413544,29.7371217 C27.2148525,30.5859406 27.3892403,31.4409986 27.5283354,32.2913029 L20.6972555,32.7375493 C19.8798867,32.7907304 19.2606319,33.4975348 19.3137194,34.3163464 C19.3647308,35.1021797 20.0172023,35.7052957 20.7921605,35.7052957 C20.8244875,35.7052957 20.8574076,35.7044043 20.8900312,35.7020275 L27.8127536,35.2501362 C27.8260996,37.3093464 27.3477194,39.2544696 25.8016586,40.9090275 C24.1589133,42.6669768 22.4082137,42.9676435 20.5537118,43.2864333 C19.6432175,43.4430058 18.7173011,43.6031435 17.7282137,43.9477812 L16.0320844,38.0351652 C15.806092,37.246658 14.9848677,36.7909043 14.1974532,37.0175928 C13.4100388,37.2442812 12.9553848,38.0669551 13.1816738,38.8554623 L15.0424038,45.3426725 C14.8330198,45.4897377 14.6212631,45.6439333 14.4044646,45.8150638 C14.1325027,46.0301652 12.7059627,47.1945058 11.341111,49.0181145 C10.5148449,50.1218464 9.87927833,51.2356797 9.43144563,52.3524841 L2.04487529,49.3250203 C1.28682205,49.0154406 0.420814449,49.3782014 0.110593916,50.1372957 C-0.19903346,50.896687 0.163681369,51.7642232 0.921734601,52.0749913 L8.51442662,55.1868319 C8.5752251,55.2114913 8.63720989,55.2257522 8.6988981,55.2420928 C8.66894373,55.5284986 8.65085247,55.8146072 8.6464038,56.1004188 C8.61051787,58.3123391 9.36263954,60.2910348 10.3677422,61.9420275 C10.0667156,61.946187 9.76390951,62.0379913 9.50381065,62.2317014 L2.56744563,67.3962159 C1.90993232,67.8852449 1.77320989,68.8160638 2.26167376,69.4744406 C2.55261673,69.8666145 3.00015285,70.0739913 3.45302738,70.0739913 C3.76057871,70.0739913 4.07079924,69.9783246 4.3362365,69.7804551 L11.2728981,64.6159406 C11.5208373,64.4314406 11.6943354,64.1842522 11.7883506,63.9127014 C12.0899703,64.2718971 12.393073,64.6079188 12.6875749,64.9121507 C14.4139551,66.6938681 16.6895977,68.3439696 19.0293011,69.5442594 C18.8282213,69.7043971 18.6624342,69.9141507 18.5642669,70.1720348 L15.4706624,78.2944913 C15.1788297,79.061013 15.5626015,79.9193391 16.3277726,80.2119841 C16.5018639,80.2782377 16.6804038,80.3097304 16.8559779,80.3097304 C17.4532859,80.3097304 18.0161909,79.9454841 18.2418867,79.3533609 L21.3354913,71.2309043 C21.4149741,71.022042 21.4401833,70.8066435 21.425651,70.597187 C23.638419,71.4100565 26.0039247,71.8268899 28.4690806,71.8268899 L28.4708601,71.8268899 C29.0978259,71.8268899 29.7339856,71.7986652 30.3775597,71.7454841 C30.3808221,71.8236217 30.3852707,71.9023536 30.4009894,71.9813826 L32.1822365,80.8082667 C32.3245939,81.5132884 32.9429589,81.9999406 33.6342821,81.9999406 C33.7315597,81.9999406 33.8303202,81.9904333 33.9293772,81.9702304 C34.7322137,81.8077159 35.2515217,81.0239623 35.088997,80.2200058 L33.3077498,71.3931217 C33.3035977,71.3729188 33.2947004,71.3547957 33.2896586,71.3345928 C36.3877118,70.7237522 39.6215977,69.5502014 42.8839551,67.8611797 L47.1638715,75.2497957 C47.4387992,75.7248609 47.9361605,75.9901725 48.4477574,75.9901725 C48.7001452,75.9901725 48.9563886,75.9254043 49.1906852,75.7890348 C49.8986167,75.3772522 50.1400312,74.4684188 49.7286776,73.7586435 L45.4751567,66.4157812 C47.4592631,65.2273754 49.4427764,63.8535783 51.4022669,62.3036 C52.0885483,61.7607957 53.0980996,60.9604043 54.2752175,59.9357014 L59.9048601,66.201571 C60.1975825,66.5274913 60.6018183,66.693571 61.0075369,66.693571 C61.3610578,66.693571 61.715765,66.5676 61.998997,66.3120928 C62.6078715,65.7633464 62.6571034,64.8242087 62.109324,64.2142594 L56.4639627,57.9302667 C58.2090274,56.244513 60.1047536,54.188571 61.8237194,51.8034406 C62.2937954,51.1513029 62.733324,50.4976797 63.1446776,49.8422739 L70.3562669,54.2670058 C70.5976814,54.4152594 70.8651947,54.4862667 71.129149,54.4862667 C71.6282897,54.4862667 72.1155673,54.2337304 72.3952403,53.7761942 C72.8229057,53.0768174 72.6037346,52.162042 71.9052935,51.7336217 L64.6106624,47.2577884 C66.1481224,44.2279478 67.0639551,41.1716652 67.3528221,38.1073609 C67.4180692,38.1216217 67.4824266,38.1373681 67.5512327,38.1427159 L76.2688449,38.8002014 C76.3065103,38.8028754 76.3441757,38.8043609 76.3815445,38.8043609 C77.1502745,38.8043609 77.8003734,38.2104551 77.8590958,37.4302667 C77.9204875,36.6123464 77.308054,35.8990058 76.4912783,35.8372087" id="Fill-5" fill="#000000" mask="url(#mask-8)"></path>
                                </g>
                            </g>
                        </g>
                        <g id="Group-20" transform="translate(118.000000, 47.000000)">
                            <path d="M196.346083,59 L228.21666,82" id="Line" stroke="#FFFFFF" stroke-width="2" opacity="0.208007812" stroke-linecap="round"></path>
                            <path d="M194.457772,75.6617214 L226.328349,98.6617214" id="Line-Copy" stroke="#FFFFFF" stroke-width="2" opacity="0.208007812" stroke-linecap="round" transform="translate(210.611689, 87.161721) rotate(-6.000000) translate(-210.611689, -87.161721) "></path>
                            <path d="M-2.99219549,46.1116886 L28.8783816,69.1116886" id="Line-Copy-2" stroke="#FFFFFF" stroke-width="2" opacity="0.208007812" stroke-linecap="round" transform="translate(13.161721, 57.611689) rotate(96.000000) translate(-13.161721, -57.611689) "></path>
                            <path d="M17.4657226,106.791217 C21.282071,115.173347 26.6276509,117.915461 33.5024624,115.017558" id="Line-Copy-6" stroke="#FFFFFF" stroke-width="2" opacity="0.208007812" stroke-linecap="round" transform="translate(25.484093, 111.462753) rotate(96.000000) translate(-25.484093, -111.462753) "></path>
                            <path d="M283.91208,18.3415182 C287.728428,26.7236481 293.074008,29.4657617 299.948819,26.567859" id="Line-Copy-7" stroke="#FFFFFF" stroke-width="2" opacity="0.208007812" stroke-linecap="round" transform="translate(291.930449, 23.013054) rotate(226.000000) translate(-291.930449, -23.013054) "></path>
                            <path d="M399.91208,158.341518 C403.728428,166.723648 409.074008,169.465762 415.948819,166.567859" id="Line-Copy-8" stroke="#FFFFFF" stroke-width="2" opacity="0.208007812" stroke-linecap="round" transform="translate(407.930449, 163.013054) rotate(226.000000) translate(-407.930449, -163.013054) "></path>
                            <path d="M123.420329,322.341518 C127.236678,330.723648 132.582258,333.465762 139.457069,330.567859" id="Line-Copy-9" stroke="#FFFFFF" stroke-width="2" opacity="0.208007812" stroke-linecap="round" transform="translate(131.438699, 327.013054) rotate(404.000000) translate(-131.438699, -327.013054) "></path>
                            <path d="M281.007805,306.111689 L312.878382,329.111689" id="Line-Copy-5" stroke="#FFFFFF" stroke-width="2" opacity="0.208007812" stroke-linecap="round" transform="translate(297.161721, 317.611689) rotate(96.000000) translate(-297.161721, -317.611689) "></path>
                            <path d="M308.283144,127.891152 L340.153721,150.891152" id="Line-Copy-3" stroke="#FFFFFF" stroke-width="2" opacity="0.208007812" stroke-linecap="round" transform="translate(324.437061, 139.391152) rotate(79.000000) translate(-324.437061, -139.391152) "></path>
                            <path d="M323.142519,123.822793 L355.013096,146.822793" id="Line-Copy-4" stroke="#FFFFFF" stroke-width="2" opacity="0.208007812" stroke-linecap="round" transform="translate(339.296436, 135.322793) rotate(67.000000) translate(-339.296436, -135.322793) "></path>
                            <circle id="Oval" fill="#FFFFFF" opacity="0.211332775" cx="131" cy="133" r="6"></circle>
                            <circle id="Oval-Copy-7" fill="#FFFFFF" opacity="0.211332775" cx="411" cy="14" r="6"></circle>
                            <circle id="Oval-Copy-8" fill="#FFFFFF" opacity="0.211332775" cx="86" cy="6" r="6"></circle>
                        </g>
                    </g>
                </g>
            </g>
            <g id="Page"></g>
        </g>
    </g>
</svg>