<?xml version="1.0" encoding="UTF-8"?>
<svg width="520px" height="344px" viewBox="0 0 520 344" version="1.1" xmlns="http://www.w3.org/2000/svg" xmlns:xlink="http://www.w3.org/1999/xlink">
    <!-- Generator: Sketch 52.2 (67145) - http://www.bohemiancoding.com/sketch -->
    <title>tech-bg-electro-bio</title>
    <desc>Created with Sketch.</desc>
    <g id="Page-1" stroke="none" stroke-width="1" fill="none" fill-rule="evenodd">
        <g id="Homepage" transform="translate(-730.000000, -159.000000)">
            <g id="fronteers" transform="translate(190.000000, 123.000000)" opacity="0.50906808">
                <g id="tech-bg-electro-bio" transform="translate(540.000000, 36.000000)">
                    <g id="Group-10">
                        <polygon id="Star" fill="#584331" points="464.5 166.902507 433.756098 178.5 459.315255 158.048747 464.5 126 469.684745 158.048747 495.243902 178.5"></polygon>
                        <rect id="Rectangle" fill="#584331" x="462" y="166" width="5" height="57"></rect>
                        <polygon id="Star" fill="#584331" points="402.5 182.902507 371.756098 194.5 397.315255 174.048747 402.5 142 407.684745 174.048747 433.243902 194.5"></polygon>
                        <rect id="Rectangle" fill="#584331" x="400" y="182" width="5" height="57"></rect>
                        <path d="M350.4375,245.315305 C413.777609,219.541574 470.298442,215.136378 520,232.099717 L520,344 L245,344 C251.951558,303.983935 287.097391,271.089036 350.4375,245.315305 Z" id="Rectangle-Copy-3" fill="#3A2613" fill-rule="nonzero"></path>
                        <path d="M189.823129,275 C266.350782,275 348.409739,298 436,344 L0,344 C50.0211004,298 113.295477,275 189.823129,275 Z" id="Rectangle-Copy-4" fill="#342211" fill-rule="nonzero"></path>
                        <path d="M232.826209,51 C224.134163,51 216.871093,57.0458595 215.079884,65.1219543 C213.451372,64.2721591 211.598767,63.7894937 209.630279,63.7894937 C203.159209,63.7894937 197.912977,68.985558 197.912977,75.3947468 C197.912977,75.4745577 197.917581,75.5528483 197.919116,75.631899 L190.73893,75.631899 C187.582442,75.631899 185,78.1896457 185,81.3159495 C185,84.4422533 187.582442,87 190.73893,87 L229.478628,87 C229.890744,87 230.292884,86.9543938 230.681977,86.8715426 C231.385721,86.9536337 232.100209,87 232.826209,87 C242.863581,87 251,78.9413876 251,69 C251,59.0593725 242.863581,51 232.826209,51" id="Fill-1-Copy-3" fill="#FFFFFF" opacity="0.0362955729"></path>
                        <path d="M391.826209,0 C383.134163,0 375.871093,6.04585955 374.079884,14.1219543 C372.451372,13.2721591 370.598767,12.7894937 368.630279,12.7894937 C362.159209,12.7894937 356.912977,17.985558 356.912977,24.3947468 C356.912977,24.4745577 356.917581,24.5528483 356.919116,24.631899 L349.73893,24.631899 C346.582442,24.631899 344,27.1896457 344,30.3159495 C344,33.4422533 346.582442,36 349.73893,36 L388.478628,36 C388.890744,36 389.292884,35.9543938 389.681977,35.8715426 C390.385721,35.9536337 391.100209,36 391.826209,36 C401.863581,36 410,27.9413876 410,18 C410,8.05937249 401.863581,0 391.826209,0" id="Fill-1-Copy-4" fill="#FFFFFF" opacity="0.0362955729"></path>
                    </g>
                    <circle id="Oval" fill="#412A15" cx="465" cy="161" r="4"></circle>
                </g>
            </g>
            <g id="Page"></g>
        </g>
    </g>
</svg>