<?xml version="1.0" encoding="UTF-8" standalone="no"?>
<!-- Created with Keyshape -->
<svg xmlns="http://www.w3.org/2000/svg" xmlns:xlink="http://www.w3.org/1999/xlink" width="1200px" height="726px" viewBox="0 0 1200 726">
    <title>desert flooding</title>
    <desc>Created with Sketch.</desc>
    <g id="Page-1" stroke="none" stroke-width="1" fill="none" fill-rule="evenodd">
        <g id="crt-frontier-desert-flooding-v1.0">
            <rect fill="#F6F6EF" width="1200" height="726"/>
            <g id="desert-flooding" transform="translate(0,95)">
                <g id="Group-43" transform="translate(0,102.722)">
                    <path id="Fill-1" fill="#A1BC7D" d="M991.754,127.121L934.094,69.4145L773.053,230.586L651.56,352.178L1199.33,357.949L1199.33,80.9565L1118.61,0.165885Z"/>
                    <path id="Fill-2" fill="#B79A74" d="M0,427.196L1199.33,427.196L1199.33,404.114L0,404.114Z"/>
                    <path id="Fill-3" fill="#96BC6F" d="M0,404.114L1199.33,404.114L1199.33,357.949L0,357.949Z"/>
                    <path id="Fill-4" fill="#EACEA9" d="M0,357.949L0,404.113L599.666,404.113L588.133,392.574L599.666,381.032L588.133,369.491L599.666,357.949Z"/>
                    <path id="Fill-5" fill="#769B4B" d="M876.435,219.452L807.243,288.7L784.178,288.7L761.115,311.783L714.987,311.783L668.858,357.949L1199.33,357.949L1199.33,323.324L1164.74,323.324L1095.54,254.076L1049.42,254.076L1003.29,254.076L968.691,219.452Z"/>
                    <g id="Group-42" transform="translate(0,68.7634)">
                        <g id="Group" transform="translate(829.845,0)">
                            <path id="Fill-6" d="M68.0462,7.64948C55.6793,7.64948,45.3467,16.3404,42.7971,27.9512C40.4812,26.7306,37.8442,26.0367,35.0435,26.0367C25.8366,26.0367,18.3723,33.5069,18.3723,42.7213C18.3723,42.836,18.3789,42.9486,18.3811,43.0622L8.16524,43.0622C3.67425,43.0622,0,46.7394,0,51.2341C0,55.7287,3.67425,59.4059,8.16524,59.4059L63.2833,59.4059C63.8708,59.4059,64.4419,59.3403,64.9955,59.2201C65.9967,59.3381,67.0133,59.4059,68.0462,59.4059C82.3272,59.4059,93.9035,47.8202,93.9035,33.5277C93.9035,19.2352,82.3272,7.64948,68.0462,7.64948" fill="#000000" opacity="0.07"/>
                            <path id="Fill-8" d="M68.0462,0C55.6793,0,45.3467,8.69091,42.7971,20.3017C40.4812,19.0811,37.8442,18.3872,35.0435,18.3872C25.8366,18.3872,18.3723,25.8574,18.3723,35.0718C18.3723,35.1865,18.3789,35.2991,18.3811,35.4127L8.16524,35.4127C3.67425,35.4127,0,39.09,0,43.5846C0,48.0792,3.67425,51.7564,8.16524,51.7564L63.2833,51.7564C63.8708,51.7564,64.4419,51.6908,64.9955,51.5706C65.9967,51.6887,67.0133,51.7564,68.0462,51.7564C82.3272,51.7564,93.9035,40.1707,93.9035,25.8782C93.9035,11.5868,82.3272,0,68.0462,0" fill="#F8FEFF"/>
                        </g>
                        <path id="Fill-14" d="M1132.53,76.8227C1120.16,76.8227,1109.83,85.5147,1107.28,97.1255C1104.96,95.9038,1102.33,95.2099,1099.53,95.2099C1090.32,95.2099,1082.86,102.68,1082.86,111.894C1082.86,112.009,1082.86,112.122,1082.87,112.235L1072.65,112.235C1068.16,112.235,1064.48,115.913,1064.48,120.407C1064.48,124.903,1068.16,128.58,1072.65,128.58L1127.77,128.58C1128.35,128.58,1128.93,128.514,1129.48,128.394C1130.48,128.512,1131.5,128.58,1132.53,128.58C1146.81,128.58,1158.39,116.993,1158.39,102.701C1158.39,88.4095,1146.81,76.8227,1132.53,76.8227" fill="#000000" opacity="0.07"/>
                        <path id="Fill-16" d="M1132.53,68.9257C1120.16,68.9257,1109.83,77.6166,1107.28,89.2274C1104.96,88.0068,1102.33,87.3129,1099.53,87.3129C1090.32,87.3129,1082.86,94.7831,1082.86,103.997C1082.86,104.112,1082.86,104.225,1082.87,104.338L1072.65,104.338C1068.16,104.338,1064.48,108.016,1064.48,112.51C1064.48,117.005,1068.16,120.682,1072.65,120.682L1127.77,120.682C1128.35,120.682,1128.93,120.617,1129.48,120.496C1130.48,120.614,1131.5,120.682,1132.53,120.682C1146.81,120.682,1158.39,109.096,1158.39,94.8039C1158.39,80.5125,1146.81,68.9257,1132.53,68.9257" fill="#F8FEFF"/>
                        <path id="Fill-18" fill="#77A858" d="M1014.82,289.185L1037.88,219.936L1060.95,289.185L1037.88,289.185Z"/>
                        <path id="Fill-20" fill="#77A858" d="M1060.95,289.185L1084.01,219.936L1107.07,289.185L1084.01,289.185Z"/>
                        <path id="Fill-22" fill="#89BC68" d="M1060.95,196.854L1037.88,289.185L1084.01,289.185Z"/>
                        <path id="Fill-24" fill="#77A858" d="M807.242,312.268L830.307,243.019L853.371,312.268L830.307,312.268Z"/>
                        <path id="Fill-26" fill="#77A858" d="M853.371,312.268L876.435,243.019L899.498,312.268L876.435,312.268Z"/>
                        <path id="Fill-28" fill="#89BC68" d="M853.371,219.936L830.307,312.268L876.435,312.268Z"/>
                        <path id="Fill-30" fill="#E2CFB3" d="M276.501,289.185L322.629,243.019L368.757,243.019L414.885,196.855L484.077,196.855L507.141,173.772L553.269,173.772L576.334,196.855L599.398,196.855L633.994,231.477L657.058,231.477L714.717,289.185"/>
                        <path id="Fill-32" fill="#DBBF95" d="M553.538,289.185L518.941,254.56L472.814,254.56L426.685,208.396L380.558,208.396L380.558,162.23L357.493,139.147L311.365,139.147L288.301,162.23L253.705,127.606L207.576,127.606L149.916,185.313L103.788,185.313L0.00043677,289.185Z"/>
                        <path id="Fill-34" fill="#DBBF95" d="M484.709,254.561L484.709,243.494L479.181,237.96L479.181,221.359L481.944,224.126L481.944,235.193L484.755,237.915L484.618,221.45L487.474,218.593L490.238,221.359L490.238,243.724L493.151,240.809L493.003,235.423L495.768,232.656L495.768,238.191L495.768,243.724L490.238,249.256L490.238,254.561Z"/>
                        <path id="Fill-36" fill="#B79A74" d="M301.25,289.185L301.25,272.585L292.956,264.284L292.956,239.383L297.103,243.533L297.103,260.133L301.318,264.215L301.113,239.519L305.397,235.232L309.544,239.383L309.544,272.929L313.912,268.557L313.691,260.478L317.837,256.328L317.837,264.628L317.837,272.929L309.544,281.23L309.544,289.185Z"/>
                        <path id="Fill-38" fill="#B79A74" d="M160.547,289.185L160.547,268.213L168.841,259.913L168.841,245.939L164.694,250.09L164.694,255.762L160.479,259.844L160.683,229.684L156.4,225.397L152.253,229.547L152.253,268.558L147.885,264.185L148.106,249.55L143.96,245.4L143.96,260.257L143.96,268.558L152.253,276.858L152.253,289.185Z"/>
                        <path id="Fill-40" fill="#7CA4CA" d="M968.691,312.268L980.224,300.726L1141.67,300.726L1164.74,323.81L1003.29,323.81L991.754,312.268Z"/>
                        <path id="Fill-10" d="M109.538,156.268C97.1716,156.268,86.8379,164.96,84.2894,176.571C81.9723,175.349,79.3365,174.655,76.5358,174.655C67.3288,174.655,59.8646,182.125,59.8646,191.34C59.8646,191.455,59.8712,191.567,59.8733,191.681L49.6575,191.681C45.1665,191.681,41.4923,195.358,41.4923,199.853C41.4923,204.347,45.1665,208.024,49.6575,208.024L104.776,208.024C105.362,208.024,105.934,207.959,106.488,207.84C107.489,207.958,108.506,208.024,109.538,208.024C123.819,208.024,135.396,196.439,135.396,182.146C135.396,167.855,123.819,156.268,109.538,156.268" fill="#000000" opacity="0.07"/>
                        <path id="Fill-12" d="M109.538,148.619C97.1716,148.619,86.8379,157.309,84.2894,168.92C81.9723,167.7,79.3365,167.006,76.5358,167.006C67.3288,167.006,59.8646,174.476,59.8646,183.69C59.8646,183.805,59.8712,183.918,59.8733,184.031L49.6575,184.031C45.1665,184.031,41.4923,187.709,41.4923,192.203C41.4923,196.698,45.1665,200.375,49.6575,200.375L104.776,200.375C105.362,200.375,105.934,200.309,106.488,200.189C107.489,200.307,108.506,200.375,109.538,200.375C123.819,200.375,135.396,188.789,135.396,174.497C135.396,160.204,123.819,148.619,109.538,148.619" fill="#F8FEFF"/>
                    </g>
                </g>
            </g>
        </g>
    </g>
</svg>
