<?xml version="1.0" encoding="UTF-8"?>
<svg width="1200px" height="726px" viewBox="0 0 1200 726" version="1.1" xmlns="http://www.w3.org/2000/svg" xmlns:xlink="http://www.w3.org/1999/xlink">
    <!-- Generator: Sketch 52.2 (67145) - http://www.bohemiancoding.com/sketch -->
    <title>desert flooding</title>
    <desc>Created with Sketch.</desc>
    <g id="Page-1" stroke="none" stroke-width="1" fill="none" fill-rule="evenodd">
        <g id="crt-frontier-desert-flooding-v1.0">
            <rect fill="#F6F6EF" x="0" y="0" width="1200" height="9397"></rect>
            <g id="desert-flooding" transform="translate(0.000000, 95.000000)">
                <g id="Group-43" transform="translate(0.000000, 102.721649)">
                    <polygon id="Fill-1" fill="#A1BC7D" points="991.754468 127.121101 934.094413 69.4144825 773.053103 230.585843 651.560473 352.177678 1199.33154 357.948668 1199.33154 80.9564619 1118.60724 0.165884536"></polygon>
                    <polygon id="Fill-2" fill="#B79A74" points="0 427.196392 1199.33176 427.196392 1199.33176 404.113526 0 404.113526"></polygon>
                    <polygon id="Fill-3" fill="#96BC6F" points="0 404.113526 1199.33176 404.113526 1199.33176 357.948887 0 357.948887"></polygon>
                    <polygon id="Fill-4" fill="#EACEA9" points="0 357.948777 0 404.113416 599.665878 404.113416 588.133212 392.573623 599.665878 381.031643 588.133212 369.490757 599.665878 357.948777"></polygon>
                    <polygon id="Fill-5" fill="#769B4B" points="876.435232 219.451581 807.242511 288.700179 784.178271 288.700179 761.115123 311.783045 714.986642 311.783045 668.858162 357.948777 1199.33132 357.948777 1199.33132 323.323932 1164.73551 323.323932 1095.54388 254.076427 1049.4154 254.076427 1003.28692 254.076427 968.691101 219.451581"></polygon>
                    <g id="Group-42" transform="translate(0.000000, 68.763402)">
                        <g id="Group" transform="translate(829.845314, 0.000000)">
                            <path d="M68.0462238,7.64948454 C55.6793449,7.64948454 45.3466788,16.3403918 42.7970883,27.9512165 C40.4811647,26.7305773 37.844222,26.0366598 35.0434941,26.0366598 C25.8365787,26.0366598 18.3723385,33.5069278 18.3723385,42.7212784 C18.3723385,42.8360206 18.3788899,42.9485773 18.3810737,43.0622268 L8.16524113,43.0622268 C3.67424932,43.0622268 0,46.7394433 0,51.2340619 C0,55.7286804 3.67424932,59.4058969 8.16524113,59.4058969 L63.2833485,59.4058969 C63.8707916,59.4058969 64.4418562,59.3403299 64.9954504,59.2201237 C65.9967243,59.3381443 67.0132848,59.4058969 68.0462238,59.4058969 C82.3272066,59.4058969 93.9035487,47.8202062 93.9035487,33.5276907 C93.9035487,19.2351753 82.3272066,7.64948454 68.0462238,7.64948454" id="Fill-6" fill="#000000" opacity="0.0700000003"></path>
                            <path d="M68.0462238,0 C55.6793449,0 45.3466788,8.69090722 42.7970883,20.301732 C40.4811647,19.0810928 37.844222,18.3871753 35.0434941,18.3871753 C25.8365787,18.3871753 18.3723385,25.8574433 18.3723385,35.0717938 C18.3723385,35.1865361 18.3788899,35.2990928 18.3810737,35.4127423 L8.16524113,35.4127423 C3.67424932,35.4127423 0,39.0899588 0,43.5845773 C0,48.0791959 3.67424932,51.7564124 8.16524113,51.7564124 L63.2833485,51.7564124 C63.8707916,51.7564124 64.4418562,51.6908454 64.9954504,51.5706392 C65.9967243,51.6886598 67.0132848,51.7564124 68.0462238,51.7564124 C82.3272066,51.7564124 93.9035487,40.1707216 93.9035487,25.8782062 C93.9035487,11.5867835 82.3272066,0 68.0462238,0" id="Fill-8" fill="#F8FEFF"></path>
                        </g>
                        <path d="M1132.52986,76.8226804 C1120.16298,76.8226804 1109.83032,85.5146804 1107.28182,97.1255052 C1104.9648,95.9037732 1102.32786,95.2098557 1099.52713,95.2098557 C1090.32131,95.2098557 1082.85707,102.680124 1082.85707,111.894474 C1082.85707,112.009216 1082.86362,112.121773 1082.86581,112.235423 L1072.64997,112.235423 C1068.15898,112.235423 1064.48473,115.912639 1064.48473,120.407258 C1064.48473,124.902969 1068.15898,128.580186 1072.64997,128.580186 L1127.76699,128.580186 C1128.35443,128.580186 1128.9255,128.513526 1129.47909,128.394412 C1130.48036,128.512433 1131.49802,128.580186 1132.52986,128.580186 C1146.81085,128.580186 1158.38828,116.993402 1158.38828,102.700887 C1158.38828,88.4094639 1146.81085,76.8226804 1132.52986,76.8226804" id="Fill-14" fill="#000000" opacity="0.0700000003"></path>
                        <path d="M1132.52986,68.9256804 C1120.16298,68.9256804 1109.83032,77.6165876 1107.28182,89.2274124 C1104.9648,88.0067732 1102.32786,87.3128557 1099.52713,87.3128557 C1090.32131,87.3128557 1082.85707,94.7831237 1082.85707,103.997474 C1082.85707,104.112216 1082.86362,104.224773 1082.86581,104.338423 L1072.64997,104.338423 C1068.15898,104.338423 1064.48473,108.015639 1064.48473,112.510258 C1064.48473,117.004876 1068.15898,120.682093 1072.64997,120.682093 L1127.76699,120.682093 C1128.35443,120.682093 1128.9255,120.616526 1129.47909,120.49632 C1130.48036,120.61434 1131.49802,120.682093 1132.52986,120.682093 C1146.81085,120.682093 1158.38828,109.096402 1158.38828,94.8038866 C1158.38828,80.5124639 1146.81085,68.9256804 1132.52986,68.9256804" id="Fill-16" fill="#F8FEFF"></path>
                        <polygon id="Fill-18" fill="#77A858" points="1014.81882 289.185047 1037.88306 219.936449 1060.9473 289.185047 1037.88306 289.185047"></polygon>
                        <polygon id="Fill-20" fill="#77A858" points="1060.94741 289.185047 1084.01165 219.936449 1107.0748 289.185047 1084.01165 289.185047"></polygon>
                        <polygon id="Fill-22" fill="#89BC68" points="1060.94741 196.854458 1037.88317 289.184829 1084.01165 289.184829"></polygon>
                        <polygon id="Fill-24" fill="#77A858" points="807.242293 312.267913 830.306533 243.019315 853.370773 312.267913 830.306533 312.267913"></polygon>
                        <polygon id="Fill-26" fill="#77A858" points="853.370883 312.267913 876.435123 243.019315 899.498271 312.267913 876.435123 312.267913"></polygon>
                        <polygon id="Fill-28" fill="#89BC68" points="853.370883 219.93634 830.306642 312.267804 876.435123 312.267804"></polygon>
                        <polyline id="Fill-30" fill="#E2CFB3" points="276.500746 289.185047 322.629227 243.019315 368.756615 243.019315 414.885096 196.854676 484.076724 196.854676 507.140965 173.77181 553.269445 173.77181 576.333685 196.854676 599.397925 196.854676 633.99374 231.477336 657.05798 231.477336 714.716943 289.185047"></polyline>
                        <polygon id="Fill-32" fill="#DBBF95" points="553.537834 289.185047 518.940928 254.560202 472.81354 254.560202 426.685059 208.395563 380.557671 208.395563 380.557671 162.229831 357.49343 139.146965 311.36495 139.146965 288.30071 162.229831 253.704895 127.606078 207.576415 127.606078 149.91636 185.312697 103.78788 185.312697 0.000436760691 289.185047"></polygon>
                        <polygon id="Fill-34" fill="#DBBF95" points="484.709045 254.560639 484.709045 243.494021 479.180746 237.960165 479.180746 221.358598 481.944349 224.125526 481.944349 235.193237 484.754904 237.915361 484.618417 221.450392 487.47374 218.592763 490.238435 221.358598 490.238435 243.723505 493.150537 240.809052 493.00313 235.422722 495.767825 232.655794 495.767825 238.190742 495.767825 243.723505 490.238435 249.256268 490.238435 254.560639"></polygon>
                        <polygon id="Fill-36" fill="#B79A74" points="301.2499 289.185047 301.2499 272.584573 292.955814 264.28379 292.955814 239.382532 297.102857 243.532924 297.102857 260.133398 301.317598 264.214944 301.113412 239.51913 305.396943 235.23214 309.543985 239.382532 309.543985 272.9288 313.911592 268.556573 313.691028 260.477625 317.836979 256.328326 317.836979 264.628016 317.836979 272.9288 309.543985 281.229584 309.543985 289.185047"></polygon>
                        <polygon id="Fill-38" fill="#B79A74" points="160.547006 289.185047 160.547006 268.213439 168.841092 259.912656 168.841092 245.939233 164.694049 250.089625 164.694049 255.762264 160.479308 259.84381 160.683494 229.684078 156.399964 225.397089 152.252921 229.54748 152.252921 268.557666 147.885314 264.185439 148.105878 249.54979 143.959927 245.400491 143.959927 260.256882 143.959927 268.557666 152.252921 276.858449 152.252921 289.185047"></polygon>
                        <polygon id="Fill-40" fill="#7CA4CA" points="968.691319 312.267913 980.223985 300.725934 1141.67148 300.725934 1164.73572 323.809893 1003.28713 323.809893 991.754468 312.267913"></polygon>
                        <path d="M109.53849,156.268041 C97.1716106,156.268041 86.8378526,164.960041 84.289354,176.570866 C81.9723385,175.349134 79.3364877,174.655216 76.5357598,174.655216 C67.3288444,174.655216 59.8646042,182.125485 59.8646042,191.339835 C59.8646042,191.454577 59.8711556,191.567134 59.8733394,191.680784 L49.6575068,191.680784 C45.166515,191.680784 41.4922657,195.358 41.4922657,199.852619 C41.4922657,204.347237 45.166515,208.024454 49.6575068,208.024454 L104.775614,208.024454 C105.361965,208.024454 105.934122,207.958887 106.487716,207.839773 C107.48899,207.957794 108.505551,208.024454 109.53849,208.024454 C123.819472,208.024454 135.395814,196.438763 135.395814,182.146247 C135.395814,167.854825 123.819472,156.268041 109.53849,156.268041" id="Fill-10" fill="#000000" opacity="0.0700000003"></path>
                        <path d="M109.53849,148.618557 C97.1716106,148.618557 86.8378526,157.309464 84.289354,168.920289 C81.9723385,167.699649 79.3364877,167.005732 76.5357598,167.005732 C67.3288444,167.005732 59.8646042,174.476 59.8646042,183.690351 C59.8646042,183.805093 59.8711556,183.917649 59.8733394,184.031299 L49.6575068,184.031299 C45.166515,184.031299 41.4922657,187.708515 41.4922657,192.203134 C41.4922657,196.697753 45.166515,200.374969 49.6575068,200.374969 L104.775614,200.374969 C105.361965,200.374969 105.934122,200.309402 106.487716,200.189196 C107.48899,200.307216 108.505551,200.374969 109.53849,200.374969 C123.819472,200.374969 135.395814,188.789278 135.395814,174.496763 C135.395814,160.204247 123.819472,148.618557 109.53849,148.618557" id="Fill-12" fill="#F8FEFF"></path>
                    </g>
                </g>
            </g>
        </g>
    </g>
</svg>