<?xml version="1.0" encoding="UTF-8"?>
<svg width="1200px" height="721px" viewBox="0 0 1200 721" version="1.1" xmlns="http://www.w3.org/2000/svg" xmlns:xlink="http://www.w3.org/1999/xlink">
    <!-- Generator: Sketch 52.2 (67145) - http://www.bohemiancoding.com/sketch -->
    <title>electrogeochemistry - heroic</title>
    <desc>Created with Sketch.</desc>
    <defs>
        <polygon id="path-1" points="0.0786410491 0.190414191 94.5891976 0.190414191 94.5891976 52.3196561 0.0786410491 52.3196561"></polygon>
    </defs>
    <g id="Page-1" stroke="none" stroke-width="1" fill="none" fill-rule="evenodd">
        <g id="crt-frontier-electro-geo-v1.0">
            <rect fill="#F6F6EF" x="0" y="0" width="1200" height="10258"></rect>
            <g id="electrogeochemistry---heroic" transform="translate(0.000000, -47.000000)">
                <g id="Group-85" stroke-width="1" fill-rule="evenodd" transform="translate(0.000000, 88.798790)">
                    <polygon id="Fill-1" fill="#7CA4CA" points="0 578.20121 1207 578.20121 1207 443.993949 0 443.993949"></polygon>
                    <polygon id="Fill-2" fill="#99867F" points="0 443.993949 1207 443.993949 1207 420.785174 0 420.785174"></polygon>
                    <polygon id="Fill-3" fill="#CCE9CB" points="0 420.785174 1207 420.785174 1207 374.367625 0 374.367625"></polygon>
                    <polygon id="Fill-4" fill="#D3D3C5" points="951.528828 71.7793155 916.691 106.693055 881.855372 71.7793155 823.792692 129.969248 800.56784 129.969248 684.44468 246.350214 614.771224 246.350214 487.035088 374.367625 1207 374.367625 1207 188.15918 1148.93842 129.969248 1102.48982 129.969248 997.977432 25.2269289"></polygon>
                    <polygon id="Fill-5" fill="#636666" points="835.925428 235.114977 766.349426 304.740752 743.157059 304.740752 719.964693 327.949709 673.579959 327.949709 627.196324 374.367625 1207 374.367625 1173.42855 339.554738 1125.82727 339.554738 1056.25126 269.928963 1009.86653 269.928963 963.482895 269.928963 928.693796 235.114977"></polygon>
                    <polygon id="Fill-6" fill="#BCD69C" points="220.325054 223.006051 185.536078 257.936324 115.960323 257.936324 57.9812597 292.865494 34.7889754 292.865494 0 327.794663 0 374.367625 556.611529 374.367625 463.842392 281.221702 417.458921 281.221702 382.669946 246.292532 289.901907 246.292532 266.709622 223.006051"></polygon>
                    <g id="Group-84" transform="translate(56.467836, 0.000000)">
                        <path d="M696.690764,8.07261725 C684.243944,8.07261725 673.844486,16.8261668 671.278414,28.52068 C668.94752,27.2912427 666.293532,26.5923235 663.474699,26.5923235 C654.208269,26.5923235 646.695779,34.1164357 646.695779,43.3972014 C646.695779,43.5127707 646.702372,43.6261387 646.70457,43.7406073 L636.422701,43.7406073 C631.902679,43.7406073 628.204678,47.4443285 628.204678,51.9713433 C628.204678,56.4983582 631.902679,60.2020793 636.422701,60.2020793 L691.897101,60.2020793 C692.488341,60.2020793 693.063097,60.1360397 693.62027,60.0149671 C694.628016,60.1338384 695.651148,60.2020793 696.690764,60.2020793 C711.064061,60.2020793 722.715235,48.5328813 722.715235,34.1373483 C722.715235,19.7418153 711.064061,8.07261725 696.690764,8.07261725" id="Fill-7" fill="#000000" opacity="0.0696614583"></path>
                        <g id="Group-11" transform="translate(627.196324, 0.000000)">
                            <mask id="mask-2" fill="white">
                                <use xlink:href="#path-1"></use>
                            </mask>
                            <g id="Clip-10"></g>
                            <path d="M68.5647268,0.190194059 C56.1179063,0.190194059 45.7184482,8.94374356 43.1523767,20.6382568 C40.8214826,19.4088195 38.1674943,18.7099003 35.348662,18.7099003 C26.0822316,18.7099003 18.5697413,26.2340125 18.5697413,35.5147782 C18.5697413,35.6303475 18.5763351,35.7437155 18.578533,35.8581842 L8.29666363,35.8581842 C3.77664132,35.8581842 0.0786410491,39.5619053 0.0786410491,44.0889201 C0.0786410491,48.615935 3.77664132,52.3196561 8.29666363,52.3196561 L63.7710635,52.3196561 C64.3623039,52.3196561 64.93706,52.2536165 65.4942327,52.1325439 C66.501979,52.2514152 67.5251107,52.3196561 68.5647268,52.3196561 C82.9380241,52.3196561 94.5891976,40.6504581 94.5891976,26.2549251 C94.5891976,11.8604927 82.9380241,0.190194059 68.5647268,0.190194059" id="Fill-9" fill="#F8FEFF" mask="url(#mask-2)"></path>
                        </g>
                        <path d="M68.4860858,228.051437 C56.0392653,228.051437 45.6387082,236.806087 43.0737356,248.500601 C40.7417426,247.270063 38.0888533,246.571143 35.270021,246.571143 C26.0035906,246.571143 18.4911003,254.095256 18.4911003,263.376021 C18.4911003,263.491591 18.4976941,263.604959 18.499892,263.719427 L8.21802258,263.719427 C3.69800027,263.719427 0,267.423148 0,271.950163 C0,276.477178 3.69800027,280.180899 8.21802258,280.180899 L63.6924224,280.180899 C64.2825639,280.180899 64.8584189,280.11486 65.4155916,279.994888 C66.4233379,280.113759 67.4464696,280.180899 68.4860858,280.180899 C82.8593831,280.180899 94.5105566,268.511701 94.5105566,254.116168 C94.5105566,239.721736 82.8593831,228.051437 68.4860858,228.051437" id="Fill-12" fill="#000000" opacity="0.0696614583"></path>
                        <path d="M68.4860858,219.97882 C56.0392653,219.97882 45.6387082,228.732369 43.0737356,240.426883 C40.7417426,239.197445 38.0888533,238.498526 35.270021,238.498526 C26.0035906,238.498526 18.4911003,246.022638 18.4911003,255.303404 C18.4911003,255.418973 18.4976941,255.532341 18.499892,255.64681 L8.21802258,255.64681 C3.69800027,255.64681 0,259.350531 0,263.877546 C0,268.404561 3.69800027,272.108282 8.21802258,272.108282 L63.6924224,272.108282 C64.2825639,272.108282 64.8584189,272.042242 65.4155916,271.92117 C66.4233379,272.040041 67.4464696,272.108282 68.4860858,272.108282 C82.8593831,272.108282 94.5105566,260.439084 94.5105566,246.043551 C94.5105566,231.648018 82.8593831,219.97882 68.4860858,219.97882" id="Fill-14" fill="#F8FEFF"></path>
                        <path d="M1103.49815,93.957009 C1091.05133,93.957009 1080.65187,102.711659 1078.0858,114.406172 C1075.7549,113.175634 1073.10091,112.476715 1070.28208,112.476715 C1061.01565,112.476715 1053.50426,120.000827 1053.50426,129.281593 C1053.50426,129.397162 1053.51085,129.51053 1053.51305,129.624999 L1043.23008,129.624999 C1038.71116,129.624999 1035.01316,133.32872 1035.01316,137.855735 C1035.01316,142.38275 1038.71116,146.086471 1043.23008,146.086471 L1098.70448,146.086471 C1099.29572,146.086471 1099.87048,146.020431 1100.42765,145.900459 C1101.4354,146.019331 1102.45853,146.086471 1103.49815,146.086471 C1117.87144,146.086471 1129.52372,134.417273 1129.52372,120.02174 C1129.52372,105.627308 1117.87144,93.957009 1103.49815,93.957009" id="Fill-16" fill="#000000" opacity="0.0696614583"></path>
                        <path d="M1103.49815,86.0029789 C1091.05133,86.0029789 1080.65187,94.7565284 1078.0858,106.451042 C1075.7549,105.221604 1073.10091,104.522685 1070.28208,104.522685 C1061.01565,104.522685 1053.50426,112.046797 1053.50426,121.327563 C1053.50426,121.443132 1053.51085,121.5565 1053.51305,121.670969 L1043.23008,121.670969 C1038.71116,121.670969 1035.01316,125.37469 1035.01316,129.901705 C1035.01316,134.42872 1038.71116,138.132441 1043.23008,138.132441 L1098.70448,138.132441 C1099.29572,138.132441 1099.87048,138.066401 1100.42765,137.945329 C1101.4354,138.0642 1102.45853,138.132441 1103.49815,138.132441 C1117.87144,138.132441 1129.52372,126.463243 1129.52372,112.06771 C1129.52372,97.6732776 1117.87144,86.0029789 1103.49815,86.0029789" id="Fill-18" fill="#F8FEFF"></path>
                        <path d="M906.834755,269.660548 L841.746654,269.660548 C838.832212,269.660548 836.037557,270.820644 833.975908,272.884382 L732.73532,374.28159 L709.523088,374.28159 L822.369792,261.25921 C824.431441,259.195472 827.226096,258.035377 830.140538,258.035377 L895.22754,258.035377 L906.834755,269.660548 Z" id="Fill-20" fill="#7CA4CA"></path>
                        <path d="M593.456762,385.905991 C593.456762,392.326141 598.653743,397.531162 605.063977,397.531162 L860.408422,397.531162 C866.818656,397.531162 872.014539,392.326141 872.014539,385.905991 C872.014539,379.485841 866.818656,374.280819 860.408422,374.280819 L605.063977,374.280819 C598.653743,374.280819 593.456762,379.485841 593.456762,385.905991" id="Fill-22" fill="#7CA4CA"></path>
                        <path d="M663.096316,397.530612 L654.707954,405.93085 C652.647404,407.995688 651.489101,410.794667 651.489101,413.713617 L651.489101,455.653168 L697.916862,455.653168 L697.916862,413.713617 C697.916862,410.794667 696.758558,407.995688 694.696909,405.93085 L686.309647,397.530612 L663.096316,397.530612 Z" id="Fill-24" fill="#7CA4CA"></path>
                        <polygon id="Fill-26" fill="#A0BC8E" points="94.3737665 385.905991 117.587098 316.158263 140.800429 385.905991 117.587098 385.905991"></polygon>
                        <polygon id="Fill-28" fill="#A0BC8E" points="140.800099 385.905991 164.013431 316.158263 187.226762 385.905991 164.013431 385.905991"></polygon>
                        <polygon id="Fill-30" fill="#8DA97B" points="140.800099 292.909901 117.586768 385.905771 164.013431 385.905771"></polygon>
                        <path d="M1118.09794,273.68159 L1084.18294,250.46977 C1084.19832,250.25404 1084.20931,250.03611 1084.20931,249.814877 C1084.20931,246.329087 1082.19272,243.315479 1079.26509,241.878017 L1076.37922,200.836605 L1074.66045,200.836605 L1071.55259,241.854903 C1068.60188,243.284661 1066.56441,246.311476 1066.56441,249.814877 C1066.56441,250.017398 1066.5732,250.217719 1066.58749,250.415837 L1032.53072,273.429539 L1033.39011,274.922034 L1070.41956,257.117756 C1071.83392,258.085237 1073.545,258.652077 1075.38686,258.652077 C1077.21003,258.652077 1078.90353,258.097344 1080.3091,257.148575 L1117.23855,275.172984 L1118.09794,273.68159 Z" id="Fill-32" fill="#EDF0F2"></path>
                        <polygon id="Fill-34" fill="#EDF0F2" points="1070.74606 374.28137 1079.88172 374.28137 1078.00909 256.282906 1072.61869 256.282906"></polygon>
                        <path d="M1071.05729,250.100168 C1071.05729,247.744756 1072.96288,245.836211 1075.31466,245.836211 C1077.66643,245.836211 1079.57203,247.744756 1079.57203,250.100168 C1079.57203,252.455581 1077.66643,254.364125 1075.31466,254.364125 C1072.96288,254.364125 1071.05729,252.455581 1071.05729,250.100168" id="Fill-36" fill="#767F87"></path>
                        <polygon id="Fill-38" fill="#EDF0F2" points="885.245137 374.28137 894.38189 374.28137 892.509263 256.282906 887.118864 256.282906"></polygon>
                        <path d="M872.5094,299.62888 L890.81038,262.795291 C891.026876,262.780983 891.243371,262.763372 891.460965,262.732554 C894.909501,262.253767 897.612943,259.840019 898.632777,256.737258 L938.827238,248.241263 L938.590962,246.53524 L897.596458,249.084369 C895.778778,246.352531 892.503878,244.747768 889.038857,245.227656 C888.838846,245.256273 888.643231,245.292595 888.448715,245.333319 L861.01318,214.706352 L859.655965,215.762986 L882.346191,250.055151 C881.584612,251.590572 881.25822,253.365937 881.510981,255.193032 C881.761544,257.001417 882.541806,258.606179 883.673734,259.870838 L870.917007,298.980592 L872.5094,299.62888 Z" id="Fill-40" fill="#EDF0F2"></path>
                        <path d="M889.374809,249.723962 C891.703505,249.400368 893.853071,251.030446 894.176165,253.362745 C894.49816,255.695043 892.872799,257.847934 890.543003,258.171528 C888.214307,258.494022 886.064742,256.865045 885.741647,254.532746 C885.418553,252.200448 887.046113,250.047556 889.374809,249.723962" id="Fill-42" fill="#767F87"></path>
                        <polygon id="Fill-44" fill="#EDF0F2" points="982.57068 374.28137 991.707433 374.28137 989.834805 256.282906 984.444407 256.282906"></polygon>
                        <path d="M1010.90538,300.123297 L994.825402,262.264993 C994.955079,262.091089 995.08146,261.913883 995.200147,261.727871 C997.074973,258.79131 996.999145,255.164635 995.305648,252.373361 L1014.95835,216.244195 L1013.50882,215.315238 L988.821784,248.191954 C985.565566,247.80232 982.22143,249.25299 980.336714,252.20496 C980.227917,252.375563 980.127912,252.548366 980.032302,252.723371 L938.960872,253.728274 L938.882845,255.448606 L979.65426,260.436797 C980.326823,262.015143 981.462049,263.415183 983.01378,264.41018 C984.550127,265.393069 986.274395,265.842139 987.97009,265.800313 L1009.37783,300.915772 L1010.90538,300.123297 Z" id="Fill-46" fill="#EDF0F2"></path>
                        <path d="M983.968007,254.869438 C985.235108,252.886049 987.868216,252.307102 989.848542,253.575062 C991.828868,254.845224 992.40802,257.481305 991.13982,259.465795 C989.872719,261.449184 987.24071,262.028131 985.260384,260.75907 C983.27896,259.490009 982.700907,256.853928 983.968007,254.869438" id="Fill-48" fill="#767F87"></path>
                        <polygon id="Fill-50" fill="#A0BC8E" points="906.834755 385.905991 930.048086 316.158263 953.260319 385.905991 930.048086 385.905991"></polygon>
                        <polygon id="Fill-52" fill="#A0BC8E" points="953.260429 385.905991 976.47376 316.158263 999.687091 385.905991 976.47376 385.905991"></polygon>
                        <polygon id="Fill-54" fill="#8DA97B" points="953.260429 292.909901 930.048196 385.905771 976.47376 385.905771"></polygon>
                        <polygon id="Fill-56" fill="#A0BC8E" points="361.325098 397.530612 384.538429 327.782884 407.75176 397.530612 384.538429 397.530612"></polygon>
                        <polygon id="Fill-58" fill="#A0BC8E" points="407.751321 397.530612 430.964652 327.782884 454.177983 397.530612 430.964652 397.530612"></polygon>
                        <polygon id="Fill-60" fill="#8DA97B" points="407.751321 304.533422 384.537989 397.530392 430.964652 397.530392"></polygon>
                        <polygon id="Fill-62" fill="#C9C9BD" points="883.621314 83.6678185 895.228529 95.2929902 906.834645 83.6678185 918.44186 95.2929902 930.047977 83.6678185 941.654093 95.2929902 953.260209 83.6678185 964.867424 95.2929902 976.47354 83.6678185 988.080755 95.2929902 999.686871 83.6678185 976.47354 60.418576 895.228529 72.0426469"></polygon>
                        <polygon id="Fill-64" fill="#FCFCFC" points="906.834755 83.6678185 918.44197 72.0426469 930.048086 83.6678185 941.654203 72.0426469 953.260319 83.6678185 964.867534 72.0426469 976.47365 83.6678185 988.080865 72.0426469 941.654203 25.5452624 895.22754 72.0426469"></polygon>
                        <path d="M338.870928,460.145732 L299.069895,432.905496 C299.088577,432.652345 299.101765,432.395891 299.101765,432.138336 C299.101765,428.047183 296.735704,424.510762 293.299256,422.82345 L289.913361,374.659666 L287.894571,374.659666 L284.249321,422.795934 C280.785399,424.47334 278.395161,428.02517 278.395161,432.138336 C278.395161,432.374978 278.406151,432.608318 278.421536,432.841658 L238.455659,459.848554 L239.463406,461.599704 L282.919579,440.706975 C284.580108,441.841756 286.586809,442.507655 288.748463,442.507655 C290.888138,442.507655 292.875058,441.857165 294.525696,440.743297 L337.862083,461.895782 L338.870928,460.145732 Z" id="Fill-66" fill="#EDF0F2"></path>
                        <polygon id="Fill-68" fill="#EDF0F2" points="283.302677 578.20121 294.02413 578.20121 291.82621 439.727167 285.500597 439.727167"></polygon>
                        <path d="M283.667532,432.471176 C283.667532,429.707419 285.903915,427.467575 288.663404,427.467575 C291.422892,427.467575 293.659276,429.707419 293.659276,432.471176 C293.659276,435.234933 291.422892,437.475877 288.663404,437.475877 C285.903915,437.475877 283.667532,435.234933 283.667532,432.471176" id="Fill-70" fill="#767F87"></path>
                        <polygon id="Fill-72" fill="#EDF0F2" points="65.6125557 578.20121 76.334009 578.20121 74.1360891 439.727167 67.8104756 439.727167"></polygon>
                        <path d="M50.6660408,490.594392 L72.1430153,447.370371 C72.3968751,447.353861 72.6507348,447.330747 72.9067925,447.295526 C76.9520641,446.734189 80.1258605,443.90109 81.3226279,440.261208 L128.491088,430.290328 L128.21415,428.288227 L80.1071782,431.279822 C77.9729979,428.072498 74.1310339,426.189269 70.0637831,426.753907 C69.8297046,426.785826 69.600022,426.828752 69.3714383,426.876081 L37.1752083,390.935127 L35.5817164,392.175571 L62.2095162,432.419005 C61.3149628,434.221886 60.9336237,436.303234 61.2303429,438.448421 C61.5237652,440.570493 62.4402978,442.453722 63.7678415,443.937412 L48.7967099,489.833836 L50.6660408,490.594392 Z" id="Fill-74" fill="#EDF0F2"></path>
                        <path d="M70.45798,432.030472 C73.1910934,431.650744 75.7132065,433.56259 76.0923477,436.299932 C76.4714889,439.036173 74.5625955,441.563289 71.829482,441.943016 C69.0963686,442.322744 66.5731566,440.409797 66.1951143,437.673556 C65.8159731,434.936214 67.7248666,432.410199 70.45798,432.030472" id="Fill-76" fill="#767F87"></path>
                        <polygon id="Fill-78" fill="#EDF0F2" points="179.826585 578.20121 190.548039 578.20121 188.350119 439.727167 182.024505 439.727167"></polygon>
                        <path d="M213.077597,491.174881 L194.207355,446.747838 C194.359012,446.543115 194.507371,446.33509 194.646939,446.117159 C196.847057,442.672093 196.756943,438.41474 194.771122,435.139176 L217.832797,392.739549 L216.133805,391.650996 L187.161923,430.232433 C183.341938,429.775659 179.417552,431.478381 177.204247,434.942158 C177.076768,435.141377 176.960278,435.343899 176.848184,435.549722 L128.649998,436.728529 L128.556586,438.74714 L176.404204,444.602651 C177.192158,446.453961 178.525197,448.097247 180.346173,449.263947 C182.148468,450.41964 184.172752,450.943554 186.16187,450.896225 L211.286292,492.104938 L213.077597,491.174881 Z" id="Fill-80" fill="#EDF0F2"></path>
                        <path d="M181.465904,438.068032 C182.952797,435.741237 186.041973,435.061029 188.366273,436.550222 C190.690574,438.039415 191.369731,441.133371 189.882838,443.461267 C188.395945,445.790263 185.306769,446.469371 182.98137,444.980178 C180.658168,443.490985 179.979011,440.395928 181.465904,438.068032" id="Fill-82" fill="#767F87"></path>
                    </g>
                </g>
                <path d="M247.402255,577.696672 L373.595238,577.696672" id="Line" stroke="#FFFFFF" stroke-width="10" opacity="0.128022693" stroke-linecap="round"></path>
                <path d="M425.880952,615.032526 L552.073935,615.032526" id="Line-Copy-5" stroke="#FFFFFF" stroke-width="10" opacity="0.128022693" stroke-linecap="round"></path>
                <path d="M47.7481197,623.105144 L173.941103,623.105144" id="Line-Copy-4" stroke="#FFFFFF" stroke-width="10" opacity="0.128022693" stroke-linecap="round"></path>
                <path d="M672.927735,630.168684 L767.861738,630.168684" id="Line-Copy" stroke="#FFFFFF" stroke-width="10" opacity="0.128022693" stroke-linecap="round"></path>
                <path d="M1046.1675,592.832829 L1155.06976,592.832829" id="Line-Copy-2" stroke="#FFFFFF" stroke-width="10" opacity="0.128022693" stroke-linecap="round"></path>
                <path d="M720.320384,569.624054 L882.814119,569.624054" id="Line-Copy-3" stroke="#FFFFFF" stroke-width="10" opacity="0.128022693" stroke-linecap="round"></path>
                <path d="M718.452381,505.043116 L718.452381,532.792738" id="Line-2" stroke="#FFFFFF" stroke-width="4" opacity="0.129185268" stroke-linecap="round"></path>
                <path d="M743.661236,505.043116 L743.661236,532.792738" id="Line-2-Copy" stroke="#FFFFFF" stroke-width="4" opacity="0.129185268" stroke-linecap="round"></path>
                <g id="Group-5-Copy" stroke-width="1" fill-rule="evenodd" transform="translate(552.578112, 491.420575)" fill="#6B8192">
                    <g id="molecule" transform="translate(38.317460, 38.344932)">
                        <circle id="Oval" cx="5.5" cy="5.5" r="3.36111111"></circle>
                    </g>
                    <g id="molecule" transform="translate(0.000000, 38.344932)">
                        <circle id="Oval" cx="5.5" cy="5.5" r="3.36111111"></circle>
                    </g>
                    <g id="molecule" opacity="0.728143601" transform="translate(19.158730, 57.517398)">
                        <circle id="Oval" cx="5.5" cy="5.5" r="3.36111111"></circle>
                    </g>
                    <g id="molecule" opacity="0.716355097" transform="translate(38.317460, 19.172466)">
                        <circle id="Oval" cx="5.5" cy="5.5" r="3.36111111"></circle>
                    </g>
                    <g id="molecule" opacity="0.216750372" transform="translate(57.476190, 0.000000)">
                        <circle id="Oval" cx="5.5" cy="5.5" r="3.36111111"></circle>
                    </g>
                    <g id="molecule" opacity="0.728143601" transform="translate(57.476190, 57.517398)">
                        <circle id="Oval" cx="5.5" cy="5.5" r="3.36111111"></circle>
                    </g>
                    <g id="molecule" opacity="0.269740513" transform="translate(38.317460, 76.689864)">
                        <circle id="Oval" cx="5.5" cy="5.5" r="3.36111111"></circle>
                    </g>
                    <g id="molecule" opacity="0.269740513" transform="translate(0.000000, 76.689864)">
                        <circle id="Oval" cx="5.5" cy="5.5" r="3.36111111"></circle>
                    </g>
                    <g id="molecule" opacity="0.716355097" transform="translate(19.158730, 19.172466)">
                        <circle id="Oval" cx="5.5" cy="5.5" r="3.36111111"></circle>
                    </g>
                </g>
                <g id="Group-5-Copy-2" stroke-width="1" fill-rule="evenodd" transform="translate(940.794486, 498.484115)" fill="#6B8192">
                    <g id="molecule" transform="translate(38.317460, 38.344932)">
                        <circle id="Oval" cx="5.5" cy="5.5" r="3.36111111"></circle>
                    </g>
                    <g id="molecule" transform="translate(0.000000, 38.344932)">
                        <circle id="Oval" cx="5.5" cy="5.5" r="3.36111111"></circle>
                    </g>
                    <g id="molecule" opacity="0.728143601" transform="translate(19.158730, 57.517398)">
                        <circle id="Oval" cx="5.5" cy="5.5" r="3.36111111"></circle>
                    </g>
                    <g id="molecule" opacity="0.716355097" transform="translate(38.317460, 19.172466)">
                        <circle id="Oval" cx="5.5" cy="5.5" r="3.36111111"></circle>
                    </g>
                    <g id="molecule" opacity="0.216750372" transform="translate(57.476190, 0.000000)">
                        <circle id="Oval" cx="5.5" cy="5.5" r="3.36111111"></circle>
                    </g>
                    <g id="molecule" opacity="0.728143601" transform="translate(57.476190, 57.517398)">
                        <circle id="Oval" cx="5.5" cy="5.5" r="3.36111111"></circle>
                    </g>
                    <g id="molecule" opacity="0.269740513" transform="translate(38.317460, 76.689864)">
                        <circle id="Oval" cx="5.5" cy="5.5" r="3.36111111"></circle>
                    </g>
                    <g id="molecule" opacity="0.269740513" transform="translate(0.000000, 76.689864)">
                        <circle id="Oval" cx="5.5" cy="5.5" r="3.36111111"></circle>
                    </g>
                    <g id="molecule" opacity="0.716355097" transform="translate(19.158730, 19.172466)">
                        <circle id="Oval" cx="5.5" cy="5.5" r="3.36111111"></circle>
                    </g>
                </g>
            </g>
        </g>
    </g>
</svg>