<?xml version="1.0" encoding="UTF-8"?>
<svg width="1200px" height="505px" viewBox="0 0 1200 505" version="1.1" xmlns="http://www.w3.org/2000/svg" xmlns:xlink="http://www.w3.org/1999/xlink">
    <!-- Generator: Sketch 52.2 (67145) - http://www.bohemiancoding.com/sketch -->
    <title>bg-science</title>
    <desc>Created with Sketch.</desc>
    <defs>
        <rect id="path-1" x="0" y="0" width="1200" height="496"></rect>
        <polygon id="path-3" points="0 0.0820962567 5.01565106 0.0820962567 5.01565106 5.07520499 0 5.07520499"></polygon>
        <polygon id="path-5" points="0 0.0820962567 5.01565106 0.0820962567 5.01565106 5.07520499 0 5.07520499"></polygon>
        <polygon id="path-7" points="0 0.110181818 6.66786553 0.110181818 6.66786553 6.81145933 0 6.81145933"></polygon>
    </defs>
    <g id="Page-1" stroke="none" stroke-width="1" fill="none" fill-rule="evenodd">
        <g id="ocean-phytoplankton-copy">
            <g id="bg-science" transform="translate(0.000000, -84.000000)">
                <g id="Group-2" transform="translate(0.000000, 84.000000)">
                    <mask id="mask-2" fill="white">
                        <use xlink:href="#path-1"></use>
                    </mask>
                    <use id="Rectangle" fill="#F6F6EF" xlink:href="#path-1"></use>
                    <rect id="Rectangle" fill="#EEECE6" opacity="0.499255952" mask="url(#mask-2)" transform="translate(1405.884956, 495.884956) rotate(-315.000000) translate(-1405.884956, -495.884956) " x="900.384956" y="-9.61504422" width="1011" height="1011"></rect>
                    <rect id="Rectangle-Copy" fill="#B2A5A1" opacity="0.0528041295" mask="url(#mask-2)" transform="translate(-179.115044, -150.115044) rotate(-315.000000) translate(179.115044, 150.115044) " x="-684.615044" y="-655.615044" width="1011" height="1011"></rect>
                </g>
                <g id="cell-free" transform="translate(0.000000, 156.000000)">
                    <g id="Group-52" stroke-width="1" fill-rule="evenodd" transform="translate(0.000000, 93.600000)">
                        <polygon id="Fill-2" fill="#A0847A" points="0 338.7904 1200 338.7904 1200 326.59536 0 326.59536"></polygon>
                        <g id="Group-51" transform="translate(69.731136, 0.790400)">
                            <path d="M829.680624,107.495232 L785.712541,107.495232 L793.656687,115.433552 C795.608118,117.383552 796.704042,120.029312 796.704042,122.787392 L796.704042,193.615552 L818.688083,193.615552 L818.688083,122.787392 C818.688083,120.029312 819.785048,117.383552 821.736479,115.433552 L829.680624,107.495232 Z" id="Fill-3" fill="#DBDBD2"></path>
                            <path d="M796.70425,254.841288 C796.70425,257.754328 797.861578,260.547768 799.92333,262.606968 L799.925412,262.609048 C804.21752,266.898008 811.175022,266.898008 815.467129,262.609048 L815.469211,262.606968 C817.529922,260.547768 818.688291,257.754328 818.688291,254.841288 L818.688291,193.615448 L796.70425,193.615448 L796.70425,254.841288 Z" id="Fill-5" fill="#00C5D9"></path>
                            <path d="M752.736062,254.841288 C752.736062,257.754328 753.894432,260.547768 755.956184,262.606968 L755.957225,262.609048 C760.249332,266.898008 767.207875,266.898008 771.499983,262.609048 L771.501023,262.606968 C773.562775,260.547768 774.720104,257.754328 774.720104,254.841288 L774.720104,226.566808 L752.736062,226.566808 L752.736062,254.841288 Z" id="Fill-7" fill="#F5B189"></path>
                            <path d="M785.712437,107.495232 L741.744354,107.495232 L749.6885,115.433552 C751.640971,117.383552 752.735854,120.029312 752.735854,122.787392 L752.735854,226.565872 L774.719896,226.565872 L774.719896,122.787392 C774.719896,120.029312 775.81686,117.383552 777.768291,115.433552 L785.712437,107.495232 Z" id="Fill-9" fill="#DBDBD2"></path>
                            <path d="M862.655542,122.787704 C862.655542,120.029624 863.752507,117.383864 865.704978,115.433864 L873.648083,107.495544 L829.68,107.495544 L837.623105,115.433864 C839.575577,117.383864 840.672541,120.029624 840.672541,122.787704 L840.672541,215.583784 L862.655542,215.583784 L862.655542,122.787704 Z" id="Fill-11" fill="#DBDBD2"></path>
                            <path d="M840.672437,215.583264 L840.672437,254.841184 C840.672437,257.754224 841.829766,260.547664 843.891518,262.606864 L843.892559,262.608944 C848.184666,266.897904 855.143209,266.897904 859.435317,262.608944 L859.436357,262.606864 C861.498109,260.547664 862.655438,257.754224 862.655438,254.841184 L862.655438,215.583264 L840.672437,215.583264 Z" id="Fill-13" fill="#6AA339"></path>
                            <polyline id="Fill-15" fill="#B2A5A1" points="708.768916 325.80496 730.752958 303.83704 884.639167 303.83704 906.623209 325.80496"></polyline>
                            <path d="M1008.58699,251.73044 C1005.05152,248.19756 1003.06366,243.4042 1003.06366,238.40804 L1003.06366,146.7206 L983.151778,146.7206 L983.151778,238.40804 C983.151778,243.4042 981.164961,248.19756 977.629488,251.73044 L963.238855,266.11052 L1022.97658,266.11052 L1008.58699,251.73044 Z" id="Fill-17" fill="#DBDBD2"></path>
                            <path d="M1022.97679,266.110624 L963.239063,266.110624 L936.745395,292.583824 C929.381995,299.941824 929.381995,311.871664 936.745395,319.228624 L943.326141,325.804544 L1042.89075,325.804544 L1049.47046,319.228624 C1056.83386,311.871664 1056.83386,299.941824 1049.47046,292.583824 L1022.97679,266.110624 Z" id="Fill-19" fill="#468ACC"></path>
                            <g id="Group-4" transform="translate(477.710321, 208.000000)">
                                <path d="M1.646295,73.0496 C0.578361926,76.3723719 0,79.918143 0,83.6005116 C0,102.471519 15.1441219,117.7696 33.8243976,117.7696 C52.5054878,117.7696 67.6496097,102.471519 67.6496097,83.6005116 C67.6496097,79.918143 67.0704332,76.3723719 66.0033147,73.0496 L1.646295,73.0496 Z" id="Fill-21" fill="#B3C99B"></path>
                                <path d="M39.6452605,50.2462936 L39.6452605,0.2496 L26.963586,0.2496 L26.963586,50.2462936 C14.7294903,52.5579354 4.81986467,61.4237135 1.04076323,73.0496 L65.5680833,73.0496 C61.7889818,61.4237135 51.8785394,52.5579354 39.6452605,50.2462936" id="Fill-23" fill="#DBDBD2"></path>
                            </g>
                            <g id="Group-3" transform="translate(581.786644, 154.960000)">
                                <path d="M2.08152645,133.3696 C7.6087096,154.90695 26.9468453,170.8096 49.9566349,170.8096 C72.9664244,170.8096 92.3045601,154.90695 97.8317433,133.3696 L2.08152645,133.3696 Z" id="Fill-25" fill="#C9CA4D"></path>
                                <path d="M98.8725065,121.933614 C98.8725065,97.7674676 81.5623351,77.6592367 58.6790219,73.3244862 L58.6790219,0.2496 L40.1934846,0.2496 L40.1934846,73.3244862 C17.3101714,77.6592367 0,97.7674676 0,121.933614 C0,126.243834 0.553113319,130.423522 1.58757525,134.4096 L97.2849313,134.4096 C98.3193932,130.423522 98.8725065,126.243834 98.8725065,121.933614" id="Fill-27" fill="#DBDBD2"></path>
                            </g>
                            <g id="Group" opacity="0.388811384" transform="translate(925.238508, 0.000000)" stroke="#EAEAE4" stroke-width="6">
                                <polygon id="Stroke-29" points="39.3986123 44.8552 13.6261925 44.8552 0.739462272 67.158 13.6261925 89.46184 39.3986123 89.46184 52.2853426 67.158"></polygon>
                                <polygon id="Stroke-31" points="78.053183 22.552088 52.2807632 22.552088 39.3950737 44.854888 52.2807632 67.158728 78.053183 67.158728 90.9399133 44.854888"></polygon>
                                <polygon id="Stroke-33" points="116.164059 44.8552 90.3916392 44.8552 77.5059497 67.158 90.3916392 89.46184 116.164059 89.46184 129.050789 67.158"></polygon>
                                <polygon id="Stroke-35" points="116.164059 0.249496 90.3916392 0.249496 77.5059497 22.552296 90.3916392 44.855096 116.164059 44.855096 129.050789 22.552296"></polygon>
                                <polygon id="Stroke-37" points="154.696652 67.158312 128.924232 67.158312 116.038543 89.461112 128.924232 111.764952 154.696652 111.764952 167.583382 89.461112"></polygon>
                                <polygon id="Stroke-39" points="154.696652 22.552088 128.924232 22.552088 116.038543 44.854888 128.924232 67.158728 154.696652 67.158728 167.583382 44.854888"></polygon>
                            </g>
                            <g id="Group-2" opacity="0.388811384" transform="translate(0.000000, 172.640000)" stroke="#EAEAE4" stroke-width="6">
                                <polygon id="Stroke-41" points="39.441804 67.049112 13.6693842 67.049112 0.783694709 44.746312 13.6693842 22.443512 39.441804 22.443512 52.3285343 44.746312"></polygon>
                                <polygon id="Stroke-43" points="78.0968951 89.352224 52.3244753 89.352224 39.437745 67.049424 52.3244753 44.745584 78.0968951 44.745584 90.9825846 67.049424"></polygon>
                                <polygon id="Stroke-45" points="116.207667 67.049112 90.4352472 67.049112 77.5495577 44.746312 90.4352472 22.443512 116.207667 22.443512 129.093356 44.746312"></polygon>
                                <polygon id="Stroke-47" points="154.740364 44.746 128.967944 44.746 116.081214 22.4432 128.967944 0.1404 154.740364 0.1404 167.626054 22.4432"></polygon>
                                <polygon id="Stroke-49" points="154.740364 89.352224 128.967944 89.352224 116.081214 67.049424 128.967944 44.745584 154.740364 44.745584 167.626054 67.049424"></polygon>
                            </g>
                        </g>
                    </g>
                    <rect id="Rectangle" stroke="#B2A5A1" stroke-width="3" x="801.846921" y="231.34" width="151.032958" height="175.88"></rect>
                </g>
                <g id="Group-35" opacity="0.400000006" transform="translate(937.629203, 219.629203) rotate(-45.000000) translate(-937.629203, -219.629203) translate(894.629203, 181.129203)">
                    <polygon id="Stroke-1" stroke="#DBDBD2" stroke-width="3" points="54.3964016 16.6266773 29.8964916 16.6266773 17.6464466 37.6266773 29.8964916 58.6266773 54.3964016 58.6266773 66.6464466 37.6266773"></polygon>
                    <path d="M65.6126984,37.9802307 L81.6126984,37.9802307" id="Stroke-2" stroke="#DBDBD2" stroke-width="3"></path>
                    <path d="M0.558874503,37.9802307 L16.5588745,37.9802307" id="Stroke-3" stroke="#DBDBD2" stroke-width="3"></path>
                    <path d="M20.8223305,1.98885271 L28.8223305,15.9888527" id="Stroke-5" stroke="#DBDBD2" stroke-width="3"></path>
                    <path d="M29.5294373,59.264502 L21.5294373,73.264502" id="Stroke-6" stroke="#DBDBD2" stroke-width="3"></path>
                    <path d="M53.3492424,58.5573952 L61.3492424,72.5573952" id="Stroke-7" stroke="#DBDBD2" stroke-width="3"></path>
                    <path d="M61.3492424,1.98885271 L53.3492424,15.9888527" id="Stroke-8" stroke="#DBDBD2" stroke-width="3"></path>
                    <g id="Group-34" transform="translate(0.353553, 0.333784)">
                        <path d="M26.6344968,16.4797253 C26.6344968,15.1008323 27.7572202,13.9831709 29.1423585,13.9831709 C30.527316,13.9831709 31.6502202,15.1008323 31.6502202,16.4797253 C31.6502202,17.8584383 30.527316,18.9762797 29.1423585,18.9762797 C27.7572202,18.9762797 26.6344968,17.8584383 26.6344968,16.4797253" id="Fill-9" fill="#DBDBD2"></path>
                        <path d="M14.3357383,37.6856025 C14.3357383,36.3068895 15.4586426,35.1890481 16.8436,35.1890481 C18.2285574,35.1890481 19.3514617,36.3068895 19.3514617,37.6856025 C19.3514617,39.0643155 18.2285574,40.1821569 16.8436,40.1821569 C15.4586426,40.1821569 14.3357383,39.0643155 14.3357383,37.6856025" id="Fill-11" fill="#DBDBD2"></path>
                        <path d="M63.5305734,37.6856025 C63.5305734,36.3068895 64.6532968,35.1890481 66.0384351,35.1890481 C67.4233926,35.1890481 68.5462968,36.3068895 68.5462968,37.6856025 C68.5462968,39.0643155 67.4233926,40.1821569 66.0384351,40.1821569 C64.6532968,40.1821569 63.5305734,39.0643155 63.5305734,37.6856025" id="Fill-13" fill="#DBDBD2"></path>
                        <path d="M79.8071691,37.6856025 C79.8071691,36.3068895 80.9298926,35.1890481 82.3150309,35.1890481 C83.6999883,35.1890481 84.8228926,36.3068895 84.8228926,37.6856025 C84.8228926,39.0643155 83.6999883,40.1821569 82.3150309,40.1821569 C80.9298926,40.1821569 79.8071691,39.0643155 79.8071691,37.6856025" id="Fill-15" fill="#DBDBD2"></path>
                        <g id="Group-19" transform="translate(0.000000, 35.106952)">
                            <mask id="mask-4" fill="white">
                                <use xlink:href="#path-3"></use>
                            </mask>
                            <g id="Clip-18"></g>
                            <path d="M-7.23404255e-05,2.57865062 C-7.23404255e-05,1.19993761 1.12283191,0.0820962567 2.50778936,0.0820962567 C3.89292766,0.0820962567 5.01565106,1.19993761 5.01565106,2.57865062 C5.01565106,3.95736364 3.89292766,5.07520499 2.50778936,5.07520499 C1.12283191,5.07520499 -7.23404255e-05,3.95736364 -7.23404255e-05,2.57865062" id="Fill-17" fill="#DBDBD2" mask="url(#mask-4)"></path>
                        </g>
                        <path d="M59.2740447,2.61294742 C59.2740447,1.23405437 60.3969489,0.116393048 61.7819064,0.116393048 C63.1670447,0.116393048 64.2897681,1.23405437 64.2897681,2.61294742 C64.2897681,3.99166043 63.1670447,5.10950178 61.7819064,5.10950178 C60.3969489,5.10950178 59.2740447,3.99166043 59.2740447,2.61294742" id="Fill-20" fill="#DBDBD2"></path>
                        <path d="M18.6848085,2.77276506 C18.6848085,1.39387201 19.8077128,0.276210695 21.1926702,0.276210695 C22.5778085,0.276210695 23.7005319,1.39387201 23.7005319,2.77276506 C23.7005319,4.15147807 22.5778085,5.26931943 21.1926702,5.26931943 C19.8077128,5.26931943 18.6848085,4.15147807 18.6848085,2.77276506" id="Fill-22" fill="#DBDBD2"></path>
                        <path d="M59.2740447,72.5984579 C59.2740447,71.2197449 60.3969489,70.1019036 61.7819064,70.1019036 C63.1670447,70.1019036 64.2897681,71.2197449 64.2897681,72.5984579 C64.2897681,73.977351 63.1670447,75.0950123 61.7819064,75.0950123 C60.3969489,75.0950123 59.2740447,73.977351 59.2740447,72.5984579" id="Fill-24" fill="#DBDBD2"></path>
                        <path d="M18.6848085,72.7582756 C18.6848085,71.3795626 19.8077128,70.2617212 21.1926702,70.2617212 C22.5778085,70.2617212 23.7005319,71.3795626 23.7005319,72.7582756 C23.7005319,74.1371686 22.5778085,75.2548299 21.1926702,75.2548299 C19.8077128,75.2548299 18.6848085,74.1371686 18.6848085,72.7582756" id="Fill-26" fill="#DBDBD2"></path>
                        <path d="M51.231833,16.4797253 C51.231833,15.1008323 52.3547372,13.9831709 53.7396947,13.9831709 C55.1246521,13.9831709 56.2475564,15.1008323 56.2475564,16.4797253 C56.2475564,17.8584383 55.1246521,18.9762797 53.7396947,18.9762797 C52.3547372,18.9762797 51.231833,17.8584383 51.231833,16.4797253" id="Fill-28" fill="#DBDBD2"></path>
                        <path d="M26.6344968,58.8914797 C26.6344968,57.5127667 27.7572202,56.3949253 29.1423585,56.3949253 C30.527316,56.3949253 31.6502202,57.5127667 31.6502202,58.8914797 C31.6502202,60.2703727 30.527316,61.388034 29.1423585,61.388034 C27.7572202,61.388034 26.6344968,60.2703727 26.6344968,58.8914797" id="Fill-30" fill="#DBDBD2"></path>
                        <path d="M51.231833,58.8914797 C51.231833,57.5127667 52.3547372,56.3949253 53.7396947,56.3949253 C55.1246521,56.3949253 56.2475564,57.5127667 56.2475564,58.8914797 C56.2475564,60.2703727 55.1246521,61.388034 53.7396947,61.388034 C52.3547372,61.388034 51.231833,60.2703727 51.231833,58.8914797" id="Fill-32" fill="#DBDBD2"></path>
                    </g>
                </g>
                <g id="Group-35-Copy-2" opacity="0.400000006" transform="translate(669.629203, 399.629203) rotate(-45.000000) translate(-669.629203, -399.629203) translate(626.629203, 361.129203)">
                    <polygon id="Stroke-1" stroke="#DBDBD2" stroke-width="3" points="54.3964016 16.6266773 29.8964916 16.6266773 17.6464466 37.6266773 29.8964916 58.6266773 54.3964016 58.6266773 66.6464466 37.6266773"></polygon>
                    <path d="M65.6126984,37.9802307 L81.6126984,37.9802307" id="Stroke-2" stroke="#DBDBD2" stroke-width="3"></path>
                    <path d="M0.558874503,37.9802307 L16.5588745,37.9802307" id="Stroke-3" stroke="#DBDBD2" stroke-width="3"></path>
                    <path d="M20.8223305,1.98885271 L28.8223305,15.9888527" id="Stroke-5" stroke="#DBDBD2" stroke-width="3"></path>
                    <path d="M29.5294373,59.264502 L21.5294373,73.264502" id="Stroke-6" stroke="#DBDBD2" stroke-width="3"></path>
                    <path d="M53.3492424,58.5573952 L61.3492424,72.5573952" id="Stroke-7" stroke="#DBDBD2" stroke-width="3"></path>
                    <path d="M61.3492424,1.98885271 L53.3492424,15.9888527" id="Stroke-8" stroke="#DBDBD2" stroke-width="3"></path>
                    <g id="Group-34" transform="translate(0.353553, 0.333784)">
                        <path d="M26.6344968,16.4797253 C26.6344968,15.1008323 27.7572202,13.9831709 29.1423585,13.9831709 C30.527316,13.9831709 31.6502202,15.1008323 31.6502202,16.4797253 C31.6502202,17.8584383 30.527316,18.9762797 29.1423585,18.9762797 C27.7572202,18.9762797 26.6344968,17.8584383 26.6344968,16.4797253" id="Fill-9" fill="#DBDBD2"></path>
                        <path d="M14.3357383,37.6856025 C14.3357383,36.3068895 15.4586426,35.1890481 16.8436,35.1890481 C18.2285574,35.1890481 19.3514617,36.3068895 19.3514617,37.6856025 C19.3514617,39.0643155 18.2285574,40.1821569 16.8436,40.1821569 C15.4586426,40.1821569 14.3357383,39.0643155 14.3357383,37.6856025" id="Fill-11" fill="#DBDBD2"></path>
                        <path d="M63.5305734,37.6856025 C63.5305734,36.3068895 64.6532968,35.1890481 66.0384351,35.1890481 C67.4233926,35.1890481 68.5462968,36.3068895 68.5462968,37.6856025 C68.5462968,39.0643155 67.4233926,40.1821569 66.0384351,40.1821569 C64.6532968,40.1821569 63.5305734,39.0643155 63.5305734,37.6856025" id="Fill-13" fill="#DBDBD2"></path>
                        <path d="M79.8071691,37.6856025 C79.8071691,36.3068895 80.9298926,35.1890481 82.3150309,35.1890481 C83.6999883,35.1890481 84.8228926,36.3068895 84.8228926,37.6856025 C84.8228926,39.0643155 83.6999883,40.1821569 82.3150309,40.1821569 C80.9298926,40.1821569 79.8071691,39.0643155 79.8071691,37.6856025" id="Fill-15" fill="#DBDBD2"></path>
                        <g id="Group-19" transform="translate(0.000000, 35.106952)">
                            <mask id="mask-6" fill="white">
                                <use xlink:href="#path-5"></use>
                            </mask>
                            <g id="Clip-18"></g>
                            <path d="M-7.23404255e-05,2.57865062 C-7.23404255e-05,1.19993761 1.12283191,0.0820962567 2.50778936,0.0820962567 C3.89292766,0.0820962567 5.01565106,1.19993761 5.01565106,2.57865062 C5.01565106,3.95736364 3.89292766,5.07520499 2.50778936,5.07520499 C1.12283191,5.07520499 -7.23404255e-05,3.95736364 -7.23404255e-05,2.57865062" id="Fill-17" fill="#DBDBD2" mask="url(#mask-6)"></path>
                        </g>
                        <path d="M59.2740447,2.61294742 C59.2740447,1.23405437 60.3969489,0.116393048 61.7819064,0.116393048 C63.1670447,0.116393048 64.2897681,1.23405437 64.2897681,2.61294742 C64.2897681,3.99166043 63.1670447,5.10950178 61.7819064,5.10950178 C60.3969489,5.10950178 59.2740447,3.99166043 59.2740447,2.61294742" id="Fill-20" fill="#DBDBD2"></path>
                        <path d="M18.6848085,2.77276506 C18.6848085,1.39387201 19.8077128,0.276210695 21.1926702,0.276210695 C22.5778085,0.276210695 23.7005319,1.39387201 23.7005319,2.77276506 C23.7005319,4.15147807 22.5778085,5.26931943 21.1926702,5.26931943 C19.8077128,5.26931943 18.6848085,4.15147807 18.6848085,2.77276506" id="Fill-22" fill="#DBDBD2"></path>
                        <path d="M59.2740447,72.5984579 C59.2740447,71.2197449 60.3969489,70.1019036 61.7819064,70.1019036 C63.1670447,70.1019036 64.2897681,71.2197449 64.2897681,72.5984579 C64.2897681,73.977351 63.1670447,75.0950123 61.7819064,75.0950123 C60.3969489,75.0950123 59.2740447,73.977351 59.2740447,72.5984579" id="Fill-24" fill="#DBDBD2"></path>
                        <path d="M18.6848085,72.7582756 C18.6848085,71.3795626 19.8077128,70.2617212 21.1926702,70.2617212 C22.5778085,70.2617212 23.7005319,71.3795626 23.7005319,72.7582756 C23.7005319,74.1371686 22.5778085,75.2548299 21.1926702,75.2548299 C19.8077128,75.2548299 18.6848085,74.1371686 18.6848085,72.7582756" id="Fill-26" fill="#DBDBD2"></path>
                        <path d="M51.231833,16.4797253 C51.231833,15.1008323 52.3547372,13.9831709 53.7396947,13.9831709 C55.1246521,13.9831709 56.2475564,15.1008323 56.2475564,16.4797253 C56.2475564,17.8584383 55.1246521,18.9762797 53.7396947,18.9762797 C52.3547372,18.9762797 51.231833,17.8584383 51.231833,16.4797253" id="Fill-28" fill="#DBDBD2"></path>
                        <path d="M26.6344968,58.8914797 C26.6344968,57.5127667 27.7572202,56.3949253 29.1423585,56.3949253 C30.527316,56.3949253 31.6502202,57.5127667 31.6502202,58.8914797 C31.6502202,60.2703727 30.527316,61.388034 29.1423585,61.388034 C27.7572202,61.388034 26.6344968,60.2703727 26.6344968,58.8914797" id="Fill-30" fill="#DBDBD2"></path>
                        <path d="M51.231833,58.8914797 C51.231833,57.5127667 52.3547372,56.3949253 53.7396947,56.3949253 C55.1246521,56.3949253 56.2475564,57.5127667 56.2475564,58.8914797 C56.2475564,60.2703727 55.1246521,61.388034 53.7396947,61.388034 C52.3547372,61.388034 51.231833,60.2703727 51.231833,58.8914797" id="Fill-32" fill="#DBDBD2"></path>
                    </g>
                </g>
                <g id="Group-35-Copy" opacity="0.5" transform="translate(206.013979, 76.013979) rotate(-45.000000) translate(-206.013979, -76.013979) translate(149.513979, 25.013979)">
                    <polygon id="Stroke-1" stroke="#DBDBD2" stroke-width="3" points="71.7499403 22 39.2500597 22 23 50.5 39.2500597 79 71.7499403 79 88 50.5"></polygon>
                    <path d="M1,51 L22,51" id="Stroke-3" stroke="#DBDBD2" stroke-width="3"></path>
                    <path d="M39,79 L28,98" id="Stroke-6" stroke="#DBDBD2" stroke-width="3"></path>
                    <path d="M71,79 L82,98" id="Stroke-7" stroke="#DBDBD2" stroke-width="3"></path>
                    <g id="Group-34">
                        <path d="M19.0580991,50.5780455 C19.0580991,48.7276675 20.5509013,47.2274067 22.39208,47.2274067 C24.2332587,47.2274067 25.7260609,48.7276675 25.7260609,50.5780455 C25.7260609,52.4284234 24.2332587,53.9286842 22.39208,53.9286842 C20.5509013,53.9286842 19.0580991,52.4284234 19.0580991,50.5780455" id="Fill-11" fill="#DBDBD2"></path>
                        <g id="Group-19" transform="translate(0.000000, 47.117225)">
                            <mask id="mask-8" fill="white">
                                <use xlink:href="#path-7"></use>
                            </mask>
                            <g id="Clip-18"></g>
                            <path d="M-9.61702128e-05,3.46082057 C-9.61702128e-05,1.61044258 1.49270596,0.110181818 3.33388468,0.110181818 C5.17530383,0.110181818 6.66786553,1.61044258 6.66786553,3.46082057 C6.66786553,5.31119856 5.17530383,6.81145933 3.33388468,6.81145933 C1.49270596,6.81145933 -9.61702128e-05,5.31119856 -9.61702128e-05,3.46082057" id="Fill-17" fill="#DBDBD2" mask="url(#mask-8)"></path>
                        </g>
                        <path d="M78.7996123,97.4347725 C78.7996123,95.5843945 80.2924145,94.0841337 82.1335932,94.0841337 C83.9750123,94.0841337 85.467574,95.5843945 85.467574,97.4347725 C85.467574,99.2853921 83.9750123,100.785411 82.1335932,100.785411 C80.2924145,100.785411 78.7996123,99.2853921 78.7996123,97.4347725" id="Fill-24" fill="#DBDBD2"></path>
                        <path d="M24.8398043,97.6492646 C24.8398043,95.7988866 26.3326064,94.2986258 28.1737851,94.2986258 C30.0152043,94.2986258 31.507766,95.7988866 31.507766,97.6492646 C31.507766,99.4998842 30.0152043,100.999903 28.1737851,100.999903 C26.3326064,100.999903 24.8398043,99.4998842 24.8398043,97.6492646" id="Fill-26" fill="#DBDBD2"></path>
                        <path d="M35.4082134,79.0385648 C35.4082134,77.1881868 36.9007751,75.6879261 38.7421943,75.6879261 C40.583373,75.6879261 42.0761751,77.1881868 42.0761751,79.0385648 C42.0761751,80.8891844 40.583373,82.3892036 38.7421943,82.3892036 C36.9007751,82.3892036 35.4082134,80.8891844 35.4082134,79.0385648" id="Fill-30" fill="#DBDBD2"></path>
                        <path d="M68.1082015,79.0385648 C68.1082015,77.1881868 69.6010036,75.6879261 71.4421823,75.6879261 C73.2833611,75.6879261 74.7761632,77.1881868 74.7761632,79.0385648 C74.7761632,80.8891844 73.2833611,82.3892036 71.4421823,82.3892036 C69.6010036,82.3892036 68.1082015,80.8891844 68.1082015,79.0385648" id="Fill-32" fill="#DBDBD2"></path>
                    </g>
                </g>
                <path d="M641.958008,249.454079 C641.958008,262.044214 632.019475,272.250734 619.759913,272.250734 C607.500351,272.250734 597.562062,262.044214 597.562062,249.454079 L603.847989,249.454079 L605.583075,254.937572 L615.883298,254.937572 L617.618384,249.454079 L622.759081,249.454079 L625.677302,254.644487 L634.439058,254.644487 L637.357279,249.454079 L641.958008,249.454079 Z M640.175235,251.212092 L638.345508,251.212092 L635.921523,255.523493 L635.427531,256.402499 L634.439058,256.402499 L625.677302,256.402499 L624.688829,256.402499 L624.194592,255.523493 L621.770852,251.212092 L618.862168,251.212092 L617.511271,255.48105 L617.127082,256.695585 L615.883298,256.695585 L605.583075,256.695585 L604.339291,256.695585 L603.955102,255.48105 L602.604205,251.212092 L599.344591,251.212092 C600.217147,261.993232 609.040285,270.492721 619.759913,270.492721 C630.47954,270.492721 639.302923,261.993232 640.175235,251.212092 Z M628.15427,235.52279 L636.716345,237.39157 L639.421097,245.940441 L633.564262,252.620281 L625.002187,250.751501 L622.296946,242.20263 L628.15427,235.52279 Z M628.764311,237.451278 L624.228703,242.624354 L626.323413,249.244486 L632.953977,250.691542 L637.489585,245.518717 L635.395119,238.898586 L628.764311,237.451278 Z M608.339197,235.52279 L617.857352,239.844273 L616.768199,250.411484 L606.57696,252.620281 L601.367429,243.41881 L608.339197,235.52279 Z M608.784209,237.657675 L603.496015,243.647107 L607.447689,250.626411 L615.177882,248.950893 L616.00359,240.935806 L608.784209,237.657675 Z" id="Combined-Shape" fill="#000000" opacity="0.0643833705" transform="translate(619.760035, 253.886762) rotate(-13.000000) translate(-619.760035, -253.886762) "></path>
                <path d="M682.110352,127.040017 C682.110352,139.630151 672.171819,149.836672 659.912257,149.836672 C647.652695,149.836672 637.714406,139.630151 637.714406,127.040017 L644.000333,127.040017 L645.735419,132.52351 L656.035642,132.52351 L657.770728,127.040017 L662.911424,127.040017 L665.829646,132.230424 L674.591402,132.230424 L677.509623,127.040017 L682.110352,127.040017 Z M680.327579,128.79803 L678.497852,128.79803 L676.073867,133.109431 L675.579875,133.988437 L674.591402,133.988437 L665.829646,133.988437 L664.841172,133.988437 L664.346936,133.109431 L661.923196,128.79803 L659.014512,128.79803 L657.663615,133.066987 L657.279426,134.281523 L656.035642,134.281523 L645.735419,134.281523 L644.491635,134.281523 L644.107446,133.066987 L642.756549,128.79803 L639.496935,128.79803 C640.369491,139.579169 649.192629,148.078659 659.912257,148.078659 C670.631884,148.078659 679.455267,139.579169 680.327579,128.79803 Z M668.306614,113.108728 L676.868689,114.977507 L679.573441,123.526378 L673.716606,130.206219 L665.154531,128.337439 L662.44929,119.788568 L668.306614,113.108728 Z M668.916655,115.037216 L664.381046,120.210291 L666.475757,126.830423 L673.106321,128.277479 L677.641929,123.104655 L675.547462,116.484523 L668.916655,115.037216 Z M648.491541,113.108728 L658.009696,117.43021 L656.920542,127.997422 L646.729304,130.206219 L641.519773,121.004748 L648.491541,113.108728 Z M648.936552,115.243612 L643.648359,121.233044 L647.600033,128.212348 L655.330225,126.536831 L656.155934,118.521743 L648.936552,115.243612 Z" id="Combined-Shape-Copy-2" fill="#000000" opacity="0.0643833705" transform="translate(659.912379, 131.472700) rotate(-130.000000) translate(-659.912379, -131.472700) "></path>
                <path d="M874.534638,314.123688 C874.534638,326.713823 864.596105,336.920343 852.336543,336.920343 C840.076981,336.920343 830.138692,326.713823 830.138692,314.123688 L836.424619,314.123688 L838.159705,319.607182 L848.459928,319.607182 L850.195014,314.123688 L855.33571,314.123688 L858.253932,319.314096 L867.015688,319.314096 L869.933909,314.123688 L874.534638,314.123688 Z M872.751865,315.881701 L870.922138,315.881701 L868.498153,320.193102 L868.004161,321.072109 L867.015688,321.072109 L858.253932,321.072109 L857.265459,321.072109 L856.771222,320.193102 L854.347482,315.881701 L851.438798,315.881701 L850.087901,320.150659 L849.703712,321.365195 L848.459928,321.365195 L838.159705,321.365195 L836.915921,321.365195 L836.531732,320.150659 L835.180835,315.881701 L831.921221,315.881701 C832.793777,326.662841 841.616915,335.162331 852.336543,335.162331 C863.05617,335.162331 871.879553,326.662841 872.751865,315.881701 Z M860.7309,300.192399 L869.292975,302.061179 L871.997727,310.61005 L866.140892,317.28989 L857.578817,315.421111 L854.873576,306.87224 L860.7309,300.192399 Z M861.340941,302.120888 L856.805333,307.293963 L858.900043,313.914095 L865.530607,315.361151 L870.066215,310.188327 L867.971748,303.568195 L861.340941,302.120888 Z M840.915827,300.192399 L850.433982,304.513882 L849.344829,315.081093 L839.15359,317.28989 L833.944059,308.08842 L840.915827,300.192399 Z M841.360838,302.327284 L836.072645,308.316716 L840.024319,315.29602 L847.754511,313.620503 L848.58022,305.605415 L841.360838,302.327284 Z" id="Combined-Shape" fill="#000000" opacity="0.0643833705" transform="translate(852.336665, 318.556371) rotate(-58.000000) translate(-852.336665, -318.556371) "></path>
                <path d="M395.534638,492.123688 C395.534638,504.713823 385.596105,514.920343 373.336543,514.920343 C361.076981,514.920343 351.138692,504.713823 351.138692,492.123688 L357.424619,492.123688 L359.159705,497.607182 L369.459928,497.607182 L371.195014,492.123688 L376.33571,492.123688 L379.253932,497.314096 L388.015688,497.314096 L390.933909,492.123688 L395.534638,492.123688 Z M393.751865,493.881701 L391.922138,493.881701 L389.498153,498.193102 L389.004161,499.072109 L388.015688,499.072109 L379.253932,499.072109 L378.265459,499.072109 L377.771222,498.193102 L375.347482,493.881701 L372.438798,493.881701 L371.087901,498.150659 L370.703712,499.365195 L369.459928,499.365195 L359.159705,499.365195 L357.915921,499.365195 L357.531732,498.150659 L356.180835,493.881701 L352.921221,493.881701 C353.793777,504.662841 362.616915,513.162331 373.336543,513.162331 C384.05617,513.162331 392.879553,504.662841 393.751865,493.881701 Z M381.7309,478.192399 L390.292975,480.061179 L392.997727,488.61005 L387.140892,495.28989 L378.578817,493.421111 L375.873576,484.87224 L381.7309,478.192399 Z M382.340941,480.120888 L377.805333,485.293963 L379.900043,491.914095 L386.530607,493.361151 L391.066215,488.188327 L388.971748,481.568195 L382.340941,480.120888 Z M361.915827,478.192399 L371.433982,482.513882 L370.344829,493.081093 L360.15359,495.28989 L354.944059,486.08842 L361.915827,478.192399 Z M362.360838,480.327284 L357.072645,486.316716 L361.024319,493.29602 L368.754511,491.620503 L369.58022,483.605415 L362.360838,480.327284 Z" id="Combined-Shape-Copy" fill="#000000" opacity="0.0643833705" transform="translate(373.336665, 496.556371) rotate(-58.000000) translate(-373.336665, -496.556371) "></path>
                <g id="Group-8-Copy-6" opacity="0.0546875" transform="translate(781.112647, 201.236776) rotate(13.000000) translate(-781.112647, -201.236776) translate(744.612647, 163.236776)" fill="#000000">
                    <path d="M44.3466069,36.4769181 C40.5666545,36.4769181 37.4915421,33.4015412 37.4915421,29.6215888 C37.4915421,25.8416364 40.5666545,22.766524 44.3466069,22.766524 C48.1265593,22.766524 51.2019361,25.8416364 51.2019361,29.6215888 C51.2019361,33.4015412 48.1265593,36.4769181 44.3466069,36.4769181 M44.3466069,20.1217211 C39.1083101,20.1217211 34.8467391,24.3832921 34.8467391,29.6215888 C34.8467391,34.86015 39.1083101,39.1217211 44.3466069,39.1217211 C49.5851681,39.1217211 53.8467391,34.86015 53.8467391,29.6215888 C53.8467391,24.3832921 49.5851681,20.1217211 44.3466069,20.1217211" id="Fill-1"></path>
                    <path d="M23.6620335,55.652698 C22.4109753,55.652698 21.3928689,54.6348092 21.3928689,53.3836826 C21.3928689,52.132556 22.4109753,51.1149403 23.6620335,51.1149403 C24.9130918,51.1149403 25.930925,52.132556 25.930925,53.3836826 C25.930925,54.6348092 24.9130918,55.652698 23.6620335,55.652698 M23.6620335,48.3838191 C20.9048442,48.3838191 18.661897,50.6268889 18.661897,53.3836826 C18.661897,56.1407494 20.9048442,58.3838191 23.6620335,58.3838191 C26.4189497,58.3838191 28.661897,56.1407494 28.661897,53.3836826 C28.661897,50.6268889 26.4189497,48.3838191 23.6620335,48.3838191" id="Fill-3"></path>
                    <g id="Group-7" transform="translate(0.504540, 0.895164)">
                        <path d="M54.787795,45.5512578 C51.5202148,50.0245357 47.442371,53.2067588 45.7009742,54.5662049 C39.0236143,59.7788117 32.1162741,62.6493543 26.2516391,62.6493543 L26.2499983,62.6493543 C24.165135,62.6493543 22.175436,62.2846907 20.3366873,61.5659062 C17.9299609,60.6249176 15.4343599,58.9843372 13.6606947,57.1783202 C12.2903839,55.782651 10.6652078,53.5927777 10.7065003,51.0874393 C10.7322056,49.5203864 11.3841356,47.8833202 12.6447887,46.2213845 C13.7219499,44.8016567 14.8497012,43.9058117 14.9746727,43.808496 C16.6250071,42.5220367 17.8558531,42.3130783 19.4145783,42.048704 C21.2989949,41.7291841 23.6439192,41.3318117 25.7870296,39.0689516 C29.4174919,35.2349837 28.4166263,30.4000159 27.6126523,26.5149573 C26.9467758,23.2981331 26.3716883,20.5194998 27.6405452,18.0925546 C29.5960617,14.350496 35.562971,12.3928287 40.446703,12.3928287 C40.9884284,12.3928287 41.5164807,12.415806 42.0163666,12.46122 C47.2741927,12.9348231 51.0793964,15.8913278 53.3458375,18.2882673 C56.3563647,21.4726529 58.4890836,25.6328987 59.1967995,29.7025868 C60.1117985,34.9619592 58.628275,40.2943183 54.787795,45.5512578 M70.5290049,32.6069195 L62.4909054,32.0086983 C62.385623,32.0016699 62.2830753,32.0092389 62.1829888,32.0249176 C62.1499,31.0979856 62.053095,30.1710537 61.8920267,29.2446624 C61.571531,27.4018817 60.9893334,25.5458552 60.1930163,23.7520026 C60.3114247,23.7325395 60.4295597,23.6990197 60.5441397,23.6465773 L67.8045174,20.3143259 C68.4892626,19.9999422 68.7867877,19.1962767 68.4687531,18.5191217 C68.1507185,17.8419667 67.3377202,17.5481274 66.652975,17.8622408 L59.3925973,21.1944922 C59.2534058,21.2585584 59.134724,21.3466832 59.0297151,21.4458911 C58.0045115,19.6417664 56.7627271,17.9430669 55.3437403,16.442513 C54.7916234,15.8586189 54.1577418,15.2455301 53.4440098,14.6367664 C53.5993354,14.5537777 53.7418083,14.4415943 53.8591229,14.2972427 L58.8724753,8.14553951 C59.346109,7.56434858 59.2534058,6.71337694 58.6654656,6.24518034 C58.0769785,5.7764431 57.2166716,5.86808204 56.7427645,6.44981361 L51.7296856,12.6012465 C51.5995183,12.7612767 51.5161129,12.9421217 51.469898,13.1294544 C49.4000751,11.7216208 46.8536104,10.5092295 43.8354263,9.97858866 C43.9532878,9.79368885 44.0317709,9.58148658 44.0468113,9.34792892 L44.5390403,1.65863781 C44.5866224,0.913632136 44.0145429,0.271618904 43.2608856,0.224312665 C42.5099629,0.176736106 41.8577595,0.743059357 41.8099039,1.48806503 L41.3174015,9.17735614 C41.3053692,9.36441853 41.3327152,9.54472287 41.3920562,9.71070019 C41.0816785,9.6969138 40.766105,9.68961512 40.446703,9.68961512 C37.8953161,9.68961512 35.2498586,10.1383486 32.8816902,10.9628287 C32.8622745,10.82091 32.8259043,10.6795319 32.7583595,10.5441009 L29.3012712,3.62333346 C28.9668289,2.95401777 28.1472676,2.67910095 27.4699058,3.00997429 C26.7928175,3.34057732 26.5147081,4.15127108 26.8491504,4.82031645 L30.3065122,11.7410839 C30.3519066,11.8319119 30.408513,11.9130083 30.4697681,11.988428 C28.0895675,13.2070367 26.3118004,14.8259913 25.278393,16.7306756 L17.9666046,15.9505282 C17.2162289,15.8664582 16.5416017,16.4071009 16.4606573,17.1494034 C16.3794396,17.8914355 16.9222588,18.558048 17.6731814,18.6377928 L24.3461659,19.349549 C23.8624142,21.8813788 24.4046865,24.5018741 24.9335592,27.0566813 C25.0935336,27.8289894 25.2543284,28.6069743 25.3825814,29.380634 L19.0839644,29.7866567 C18.3303072,29.8350442 17.7593215,30.4781388 17.808271,31.2231444 C17.8553062,31.9381444 18.4569194,32.4868968 19.1714718,32.4868968 C19.201279,32.4868968 19.2316331,32.4860858 19.2617138,32.4839233 L25.6448301,32.0727645 C25.6571358,33.9463618 25.2160439,35.7161558 23.7904941,37.2215754 C22.2757961,38.8210669 20.6615584,39.0946321 18.9516095,39.384687 C18.1120856,39.5271463 17.2583418,39.6728495 16.3463508,39.9864223 L14.7824299,34.6067569 C14.574053,33.889324 13.8168407,33.474651 13.0908029,33.6809062 C12.3647651,33.8871614 11.9455501,34.6356813 12.1542005,35.3531142 L13.869892,41.2555811 C13.6768289,41.3893902 13.481578,41.529687 13.2816784,41.6853921 C13.030915,41.8811047 11.7155698,42.9404941 10.4571043,44.5997267 C9.69524319,45.6039705 9.10921722,46.6174053 8.69629178,47.6335433 L1.88548318,44.8789686 C1.186518,44.5972938 0.388013182,44.9273561 0.101973441,45.6180272 C-0.183519379,46.3089686 0.150922881,47.098307 0.849888061,47.3810631 L7.85075174,50.2124091 C7.90681116,50.2348457 7.96396441,50.2478212 8.02084421,50.2626888 C7.99322469,50.5232786 7.9765436,50.7835981 7.97244169,51.0436473 C7.93935296,53.0561898 8.63284893,54.8565301 9.55960676,56.3587059 C9.28204429,56.3624904 9.00284106,56.4460197 8.76301616,56.6222692 L2.36732068,61.3212654 C1.76105863,61.7662144 1.63499332,62.6131312 2.08538285,63.2121633 C2.35364766,63.5689875 2.76629963,63.7576718 3.1838739,63.7576718 C3.4674525,63.7576718 3.75349224,63.6706284 3.99823944,63.4905943 L10.3942084,58.7915981 C10.6228214,58.6237285 10.7827958,58.3988212 10.8694828,58.1517474 C11.1475922,58.478566 11.4270689,58.7842994 11.6986152,59.0611085 C13.2904291,60.6822257 15.388692,62.1835905 17.5460223,63.2756888 C17.360616,63.4213921 17.2077516,63.6122389 17.1172361,63.8468779 L14.2647691,71.2371936 C13.9956839,71.9346227 14.3495418,72.7155811 15.0550701,72.9818476 C15.2155914,73.0421293 15.3802147,73.0707834 15.5421033,73.0707834 C16.0928529,73.0707834 16.611881,72.7393694 16.8199845,72.2006189 L19.6724516,64.8103032 C19.745739,64.6202673 19.7689831,64.4242843 19.7555836,64.2337078 C21.7958728,64.973307 23.9769942,65.3525679 26.2499983,65.3525679 L26.2516391,65.3525679 C26.8297347,65.3525679 27.4163076,65.3268873 28.009717,65.2784998 C28.012725,65.3495943 28.016827,65.4212295 28.0313204,65.493135 L29.6737245,73.5243826 C29.8049855,74.1658552 30.3751508,74.6086416 31.0125873,74.6086416 C31.1022824,74.6086416 31.1933448,74.5999913 31.2846806,74.5816095 C32.0249383,74.4337437 32.5037678,73.7206359 32.3539114,72.9891463 L30.7115073,64.9578987 C30.7076788,64.9395168 30.699475,64.9230272 30.6948262,64.9046454 C33.5513951,64.3488647 36.533209,63.2810953 39.5412751,61.7443183 L43.4875844,68.4669403 C43.7410824,68.8991841 44.1996757,69.1405811 44.6713952,69.1405811 C44.9041101,69.1405811 45.14038,69.081651 45.3564139,68.9575735 C46.0091642,68.5829081 46.2317611,67.7559951 45.8524713,67.1101974 L41.9305,60.4292049 C43.7599511,59.3479195 45.5888553,58.0979535 47.3956092,56.687687 C48.028397,56.1938098 48.9592567,55.4655641 50.0446216,54.5332257 L55.2354499,60.2343032 C55.5053555,60.5308457 55.8780822,60.6819554 56.2521762,60.6819554 C56.5781412,60.6819554 56.9052,60.5673391 57.1663549,60.3348628 C57.7277694,59.8355792 57.7731638,58.9810934 57.2680822,58.4261236 L52.0627605,52.7085565 C53.6718024,51.1747531 55.4197623,49.3041293 57.0047397,47.1339894 C57.4381747,46.540634 57.8434432,45.945927 58.222733,45.3495981 L64.8721999,49.3754941 C65.0947968,49.5103845 65.3414582,49.5749913 65.5848381,49.5749913 C66.0450722,49.5749913 66.4943679,49.3452181 66.7522412,48.9289233 C67.1465713,48.2925868 66.944484,47.4602673 66.3004844,47.0704639 L59.5744485,42.9980726 C60.992068,40.2413353 61.8365142,37.4605395 62.1028648,34.672445 C62.1630261,34.6854204 62.2223671,34.6997474 62.2858099,34.7046132 L70.3239095,35.3028344 C70.358639,35.3052673 70.3933685,35.3066189 70.4278245,35.3066189 C71.1366343,35.3066189 71.7360598,34.7662465 71.790205,34.0563826 C71.8468113,33.3121879 71.2821153,32.6631463 70.5290049,32.6069195" id="Fill-5"></path>
                    </g>
                </g>
                <g id="Group-8-Copy-7" opacity="0.0546875" transform="translate(510.196807, 185.864960) rotate(-54.000000) translate(-510.196807, -185.864960) translate(473.696807, 147.864960)" fill="#000000">
                    <path d="M44.3466069,36.4769181 C40.5666545,36.4769181 37.4915421,33.4015412 37.4915421,29.6215888 C37.4915421,25.8416364 40.5666545,22.766524 44.3466069,22.766524 C48.1265593,22.766524 51.2019361,25.8416364 51.2019361,29.6215888 C51.2019361,33.4015412 48.1265593,36.4769181 44.3466069,36.4769181 M44.3466069,20.1217211 C39.1083101,20.1217211 34.8467391,24.3832921 34.8467391,29.6215888 C34.8467391,34.86015 39.1083101,39.1217211 44.3466069,39.1217211 C49.5851681,39.1217211 53.8467391,34.86015 53.8467391,29.6215888 C53.8467391,24.3832921 49.5851681,20.1217211 44.3466069,20.1217211" id="Fill-1"></path>
                    <path d="M23.6620335,55.652698 C22.4109753,55.652698 21.3928689,54.6348092 21.3928689,53.3836826 C21.3928689,52.132556 22.4109753,51.1149403 23.6620335,51.1149403 C24.9130918,51.1149403 25.930925,52.132556 25.930925,53.3836826 C25.930925,54.6348092 24.9130918,55.652698 23.6620335,55.652698 M23.6620335,48.3838191 C20.9048442,48.3838191 18.661897,50.6268889 18.661897,53.3836826 C18.661897,56.1407494 20.9048442,58.3838191 23.6620335,58.3838191 C26.4189497,58.3838191 28.661897,56.1407494 28.661897,53.3836826 C28.661897,50.6268889 26.4189497,48.3838191 23.6620335,48.3838191" id="Fill-3"></path>
                    <g id="Group-7" transform="translate(0.504540, 0.895164)">
                        <path d="M54.787795,45.5512578 C51.5202148,50.0245357 47.442371,53.2067588 45.7009742,54.5662049 C39.0236143,59.7788117 32.1162741,62.6493543 26.2516391,62.6493543 L26.2499983,62.6493543 C24.165135,62.6493543 22.175436,62.2846907 20.3366873,61.5659062 C17.9299609,60.6249176 15.4343599,58.9843372 13.6606947,57.1783202 C12.2903839,55.782651 10.6652078,53.5927777 10.7065003,51.0874393 C10.7322056,49.5203864 11.3841356,47.8833202 12.6447887,46.2213845 C13.7219499,44.8016567 14.8497012,43.9058117 14.9746727,43.808496 C16.6250071,42.5220367 17.8558531,42.3130783 19.4145783,42.048704 C21.2989949,41.7291841 23.6439192,41.3318117 25.7870296,39.0689516 C29.4174919,35.2349837 28.4166263,30.4000159 27.6126523,26.5149573 C26.9467758,23.2981331 26.3716883,20.5194998 27.6405452,18.0925546 C29.5960617,14.350496 35.562971,12.3928287 40.446703,12.3928287 C40.9884284,12.3928287 41.5164807,12.415806 42.0163666,12.46122 C47.2741927,12.9348231 51.0793964,15.8913278 53.3458375,18.2882673 C56.3563647,21.4726529 58.4890836,25.6328987 59.1967995,29.7025868 C60.1117985,34.9619592 58.628275,40.2943183 54.787795,45.5512578 M70.5290049,32.6069195 L62.4909054,32.0086983 C62.385623,32.0016699 62.2830753,32.0092389 62.1829888,32.0249176 C62.1499,31.0979856 62.053095,30.1710537 61.8920267,29.2446624 C61.571531,27.4018817 60.9893334,25.5458552 60.1930163,23.7520026 C60.3114247,23.7325395 60.4295597,23.6990197 60.5441397,23.6465773 L67.8045174,20.3143259 C68.4892626,19.9999422 68.7867877,19.1962767 68.4687531,18.5191217 C68.1507185,17.8419667 67.3377202,17.5481274 66.652975,17.8622408 L59.3925973,21.1944922 C59.2534058,21.2585584 59.134724,21.3466832 59.0297151,21.4458911 C58.0045115,19.6417664 56.7627271,17.9430669 55.3437403,16.442513 C54.7916234,15.8586189 54.1577418,15.2455301 53.4440098,14.6367664 C53.5993354,14.5537777 53.7418083,14.4415943 53.8591229,14.2972427 L58.8724753,8.14553951 C59.346109,7.56434858 59.2534058,6.71337694 58.6654656,6.24518034 C58.0769785,5.7764431 57.2166716,5.86808204 56.7427645,6.44981361 L51.7296856,12.6012465 C51.5995183,12.7612767 51.5161129,12.9421217 51.469898,13.1294544 C49.4000751,11.7216208 46.8536104,10.5092295 43.8354263,9.97858866 C43.9532878,9.79368885 44.0317709,9.58148658 44.0468113,9.34792892 L44.5390403,1.65863781 C44.5866224,0.913632136 44.0145429,0.271618904 43.2608856,0.224312665 C42.5099629,0.176736106 41.8577595,0.743059357 41.8099039,1.48806503 L41.3174015,9.17735614 C41.3053692,9.36441853 41.3327152,9.54472287 41.3920562,9.71070019 C41.0816785,9.6969138 40.766105,9.68961512 40.446703,9.68961512 C37.8953161,9.68961512 35.2498586,10.1383486 32.8816902,10.9628287 C32.8622745,10.82091 32.8259043,10.6795319 32.7583595,10.5441009 L29.3012712,3.62333346 C28.9668289,2.95401777 28.1472676,2.67910095 27.4699058,3.00997429 C26.7928175,3.34057732 26.5147081,4.15127108 26.8491504,4.82031645 L30.3065122,11.7410839 C30.3519066,11.8319119 30.408513,11.9130083 30.4697681,11.988428 C28.0895675,13.2070367 26.3118004,14.8259913 25.278393,16.7306756 L17.9666046,15.9505282 C17.2162289,15.8664582 16.5416017,16.4071009 16.4606573,17.1494034 C16.3794396,17.8914355 16.9222588,18.558048 17.6731814,18.6377928 L24.3461659,19.349549 C23.8624142,21.8813788 24.4046865,24.5018741 24.9335592,27.0566813 C25.0935336,27.8289894 25.2543284,28.6069743 25.3825814,29.380634 L19.0839644,29.7866567 C18.3303072,29.8350442 17.7593215,30.4781388 17.808271,31.2231444 C17.8553062,31.9381444 18.4569194,32.4868968 19.1714718,32.4868968 C19.201279,32.4868968 19.2316331,32.4860858 19.2617138,32.4839233 L25.6448301,32.0727645 C25.6571358,33.9463618 25.2160439,35.7161558 23.7904941,37.2215754 C22.2757961,38.8210669 20.6615584,39.0946321 18.9516095,39.384687 C18.1120856,39.5271463 17.2583418,39.6728495 16.3463508,39.9864223 L14.7824299,34.6067569 C14.574053,33.889324 13.8168407,33.474651 13.0908029,33.6809062 C12.3647651,33.8871614 11.9455501,34.6356813 12.1542005,35.3531142 L13.869892,41.2555811 C13.6768289,41.3893902 13.481578,41.529687 13.2816784,41.6853921 C13.030915,41.8811047 11.7155698,42.9404941 10.4571043,44.5997267 C9.69524319,45.6039705 9.10921722,46.6174053 8.69629178,47.6335433 L1.88548318,44.8789686 C1.186518,44.5972938 0.388013182,44.9273561 0.101973441,45.6180272 C-0.183519379,46.3089686 0.150922881,47.098307 0.849888061,47.3810631 L7.85075174,50.2124091 C7.90681116,50.2348457 7.96396441,50.2478212 8.02084421,50.2626888 C7.99322469,50.5232786 7.9765436,50.7835981 7.97244169,51.0436473 C7.93935296,53.0561898 8.63284893,54.8565301 9.55960676,56.3587059 C9.28204429,56.3624904 9.00284106,56.4460197 8.76301616,56.6222692 L2.36732068,61.3212654 C1.76105863,61.7662144 1.63499332,62.6131312 2.08538285,63.2121633 C2.35364766,63.5689875 2.76629963,63.7576718 3.1838739,63.7576718 C3.4674525,63.7576718 3.75349224,63.6706284 3.99823944,63.4905943 L10.3942084,58.7915981 C10.6228214,58.6237285 10.7827958,58.3988212 10.8694828,58.1517474 C11.1475922,58.478566 11.4270689,58.7842994 11.6986152,59.0611085 C13.2904291,60.6822257 15.388692,62.1835905 17.5460223,63.2756888 C17.360616,63.4213921 17.2077516,63.6122389 17.1172361,63.8468779 L14.2647691,71.2371936 C13.9956839,71.9346227 14.3495418,72.7155811 15.0550701,72.9818476 C15.2155914,73.0421293 15.3802147,73.0707834 15.5421033,73.0707834 C16.0928529,73.0707834 16.611881,72.7393694 16.8199845,72.2006189 L19.6724516,64.8103032 C19.745739,64.6202673 19.7689831,64.4242843 19.7555836,64.2337078 C21.7958728,64.973307 23.9769942,65.3525679 26.2499983,65.3525679 L26.2516391,65.3525679 C26.8297347,65.3525679 27.4163076,65.3268873 28.009717,65.2784998 C28.012725,65.3495943 28.016827,65.4212295 28.0313204,65.493135 L29.6737245,73.5243826 C29.8049855,74.1658552 30.3751508,74.6086416 31.0125873,74.6086416 C31.1022824,74.6086416 31.1933448,74.5999913 31.2846806,74.5816095 C32.0249383,74.4337437 32.5037678,73.7206359 32.3539114,72.9891463 L30.7115073,64.9578987 C30.7076788,64.9395168 30.699475,64.9230272 30.6948262,64.9046454 C33.5513951,64.3488647 36.533209,63.2810953 39.5412751,61.7443183 L43.4875844,68.4669403 C43.7410824,68.8991841 44.1996757,69.1405811 44.6713952,69.1405811 C44.9041101,69.1405811 45.14038,69.081651 45.3564139,68.9575735 C46.0091642,68.5829081 46.2317611,67.7559951 45.8524713,67.1101974 L41.9305,60.4292049 C43.7599511,59.3479195 45.5888553,58.0979535 47.3956092,56.687687 C48.028397,56.1938098 48.9592567,55.4655641 50.0446216,54.5332257 L55.2354499,60.2343032 C55.5053555,60.5308457 55.8780822,60.6819554 56.2521762,60.6819554 C56.5781412,60.6819554 56.9052,60.5673391 57.1663549,60.3348628 C57.7277694,59.8355792 57.7731638,58.9810934 57.2680822,58.4261236 L52.0627605,52.7085565 C53.6718024,51.1747531 55.4197623,49.3041293 57.0047397,47.1339894 C57.4381747,46.540634 57.8434432,45.945927 58.222733,45.3495981 L64.8721999,49.3754941 C65.0947968,49.5103845 65.3414582,49.5749913 65.5848381,49.5749913 C66.0450722,49.5749913 66.4943679,49.3452181 66.7522412,48.9289233 C67.1465713,48.2925868 66.944484,47.4602673 66.3004844,47.0704639 L59.5744485,42.9980726 C60.992068,40.2413353 61.8365142,37.4605395 62.1028648,34.672445 C62.1630261,34.6854204 62.2223671,34.6997474 62.2858099,34.7046132 L70.3239095,35.3028344 C70.358639,35.3052673 70.3933685,35.3066189 70.4278245,35.3066189 C71.1366343,35.3066189 71.7360598,34.7662465 71.790205,34.0563826 C71.8468113,33.3121879 71.2821153,32.6631463 70.5290049,32.6069195" id="Fill-5"></path>
                    </g>
                </g>
            </g>
        </g>
    </g>
</svg>