<?xml version="1.0" encoding="UTF-8"?>
<svg width="1200px" height="708px" viewBox="0 0 1200 708" version="1.1" xmlns="http://www.w3.org/2000/svg" xmlns:xlink="http://www.w3.org/1999/xlink">
    <!-- Generator: Sketch 52.2 (67145) - http://www.bohemiancoding.com/sketch -->
    <title>phytoplankton</title>
    <desc>Created with Sketch.</desc>
    <g id="Page-1" stroke="none" stroke-width="1" fill="none" fill-rule="evenodd">
        <g id="crt-frontier-ocean-phytoplankton-v1.1" transform="translate(0.000000, -18.000000)">
            <rect fill="#F6F6EF" x="0" y="0" width="1200" height="12501"></rect>
            <g id="phytoplankton" transform="translate(0.000000, 118.000000)">
                <g id="Group-121" stroke-width="1" fill-rule="evenodd" transform="translate(0.000000, 131.715464)">
                    <polygon id="Fill-1" fill="#D3D3C5" points="1038.64739 10.2416091 1016.54835 32.3227658 994.449311 32.3227658 961.301273 65.4439781 906.054194 120.646347 883.955153 120.646347 850.807114 153.768605 1199.80833 153.768605 1199.80833 60.8673885 1171.24059 32.3227658 1127.04251 32.3227658 1104.94347 10.2416091"></polygon>
                    <polygon id="Fill-2" fill="#7CA4CA" points="607.718396 154.300275 342.531997 154.300275 -0.000523103749 154.300275 -0.000523103749 374.577663 11.0495205 374.577663 386.730078 374.577663 1199.80802 374.577663 1199.80802 154.300275 850.807847 154.300275"></polygon>
                    <polygon id="Fill-3" fill="#6290B1" points="850.807428 153.768187 817.658344 186.889399 817.658344 297.295183 740.313269 374.577663 1199.80865 374.577663 1199.80865 153.768187"></polygon>
                    <polygon id="Fill-4" fill="#567F99" points="651.917001 286.254186 563.521883 286.254186 541.422842 308.334298 453.027724 308.334298 386.730602 374.577768 872.905318 374.577768 837.809241 340.563817 795.560244 341.456555 740.313165 286.254186 718.213078 308.334298 674.016042 264.173029"></polygon>
                    <polygon id="Fill-5" fill="#6290B1" points="42.2948717 174.702792 0 174.702792 0 375.06501 348.938448 375.06501 317.216043 343.428292 274.921171 343.428292 222.051831 290.701761 222.051831 269.610948 179.755958 227.430322 137.460085 227.430322 79.3983094 174.702792"></polygon>
                    <polygon id="Fill-6" fill="#567F99" points="143.642825 330.415559 77.346748 330.415559 32.553374 374.577872 232.037942 374.577872 165.741866 308.334402"></polygon>
                    <polygon id="Fill-7" fill="#594D49" points="0 374.577872 1198.86382 374.577872 1198.86382 358.016221 0 358.016221"></polygon>
                    <polygon id="Fill-8" fill="#77A858" points="1101.94504 37.2751627 1111.27198 9.31907814 1120.59787 37.2751627 1111.27198 37.2751627"></polygon>
                    <polygon id="Fill-9" fill="#77A858" points="1120.59798 37.2751627 1129.92492 9.31907814 1139.25081 37.2751627 1129.92492 37.2751627"></polygon>
                    <polygon id="Fill-10" fill="#89BC68" points="1120.59745 -0.000209072165 1111.27156 37.2752672 1129.92439 37.2752672"></polygon>
                    <polygon id="Fill-11" fill="#77A858" points="1018.78985 64.3652703 1028.11575 36.4091858 1037.44269 64.3652703 1028.11575 64.3652703"></polygon>
                    <polygon id="Fill-12" fill="#77A858" points="1037.44279 64.3652703 1046.76868 36.4091858 1056.09458 64.3652703 1046.76868 64.3652703"></polygon>
                    <polygon id="Fill-13" fill="#89BC68" points="1037.44279 27.0901076 1028.11585 64.3655839 1046.76868 64.3655839"></polygon>
                    <polygon id="Fill-14" fill="#77A858" points="938.05925 121.09648 947.385144 93.1403951 956.712084 121.09648 947.385144 121.09648"></polygon>
                    <polygon id="Fill-15" fill="#77A858" points="956.712188 121.09648 966.038082 93.1403951 975.363976 121.09648 966.038082 121.09648"></polygon>
                    <polygon id="Fill-16" fill="#89BC68" points="956.712188 83.8213169 947.385248 121.096793 966.038082 121.096793"></polygon>
                    <polygon id="Fill-17" fill="#77A858" points="1117.47976 121.09648 1126.80565 93.1403951 1136.13154 121.09648 1126.80565 121.09648"></polygon>
                    <polygon id="Fill-18" fill="#77A858" points="1136.13165 121.09648 1145.45859 93.1403951 1154.78448 121.09648 1145.45859 121.09648"></polygon>
                    <polygon id="Fill-19" fill="#89BC68" points="1136.13165 83.8213169 1126.80575 121.096793 1145.45859 121.096793"></polygon>
                    <g id="Group-120" transform="translate(42.894507, 98.602614)">
                        <path d="M413.94204,119.274938 L411.370462,119.274938 C411.26061,118.207625 410.84422,117.167491 410.113967,116.302978 C410.117105,116.299841 410.119198,116.297751 410.122337,116.294615 L411.950061,114.468369 C412.137332,114.280204 412.137332,113.97705 411.950061,113.788885 C411.761744,113.60072 411.457297,113.60072 411.26898,113.788885 L409.441255,115.61513 C409.438117,115.618266 409.434978,115.621402 409.433932,115.624538 C408.566626,114.900103 407.52565,114.48614 406.458518,114.379514 L406.458518,111.798518 C406.458518,111.532996 406.241953,111.315561 405.976216,111.315561 C405.71048,111.315561 405.494961,111.532996 405.494961,111.798518 L405.494961,114.371151 C404.413182,114.452689 403.349189,114.849926 402.463051,115.565998 L400.685545,113.788885 C400.496181,113.60072 400.192781,113.60072 400.004464,113.788885 C399.816146,113.97705 399.816146,114.280204 400.004464,114.468369 L401.758954,116.22353 L399.581796,118.398926 L397.825214,116.645856 C397.638989,116.457691 397.333496,116.457691 397.145179,116.645856 C396.956861,116.832975 396.956861,117.137175 397.145179,117.32534 L398.919547,119.096182 C398.185109,119.980557 397.771857,121.043689 397.679791,122.131909 L395.1532,122.131909 C394.887463,122.131909 394.671944,122.347254 394.671944,122.612775 C394.671944,122.878297 394.887463,123.093641 395.1532,123.093641 L397.681883,123.093641 C397.778134,124.177681 398.194525,125.238722 398.930009,126.11787 L397.145179,127.901256 C396.956861,128.088375 396.956861,128.393621 397.145179,128.58074 C397.333496,128.76786 397.638989,128.76786 397.825214,128.58074 L399.608997,126.799446 C400.488858,127.539561 401.550759,127.959796 402.637768,128.059105 L402.637768,130.572153 C402.637768,130.837674 402.852241,131.053019 403.119024,131.053019 C403.251892,131.053019 403.37116,130.99866 403.459041,130.911895 C403.545876,130.82513 403.599233,130.704914 403.599233,130.572153 L403.599233,128.062241 C404.693566,127.97234 405.76279,127.559423 406.652066,126.823489 L408.409695,128.58074 C408.598012,128.76786 408.903505,128.76786 409.090776,128.58074 C409.278047,128.393621 409.278047,128.088375 409.090776,127.901256 L407.349887,126.16073 L409.527044,123.985334 L411.26898,125.723769 C411.457297,125.91298 411.761744,125.91298 411.950061,125.723769 C412.137332,125.535604 412.137332,125.23245 411.950061,125.044285 L410.185109,123.281806 C410.9049,122.391159 411.304551,121.323846 411.383017,120.237716 L413.94204,120.237716 C414.074908,120.237716 414.195222,120.184402 414.282058,120.097637 C414.368893,120.010872 414.422249,119.889611 414.422249,119.75685 C414.424342,119.492373 414.207777,119.274938 413.94204,119.274938" id="Fill-20" fill="#3E71A3"></path>
                        <path d="M1037.17925,145.877072 L1034.60767,145.877072 C1034.49782,144.809758 1034.08038,143.768579 1033.35222,142.904065 L1033.35955,142.896748 L1035.18727,141.070502 C1035.37454,140.882338 1035.37454,140.579183 1035.18727,140.391018 C1034.99895,140.202853 1034.69451,140.202853 1034.50619,140.391018 L1032.67847,142.217263 C1032.67533,142.220399 1032.67219,142.223535 1032.67114,142.226672 C1031.80384,141.501191 1030.76286,141.088274 1029.69677,140.981647 L1029.69677,138.400651 C1029.69677,138.134084 1029.48021,137.917694 1029.21447,137.917694 C1028.94769,137.917694 1028.73322,138.134084 1028.73322,138.400651 L1028.73322,140.973284 C1027.65039,141.054822 1026.58745,141.452059 1025.70026,142.168131 L1023.92171,140.391018 C1023.73339,140.202853 1023.42999,140.202853 1023.24272,140.391018 C1023.05336,140.579183 1023.05336,140.882338 1023.24272,141.070502 L1024.99616,142.825663 L1022.81901,145.001059 L1021.06347,143.246944 C1020.8762,143.059824 1020.57071,143.059824 1020.38239,143.246944 C1020.19512,143.434063 1020.19512,143.739309 1020.38239,143.927474 L1022.15676,145.698315 C1021.42127,146.58269 1021.00907,147.645822 1020.917,148.734043 L1018.39041,148.734043 C1018.12467,148.734043 1017.90915,148.948342 1017.90915,149.213863 C1017.90915,149.48043 1018.12467,149.694729 1018.39041,149.694729 L1020.91909,149.694729 C1021.01534,150.779814 1021.43173,151.840855 1022.16722,152.720004 L1020.38239,154.503389 C1020.19512,154.690509 1020.19512,154.995754 1020.38239,155.182874 C1020.57071,155.369993 1020.8762,155.369993 1021.06347,155.182874 L1022.84621,153.400533 C1023.72607,154.140649 1024.78797,154.561929 1025.87498,154.661239 L1025.87498,157.174286 C1025.87498,157.439808 1026.08945,157.655152 1026.35519,157.655152 C1026.4891,157.655152 1026.60837,157.600793 1026.6952,157.514028 C1026.78309,157.427263 1026.83644,157.307047 1026.83644,157.174286 L1026.83644,154.664375 C1027.92973,154.574474 1029,154.161556 1029.88928,153.425622 L1031.64795,155.182874 C1031.83627,155.369993 1032.14176,155.369993 1032.32694,155.182874 C1032.5163,154.995754 1032.5163,154.690509 1032.32694,154.503389 L1030.5871,152.762863 L1032.76425,150.587467 L1034.50619,152.325902 C1034.69451,152.515113 1034.99895,152.515113 1035.18727,152.325902 C1035.37454,152.137738 1035.37454,151.834583 1035.18727,151.646418 L1033.42232,149.882894 C1034.14316,148.993292 1034.54176,147.925979 1034.62127,146.839849 L1037.17925,146.839849 C1037.31212,146.839849 1037.43243,146.78549 1037.51927,146.698725 C1037.6061,146.61196 1037.66051,146.491744 1037.66051,146.358983 C1037.66155,146.093461 1037.44499,145.877072 1037.17925,145.877072" id="Fill-22" fill="#3E71A3"></path>
                        <path d="M264.0815,122.326869 L262.546713,122.326869 C262.481848,121.690245 262.231805,121.0693 261.796582,120.552892 C261.798675,120.550801 261.799721,120.549756 261.801813,120.547665 L262.891962,119.458399 C263.004952,119.3455 263.004952,119.164653 262.891962,119.052799 C262.780017,118.9399 262.599024,118.9399 262.486033,119.052799 L261.395885,120.142065 C261.393793,120.144156 261.3917,120.146247 261.390654,120.148337 C260.873827,119.715558 260.25238,119.468853 259.61524,119.406131 L259.61524,117.864224 C259.61524,117.706374 259.486556,117.57675 259.327533,117.57675 C259.169555,117.57675 259.040872,117.706374 259.040872,117.864224 L259.040872,119.399859 C258.394316,119.448991 257.760314,119.686288 257.230933,120.112795 L256.170078,119.052799 C256.058134,118.9399 255.876094,118.9399 255.76415,119.052799 C255.65116,119.164653 255.65116,119.3455 255.76415,119.458399 L256.811404,120.505851 L255.512014,121.804189 L254.463714,120.757783 C254.35177,120.645929 254.16973,120.645929 254.056739,120.757783 C253.944795,120.868591 253.944795,121.051529 254.056739,121.163383 L255.116548,122.220242 C254.678187,122.747104 254.431282,123.382684 254.376879,124.031853 L252.868248,124.031853 C252.71027,124.031853 252.581587,124.159387 252.581587,124.318282 C252.581587,124.477176 252.71027,124.605756 252.868248,124.605756 L254.377925,124.605756 C254.435466,125.252834 254.683418,125.885278 255.122825,126.410049 L254.056739,127.474226 C253.944795,127.58608 253.944795,127.767972 254.056739,127.879826 C254.16973,127.99168 254.35177,127.99168 254.463714,127.879826 L255.527707,126.816694 C256.052903,127.258882 256.686905,127.509768 257.335554,127.569354 L257.335554,129.068401 C257.335554,129.227296 257.463191,129.35483 257.622214,129.35483 C257.701726,129.35483 257.772868,129.323469 257.825179,129.271201 C257.877489,129.218933 257.909922,129.147849 257.909922,129.068401 L257.909922,127.571445 C258.561709,127.517086 259.199895,127.270381 259.730323,126.831329 L260.779669,127.879826 C260.892659,127.99168 261.074699,127.99168 261.185597,127.879826 C261.298588,127.767972 261.298588,127.58608 261.185597,127.474226 L260.147759,126.436183 L261.446103,125.137845 L262.486033,126.175888 C262.599024,126.287741 262.780017,126.287741 262.891962,126.175888 C263.004952,126.062989 263.004952,125.882141 262.891962,125.769242 L261.839477,124.717609 C262.269468,124.186566 262.506957,123.548896 262.555083,122.901818 L264.0815,122.901818 C264.161011,122.901818 264.232153,122.869412 264.284464,122.817144 C264.336774,122.764875 264.36816,122.693791 264.36816,122.614344 C264.369207,122.456494 264.239477,122.326869 264.0815,122.326869" id="Fill-24" fill="#3E71A3"></path>
                        <path d="M908.506922,102.936158 L906.972136,102.936158 C906.907271,102.299533 906.657228,101.678589 906.222005,101.16218 C906.224098,101.16009 906.225144,101.16009 906.227236,101.157999 L907.317384,100.067688 C907.430375,99.955834 907.430375,99.7749866 907.317384,99.6620876 C907.20544,99.550234 907.024446,99.550234 906.912502,99.6620876 L905.821308,100.752399 C905.819215,100.75449 905.817123,100.755535 905.816077,100.757626 C905.29925,100.324846 904.677803,100.078141 904.040663,100.01542 L904.040663,98.4745577 C904.040663,98.3156629 903.910933,98.1870835 903.752956,98.1870835 C903.594978,98.1870835 903.466295,98.3156629 903.466295,98.4745577 L903.466295,100.009147 C902.819738,100.058279 902.185737,100.295576 901.656356,100.723129 L900.595501,99.6620876 C900.482511,99.550234 900.301517,99.550234 900.189573,99.6620876 C900.076582,99.7749866 900.076582,99.955834 900.189573,100.067688 L901.236827,101.115139 L899.937437,102.413477 L898.889137,101.367071 C898.777193,101.255218 898.595153,101.255218 898.483208,101.367071 C898.371264,101.477879 898.371264,101.660818 898.483208,101.772671 L899.54197,102.829531 C899.103609,103.357438 898.856704,103.991972 898.802302,104.641141 L897.29367,104.641141 C897.135693,104.641141 897.00701,104.769721 897.00701,104.928615 C897.00701,105.086465 897.135693,105.215044 897.29367,105.215044 L898.803348,105.215044 C898.859843,105.862123 899.10884,106.495611 899.548248,107.020382 L898.483208,108.08456 C898.371264,108.195368 898.371264,108.378306 898.483208,108.49016 C898.595153,108.600968 898.777193,108.600968 898.889137,108.49016 L899.95313,107.427028 C900.478326,107.86817 901.112328,108.119057 901.760976,108.178642 L901.760976,109.67769 C901.760976,109.836585 901.888614,109.965164 902.047637,109.965164 C902.126103,109.965164 902.199337,109.932758 902.250602,109.881535 C902.301866,109.829267 902.335344,109.757137 902.335344,109.67769 L902.335344,108.180733 C902.987132,108.126374 903.625318,107.880714 904.156792,107.440618 L905.205092,108.49016 C905.317036,108.600968 905.500122,108.600968 905.61102,108.49016 C905.72401,108.378306 905.72401,108.195368 905.61102,108.08456 L904.572136,107.045471 L905.871526,105.747133 L906.912502,106.785176 C907.024446,106.898075 907.20544,106.898075 907.317384,106.785176 C907.430375,106.673323 907.430375,106.49143 907.317384,106.379576 L906.2649,105.327943 C906.694891,104.795855 906.93238,104.15923 906.979459,103.511106 L908.506922,103.511106 C908.585388,103.511106 908.658622,103.4787 908.70884,103.427477 C908.761151,103.375209 908.793583,103.303079 908.793583,103.223632 C908.794629,103.065782 908.6649,102.936158 908.506922,102.936158" id="Fill-26" fill="#3E71A3"></path>
                        <path d="M623.97803,75.9078309 L621.406452,75.9078309 C621.297646,74.8405175 620.880209,73.8003835 620.149956,72.9348247 L620.158326,72.9275072 L621.986051,71.1012619 C622.174368,70.9130969 622.174368,70.6099423 621.986051,70.420732 C621.797733,70.2336124 621.493287,70.2336124 621.304969,70.420732 L619.478291,72.2480227 C619.474106,72.2501134 619.470968,72.2532495 619.469922,72.2574309 C618.602616,71.5329959 617.561639,71.1179876 616.495554,71.0124062 L616.495554,68.4314103 C616.495554,68.1648433 616.277942,67.9484536 616.012206,67.9484536 C615.746469,67.9484536 615.53095,68.1648433 615.53095,68.4314103 L615.53095,71.0029979 C614.449172,71.0855814 613.385179,71.4828186 612.500087,72.1988907 L610.721534,70.420732 C610.532171,70.2336124 610.228771,70.2336124 610.040453,70.420732 C609.852136,70.6099423 609.852136,70.9130969 610.040453,71.1012619 L611.794943,72.8564227 L609.617786,75.0318186 L607.862249,73.2787485 C607.674978,73.0905835 607.369486,73.0905835 607.181168,73.2787485 C606.992851,73.4648227 606.992851,73.770068 607.181168,73.958233 L608.955536,75.7290742 C608.221099,76.6124041 607.807847,77.6765814 607.716827,78.7648021 L605.189189,78.7648021 C604.923452,78.7648021 604.707934,78.979101 604.707934,79.245668 C604.707934,79.5111897 604.923452,79.7254887 605.189189,79.7254887 L607.717873,79.7254887 C607.814124,80.8105732 608.230514,81.8716144 608.965998,82.7507629 L607.181168,84.5341485 C606.992851,84.7202227 606.992851,85.025468 607.181168,85.213633 C607.369486,85.4007526 607.674978,85.4007526 607.862249,85.213633 L609.644987,83.4323381 C610.524847,84.1714082 611.586748,84.5926887 612.673758,84.6919979 L612.673758,87.204 C612.673758,87.470567 612.88823,87.684866 613.155013,87.684866 C613.287881,87.684866 613.407149,87.6315526 613.495031,87.5437423 C613.581866,87.4569773 613.635222,87.3378062 613.635222,87.204 L613.635222,84.695134 C614.729555,84.605233 615.798779,84.1923155 616.688056,83.4553361 L618.445684,85.213633 C618.635048,85.4007526 618.939494,85.4007526 619.126765,85.213633 C619.314037,85.025468 619.314037,84.7202227 619.126765,84.5341485 L617.385876,82.7925773 L619.563034,80.6171814 L621.304969,82.3566619 C621.493287,82.5448268 621.797733,82.5448268 621.986051,82.3566619 C622.174368,82.1684969 622.174368,81.8653423 621.986051,81.6771773 L620.221099,79.914699 C620.941935,79.0240515 621.340541,77.9567381 621.419006,76.8706082 L623.97803,76.8706082 C624.110898,76.8706082 624.231212,76.8172948 624.318047,76.7294845 C624.404882,76.6427196 624.458239,76.5225031 624.458239,76.3897423 C624.460331,76.1242206 624.243766,75.9078309 623.97803,75.9078309" id="Fill-28" fill="#3E71A3"></path>
                        <path d="M202.356408,85.3160784 L199.78483,85.3160784 C199.676024,84.2487649 199.258588,83.2086309 198.528335,82.3430722 L198.536704,82.3357546 L200.364429,80.5095093 C200.552746,80.3213443 200.552746,80.0181897 200.364429,79.8289794 C200.176112,79.6418598 199.871665,79.6418598 199.683348,79.8289794 L197.85667,81.6562701 C197.852485,81.6583608 197.849346,81.6614969 197.8483,81.6656784 C196.980994,80.9412433 195.940017,80.5262351 194.873932,80.4206536 L194.873932,77.8396577 C194.873932,77.5730907 194.656321,77.356701 194.390584,77.356701 C194.124847,77.356701 193.909329,77.5730907 193.909329,77.8396577 L193.909329,80.4112454 C192.82755,80.4938289 191.763557,80.891066 190.878466,81.6071381 L189.099913,79.8289794 C188.910549,79.6418598 188.607149,79.6418598 188.418832,79.8289794 C188.230514,80.0181897 188.230514,80.3213443 188.418832,80.5095093 L190.173322,82.2646701 L187.996164,84.440066 L186.240628,82.6869959 C186.053357,82.4988309 185.747864,82.4988309 185.559547,82.6869959 C185.371229,82.8730701 185.371229,83.1783155 185.559547,83.3664804 L187.333915,85.1373216 C186.599477,86.0206515 186.186225,87.0848289 186.095205,88.1730495 L183.567568,88.1730495 C183.301831,88.1730495 183.086312,88.3873485 183.086312,88.6539155 C183.086312,88.9194371 183.301831,89.1337361 183.567568,89.1337361 L186.096251,89.1337361 C186.192502,90.2188206 186.608893,91.2798619 187.344377,92.1590103 L185.559547,93.9423959 C185.371229,94.1284701 185.371229,94.4337155 185.559547,94.6218804 C185.747864,94.809 186.053357,94.809 186.240628,94.6218804 L188.023365,92.8405856 C188.903226,93.5796557 189.965126,94.0009361 191.052136,94.1002454 L191.052136,96.6122474 C191.052136,96.8788144 191.266609,97.0931134 191.533391,97.0931134 C191.66626,97.0931134 191.785527,97.0398 191.873409,96.9519897 C191.960244,96.8652247 192.013601,96.7460536 192.013601,96.6122474 L192.013601,94.1033814 C193.107934,94.0134804 194.177158,93.6005629 195.066434,92.8635835 L196.824063,94.6218804 C197.013426,94.809 197.317873,94.809 197.505144,94.6218804 C197.692415,94.4337155 197.692415,94.1284701 197.505144,93.9423959 L195.764255,92.2008247 L197.941412,90.0254289 L199.683348,91.7649093 C199.871665,91.9530742 200.176112,91.9530742 200.364429,91.7649093 C200.552746,91.5767443 200.552746,91.2735897 200.364429,91.0854247 L198.599477,89.3229464 C199.320314,88.432299 199.718919,87.3649856 199.797384,86.2788557 L202.356408,86.2788557 C202.489276,86.2788557 202.60959,86.2255423 202.696425,86.137732 C202.783261,86.050967 202.836617,85.9307505 202.836617,85.7979897 C202.83871,85.532468 202.622145,85.3160784 202.356408,85.3160784" id="Fill-28-Copy" fill="#3E71A3"></path>
                        <path d="M704.536007,154.309893 L701.964429,154.309893 C701.855623,153.242579 701.438187,152.202445 700.707934,151.336887 L700.716303,151.329569 L702.544028,149.503324 C702.732345,149.315159 702.732345,149.012004 702.544028,148.822794 C702.355711,148.635674 702.051264,148.635674 701.862947,148.822794 L700.036269,150.650085 C700.032084,150.652175 700.028945,150.655311 700.027899,150.659493 C699.160593,149.935058 698.119616,149.520049 697.053531,149.414468 L697.053531,146.833472 C697.053531,146.566905 696.83592,146.350515 696.570183,146.350515 C696.304446,146.350515 696.088928,146.566905 696.088928,146.833472 L696.088928,149.40506 C695.007149,149.487643 693.943156,149.88488 693.058065,150.600953 L691.279512,148.822794 C691.090148,148.635674 690.786748,148.635674 690.598431,148.822794 C690.410113,149.012004 690.410113,149.315159 690.598431,149.503324 L692.352921,151.258485 L690.175763,153.43388 L688.420227,151.68081 C688.232956,151.492645 687.927463,151.492645 687.739146,151.68081 C687.550828,151.866885 687.550828,152.17213 687.739146,152.360295 L689.513514,154.131136 C688.779076,155.014466 688.365824,156.078643 688.274804,157.166864 L685.747167,157.166864 C685.48143,157.166864 685.265911,157.381163 685.265911,157.64773 C685.265911,157.913252 685.48143,158.127551 685.747167,158.127551 L688.27585,158.127551 C688.372101,159.212635 688.788492,160.273676 689.523976,161.152825 L687.739146,162.93621 C687.550828,163.122285 687.550828,163.42753 687.739146,163.615695 C687.927463,163.802814 688.232956,163.802814 688.420227,163.615695 L690.202964,161.8344 C691.082825,162.57347 692.144725,162.994751 693.231735,163.09406 L693.231735,165.606062 C693.231735,165.872629 693.446207,166.086928 693.71299,166.086928 C693.845859,166.086928 693.965126,166.033614 694.053008,165.945804 C694.139843,165.859039 694.1932,165.739868 694.1932,165.606062 L694.1932,163.097196 C695.287533,163.007295 696.356757,162.594377 697.246033,161.857398 L699.003662,163.615695 C699.193025,163.802814 699.497472,163.802814 699.684743,163.615695 C699.872014,163.42753 699.872014,163.122285 699.684743,162.93621 L697.943854,161.194639 L700.121011,159.019243 L701.862947,160.758724 C702.051264,160.946889 702.355711,160.946889 702.544028,160.758724 C702.732345,160.570559 702.732345,160.267404 702.544028,160.079239 L700.779076,158.316761 C701.499913,157.426113 701.898518,156.3588 701.976983,155.27267 L704.536007,155.27267 C704.668875,155.27267 704.789189,155.219357 704.876024,155.131546 C704.96286,155.044781 705.016216,154.924565 705.016216,154.791804 C705.018309,154.526282 704.801744,154.309893 704.536007,154.309893" id="Fill-28-Copy-2" fill="#3E71A3"></path>
                        <path d="M1090.58657,102.041852 L1088.015,102.041852 C1087.90619,100.974538 1087.48875,99.9344041 1086.7585,99.0688454 L1086.76687,99.0615278 L1088.59459,97.2352825 C1088.78291,97.0471175 1088.78291,96.7439629 1088.59459,96.5547526 C1088.40628,96.367633 1088.10183,96.367633 1087.91351,96.5547526 L1086.08684,98.3820433 C1086.08265,98.384134 1086.07951,98.3872701 1086.07847,98.3914515 C1085.21116,97.6670165 1084.17018,97.2520082 1083.1041,97.1464268 L1083.1041,94.5654309 C1083.1041,94.2988639 1082.88649,94.0824742 1082.62075,94.0824742 C1082.35501,94.0824742 1082.13949,94.2988639 1082.13949,94.5654309 L1082.13949,97.1370186 C1081.05772,97.2196021 1079.99372,97.6168392 1079.10863,98.3329113 L1077.33008,96.5547526 C1077.14071,96.367633 1076.83731,96.367633 1076.649,96.5547526 C1076.46068,96.7439629 1076.46068,97.0471175 1076.649,97.2352825 L1078.40349,98.9904433 L1076.22633,101.165839 L1074.47079,99.4127691 C1074.28352,99.2246041 1073.97803,99.2246041 1073.78971,99.4127691 C1073.60139,99.5988433 1073.60139,99.9040887 1073.78971,100.092254 L1075.56408,101.863095 C1074.82964,102.746425 1074.41639,103.810602 1074.32537,104.898823 L1071.79773,104.898823 C1071.532,104.898823 1071.31648,105.113122 1071.31648,105.379689 C1071.31648,105.64521 1071.532,105.859509 1071.79773,105.859509 L1074.32642,105.859509 C1074.42267,106.944594 1074.83906,108.005635 1075.57454,108.884784 L1073.78971,110.668169 C1073.60139,110.854243 1073.60139,111.159489 1073.78971,111.347654 C1073.97803,111.534773 1074.28352,111.534773 1074.47079,111.347654 L1076.25353,109.566359 C1077.13339,110.305429 1078.19529,110.726709 1079.2823,110.826019 L1079.2823,113.338021 C1079.2823,113.604588 1079.49677,113.818887 1079.76356,113.818887 C1079.89643,113.818887 1080.01569,113.765573 1080.10357,113.677763 C1080.19041,113.590998 1080.24377,113.471827 1080.24377,113.338021 L1080.24377,110.829155 C1081.3381,110.739254 1082.40732,110.326336 1083.2966,109.589357 L1085.05423,111.347654 C1085.24359,111.534773 1085.54804,111.534773 1085.73531,111.347654 C1085.92258,111.159489 1085.92258,110.854243 1085.73531,110.668169 L1083.99442,108.926598 L1086.17158,106.751202 L1087.91351,108.490682 C1088.10183,108.678847 1088.40628,108.678847 1088.59459,108.490682 C1088.78291,108.302518 1088.78291,107.999363 1088.59459,107.811198 L1086.82964,106.04872 C1087.55048,105.158072 1087.94908,104.090759 1088.02755,103.004629 L1090.58657,103.004629 C1090.71944,103.004629 1090.83976,102.951315 1090.92659,102.863505 C1091.01343,102.77674 1091.06678,102.656524 1091.06678,102.523763 C1091.06888,102.258241 1090.85231,102.041852 1090.58657,102.041852" id="Fill-28-Copy-3" fill="#3E71A3"></path>
                        <path d="M19.2700959,127.130511 L16.6985179,127.130511 C16.5897123,126.063198 16.1722755,125.023064 15.4420227,124.157505 L15.4503923,124.150188 L17.2781168,122.323942 C17.4664342,122.135777 17.4664342,121.832623 17.2781168,121.643412 C17.0897995,121.456293 16.7853531,121.456293 16.5970357,121.643412 L14.7703575,123.470703 C14.7661726,123.472794 14.763034,123.47593 14.7619878,123.480111 C13.8946818,122.755676 12.8537053,122.340668 11.7876199,122.235087 L11.7876199,119.654091 C11.7876199,119.387524 11.5700087,119.171134 11.304272,119.171134 C11.0385353,119.171134 10.8230166,119.387524 10.8230166,119.654091 L10.8230166,122.225678 C9.74123801,122.308262 8.67724499,122.705499 7.79215344,123.421571 L6.0136007,121.643412 C5.82423714,121.456293 5.52083697,121.456293 5.33251962,121.643412 C5.14420227,121.832623 5.14420227,122.135777 5.33251962,122.323942 L7.08700959,124.079103 L4.90985179,126.254499 L3.15431561,124.501429 C2.96704446,124.313264 2.66155187,124.313264 2.47323452,124.501429 C2.28491718,124.687503 2.28491718,124.992748 2.47323452,125.180913 L4.24760244,126.951755 C3.51316478,127.835085 3.09991282,128.899262 3.00889276,129.987482 L0.481255449,129.987482 C0.215518745,129.987482 0,130.201781 0,130.468348 C0,130.73387 0.215518745,130.948169 0.481255449,130.948169 L3.00993897,130.948169 C3.10619006,132.033254 3.52258065,133.094295 4.25806452,133.973443 L2.47323452,135.756829 C2.28491718,135.942903 2.28491718,136.248148 2.47323452,136.436313 C2.66155187,136.623433 2.96704446,136.623433 3.15431561,136.436313 L4.93705318,134.655019 C5.81691369,135.394089 6.8788143,135.815369 7.96582389,135.914678 L7.96582389,138.42668 C7.96582389,138.693247 8.18029643,138.907546 8.44707934,138.907546 C8.57994769,138.907546 8.69921534,138.854233 8.78709677,138.766423 C8.873932,138.679658 8.92728858,138.560487 8.92728858,138.42668 L8.92728858,135.917814 C10.0216216,135.827913 11.0908457,135.414996 11.9801221,134.678016 L13.7377507,136.436313 C13.9271142,136.623433 14.2315606,136.623433 14.4188317,136.436313 C14.6061029,136.248148 14.6061029,135.942903 14.4188317,135.756829 L12.6779425,134.015258 L14.8551003,131.839862 L16.5970357,133.579342 C16.7853531,133.767507 17.0897995,133.767507 17.2781168,133.579342 C17.4664342,133.391177 17.4664342,133.088023 17.2781168,132.899858 L15.5131648,131.137379 C16.2340017,130.246732 16.6326068,129.179419 16.7110724,128.093289 L19.2700959,128.093289 C19.4029643,128.093289 19.5232781,128.039975 19.6101133,127.952165 C19.6969486,127.8654 19.7503051,127.745184 19.7503051,127.612423 C19.7523976,127.346901 19.5358326,127.130511 19.2700959,127.130511" id="Fill-28-Copy-4" fill="#3E71A3"></path>
                        <path d="M196.079163,229.575872 L193.507585,229.575872 C193.398779,228.508559 192.981343,227.468425 192.25109,226.602866 L192.259459,226.595548 L194.087184,224.769303 C194.275501,224.581138 194.275501,224.277984 194.087184,224.088773 C193.898867,223.901654 193.59442,223.901654 193.406103,224.088773 L191.579425,225.916064 C191.57524,225.918155 191.572101,225.921291 191.571055,225.925472 C190.703749,225.201037 189.662772,224.786029 188.596687,224.680447 L188.596687,222.099452 C188.596687,221.832885 188.379076,221.616495 188.113339,221.616495 C187.847602,221.616495 187.632084,221.832885 187.632084,222.099452 L187.632084,224.671039 C186.550305,224.753623 185.486312,225.15086 184.601221,225.866932 L182.822668,224.088773 C182.633304,223.901654 182.329904,223.901654 182.141587,224.088773 C181.953269,224.277984 181.953269,224.581138 182.141587,224.769303 L183.896077,226.524464 L181.718919,228.69986 L179.963383,226.94679 C179.776112,226.758625 179.470619,226.758625 179.282302,226.94679 C179.093984,227.132864 179.093984,227.438109 179.282302,227.626274 L181.05667,229.397115 C180.322232,230.280445 179.90898,231.344623 179.81796,232.432843 L177.290323,232.432843 C177.024586,232.432843 176.809067,232.647142 176.809067,232.913709 C176.809067,233.179231 177.024586,233.39353 177.290323,233.39353 L179.819006,233.39353 C179.915257,234.478614 180.331648,235.539656 181.067132,236.418804 L179.282302,238.20219 C179.093984,238.388264 179.093984,238.693509 179.282302,238.881674 C179.470619,239.068794 179.776112,239.068794 179.963383,238.881674 L181.74612,237.100379 C182.625981,237.839449 183.687881,238.26073 184.774891,238.360039 L184.774891,240.872041 C184.774891,241.138608 184.989364,241.352907 185.256146,241.352907 C185.389015,241.352907 185.508282,241.299594 185.596164,241.211784 C185.682999,241.125019 185.736356,241.005847 185.736356,240.872041 L185.736356,238.363175 C186.830689,238.273274 187.899913,237.860357 188.789189,237.123377 L190.546818,238.881674 C190.736181,239.068794 191.040628,239.068794 191.227899,238.881674 C191.41517,238.693509 191.41517,238.388264 191.227899,238.20219 L189.48701,236.460619 L191.664167,234.285223 L193.406103,236.024703 C193.59442,236.212868 193.898867,236.212868 194.087184,236.024703 C194.275501,235.836538 194.275501,235.533384 194.087184,235.345219 L192.322232,233.58274 C193.043069,232.692093 193.441674,231.624779 193.520139,230.538649 L196.079163,230.538649 C196.212031,230.538649 196.332345,230.485336 196.41918,230.397526 C196.506016,230.310761 196.559372,230.190544 196.559372,230.057784 C196.561465,229.792262 196.3449,229.575872 196.079163,229.575872" id="Fill-28-Copy-5" fill="#3E71A3"></path>
                        <path d="M845.774019,162.672779 L843.202441,162.672779 C843.093636,161.605466 842.676199,160.565332 841.945946,159.699773 L841.954316,159.692456 L843.78204,157.86621 C843.970357,157.678045 843.970357,157.374891 843.78204,157.18568 C843.593723,156.998561 843.289276,156.998561 843.100959,157.18568 L841.274281,159.012971 C841.270096,159.015062 841.266957,159.018198 841.265911,159.022379 C840.398605,158.297944 839.357629,157.882936 838.291543,157.777355 L838.291543,155.196359 C838.291543,154.929792 838.073932,154.713402 837.808195,154.713402 C837.542459,154.713402 837.32694,154.929792 837.32694,155.196359 L837.32694,157.767946 C836.245161,157.85053 835.181168,158.247767 834.296077,158.963839 L832.517524,157.18568 C832.32816,156.998561 832.02476,156.998561 831.836443,157.18568 C831.648126,157.374891 831.648126,157.678045 831.836443,157.86621 L833.590933,159.621371 L831.413775,161.796767 L829.658239,160.043697 C829.470968,159.855532 829.165475,159.855532 828.977158,160.043697 C828.78884,160.229771 828.78884,160.535016 828.977158,160.723181 L830.751526,162.494023 C830.017088,163.377353 829.603836,164.44153 829.512816,165.529751 L826.985179,165.529751 C826.719442,165.529751 826.503923,165.744049 826.503923,166.010616 C826.503923,166.276138 826.719442,166.490437 826.985179,166.490437 L829.513862,166.490437 C829.610113,167.575522 830.026504,168.636563 830.761988,169.515711 L828.977158,171.299097 C828.78884,171.485171 828.78884,171.790416 828.977158,171.978581 C829.165475,172.165701 829.470968,172.165701 829.658239,171.978581 L831.440976,170.197287 C832.320837,170.936357 833.382738,171.357637 834.469747,171.456946 L834.469747,173.968948 C834.469747,174.235515 834.68422,174.449814 834.951003,174.449814 C835.083871,174.449814 835.203139,174.396501 835.29102,174.308691 C835.377855,174.221926 835.431212,174.102755 835.431212,173.968948 L835.431212,171.460082 C836.525545,171.370181 837.594769,170.957264 838.484045,170.220285 L840.241674,171.978581 C840.431037,172.165701 840.735484,172.165701 840.922755,171.978581 C841.110026,171.790416 841.110026,171.485171 840.922755,171.299097 L839.181866,169.557526 L841.359024,167.38213 L843.100959,169.12161 C843.289276,169.309775 843.593723,169.309775 843.78204,169.12161 C843.970357,168.933445 843.970357,168.630291 843.78204,168.442126 L842.017088,166.679647 C842.737925,165.789 843.13653,164.721687 843.214996,163.635557 L845.774019,163.635557 C845.906888,163.635557 846.027201,163.582243 846.114037,163.494433 C846.200872,163.407668 846.254228,163.287452 846.254228,163.154691 C846.256321,162.889169 846.039756,162.672779 845.774019,162.672779" id="Fill-28-Copy-6" fill="#3E71A3"></path>
                        <path d="M476.24401,154.735041 L474.71027,154.735041 C474.644359,154.098416 474.395362,153.477472 473.960139,152.962109 C473.961186,152.960018 473.962232,152.958973 473.964324,152.956882 L475.055519,151.867616 C475.167463,151.754717 475.167463,151.57387 475.055519,151.460971 C474.942528,151.349117 474.761534,151.349117 474.64959,151.460971 L473.558396,152.551282 C473.556303,152.552328 473.555257,152.554418 473.554211,152.556509 C473.036338,152.124775 472.414891,151.87807 471.778797,151.814303 L471.778797,150.272396 C471.778797,150.114546 471.649067,149.985967 471.49109,149.985967 C471.332066,149.985967 471.203383,150.114546 471.203383,150.272396 L471.203383,151.808031 C470.557873,151.857163 469.922825,152.09446 469.39449,152.522012 L468.332589,151.460971 C468.220645,151.349117 468.039651,151.349117 467.926661,151.460971 C467.814717,151.57387 467.814717,151.754717 467.926661,151.867616 L468.973915,152.914022 L467.674525,154.212361 L466.626225,153.165954 C466.515327,153.054101 466.332241,153.054101 466.220296,153.165954 C466.108352,153.276763 466.108352,153.459701 466.220296,153.5726 L467.279058,154.628414 C466.840697,155.156321 466.593793,155.791901 466.53939,156.440025 L465.031805,156.440025 C464.872781,156.440025 464.744098,156.568604 464.744098,156.726453 C464.744098,156.886394 464.872781,157.013928 465.031805,157.013928 L466.540436,157.013928 C466.597977,157.661006 466.846975,158.294495 467.285336,158.819266 L466.220296,159.883443 C466.108352,159.994251 466.108352,160.177189 466.220296,160.289043 C466.332241,160.400897 466.515327,160.400897 466.626225,160.289043 L467.690218,159.225911 C468.215414,159.667053 468.849416,159.91794 469.498065,159.978571 L469.498065,161.476573 C469.498065,161.635468 469.626748,161.764047 469.784725,161.764047 C469.864237,161.764047 469.936425,161.731641 469.988736,161.680418 C470.04,161.62815 470.072432,161.55602 470.072432,161.476573 L470.072432,159.979616 C470.725266,159.926303 471.362406,159.678552 471.89388,159.240546 L472.943226,160.289043 C473.05517,160.400897 473.23721,160.400897 473.349154,160.289043 C473.461099,160.177189 473.461099,159.994251 473.349154,159.883443 L472.31027,158.844354 L473.60966,157.546016 L474.64959,158.58406 C474.761534,158.695913 474.942528,158.695913 475.055519,158.58406 C475.167463,158.471161 475.167463,158.290313 475.055519,158.17846 L474.001988,157.125781 C474.431979,156.594738 474.670514,155.958113 474.717594,155.309989 L476.24401,155.309989 C476.323522,155.309989 476.395711,155.278629 476.446975,155.226361 C476.499285,155.174093 476.530671,155.103008 476.530671,155.022515 C476.531718,154.864666 476.403034,154.735041 476.24401,154.735041" id="Fill-30" fill="#3E71A3"></path>
                        <path d="M332.425737,201.439463 C332.35041,201.365242 332.247881,201.320292 332.133845,201.320292 L325.216321,201.320292 C325.228875,200.791339 325.034281,200.260296 324.630445,199.856787 C324.226609,199.454323 323.695135,199.25884 323.165754,199.271385 L323.165754,192.358413 C323.165754,192.245514 323.120767,192.142024 323.046486,192.067803 C322.97116,191.994628 322.868631,191.948632 322.754595,191.948632 C322.527568,191.948632 322.342389,192.13157 322.342389,192.358413 L322.342389,199.470003 C322.146748,199.565131 321.962616,199.69371 321.797315,199.856787 C321.69374,199.962368 321.601674,200.075267 321.525301,200.196529 C319.90891,199.617399 318.030968,199.973867 316.734717,201.269069 L310.439686,207.55796 C310.368544,207.629044 310.300541,207.70431 310.234629,207.779576 L307.49252,207.779576 C307.265493,207.779576 307.080314,207.96356 307.080314,208.191448 C307.080314,208.419337 307.265493,208.604366 307.49252,208.604366 L309.657123,208.604366 C309.502284,208.887659 309.378832,209.184541 309.286765,209.489787 L307.237245,209.489787 C307.009172,209.489787 306.825039,209.674815 306.825039,209.902704 C306.825039,210.129547 307.009172,210.312486 307.237245,210.312486 L309.124603,210.312486 C309.054507,210.986743 309.129834,211.673545 309.357908,212.317488 C308.700889,212.226541 307.350235,211.949521 306.017367,211.137275 C303.566103,209.6445 302.316931,207.122044 302.301238,203.638902 C302.301238,203.524958 302.255205,203.423558 302.18197,203.349337 C302.106643,203.275116 302.002023,203.229121 301.889032,203.229121 C301.660959,203.230166 301.477873,203.415195 301.477873,203.642038 C301.489381,206.256486 302.216495,209.80444 305.618762,211.858574 C307.645266,213.082692 309.645615,213.17991 309.730357,213.183046 C309.742912,213.184092 309.755466,213.180956 309.769067,213.180956 C309.954246,213.48411 310.178134,213.77263 310.439686,214.036061 C310.70333,214.297401 310.992084,214.522154 311.295484,214.705092 C311.294438,214.719727 311.292345,214.732271 311.293391,214.745861 C311.297576,214.82949 311.393827,216.82822 312.618936,218.852038 C314.674734,222.252597 318.225562,222.979123 320.842127,222.990622 C321.070201,222.990622 321.254333,222.807684 321.255379,222.58084 C321.255379,222.466896 321.209346,222.36236 321.135065,222.287094 C321.060785,222.213919 320.959303,222.167923 320.845266,222.167923 C317.359303,222.152242 314.83585,220.903036 313.34082,218.453756 C312.52687,217.123011 312.250671,215.773451 312.158605,215.118009 L312.158605,215.116964 C312.804115,215.344853 313.490427,215.420119 314.165231,215.351125 L314.165231,217.23591 C314.165231,217.463799 314.35041,217.647782 314.576391,217.647782 C314.804464,217.647782 314.988596,217.463799 314.988596,217.23591 L314.988596,215.187003 C315.294089,215.096057 315.592258,214.972704 315.876827,214.817991 L315.876827,216.979797 C315.876827,217.207686 316.060959,217.392714 316.289032,217.392714 C316.517105,217.392714 316.700192,217.207686 316.700192,216.979797 L316.700192,214.240952 C316.776565,214.176139 316.851892,214.1061 316.923034,214.036061 L323.217018,207.746125 C324.513269,206.450923 324.870026,204.5745 324.290427,202.959418 C324.411787,202.883106 324.524778,202.791114 324.630445,202.686578 C324.793653,202.522457 324.922337,202.338473 325.017541,202.142991 L332.133845,202.142991 C332.361918,202.142991 332.545004,201.957962 332.545004,201.730073 C332.545004,201.617174 332.498971,201.513684 332.425737,201.439463" id="Fill-32" fill="#3E71A3"></path>
                        <path d="M568.381517,113.215713 C568.337576,113.171808 568.277942,113.145674 568.210985,113.145674 L564.170532,113.145674 C564.177855,112.837293 564.064865,112.526821 563.828422,112.291614 C563.593025,112.056408 563.282302,111.942464 562.97367,111.949781 L562.97367,107.911553 C562.97367,107.845695 562.946469,107.786109 562.903575,107.742204 C562.859634,107.699344 562.8,107.672165 562.733043,107.672165 C562.600174,107.672165 562.492415,107.778792 562.492415,107.911553 L562.492415,112.064771 C562.378378,112.121221 562.269573,112.196487 562.174368,112.291614 C562.112642,112.353291 562.060331,112.419148 562.015344,112.490233 C561.070619,112.151536 559.973147,112.359563 559.216739,113.116404 L555.540366,116.789802 C555.498518,116.830571 555.458762,116.874476 555.420052,116.919427 L553.819355,116.919427 C553.68544,116.919427 553.577681,117.027099 553.577681,117.158814 C553.577681,117.292621 553.68544,117.400293 553.819355,117.400293 L555.083173,117.400293 C554.992153,117.566505 554.919965,117.740035 554.866609,117.918792 L553.668701,117.918792 C553.536879,117.918792 553.429119,118.026464 553.429119,118.159225 C553.429119,118.29094 553.536879,118.398612 553.668701,118.398612 L554.771404,118.398612 C554.730602,118.791668 554.775588,119.193087 554.908457,119.570462 C554.524499,119.516103 553.735658,119.354072 552.95728,118.880524 C551.525022,118.007647 550.794769,116.534734 550.786399,114.500462 C550.786399,114.434604 550.759198,114.375019 550.716303,114.331113 C550.672363,114.287208 550.611683,114.261074 550.545772,114.261074 C550.412903,114.261074 550.305144,114.369792 550.305144,114.502553 C550.312467,116.028779 550.736181,118.10173 552.723976,119.301804 C553.908282,120.015786 555.076896,120.07328 555.126068,120.075371 C555.132345,120.075371 555.140715,120.074326 555.149085,120.074326 C555.256844,120.250992 555.38762,120.419295 555.540366,120.572963 C555.694159,120.726631 555.862598,120.857301 556.040453,120.964973 C556.039407,120.972291 556.038361,120.979608 556.038361,120.987971 C556.040453,121.036058 556.096949,122.203726 556.812554,123.386029 C558.013601,125.372214 560.087184,125.796631 561.615693,125.803948 C561.748561,125.803948 561.856321,125.696276 561.857367,125.563515 C561.857367,125.497658 561.830166,125.435981 561.786225,125.392076 C561.74333,125.349216 561.683697,125.323082 561.617786,125.323082 C559.581866,125.313674 558.107759,124.584012 557.234176,123.153959 C556.759198,122.37621 556.598082,121.588008 556.544725,121.205406 L556.544725,121.204361 C556.92136,121.338167 557.322058,121.382072 557.716478,121.341303 L557.716478,122.442068 C557.716478,122.575874 557.824237,122.683546 557.956059,122.683546 C558.089974,122.683546 558.197733,122.575874 558.197733,122.442068 L558.197733,121.246175 C558.375588,121.192862 558.550305,121.120732 558.715606,121.029786 L558.715606,122.292581 C558.715606,122.426388 558.823365,122.53406 558.956234,122.53406 C559.090148,122.53406 559.196861,122.426388 559.196861,122.292581 L559.196861,120.693179 C559.241848,120.654501 559.284743,120.614777 559.326591,120.572963 L563.002964,116.899565 C563.760418,116.142724 563.968614,115.047186 563.629643,114.103225 C563.700785,114.05932 563.766696,114.004961 563.828422,113.94433 C563.923627,113.848157 563.998954,113.740485 564.054403,113.62654 L568.210985,113.62654 C568.3449,113.62654 568.451613,113.518868 568.451613,113.386107 C568.451613,113.320249 568.425458,113.259619 568.381517,113.215713" id="Fill-34" fill="#3E71A3"></path>
                        <path d="M350.770357,86.036332 C350.726417,85.9924268 350.666783,85.9662928 350.599826,85.9662928 L346.559372,85.9662928 C346.566696,85.6579113 346.453705,85.3474392 346.217262,85.112233 C345.981866,84.8770268 345.671142,84.7630825 345.362511,84.7704 L345.362511,80.7321711 C345.362511,80.6663134 345.33531,80.6067278 345.292415,80.5628227 C345.248474,80.5199629 345.18884,80.4927835 345.121883,80.4927835 C344.989015,80.4927835 344.881255,80.5994103 344.881255,80.7321711 L344.881255,84.8853897 C344.767219,84.9418392 344.658413,85.0171052 344.563208,85.112233 C344.501482,85.1739093 344.449172,85.239767 344.404185,85.3108515 C343.459459,84.9721546 342.361988,85.1801814 341.60558,85.9370227 L337.929207,89.6104206 C337.887358,89.6511897 337.847602,89.6950948 337.808893,89.7400454 L336.208195,89.7400454 C336.074281,89.7400454 335.966521,89.8477175 335.966521,89.979433 C335.966521,90.1132392 336.074281,90.2209113 336.208195,90.2209113 L337.472014,90.2209113 C337.380994,90.3871237 337.308806,90.5606536 337.255449,90.7394103 L336.057541,90.7394103 C335.925719,90.7394103 335.81796,90.8470825 335.81796,90.9798433 C335.81796,91.1115588 335.925719,91.2192309 336.057541,91.2192309 L337.160244,91.2192309 C337.119442,91.6122866 337.164429,92.0137052 337.297297,92.3910804 C336.913339,92.3367216 336.124499,92.1746907 335.34612,91.7011423 C333.913862,90.828266 333.183609,89.3553526 333.17524,87.3210804 C333.17524,87.2552227 333.148038,87.1956371 333.105144,87.151732 C333.061203,87.1078268 333.000523,87.0816928 332.934612,87.0816928 C332.801744,87.0816928 332.693984,87.1904103 332.693984,87.3231711 C332.701308,88.8493979 333.125022,90.9223485 335.112816,92.1224227 C336.297123,92.8364041 337.465737,92.893899 337.514908,92.8959897 C337.521186,92.8959897 337.529555,92.8949443 337.537925,92.8949443 C337.645684,93.0716103 337.77646,93.2399134 337.929207,93.3935814 C338.082999,93.5472495 338.251439,93.6779196 338.429294,93.7855918 C338.428248,93.7929093 338.427201,93.8002268 338.427201,93.8085897 C338.429294,93.8566763 338.485789,95.0243443 339.201395,96.2066474 C340.402441,98.192833 342.476024,98.6172495 344.004534,98.624567 C344.137402,98.624567 344.245161,98.5168948 344.246207,98.384134 C344.246207,98.3182763 344.219006,98.2566 344.175065,98.2126948 C344.132171,98.1698351 344.072537,98.143701 344.006626,98.143701 C341.970706,98.1342928 340.4966,97.4046309 339.623017,95.9745773 C339.148038,95.1968289 338.986922,94.4086268 338.933566,94.0260247 L338.933566,94.0249794 C339.310201,94.1587856 339.710898,94.2026907 340.105318,94.1619216 L340.105318,95.2626866 C340.105318,95.3964928 340.213078,95.5041649 340.3449,95.5041649 C340.478814,95.5041649 340.586574,95.3964928 340.586574,95.2626866 L340.586574,94.0667938 C340.764429,94.0134804 340.939146,93.9413505 341.104446,93.8504041 L341.104446,95.1132 C341.104446,95.2470062 341.212206,95.3546784 341.345074,95.3546784 C341.478989,95.3546784 341.585702,95.2470062 341.585702,95.1132 L341.585702,93.5137979 C341.630689,93.4751196 341.673583,93.4353959 341.715432,93.3935814 L345.391805,89.7201835 C346.149259,88.9633423 346.357454,87.8678041 346.018483,86.9238433 C346.089625,86.8799381 346.155536,86.8255794 346.217262,86.7649485 C346.312467,86.6687753 346.387794,86.5611031 346.443243,86.4471588 L350.599826,86.4471588 C350.73374,86.4471588 350.840453,86.3394866 350.840453,86.2067258 C350.840453,86.140868 350.814298,86.0802371 350.770357,86.036332" id="Fill-34-Copy" fill="#3E71A3"></path>
                        <path d="M949.201046,232.386847 C949.157105,232.342942 949.097472,232.316808 949.030514,232.316808 L944.990061,232.316808 C944.997384,232.008427 944.884394,231.697955 944.647951,231.462748 C944.412554,231.227542 944.101831,231.113598 943.7932,231.120915 L943.7932,227.082687 C943.7932,227.016829 943.765998,226.957243 943.723104,226.913338 C943.679163,226.870478 943.619529,226.843299 943.552572,226.843299 C943.419704,226.843299 943.311944,226.949926 943.311944,227.082687 L943.311944,231.235905 C943.197908,231.292355 943.089102,231.367621 942.993897,231.462748 C942.932171,231.524425 942.879861,231.590282 942.834874,231.661367 C941.890148,231.32267 940.792677,231.530697 940.036269,232.287538 L936.359895,235.960936 C936.318047,236.001705 936.278291,236.04561 936.239582,236.090561 L934.638884,236.090561 C934.504969,236.090561 934.39721,236.198233 934.39721,236.329948 C934.39721,236.463755 934.504969,236.571427 934.638884,236.571427 L935.902703,236.571427 C935.811683,236.737639 935.739494,236.911169 935.686138,237.089926 L934.48823,237.089926 C934.356408,237.089926 934.248649,237.197598 934.248649,237.330359 C934.248649,237.462074 934.356408,237.569746 934.48823,237.569746 L935.590933,237.569746 C935.550131,237.962802 935.595118,238.364221 935.727986,238.741596 C935.344028,238.687237 934.555187,238.525206 933.776809,238.051658 C932.344551,237.178781 931.614298,235.705868 931.605929,233.671596 C931.605929,233.605738 931.578727,233.546153 931.535833,233.502247 C931.491892,233.458342 931.431212,233.432208 931.365301,233.432208 C931.232432,233.432208 931.124673,233.540926 931.124673,233.673687 C931.131997,235.199913 931.555711,237.272864 933.543505,238.472938 C934.727812,239.18692 935.896425,239.244414 935.945597,239.246505 C935.951874,239.246505 935.960244,239.24546 935.968614,239.24546 C936.076373,239.422126 936.207149,239.590429 936.359895,239.744097 C936.513688,239.897765 936.682127,240.028435 936.859983,240.136107 C936.858936,240.143425 936.85789,240.150742 936.85789,240.159105 C936.859983,240.207192 936.916478,241.37486 937.632084,242.557163 C938.83313,244.543348 940.906713,244.967765 942.435222,244.975082 C942.568091,244.975082 942.67585,244.86741 942.676896,244.734649 C942.676896,244.668792 942.649695,244.607115 942.605754,244.56321 C942.56286,244.520351 942.503226,244.494216 942.437315,244.494216 C940.401395,244.484808 938.927289,243.755146 938.053705,242.325093 C937.578727,241.547344 937.417611,240.759142 937.364255,240.37654 L937.364255,240.375495 C937.740889,240.509301 938.141587,240.553206 938.536007,240.512437 L938.536007,241.613202 C938.536007,241.747008 938.643766,241.85468 938.775588,241.85468 C938.909503,241.85468 939.017262,241.747008 939.017262,241.613202 L939.017262,240.417309 C939.195118,240.363996 939.369834,240.291866 939.535135,240.20092 L939.535135,241.463715 C939.535135,241.597522 939.642895,241.705194 939.775763,241.705194 C939.909677,241.705194 940.016391,241.597522 940.016391,241.463715 L940.016391,239.864313 C940.061378,239.825635 940.104272,239.785911 940.14612,239.744097 L943.822493,236.070699 C944.579948,235.313858 944.788143,234.21832 944.449172,233.274359 C944.520314,233.230454 944.586225,233.176095 944.647951,233.115464 C944.743156,233.019291 944.818483,232.911619 944.873932,232.797674 L949.030514,232.797674 C949.164429,232.797674 949.271142,232.690002 949.271142,232.557241 C949.271142,232.491384 949.244987,232.430753 949.201046,232.386847" id="Fill-34-Copy-2" fill="#3E71A3"></path>
                        <path d="M870.544133,194.881392 C870.500192,194.838532 870.439512,194.812398 870.373601,194.812398 L866.333147,194.812398 C866.339425,194.504016 866.226434,194.192499 865.989991,193.957293 C865.754595,193.722087 865.443871,193.608142 865.13524,193.61546 L865.13524,189.578276 C865.13524,189.511373 865.109085,189.451788 865.06619,189.407882 C865.022249,189.365023 864.961569,189.337843 864.895658,189.337843 C864.76279,189.337843 864.653984,189.445515 864.653984,189.578276 L864.653984,193.730449 C864.539948,193.786899 864.432188,193.86112 864.335937,193.957293 C864.275257,194.018969 864.221901,194.084827 864.176914,194.155911 C863.233235,193.817214 862.135763,194.026287 861.378309,194.781037 L857.702982,198.45548 C857.661133,198.497295 857.620331,198.5412 857.581622,198.585105 L855.980924,198.585105 C855.848056,198.585105 855.740296,198.692777 855.740296,198.824493 C855.740296,198.958299 855.848056,199.065971 855.980924,199.065971 L857.244743,199.065971 C857.153723,199.231138 857.082581,199.405713 857.028178,199.583425 L855.831316,199.583425 C855.698448,199.583425 855.590689,199.692142 855.590689,199.824903 C855.590689,199.956619 855.698448,200.064291 855.831316,200.064291 L856.932973,200.064291 C856.892171,200.457346 856.937158,200.858765 857.070026,201.235095 C856.687114,201.181781 855.897228,201.019751 855.118849,200.546202 C853.687637,199.673326 852.957384,198.200412 852.949015,196.16614 C852.949015,196.100282 852.921813,196.039652 852.877873,195.996792 C852.834978,195.952887 852.774298,195.926753 852.707341,195.926753 C852.574473,195.927798 852.467759,196.03547 852.467759,196.168231 C852.475083,197.694458 852.898797,199.767408 854.886591,200.967482 C856.069852,201.682509 857.238466,201.740004 857.287637,201.741049 C857.294961,201.741049 857.302284,201.741049 857.310654,201.741049 C857.418413,201.91667 857.549189,202.084973 857.702982,202.238641 C857.856774,202.392309 858.024167,202.522979 858.202023,202.630652 C858.200976,202.637969 858.19993,202.646332 858.200976,202.653649 C858.203069,202.701736 858.259564,203.870449 858.974124,205.051707 C860.176216,207.038938 862.249799,207.462309 863.777262,207.469627 C863.910131,207.469627 864.018936,207.361955 864.019983,207.230239 C864.019983,207.163336 863.992781,207.10166 863.94884,207.057755 C863.9049,207.014895 863.846312,206.988761 863.779355,206.988761 C861.744481,206.979353 860.269329,206.249691 859.396792,204.819637 C858.921813,204.041889 858.759651,203.253687 858.706295,202.871085 C859.082929,203.003845 859.484673,203.047751 859.878047,203.006981 L859.878047,204.107746 C859.878047,204.240507 859.985806,204.349225 860.118675,204.349225 C860.251543,204.349225 860.359303,204.240507 860.359303,204.107746 L860.359303,202.911854 C860.538204,202.85854 860.711874,202.78641 860.878221,202.696509 L860.878221,203.959305 C860.878221,204.092066 860.984935,204.199738 861.118849,204.199738 C861.251718,204.199738 861.359477,204.092066 861.359477,203.959305 L861.359477,202.358858 C861.403418,202.320179 861.447358,202.280456 861.489207,202.238641 L865.164534,198.565243 C865.921988,197.809447 866.130183,196.712864 865.792258,195.769948 C865.862354,195.724998 865.929311,195.671685 865.989991,195.610008 C866.085196,195.513835 866.161569,195.407208 866.215972,195.293264 L870.373601,195.293264 C870.506469,195.293264 870.613182,195.184546 870.613182,195.051786 C870.613182,194.985928 870.587027,194.925297 870.544133,194.881392" id="Fill-36" fill="#3E71A3"></path>
                        <path d="M1111.7706,201.439463 C1111.69632,201.365242 1111.59275,201.320292 1111.47976,201.320292 L1104.56014,201.320292 C1104.57374,200.791339 1104.37915,200.260296 1103.97531,199.856787 C1103.57147,199.454323 1103.03895,199.25884 1102.51062,199.271385 L1102.51062,192.358413 C1102.51062,192.245514 1102.46459,192.142024 1102.39135,192.067803 C1102.31707,191.994628 1102.2135,191.948632 1102.10051,191.948632 C1101.87243,191.948632 1101.68725,192.13157 1101.68725,192.358413 L1101.68725,199.470003 C1101.49161,199.565131 1101.30643,199.69371 1101.14323,199.856787 C1101.03756,199.962368 1100.94654,200.075267 1100.87017,200.196529 C1099.25378,199.617399 1097.37583,199.973867 1096.07958,201.269069 L1089.78455,207.55796 C1089.71446,207.629044 1089.64541,207.70431 1089.57845,207.779576 L1086.83843,207.779576 C1086.61036,207.779576 1086.42518,207.96356 1086.42518,208.191448 C1086.42518,208.419337 1086.61036,208.604366 1086.83843,208.604366 L1089.00199,208.604366 C1088.84715,208.887659 1088.7237,209.184541 1088.63163,209.489787 L1086.58211,209.489787 C1086.35404,209.489787 1086.16886,209.674815 1086.16886,209.902704 C1086.16886,210.129547 1086.35404,210.312486 1086.58211,210.312486 L1088.46947,210.312486 C1088.39833,210.986743 1088.4747,211.673545 1088.70277,212.317488 C1088.04575,212.226541 1086.6951,211.949521 1085.36223,211.137275 C1082.90992,209.6445 1081.6618,207.122044 1081.6461,203.638902 C1081.6461,203.524958 1081.60007,203.423558 1081.52684,203.349337 C1081.45151,203.275116 1081.34689,203.229121 1081.2339,203.229121 C1081.00582,203.230166 1080.82274,203.415195 1080.82274,203.642038 C1080.83425,206.256486 1081.56136,209.80444 1084.96363,211.858574 C1086.99013,213.082692 1088.99153,213.17991 1089.07522,213.183046 C1089.08673,213.184092 1089.10033,213.180956 1089.11498,213.180956 C1089.29911,213.48411 1089.523,213.77263 1089.78455,214.036061 C1090.0482,214.297401 1090.33695,214.522154 1090.64139,214.705092 C1090.6393,214.719727 1090.63721,214.732271 1090.63826,214.745861 C1090.64244,214.82949 1090.73869,216.82822 1091.96276,218.852038 C1094.0196,222.252597 1097.57043,222.979123 1100.18699,222.990622 C1100.41507,222.990622 1100.5992,222.807684 1100.60024,222.58084 C1100.60024,222.466896 1100.55421,222.36236 1100.47888,222.287094 C1100.40565,222.213919 1100.30417,222.167923 1100.19118,222.167923 C1096.70521,222.152242 1094.18071,220.903036 1092.68568,218.453756 C1091.87173,217.123011 1091.59554,215.773451 1091.50452,215.118009 L1091.50452,215.116964 C1092.14898,215.344853 1092.83529,215.420119 1093.5101,215.351125 L1093.5101,217.23591 C1093.5101,217.463799 1093.69527,217.647782 1093.92126,217.647782 C1094.14933,217.647782 1094.33451,217.463799 1094.33451,217.23591 L1094.33451,215.187003 C1094.64,215.096057 1094.93712,214.972704 1095.22169,214.817991 L1095.22169,216.979797 C1095.22169,217.207686 1095.40582,217.392714 1095.6339,217.392714 C1095.86197,217.392714 1096.04506,217.207686 1096.04506,216.979797 L1096.04506,214.240952 C1096.12143,214.176139 1096.19676,214.1061 1096.2679,214.036061 L1102.56188,207.746125 C1103.85918,206.450923 1104.21384,204.5745 1103.63634,202.959418 C1103.75665,202.883106 1103.86964,202.791114 1103.97531,202.686578 C1104.13852,202.522457 1104.2672,202.338473 1104.36241,202.142991 L1111.47976,202.142991 C1111.70678,202.142991 1111.88987,201.957962 1111.88987,201.730073 C1111.88987,201.617174 1111.84384,201.513684 1111.7706,201.439463" id="Fill-38" fill="#3E71A3"></path>
                        <path d="M791.436094,113.728986 C791.083522,113.097588 782.661552,98.2639175 770.81116,98.2639175 C762.217611,98.2639175 755.323104,102.011536 752.495205,108.123761 L748.410811,105.766472 C747.02354,104.965726 745.366347,104.965726 743.979076,105.766472 C742.590759,106.567219 741.761116,108.000408 741.761116,109.601901 L741.761116,118.824074 C741.761116,120.423476 742.590759,121.857711 743.979076,122.658458 C745.366347,123.460249 747.02354,123.460249 748.410811,122.658458 L752.495205,120.302214 C755.323104,126.414439 762.217611,130.162058 770.81116,130.162058 C774.99599,130.162058 778.750828,128.308633 781.87585,125.887577 L781.878989,125.887577 L781.88422,125.881305 C787.603836,121.446885 791.208021,115.10468 791.436094,114.69699 L791.706016,114.211942 L791.436094,113.728986 Z" id="Fill-40" fill="#3E71A3"></path>
                        <path d="M164.123173,175.515664 C163.771648,174.884266 155.349677,160.049551 143.499285,160.049551 C134.905737,160.049551 128.011229,163.797169 125.18333,169.91044 L121.098936,167.553151 C119.710619,166.752405 118.054473,166.752405 116.666155,167.553151 C115.277838,168.353897 114.449241,169.787087 114.449241,171.38858 L114.449241,180.609708 C114.449241,182.20911 115.277838,183.643345 116.666155,184.445136 C118.054473,185.245883 119.710619,185.245883 121.098936,184.445136 L125.18333,182.087848 C128.011229,188.201118 134.905737,191.948736 143.499285,191.948736 C147.684115,191.948736 151.437908,190.095312 154.563976,187.674256 L154.567114,187.674256 L154.572345,187.667984 C160.291962,183.233563 163.896146,176.891359 164.123173,176.483668 L164.394141,175.998621 L164.123173,175.515664 Z" id="Fill-42" fill="#3E71A3"></path>
                        <path d="M927.249834,181.849087 C927.045824,181.48112 922.146434,172.854803 915.254019,172.854803 C910.256286,172.854803 906.245126,175.033335 904.601534,178.589652 L902.224551,177.218139 C901.417925,176.752953 900.454368,176.752953 899.646696,177.218139 C898.839024,177.68437 898.356722,178.517522 898.356722,179.448939 L898.356722,184.812685 C898.356722,185.744102 898.839024,186.577254 899.646696,187.043485 C900.454368,187.509716 901.417925,187.509716 902.224551,187.043485 L904.601534,185.673017 C906.245126,189.228289 910.256286,191.407867 915.254019,191.407867 C917.687498,191.407867 919.870933,190.3301 921.690288,188.921999 L921.69238,188.921999 L921.694473,188.917817 C925.021412,186.338912 927.116966,182.650879 927.249834,182.412537 L927.406765,182.131335 L927.249834,181.849087 Z" id="Fill-44" fill="#3E71A3"></path>
                        <path d="M402.793339,260.804459 C390.15306,241.070137 420.819494,221.335815 408.179215,201.602539 C424.411125,221.335815 397.335275,241.070137 413.566138,260.804459 L402.793339,260.804459 Z" id="Fill-46" fill="#594D49"></path>
                        <path d="M418.604987,260.804459 C409.876478,247.177135 431.05381,233.548766 422.324255,219.921442 C433.533322,233.548766 414.835501,247.177135 426.044568,260.804459 L418.604987,260.804459 Z" id="Fill-48" fill="#594D49"></path>
                        <path d="M379.016704,260.804459 C372.792816,252.039108 387.892729,243.272712 381.66884,234.508407 C389.66082,243.272712 376.328997,252.039108 384.320976,260.804459 L379.016704,260.804459 Z" id="Fill-50" fill="#594D49"></path>
                        <path d="M400.316338,260.804459 C412.956617,234.117442 382.290183,207.428335 394.930462,180.740273 C378.698553,207.428335 405.774403,234.117442 389.54354,260.804459 L400.316338,260.804459 Z" id="Fill-52" fill="#594D49"></path>
                        <path d="M390.312921,260.804459 C399.273688,245.617457 377.53245,230.429409 386.494263,215.242407 C374.987027,230.429409 394.182842,245.617457 382.675606,260.804459 L390.312921,260.804459 Z" id="Fill-54" fill="#594D49"></path>
                        <path d="M415.160349,260.804459 C420.376739,250.413572 407.721813,240.020595 412.937158,229.628663 C406.239337,240.020595 417.412833,250.413572 410.715013,260.804459 L415.160349,260.804459 Z" id="Fill-56" fill="#594D49"></path>
                        <path d="M871.638361,260.804459 C858.998082,241.070137 889.664516,221.335815 877.024237,201.602539 C893.2551,221.335815 866.17925,241.070137 882.41116,260.804459 L871.638361,260.804459 Z" id="Fill-58" fill="#594D49"></path>
                        <path d="M887.450009,260.804459 C878.720453,247.177135 899.897786,233.548766 891.169276,219.921442 C902.378344,233.548766 883.679477,247.177135 894.888544,260.804459 L887.450009,260.804459 Z" id="Fill-60" fill="#594D49"></path>
                        <path d="M847.861622,260.804459 C841.637733,252.039108 856.737646,243.272712 850.513758,234.508407 C858.505737,243.272712 845.173915,252.039108 853.165894,260.804459 L847.861622,260.804459 Z" id="Fill-62" fill="#594D49"></path>
                        <path d="M869.160732,260.804459 C881.801011,234.117442 851.135623,207.428335 863.774856,180.740273 C847.543993,207.428335 874.619843,234.117442 858.387934,260.804459 L869.160732,260.804459 Z" id="Fill-64" fill="#594D49"></path>
                        <path d="M859.157419,260.804459 C868.119233,245.617457 846.376949,230.429409 855.339808,215.242407 C843.832572,230.429409 863.027341,245.617457 851.520105,260.804459 L859.157419,260.804459 Z" id="Fill-66" fill="#594D49"></path>
                        <path d="M884.005894,260.804459 C889.221238,250.413572 876.566312,240.020595 881.782703,229.628663 C875.084882,240.020595 886.257332,250.413572 879.559512,260.804459 L884.005894,260.804459 Z" id="Fill-68" fill="#594D49"></path>
                        <path d="M590.054752,187.818098 C582.358849,175.80272 601.030514,163.788388 593.334612,151.773011 C603.217088,163.788388 586.731997,175.80272 596.614473,187.818098 L590.054752,187.818098 Z" id="Fill-70" fill="#567F99"></path>
                        <path d="M599.681639,187.818098 C594.366905,179.521069 607.261412,171.222995 601.946678,162.925966 C608.77109,171.222995 597.387306,179.521069 604.211718,187.818098 L599.681639,187.818098 Z" id="Fill-72" fill="#567F99"></path>
                        <path d="M575.578483,187.818098 C571.789119,182.481531 580.983191,177.143918 577.192781,171.807351 C582.058692,177.143918 573.942214,182.481531 578.808126,187.818098 L575.578483,187.818098 Z" id="Fill-74" fill="#567F99"></path>
                        <path d="M588.546748,187.818098 C596.24265,171.569009 577.570985,155.31992 585.266888,139.070832 C575.384412,155.31992 591.869503,171.569009 581.987027,187.818098 L588.546748,187.818098 Z" id="Fill-76" fill="#567F99"></path>
                        <path d="M582.455937,187.818098 C587.911909,178.570836 574.675292,169.324619 580.131264,160.077358 C573.124813,169.324619 584.811997,178.570836 577.805545,187.818098 L582.455937,187.818098 Z" id="Fill-78" fill="#567F99"></path>
                        <path d="M597.584621,187.818098 C600.760907,181.490529 593.055588,175.164005 596.231874,168.836436 C592.152711,175.164005 598.956199,181.490529 594.878082,187.818098 L597.584621,187.818098 Z" id="Fill-80" fill="#567F99"></path>
                        <path d="M64.2073235,231.842737 C56.5114211,219.828405 75.1830863,207.813028 67.487184,195.797651 C77.36966,207.813028 60.8835222,219.828405 70.7659983,231.842737 L64.2073235,231.842737 Z" id="Fill-82" fill="#567F99"></path>
                        <path d="M73.834211,231.842737 C68.5194769,223.545708 81.4139843,215.248679 76.0992502,206.950605 C82.9236617,215.248679 71.5398779,223.545708 78.3642895,231.842737 L73.834211,231.842737 Z" id="Fill-84" fill="#567F99"></path>
                        <path d="M49.7310549,231.842737 C45.9416914,226.50617 55.1357629,221.168558 51.3453531,215.831991 C56.2112642,221.168558 48.0947864,226.50617 52.9606975,231.842737 L49.7310549,231.842737 Z" id="Fill-86" fill="#567F99"></path>
                        <path d="M62.69932,231.842737 C70.3952223,215.593648 51.7235571,199.34456 59.4194595,183.095471 C49.5369834,199.34456 66.022075,215.593648 56.139599,231.842737 L62.69932,231.842737 Z" id="Fill-88" fill="#567F99"></path>
                        <path d="M56.6085092,231.842737 C62.0644813,222.595475 48.827864,213.349259 54.2838361,204.101997 C47.2773845,213.349259 58.9645684,222.595475 51.9581168,231.842737 L56.6085092,231.842737 Z" id="Fill-90" fill="#567F99"></path>
                        <path d="M71.7371927,231.842737 C74.9134786,225.515168 67.2081604,219.18969 70.3844464,212.862121 C66.3052833,219.18969 73.1087707,225.515168 69.0306539,231.842737 L71.7371927,231.842737 Z" id="Fill-92" fill="#567F99"></path>
                        <path d="M1000.22375,259.926565 C992.527847,247.911187 1011.19847,235.896855 1003.50361,223.881478 C1013.38504,235.896855 996.899948,247.911187 1006.78347,259.926565 L1000.22375,259.926565 Z" id="Fill-94" fill="#567F99"></path>
                        <path d="M1009.85011,259.926565 C1004.53643,251.629536 1017.42989,243.331462 1012.11515,235.034433 C1018.93956,243.331462 1007.55578,251.629536 1014.38019,259.926565 L1009.85011,259.926565 Z" id="Fill-96" fill="#567F99"></path>
                        <path d="M985.74748,259.926565 C981.958117,254.589998 991.151142,249.252385 987.361779,243.915818 C992.22769,249.252385 984.111212,254.589998 988.977123,259.926565 L985.74748,259.926565 Z" id="Fill-98" fill="#567F99"></path>
                        <path d="M998.715745,259.926565 C1006.4106,243.677476 987.739983,227.428387 995.435885,211.179299 C985.553409,227.428387 1002.03955,243.677476 992.156024,259.926565 L998.715745,259.926565 Z" id="Fill-100" fill="#567F99"></path>
                        <path d="M992.624516,259.926565 C998.081534,250.679303 984.843871,241.433086 990.299843,232.185825 C983.293391,241.433086 994.981622,250.679303 987.97517,259.926565 L992.624516,259.926565 Z" id="Fill-102" fill="#567F99"></path>
                        <path d="M1007.75362,259.926565 C1010.92886,253.598996 1003.22459,247.272472 1006.39983,240.944903 C1002.32276,247.272472 1009.1252,253.598996 1005.04708,259.926565 L1007.75362,259.926565 Z" id="Fill-104" fill="#567F99"></path>
                        <path d="M456.472781,209.731892 C448.776879,197.71756 467.448544,185.702183 459.752642,173.686806 C469.635118,185.702183 453.150026,197.71756 463.032502,209.731892 L456.472781,209.731892 Z" id="Fill-106" fill="#567F99"></path>
                        <path d="M466.099669,209.731892 C460.784935,201.434863 473.679442,193.137834 468.364708,184.83976 C475.189119,193.137834 463.805336,201.434863 470.629747,209.731892 L466.099669,209.731892 Z" id="Fill-108" fill="#567F99"></path>
                        <path d="M441.996513,209.731892 C438.207149,204.395325 447.401221,199.058758 443.610811,193.722191 C448.476722,199.058758 440.360244,204.395325 445.226155,209.731892 L441.996513,209.731892 Z" id="Fill-110" fill="#567F99"></path>
                        <path d="M454.964778,209.731892 C462.66068,193.482804 443.989015,177.233715 451.684917,160.984626 C441.802441,177.233715 458.287533,193.482804 448.405057,209.731892 L454.964778,209.731892 Z" id="Fill-112" fill="#567F99"></path>
                        <path d="M448.873967,209.731892 C454.329939,200.48463 441.093322,191.238414 446.549294,181.991152 C439.542842,191.238414 451.230026,200.48463 444.223575,209.731892 L448.873967,209.731892 Z" id="Fill-114" fill="#567F99"></path>
                        <path d="M464.00265,209.731892 C467.178936,203.405368 459.473618,197.078845 462.649904,190.751276 C458.571787,197.078845 465.374228,203.405368 461.296112,209.731892 L464.00265,209.731892 Z" id="Fill-116" fill="#567F99"></path>
                        <polygon id="Fill-118" fill="#D3D3C5" points="309.512851 44.6567691 342.660889 11.003468 408.517559 11.4435649 420.596024 0.550905155 486.892101 0.550905155 543.257576 55.6968247 299.638745 55.6968247"></polygon>
                    </g>
                </g>
                <ellipse id="Oval" stroke="#FFFFFF" stroke-width="2" opacity="0.100000001" cx="347.863993" cy="341.310309" rx="22.4934612" ry="22.4752577"></ellipse>
                <ellipse id="Oval" stroke="#FFFFFF" stroke-width="2" opacity="0.100000001" cx="154.315606" cy="308.904124" rx="10.9851787" ry="10.9762887"></ellipse>
                <ellipse id="Oval-Copy-3" stroke="#FFFFFF" stroke-width="2" opacity="0.100000001" cx="734.960767" cy="308.904124" rx="10.9851787" ry="10.9762887"></ellipse>
                <ellipse id="Oval-Copy-4" stroke="#FFFFFF" stroke-width="2" opacity="0.100000001" cx="1078.11683" cy="454.209278" rx="10.9851787" ry="10.9762887"></ellipse>
                <ellipse id="Oval-Copy-5" stroke="#FFFFFF" stroke-width="2" opacity="0.100000001" cx="1162.85963" cy="330.856701" rx="10.9851787" ry="10.9762887"></ellipse>
                <ellipse id="Oval" stroke="#FFFFFF" stroke-width="2" opacity="0.100000001" cx="695.204882" cy="431.21134" rx="22.4934612" ry="22.4752577"></ellipse>
                <ellipse id="Oval-Copy" stroke="#FFFFFF" stroke-width="2" opacity="0.100000001" cx="1044.63819" cy="332.947423" rx="22.4934612" ry="22.4752577"></ellipse>
                <ellipse id="Oval-Copy-2" stroke="#FFFFFF" stroke-width="2" opacity="0.100000001" cx="45.5100262" cy="421.803093" rx="22.4934612" ry="22.4752577"></ellipse>
                <g id="Group" stroke-width="1" fill-rule="evenodd" transform="translate(959.372276, 68.993814)">
                    <path d="M65.1986051,7.31752577 C53.3492589,7.31752577 43.4489974,15.6312804 41.0061029,26.7382392 C38.7870968,25.5705711 36.2605057,24.906767 33.5769834,24.906767 C24.7553618,24.906767 17.6034874,32.0528536 17.6034874,40.8673361 C17.6034874,40.977099 17.6097646,41.0847711 17.611857,41.1934887 L7.82353967,41.1934887 C3.52048823,41.1934887 0,44.7111278 0,49.0106969 C0,53.310266 3.52048823,56.8279052 7.82353967,56.8279052 L60.635048,56.8279052 C61.1979076,56.8279052 61.7450741,56.7651835 62.2755013,56.6501938 C63.2348736,56.7630928 64.2088928,56.8279052 65.1986051,56.8279052 C78.8819529,56.8279052 89.9738448,45.7449897 89.9738448,32.0727155 C89.9738448,18.4004412 78.8819529,7.31752577 65.1986051,7.31752577" id="Fill-6" fill="#000000" opacity="0.0700000003"></path>
                    <path d="M65.1986051,0 C53.3492589,0 43.4489974,8.31375464 41.0061029,19.4207134 C38.7870968,18.2530454 36.2605057,17.5892412 33.5769834,17.5892412 C24.7553618,17.5892412 17.6034874,24.7353278 17.6034874,33.5498103 C17.6034874,33.6595732 17.6097646,33.7672454 17.611857,33.8759629 L7.82353967,33.8759629 C3.52048823,33.8759629 0,37.3936021 0,41.6931711 C0,45.9927402 3.52048823,49.5103794 7.82353967,49.5103794 L60.635048,49.5103794 C61.1979076,49.5103794 61.7450741,49.4476577 62.2755013,49.332668 C63.2348736,49.445567 64.2088928,49.5103794 65.1986051,49.5103794 C78.8819529,49.5103794 89.9738448,38.4274639 89.9738448,24.7551897 C89.9738448,11.0839608 78.8819529,0 65.1986051,0" id="Fill-8" fill="#F8FEFF"></path>
                </g>
                <g id="Group-Copy-2" stroke-width="1" fill-rule="evenodd" transform="translate(776.285963, 0.000000)">
                    <path d="M65.1986051,7.31752577 C53.3492589,7.31752577 43.4489974,15.6312804 41.0061029,26.7382392 C38.7870968,25.5705711 36.2605057,24.906767 33.5769834,24.906767 C24.7553618,24.906767 17.6034874,32.0528536 17.6034874,40.8673361 C17.6034874,40.977099 17.6097646,41.0847711 17.611857,41.1934887 L7.82353967,41.1934887 C3.52048823,41.1934887 0,44.7111278 0,49.0106969 C0,53.310266 3.52048823,56.8279052 7.82353967,56.8279052 L60.635048,56.8279052 C61.1979076,56.8279052 61.7450741,56.7651835 62.2755013,56.6501938 C63.2348736,56.7630928 64.2088928,56.8279052 65.1986051,56.8279052 C78.8819529,56.8279052 89.9738448,45.7449897 89.9738448,32.0727155 C89.9738448,18.4004412 78.8819529,7.31752577 65.1986051,7.31752577" id="Fill-6" fill="#000000" opacity="0.0700000003"></path>
                    <path d="M65.1986051,0 C53.3492589,0 43.4489974,8.31375464 41.0061029,19.4207134 C38.7870968,18.2530454 36.2605057,17.5892412 33.5769834,17.5892412 C24.7553618,17.5892412 17.6034874,24.7353278 17.6034874,33.5498103 C17.6034874,33.6595732 17.6097646,33.7672454 17.611857,33.8759629 L7.82353967,33.8759629 C3.52048823,33.8759629 0,37.3936021 0,41.6931711 C0,45.9927402 3.52048823,49.5103794 7.82353967,49.5103794 L60.635048,49.5103794 C61.1979076,49.5103794 61.7450741,49.4476577 62.2755013,49.332668 C63.2348736,49.445567 64.2088928,49.5103794 65.1986051,49.5103794 C78.8819529,49.5103794 89.9738448,38.4274639 89.9738448,24.7551897 C89.9738448,11.0839608 78.8819529,0 65.1986051,0" id="Fill-8" fill="#F8FEFF"></path>
                </g>
                <g id="Group-Copy" stroke-width="1" fill-rule="evenodd" transform="translate(510.549259, 200.709278)">
                    <path d="M65.1986051,7.31752577 C53.3492589,7.31752577 43.4489974,15.6312804 41.0061029,26.7382392 C38.7870968,25.5705711 36.2605057,24.906767 33.5769834,24.906767 C24.7553618,24.906767 17.6034874,32.0528536 17.6034874,40.8673361 C17.6034874,40.977099 17.6097646,41.0847711 17.611857,41.1934887 L7.82353967,41.1934887 C3.52048823,41.1934887 0,44.7111278 0,49.0106969 C0,53.310266 3.52048823,56.8279052 7.82353967,56.8279052 L60.635048,56.8279052 C61.1979076,56.8279052 61.7450741,56.7651835 62.2755013,56.6501938 C63.2348736,56.7630928 64.2088928,56.8279052 65.1986051,56.8279052 C78.8819529,56.8279052 89.9738448,45.7449897 89.9738448,32.0727155 C89.9738448,18.4004412 78.8819529,7.31752577 65.1986051,7.31752577" id="Fill-6" fill="#000000" opacity="0.0700000003"></path>
                    <path d="M65.1986051,0 C53.3492589,0 43.4489974,8.31375464 41.0061029,19.4207134 C38.7870968,18.2530454 36.2605057,17.5892412 33.5769834,17.5892412 C24.7553618,17.5892412 17.6034874,24.7353278 17.6034874,33.5498103 C17.6034874,33.6595732 17.6097646,33.7672454 17.611857,33.8759629 L7.82353967,33.8759629 C3.52048823,33.8759629 0,37.3936021 0,41.6931711 C0,45.9927402 3.52048823,49.5103794 7.82353967,49.5103794 L60.635048,49.5103794 C61.1979076,49.5103794 61.7450741,49.4476577 62.2755013,49.332668 C63.2348736,49.445567 64.2088928,49.5103794 65.1986051,49.5103794 C78.8819529,49.5103794 89.9738448,38.4274639 89.9738448,24.7551897 C89.9738448,11.0839608 78.8819529,0 65.1986051,0" id="Fill-8" fill="#F8FEFF"></path>
                </g>
                <g id="Group-Copy-3" stroke-width="1" fill-rule="evenodd" transform="translate(-34.524847, 143.214433)">
                    <path d="M65.1986051,7.31752577 C53.3492589,7.31752577 43.4489974,15.6312804 41.0061029,26.7382392 C38.7870968,25.5705711 36.2605057,24.906767 33.5769834,24.906767 C24.7553618,24.906767 17.6034874,32.0528536 17.6034874,40.8673361 C17.6034874,40.977099 17.6097646,41.0847711 17.611857,41.1934887 L7.82353967,41.1934887 C3.52048823,41.1934887 0,44.7111278 0,49.0106969 C0,53.310266 3.52048823,56.8279052 7.82353967,56.8279052 L60.635048,56.8279052 C61.1979076,56.8279052 61.7450741,56.7651835 62.2755013,56.6501938 C63.2348736,56.7630928 64.2088928,56.8279052 65.1986051,56.8279052 C78.8819529,56.8279052 89.9738448,45.7449897 89.9738448,32.0727155 C89.9738448,18.4004412 78.8819529,7.31752577 65.1986051,7.31752577" id="Fill-6" fill="#000000" opacity="0.0700000003"></path>
                    <path d="M65.1986051,0 C53.3492589,0 43.4489974,8.31375464 41.0061029,19.4207134 C38.7870968,18.2530454 36.2605057,17.5892412 33.5769834,17.5892412 C24.7553618,17.5892412 17.6034874,24.7353278 17.6034874,33.5498103 C17.6034874,33.6595732 17.6097646,33.7672454 17.611857,33.8759629 L7.82353967,33.8759629 C3.52048823,33.8759629 0,37.3936021 0,41.6931711 C0,45.9927402 3.52048823,49.5103794 7.82353967,49.5103794 L60.635048,49.5103794 C61.1979076,49.5103794 61.7450741,49.4476577 62.2755013,49.332668 C63.2348736,49.445567 64.2088928,49.5103794 65.1986051,49.5103794 C78.8819529,49.5103794 89.9738448,38.4274639 89.9738448,24.7551897 C89.9738448,11.0839608 78.8819529,0 65.1986051,0" id="Fill-8" fill="#F8FEFF"></path>
                </g>
                <g id="Group-5-Copy-2" stroke-width="1" fill-rule="evenodd" transform="translate(758.500436, 172.484536)" fill="#6B8192">
                    <g id="molecule" transform="translate(32.432432, 32.406186)">
                        <circle id="Oval" cx="4.5" cy="4.5" r="2.75"></circle>
                    </g>
                    <g id="molecule" transform="translate(0.000000, 32.406186)">
                        <circle id="Oval" cx="4.5" cy="4.5" r="2.75"></circle>
                    </g>
                    <g id="molecule" opacity="0.728143601" transform="translate(16.739320, 49.131959)">
                        <circle id="Oval" cx="4.5" cy="4.5" r="2.75"></circle>
                    </g>
                    <g id="molecule" opacity="0.716355097" transform="translate(32.432432, 15.680412)">
                        <circle id="Oval" cx="4.5" cy="4.5" r="2.75"></circle>
                    </g>
                    <g id="molecule" opacity="0.216750372" transform="translate(49.171752, 0.000000)">
                        <circle id="Oval" cx="4.5" cy="4.5" r="2.75"></circle>
                    </g>
                    <g id="molecule" opacity="0.728143601" transform="translate(49.171752, 49.131959)">
                        <circle id="Oval" cx="4.5" cy="4.5" r="2.75"></circle>
                    </g>
                    <g id="molecule" opacity="0.269740513" transform="translate(32.432432, 64.812371)">
                        <circle id="Oval" cx="4.5" cy="4.5" r="2.75"></circle>
                    </g>
                    <g id="molecule" opacity="0.269740513" transform="translate(0.000000, 64.812371)">
                        <circle id="Oval" cx="4.5" cy="4.5" r="2.75"></circle>
                    </g>
                    <g id="molecule" opacity="0.716355097" transform="translate(16.739320, 15.680412)">
                        <circle id="Oval" cx="4.5" cy="4.5" r="2.75"></circle>
                    </g>
                </g>
                <g id="Group-4" stroke-width="1" fill-rule="evenodd" transform="translate(667.480384, 241.478351)">
                    <polygon id="Fill-1" fill="#D4DDE6" points="22.5491194 22.5313936 0.0002092415 22.5313936 23.0805929 44.6930431 89.3777158 44.6930431 110.494368 22.5313936"></polygon>
                    <polygon id="Fill-2" fill="#E2EAF2" points="22.5491194 0.000522680412 22.5491194 22.5311845 89.2961116 22.5311845 77.3463296 10.5900278 55.2472886 10.5900278 44.6481604 0.000522680412"></polygon>
                    <polygon id="Fill-3" fill="#3E71A3" points="23.081116 44.6934612 33.5986399 55.2024736 77.7967219 55.2024736 88.3142459 44.6934612"></polygon>
                </g>
                <g id="Group-4-Copy" stroke-width="1" fill-rule="evenodd" transform="translate(143.330427, 241.478351)">
                    <polygon id="Fill-1" fill="#D4DDE6" points="22.5491194 22.5313936 0.0002092415 22.5313936 23.0805929 44.6930431 89.3777158 44.6930431 110.494368 22.5313936"></polygon>
                    <polygon id="Fill-2" fill="#E2EAF2" points="22.5491194 0.000522680412 22.5491194 22.5311845 89.2961116 22.5311845 77.3463296 10.5900278 55.2472886 10.5900278 44.6481604 0.000522680412"></polygon>
                    <polygon id="Fill-3" fill="#3E71A3" points="23.081116 44.6934612 33.5986399 55.2024736 77.7967219 55.2024736 88.3142459 44.6934612"></polygon>
                </g>
            </g>
        </g>
    </g>
</svg>