<?xml version="1.0" encoding="UTF-8"?>
<svg width="1200px" height="599px" viewBox="0 0 1200 599" version="1.1" xmlns="http://www.w3.org/2000/svg" xmlns:xlink="http://www.w3.org/1999/xlink">
    <!-- Generator: Sketch 52.2 (67145) - http://www.bohemiancoding.com/sketch -->
    <title>science-bg</title>
    <desc>Created with Sketch.</desc>
    <defs>
        <rect id="path-1" x="0" y="0" width="1200" height="599"></rect>
        <polygon id="path-3" points="0 0.231272727 13.9258077 0.231272727 13.9258077 14.2973206 0 14.2973206"></polygon>
        <polygon id="path-5" points="0 0.145090909 8.79214128 0.145090909 8.79214128 8.96954545 0 8.96954545"></polygon>
        <polygon id="path-7" points="0 0.0949090909 5.78275064 0.0949090909 5.78275064 5.86729665 0 5.86729665"></polygon>
    </defs>
    <g id="Page-1" stroke="none" stroke-width="1" fill="none" fill-rule="evenodd">
        <g id="science">
            <g id="science-bg">
                <mask id="mask-2" fill="white">
                    <use xlink:href="#path-1"></use>
                </mask>
                <use id="Rectangle" fill="#F6F6EF" xlink:href="#path-1"></use>
                <g id="Group-5" mask="url(#mask-2)">
                    <g transform="translate(-169.000000, -365.000000)">
                        <g id="Group-4">
                            <g id="Group-34" opacity="0.513788132" transform="translate(959.026439, 568.541157) rotate(-345.000000) translate(-959.026439, -568.541157) translate(840.526439, 462.041157)">
                                <path d="M83.3374696,165.909927 L149.859879,165.909927 L183.121586,107.940054 L149.859879,49.9701817 L83.3374696,49.9701817 L50.0757631,107.940054 L83.3374696,165.909927 Z M151.598925,168.940054 L81.5984234,168.940054 L81.1642891,168.182522 L46.5986743,107.940054 L81.5984234,46.9400543 L151.598925,46.9400543 L152.033059,47.6975861 L186.598674,107.940054 L151.598925,168.940054 Z" id="Fill-1" fill="#CFDDE2"></path>
                                <polygon id="Fill-2" fill="#CFDDE2" points="184.03263 108.535898 228.03263 108.535898 228.03263 105.535898 184.03263 105.535898"></polygon>
                                <polygon id="Fill-3" fill="#CFDDE2" points="3.9326674 108.478185 47.9326674 108.478185 47.9326674 105.478185 3.9326674 105.478185"></polygon>
                                <polygon id="Fill-4" fill="#CFDDE2" points="79.7842457 48.1028857 58.316642 9.61658466 60.8490383 8.10288568 82.316642 46.5891867"></polygon>
                                <polygon id="Fill-5" fill="#CFDDE2" points="62.143268 205.882341 59.5986743 204.360811 81.0535908 165.882341 83.5986743 167.40387"></polygon>
                                <polygon id="Fill-6" fill="#CFDDE2" points="171.10401 205.911197 149.648656 167.432727 152.193791 165.911197 173.648656 204.389668"></polygon>
                                <polygon id="Fill-7" fill="#CFDDE2" points="151.772939 48.6317425 149.232649 47.1130243 170.691869 8.63174251 173.232649 10.1504607"></polygon>
                                <g id="Group-33" transform="translate(0.464700, 0.708003)">
                                    <path d="M73.949897,46.4249062 C73.949897,42.5404373 77.0671055,39.3918823 80.9129013,39.3918823 C84.7581949,39.3918823 87.8759055,42.5404373 87.8759055,46.4249062 C87.8759055,50.3088679 84.7581949,53.4579301 80.9129013,53.4579301 C77.0671055,53.4579301 73.949897,50.3088679 73.949897,46.4249062" id="Fill-8" fill="#0E4F7F"></path>
                                    <path d="M39.8027557,106.163818 C39.8027557,102.279856 42.9204664,99.1307943 46.76576,99.1307943 C50.6110536,99.1307943 53.7287643,102.279856 53.7287643,106.163818 C53.7287643,110.04778 50.6110536,113.196842 46.76576,113.196842 C42.9204664,113.196842 39.8027557,110.04778 39.8027557,106.163818" id="Fill-10" fill="#0E4F7F"></path>
                                    <path d="M176.390769,106.163818 C176.390769,102.279856 179.507977,99.1307943 183.353773,99.1307943 C187.199066,99.1307943 190.316777,102.279856 190.316777,106.163818 C190.316777,110.04778 187.199066,113.196842 183.353773,113.196842 C179.507977,113.196842 176.390769,110.04778 176.390769,106.163818" id="Fill-12" fill="#0E4F7F"></path>
                                    <path d="M221.582258,106.163818 C221.582258,102.279856 224.699466,99.1307943 228.545262,99.1307943 C232.390556,99.1307943 235.508266,102.279856 235.508266,106.163818 C235.508266,110.04778 232.390556,113.196842 228.545262,113.196842 C224.699466,113.196842 221.582258,110.04778 221.582258,106.163818" id="Fill-14" fill="#F06827"></path>
                                    <g id="Group-18" transform="translate(0.000000, 98.899522)">
                                        <mask id="mask-4" fill="white">
                                            <use xlink:href="#path-3"></use>
                                        </mask>
                                        <g id="Clip-17"></g>
                                        <path d="M-0.000200851064,7.26429665 C-0.000200851064,3.38033493 3.11750979,0.231272727 6.9628034,0.231272727 C10.8085991,0.231272727 13.9258077,3.38033493 13.9258077,7.26429665 C13.9258077,11.1482584 10.8085991,14.2973206 6.9628034,14.2973206 C3.11750979,14.2973206 -0.000200851064,11.1482584 -0.000200851064,7.26429665" id="Fill-16" fill="#F06827" mask="url(#mask-4)"></path>
                                    </g>
                                    <path d="M164.572642,7.36091388 C164.572642,3.47644498 167.690352,0.327889952 171.535646,0.327889952 C175.381442,0.327889952 178.49865,3.47644498 178.49865,7.36091388 C178.49865,11.2448756 175.381442,14.3939378 171.535646,14.3939378 C167.690352,14.3939378 164.572642,11.2448756 164.572642,7.36091388" id="Fill-19" fill="#F06827"></path>
                                    <path d="M51.8778213,7.81113493 C51.8778213,3.92666603 54.9955319,0.778111005 58.8408255,0.778111005 C62.6866213,0.778111005 65.8038298,3.92666603 65.8038298,7.81113493 C65.8038298,11.6950967 62.6866213,14.8441589 58.8408255,14.8441589 C54.9955319,14.8441589 51.8778213,11.6950967 51.8778213,7.81113493" id="Fill-21" fill="#F06827"></path>
                                    <path d="M164.572642,204.516552 C164.572642,200.63259 167.690352,197.483528 171.535646,197.483528 C175.381442,197.483528 178.49865,200.63259 178.49865,204.516552 C178.49865,208.401021 175.381442,211.549576 171.535646,211.549576 C167.690352,211.549576 164.572642,208.401021 164.572642,204.516552" id="Fill-23" fill="#F06827"></path>
                                    <path d="M51.8778213,204.966773 C51.8778213,201.082811 54.9955319,197.933749 58.8408255,197.933749 C62.6866213,197.933749 65.8038298,201.082811 65.8038298,204.966773 C65.8038298,208.851242 62.6866213,211.999797 58.8408255,211.999797 C54.9955319,211.999797 51.8778213,208.851242 51.8778213,204.966773" id="Fill-25" fill="#F06827"></path>
                                    <path d="M142.243677,46.4249062 C142.243677,42.5404373 145.361388,39.3918823 149.206682,39.3918823 C153.051975,39.3918823 156.169686,42.5404373 156.169686,46.4249062 C156.169686,50.3088679 153.051975,53.4579301 149.206682,53.4579301 C145.361388,53.4579301 142.243677,50.3088679 142.243677,46.4249062" id="Fill-27" fill="#0E4F7F"></path>
                                    <path d="M73.949897,165.90273 C73.949897,162.018768 77.0671055,158.869706 80.9129013,158.869706 C84.7581949,158.869706 87.8759055,162.018768 87.8759055,165.90273 C87.8759055,169.787199 84.7581949,172.935754 80.9129013,172.935754 C77.0671055,172.935754 73.949897,169.787199 73.949897,165.90273" id="Fill-29" fill="#0E4F7F"></path>
                                    <path d="M142.243677,165.90273 C142.243677,162.018768 145.361388,158.869706 149.206682,158.869706 C153.051975,158.869706 156.169686,162.018768 156.169686,165.90273 C156.169686,169.787199 153.051975,172.935754 149.206682,172.935754 C145.361388,172.935754 142.243677,169.787199 142.243677,165.90273" id="Fill-31" fill="#0E4F7F"></path>
                                </g>
                            </g>
                            <g id="Group-34-Copy" opacity="0.724423363" transform="translate(1224.128459, 661.785313) rotate(-105.000000) translate(-1224.128459, -661.785313) translate(1149.128459, 594.785313)">
                                <path d="M51.6034687,104.906874 L93.4175545,104.906874 L114.324913,68.3193313 L93.4175545,31.7317888 L51.6034687,31.7317888 L30.6961103,68.3193313 L51.6034687,104.906874 Z M94.5106693,106.819331 L50.5103539,106.819331 L50.2374695,106.341217 L28.5105116,68.3193313 L50.5103539,29.8193313 L94.5106693,29.8193313 L94.7835537,30.2974457 L116.510512,68.3193313 L94.5106693,106.819331 Z" id="Fill-1" fill="#CFDDE2"></path>
                                <polygon id="Fill-2" fill="#CFDDE2" points="115.777537 68.5995656 143.777537 68.5995656 143.777537 65.5995656 115.777537 65.5995656"></polygon>
                                <polygon id="Fill-3" fill="#CFDDE2" points="2.9858694 68.4001386 30.9858694 68.4001386 30.9858694 65.4001386 2.9858694 65.4001386"></polygon>
                                <polygon id="Fill-4" fill="#CFDDE2" points="51.762721 31.1224297 37.4509852 7.06849156 39.1392494 6.1224297 53.4509852 30.1763678"></polygon>
                                <polygon id="Fill-5" fill="#CFDDE2" points="38.9665364 128.389933 37.2701407 127.438977 51.5734183 103.389933 53.2701407 104.34089"></polygon>
                                <polygon id="Fill-6" fill="#CFDDE2" points="107.357172 128.8432 93.0536019 104.794156 94.7503588 103.8432 109.053602 127.892244"></polygon>
                                <polygon id="Fill-7" fill="#CFDDE2" points="95.4456116 29.6438449 93.7520846 28.694646 108.058232 4.64384491 109.752085 5.59304379"></polygon>
                                <g id="Group-33" transform="translate(0.330592, 0.888081)">
                                    <path d="M46.6887062,29.1250591 C46.6887062,26.6881045 48.6567743,24.7128318 51.0848402,24.7128318 C53.5125891,24.7128318 55.4809743,26.6881045 55.4809743,29.1250591 C55.4809743,31.5616955 53.5125891,33.5372864 51.0848402,33.5372864 C48.6567743,33.5372864 46.6887062,31.5616955 46.6887062,29.1250591" id="Fill-8" fill="#0E4F7F"></path>
                                    <path d="M25.129706,66.6027727 C25.129706,64.1661364 27.0980911,62.1905455 29.52584,62.1905455 C31.9535889,62.1905455 33.921974,64.1661364 33.921974,66.6027727 C33.921974,69.0394091 31.9535889,71.015 29.52584,71.015 C27.0980911,71.015 25.129706,69.0394091 25.129706,66.6027727" id="Fill-10" fill="#0E4F7F"></path>
                                    <path d="M111.365358,66.6027727 C111.365358,64.1661364 113.333426,62.1905455 115.761492,62.1905455 C118.189241,62.1905455 120.157626,64.1661364 120.157626,66.6027727 C120.157626,69.0394091 118.189241,71.015 115.761492,71.015 C113.333426,71.015 111.365358,69.0394091 111.365358,66.6027727" id="Fill-12" fill="#0E4F7F"></path>
                                    <path d="M139.897273,66.6027727 C139.897273,64.1661364 141.865341,62.1905455 144.293407,62.1905455 C146.721156,62.1905455 148.689541,64.1661364 148.689541,66.6027727 C148.689541,69.0394091 146.721156,71.015 144.293407,71.015 C141.865341,71.015 139.897273,69.0394091 139.897273,66.6027727" id="Fill-14" fill="#F06827"></path>
                                    <g id="Group-18" transform="translate(0.000000, 62.045455)">
                                        <mask id="mask-6" fill="white">
                                            <use xlink:href="#path-5"></use>
                                        </mask>
                                        <g id="Clip-17"></g>
                                        <path d="M-0.000126808511,4.55731818 C-0.000126808511,2.12068182 1.9682583,0.145090909 4.39600723,0.145090909 C6.82407319,0.145090909 8.79214128,2.12068182 8.79214128,4.55731818 C8.79214128,6.99395455 6.82407319,8.96954545 4.39600723,8.96954545 C1.9682583,8.96954545 -0.000126808511,6.99395455 -0.000126808511,4.55731818" id="Fill-16" fill="#F06827" mask="url(#mask-6)"></path>
                                    </g>
                                    <path d="M103.903914,4.61793182 C103.903914,2.18097727 105.872299,0.205704545 108.300048,0.205704545 C110.728114,0.205704545 112.696182,2.18097727 112.696182,4.61793182 C112.696182,7.05456818 110.728114,9.03015909 108.300048,9.03015909 C105.872299,9.03015909 103.903914,7.05456818 103.903914,4.61793182" id="Fill-19" fill="#F06827"></path>
                                    <path d="M32.7533702,4.90038182 C32.7533702,2.46342727 34.7217553,0.488154545 37.1495043,0.488154545 C39.5775702,0.488154545 41.5456383,2.46342727 41.5456383,4.90038182 C41.5456383,7.33701818 39.5775702,9.31260909 37.1495043,9.31260909 C34.7217553,9.31260909 32.7533702,7.33701818 32.7533702,4.90038182" id="Fill-21" fill="#F06827"></path>
                                    <path d="M103.903914,128.305195 C103.903914,125.868559 105.872299,123.892968 108.300048,123.892968 C110.728114,123.892968 112.696182,125.868559 112.696182,128.305195 C112.696182,130.74215 110.728114,132.717423 108.300048,132.717423 C105.872299,132.717423 103.903914,130.74215 103.903914,128.305195" id="Fill-23" fill="#F06827"></path>
                                    <path d="M32.7533702,128.587645 C32.7533702,126.151009 34.7217553,124.175418 37.1495043,124.175418 C39.5775702,124.175418 41.5456383,126.151009 41.5456383,128.587645 C41.5456383,131.0246 39.5775702,132.999873 37.1495043,132.999873 C34.7217553,132.999873 32.7533702,131.0246 32.7533702,128.587645" id="Fill-25" fill="#F06827"></path>
                                    <path d="M89.8063896,29.1250591 C89.8063896,26.6881045 91.7747747,24.7128318 94.2025236,24.7128318 C96.6302726,24.7128318 98.5986577,26.6881045 98.5986577,29.1250591 C98.5986577,31.5616955 96.6302726,33.5372864 94.2025236,33.5372864 C91.7747747,33.5372864 89.8063896,31.5616955 89.8063896,29.1250591" id="Fill-27" fill="#0E4F7F"></path>
                                    <path d="M46.6887062,104.080486 C46.6887062,101.64385 48.6567743,99.6682591 51.0848402,99.6682591 C53.5125891,99.6682591 55.4809743,101.64385 55.4809743,104.080486 C55.4809743,106.517441 53.5125891,108.492714 51.0848402,108.492714 C48.6567743,108.492714 46.6887062,106.517441 46.6887062,104.080486" id="Fill-29" fill="#0E4F7F"></path>
                                    <path d="M89.8063896,104.080486 C89.8063896,101.64385 91.7747747,99.6682591 94.2025236,99.6682591 C96.6302726,99.6682591 98.5986577,101.64385 98.5986577,104.080486 C98.5986577,106.517441 96.6302726,108.492714 94.2025236,108.492714 C91.7747747,108.492714 89.8063896,106.517441 89.8063896,104.080486" id="Fill-31" fill="#0E4F7F"></path>
                                </g>
                            </g>
                            <g id="Group-34-Copy-2" opacity="0.531366257" transform="translate(766.201366, 807.312279) rotate(-345.000000) translate(-766.201366, -807.312279) translate(716.701366, 763.312279)">
                                <path d="M34.1184158,67.2796145 L61.6776996,67.2796145 L75.4575495,43.52147 L61.6776996,19.7633255 L34.1184158,19.7633255 L20.3385659,43.52147 L34.1184158,67.2796145 Z M62.3981617,68.52147 L33.3979537,68.52147 L33.2180981,68.2110061 L18.8980577,43.52147 L33.3979537,18.52147 L62.3981617,18.52147 L62.5780173,18.8319338 L76.8980577,43.52147 L62.3981617,68.52147 Z" id="Fill-1" fill="#CFDDE2"></path>
                                <polygon id="Fill-2" fill="#CFDDE2" points="76.1108706 44.0669873 94.1108706 44.0669873 94.1108706 42.0669873 76.1108706 42.0669873"></polygon>
                                <polygon id="Fill-3" fill="#CFDDE2" points="1.31921938 43.6099272 19.3192194 43.6099272 19.3192194 41.6099272 1.31921938 41.6099272"></polygon>
                                <polygon id="Fill-4" fill="#CFDDE2" points="32.5140543 19.5 23.5692194 3.14332206 24.6243845 2.5 33.5692194 18.8566779"></polygon>
                                <polygon id="Fill-5" fill="#CFDDE2" points="25.7083051 83.6313972 24.6480577 82.9847471 33.5876063 66.6313972 34.6480577 67.2780473"></polygon>
                                <polygon id="Fill-6" fill="#CFDDE2" points="70.3006016 84.0429399 61.3608706 67.68959 62.4213437 67.0429399 71.3608706 83.3962898"></polygon>
                                <polygon id="Fill-7" fill="#CFDDE2" points="62.7065121 19.5455173 61.6480577 18.9000621 70.5893996 2.54551733 71.6480577 3.19097256"></polygon>
                                <g id="Group-33" transform="translate(0.014083, 0.088457)">
                                    <path d="M30.7080081,19.0517304 C30.7080081,17.4576323 32.0024421,16.1655366 33.5994251,16.1655366 C35.1961996,16.1655366 36.4908421,17.4576323 36.4908421,19.0517304 C36.4908421,20.6456203 35.1961996,21.9379242 33.5994251,21.9379242 C32.0024421,21.9379242 30.7080081,20.6456203 30.7080081,19.0517304" id="Fill-8" fill="#0E4F7F"></path>
                                    <path d="M16.528263,43.5672273 C16.528263,41.9733373 17.8229055,40.6810335 19.41968,40.6810335 C21.0164545,40.6810335 22.311097,41.9733373 22.311097,43.5672273 C22.311097,45.1611172 21.0164545,46.4534211 19.41968,46.4534211 C17.8229055,46.4534211 16.528263,45.1611172 16.528263,43.5672273" id="Fill-10" fill="#0E4F7F"></path>
                                    <path d="M73.247014,43.5672273 C73.247014,41.9733373 74.5414481,40.6810335 76.1384311,40.6810335 C77.7352055,40.6810335 79.0298481,41.9733373 79.0298481,43.5672273 C79.0298481,45.1611172 77.7352055,46.4534211 76.1384311,46.4534211 C74.5414481,46.4534211 73.247014,45.1611172 73.247014,43.5672273" id="Fill-12" fill="#0E4F7F"></path>
                                    <path d="M92.0129715,43.5672273 C92.0129715,41.9733373 93.3074055,40.6810335 94.9043885,40.6810335 C96.501163,40.6810335 97.7958055,41.9733373 97.7958055,43.5672273 C97.7958055,45.1611172 96.501163,46.4534211 94.9043885,46.4534211 C93.3074055,46.4534211 92.0129715,45.1611172 92.0129715,43.5672273" id="Fill-14" fill="#F06827"></path>
                                    <g id="Group-18" transform="translate(0.000000, 40.586124)">
                                        <mask id="mask-8" fill="white">
                                            <use xlink:href="#path-7"></use>
                                        </mask>
                                        <g id="Clip-17"></g>
                                        <path d="M-8.34042553e-05,2.98110287 C-8.34042553e-05,1.38721292 1.29455915,0.0949090909 2.89133362,0.0949090909 C4.4883166,0.0949090909 5.78275064,1.38721292 5.78275064,2.98110287 C5.78275064,4.57499282 4.4883166,5.86729665 2.89133362,5.86729665 C1.29455915,5.86729665 -8.34042553e-05,4.57499282 -8.34042553e-05,2.98110287" id="Fill-16" fill="#F06827" mask="url(#mask-8)"></path>
                                    </g>
                                    <path d="M68.3394868,3.02075239 C68.3394868,1.42665431 69.6341294,0.134558612 71.2309038,0.134558612 C72.8278868,0.134558612 74.1223209,1.42665431 74.1223209,3.02075239 C74.1223209,4.61464234 72.8278868,5.90694617 71.2309038,5.90694617 C69.6341294,5.90694617 68.3394868,4.61464234 68.3394868,3.02075239" id="Fill-19" fill="#F06827"></path>
                                    <path d="M21.5424851,3.20551292 C21.5424851,1.61141483 22.8371277,0.319319139 24.4339021,0.319319139 C26.0308851,0.319319139 27.3253191,1.61141483 27.3253191,3.20551292 C27.3253191,4.79940287 26.0308851,6.0917067 24.4339021,6.0917067 C22.8371277,6.0917067 21.5424851,4.79940287 21.5424851,3.20551292" id="Fill-21" fill="#F06827"></path>
                                    <path d="M68.3394868,83.9289624 C68.3394868,82.3350725 69.6341294,81.0427687 71.2309038,81.0427687 C72.8278868,81.0427687 74.1223209,82.3350725 74.1223209,83.9289624 C74.1223209,85.5230605 72.8278868,86.8151562 71.2309038,86.8151562 C69.6341294,86.8151562 68.3394868,85.5230605 68.3394868,83.9289624" id="Fill-23" fill="#F06827"></path>
                                    <path d="M21.5424851,84.113723 C21.5424851,82.519833 22.8371277,81.2275292 24.4339021,81.2275292 C26.0308851,81.2275292 27.3253191,82.519833 27.3253191,84.113723 C27.3253191,85.7078211 26.0308851,86.9999167 24.4339021,86.9999167 C22.8371277,86.9999167 21.5424851,85.7078211 21.5424851,84.113723" id="Fill-25" fill="#F06827"></path>
                                    <path d="M59.0672898,19.0517304 C59.0672898,17.4576323 60.3619323,16.1655366 61.9587068,16.1655366 C63.5554813,16.1655366 64.8501238,17.4576323 64.8501238,19.0517304 C64.8501238,20.6456203 63.5554813,21.9379242 61.9587068,21.9379242 C60.3619323,21.9379242 59.0672898,20.6456203 59.0672898,19.0517304" id="Fill-27" fill="#0E4F7F"></path>
                                    <path d="M30.7080081,68.0827242 C30.7080081,66.4888342 32.0024421,65.1965304 33.5994251,65.1965304 C35.1961996,65.1965304 36.4908421,66.4888342 36.4908421,68.0827242 C36.4908421,69.6768222 35.1961996,70.9689179 33.5994251,70.9689179 C32.0024421,70.9689179 30.7080081,69.6768222 30.7080081,68.0827242" id="Fill-29" fill="#0E4F7F"></path>
                                    <path d="M59.0672898,68.0827242 C59.0672898,66.4888342 60.3619323,65.1965304 61.9587068,65.1965304 C63.5554813,65.1965304 64.8501238,66.4888342 64.8501238,68.0827242 C64.8501238,69.6768222 63.5554813,70.9689179 61.9587068,70.9689179 C60.3619323,70.9689179 59.0672898,69.6768222 59.0672898,68.0827242" id="Fill-31" fill="#0E4F7F"></path>
                                </g>
                            </g>
                            <polygon id="Polygon" stroke="#CFDDE2" stroke-width="11" opacity="0.185244606" transform="translate(817.320851, 505.320851) rotate(-45.000000) translate(-817.320851, -505.320851) " points="817.320851 398.320851 909.985569 451.820851 909.985569 558.820851 817.320851 612.320851 724.656133 558.820851 724.656133 451.820851"></polygon>
                            <polygon id="Polygon-Copy-7" stroke="#CFDDE2" stroke-width="11" opacity="0.185244606" transform="translate(151.320851, 636.320851) rotate(-45.000000) translate(-151.320851, -636.320851) " points="151.320851 529.320851 243.985569 582.820851 243.985569 689.820851 151.320851 743.320851 58.656133 689.820851 58.656133 582.820851"></polygon>
                            <polygon id="Polygon-Copy" stroke="#CFDDE2" stroke-width="7" opacity="0.165736607" transform="translate(1298.195959, 905.195959) rotate(-45.000000) translate(-1298.195959, -905.195959) " points="1298.19596 849.195959 1346.69338 877.195959 1346.69338 933.195959 1298.19596 961.195959 1249.69854 933.195959 1249.69854 877.195959"></polygon>
                            <polygon id="Polygon-Copy-6" stroke="#CFDDE2" stroke-width="3" opacity="0.43687221" transform="translate(879.982756, 732.982756) rotate(-45.000000) translate(-879.982756, -732.982756) " points="879.982756 691.982756 915.489798 712.482756 915.489798 753.482756 879.982756 773.982756 844.475715 753.482756 844.475715 712.482756"></polygon>
                            <polygon id="Polygon-Copy-2" stroke="#CFDDE2" stroke-width="27" opacity="0.113048735" transform="translate(1226.768073, 434.768073) rotate(-45.000000) translate(-1226.768073, -434.768073) " points="1226.76807 289.268073 1352.77477 362.018073 1352.77477 507.518073 1226.76807 580.268073 1100.76138 507.518073 1100.76138 362.018073"></polygon>
                            <polygon id="Polygon-Copy-4" fill="#CFDDE2" opacity="0.103794643" transform="translate(676.198052, 318.198052) rotate(-45.000000) translate(-676.198052, -318.198052) " points="676.198052 93.1980515 871.053767 205.698052 871.053767 430.698052 676.198052 543.198052 481.342336 430.698052 481.342336 205.698052"></polygon>
                            <polygon id="Polygon-Copy-5" fill="#CFDDE2" opacity="0.103794643" transform="translate(1218.291414, 807.291414) rotate(-45.000000) translate(-1218.291414, -807.291414) " points="1218.29141 688.291414 1321.34844 747.791414 1321.34844 866.791414 1218.29141 926.291414 1115.23439 866.791414 1115.23439 747.791414"></polygon>
                            <polygon id="Polygon-Copy-5" fill="#CFDDE2" opacity="0.103794643" transform="translate(493.291414, 813.291414) rotate(-45.000000) translate(-493.291414, -813.291414) " points="493.291414 717.291414 576.429853 765.291414 576.429853 861.291414 493.291414 909.291414 410.152975 861.291414 410.152975 765.291414"></polygon>
                            <polygon id="Polygon-Copy-3" stroke="#CFDDE2" stroke-width="10" opacity="0.157226562" transform="translate(935.702056, 782.702056) rotate(-45.000000) translate(-935.702056, -782.702056) " points="935.702056 712.202056 996.756847 747.452056 996.756847 817.952056 935.702056 853.202056 874.647265 817.952056 874.647265 747.452056"></polygon>
                        </g>
                        <g id="Group-2" opacity="0.672061012" transform="translate(990.000000, 809.000000)">
                            <polygon id="Stroke-41" stroke="#EAEAE4" stroke-width="6" points="37.897 64.4703 13.134 64.4703 0.753 43.0253 13.134 21.5803 37.897 21.5803 50.279 43.0253"></polygon>
                            <polygon id="Stroke-43" stroke="#EAEAE4" stroke-width="6" points="75.0381 85.9156 50.2751 85.9156 37.8931 64.4706 50.2751 43.0246 75.0381 43.0246 87.4191 64.4706"></polygon>
                            <polygon id="Stroke-45" stroke="#EAEAE4" stroke-width="6" points="111.6562 64.4703 86.8932 64.4703 74.5122 43.0253 86.8932 21.5803 111.6562 21.5803 124.0372 43.0253"></polygon>
                            <polygon id="Stroke-47" stroke="#EAEAE4" stroke-width="6" points="148.6797 43.025 123.9167 43.025 111.5347 21.58 123.9167 0.135 148.6797 0.135 161.0607 21.58"></polygon>
                            <polygon id="Stroke-49" stroke="#EAEAE4" stroke-width="6" points="148.6797 85.9156 123.9167 85.9156 111.5347 64.4706 123.9167 43.0246 148.6797 43.0246 161.0607 64.4706"></polygon>
                        </g>
                        <g id="Group-2-Copy" opacity="0.672061012" transform="translate(352.000000, 795.000000) rotate(-180.000000) translate(-352.000000, -795.000000) translate(271.000000, 752.000000)">
                            <polygon id="Stroke-41" stroke="#EAEAE4" stroke-width="6" points="37.897 64.4703 13.134 64.4703 0.753 43.0253 13.134 21.5803 37.897 21.5803 50.279 43.0253"></polygon>
                            <polygon id="Stroke-43" stroke="#EAEAE4" stroke-width="6" points="75.0381 85.9156 50.2751 85.9156 37.8931 64.4706 50.2751 43.0246 75.0381 43.0246 87.4191 64.4706"></polygon>
                            <polygon id="Stroke-45" stroke="#EAEAE4" stroke-width="6" points="111.6562 64.4703 86.8932 64.4703 74.5122 43.0253 86.8932 21.5803 111.6562 21.5803 124.0372 43.0253"></polygon>
                            <polygon id="Stroke-47" stroke="#EAEAE4" stroke-width="6" points="148.6797 43.025 123.9167 43.025 111.5347 21.58 123.9167 0.135 148.6797 0.135 161.0607 21.58"></polygon>
                            <polygon id="Stroke-49" stroke="#EAEAE4" stroke-width="6" points="148.6797 85.9156 123.9167 85.9156 111.5347 64.4706 123.9167 43.0246 148.6797 43.0246 161.0607 64.4706"></polygon>
                        </g>
                        <g id="Group-8-Copy-6" opacity="0.0546875" transform="translate(1012.112647, 410.236776) rotate(13.000000) translate(-1012.112647, -410.236776) translate(975.612647, 372.236776)">
                            <path d="M44.3466069,36.4769181 C40.5666545,36.4769181 37.4915421,33.4015412 37.4915421,29.6215888 C37.4915421,25.8416364 40.5666545,22.766524 44.3466069,22.766524 C48.1265593,22.766524 51.2019361,25.8416364 51.2019361,29.6215888 C51.2019361,33.4015412 48.1265593,36.4769181 44.3466069,36.4769181 M44.3466069,20.1217211 C39.1083101,20.1217211 34.8467391,24.3832921 34.8467391,29.6215888 C34.8467391,34.86015 39.1083101,39.1217211 44.3466069,39.1217211 C49.5851681,39.1217211 53.8467391,34.86015 53.8467391,29.6215888 C53.8467391,24.3832921 49.5851681,20.1217211 44.3466069,20.1217211" id="Fill-1" fill="#000000"></path>
                            <path d="M23.6620335,55.652698 C22.4109753,55.652698 21.3928689,54.6348092 21.3928689,53.3836826 C21.3928689,52.132556 22.4109753,51.1149403 23.6620335,51.1149403 C24.9130918,51.1149403 25.930925,52.132556 25.930925,53.3836826 C25.930925,54.6348092 24.9130918,55.652698 23.6620335,55.652698 M23.6620335,48.3838191 C20.9048442,48.3838191 18.661897,50.6268889 18.661897,53.3836826 C18.661897,56.1407494 20.9048442,58.3838191 23.6620335,58.3838191 C26.4189497,58.3838191 28.661897,56.1407494 28.661897,53.3836826 C28.661897,50.6268889 26.4189497,48.3838191 23.6620335,48.3838191" id="Fill-3" fill="#000000"></path>
                            <g id="Group-7" transform="translate(0.504540, 0.895164)" fill="#000000">
                                <path d="M54.787795,45.5512578 C51.5202148,50.0245357 47.442371,53.2067588 45.7009742,54.5662049 C39.0236143,59.7788117 32.1162741,62.6493543 26.2516391,62.6493543 L26.2499983,62.6493543 C24.165135,62.6493543 22.175436,62.2846907 20.3366873,61.5659062 C17.9299609,60.6249176 15.4343599,58.9843372 13.6606947,57.1783202 C12.2903839,55.782651 10.6652078,53.5927777 10.7065003,51.0874393 C10.7322056,49.5203864 11.3841356,47.8833202 12.6447887,46.2213845 C13.7219499,44.8016567 14.8497012,43.9058117 14.9746727,43.808496 C16.6250071,42.5220367 17.8558531,42.3130783 19.4145783,42.048704 C21.2989949,41.7291841 23.6439192,41.3318117 25.7870296,39.0689516 C29.4174919,35.2349837 28.4166263,30.4000159 27.6126523,26.5149573 C26.9467758,23.2981331 26.3716883,20.5194998 27.6405452,18.0925546 C29.5960617,14.350496 35.562971,12.3928287 40.446703,12.3928287 C40.9884284,12.3928287 41.5164807,12.415806 42.0163666,12.46122 C47.2741927,12.9348231 51.0793964,15.8913278 53.3458375,18.2882673 C56.3563647,21.4726529 58.4890836,25.6328987 59.1967995,29.7025868 C60.1117985,34.9619592 58.628275,40.2943183 54.787795,45.5512578 M70.5290049,32.6069195 L62.4909054,32.0086983 C62.385623,32.0016699 62.2830753,32.0092389 62.1829888,32.0249176 C62.1499,31.0979856 62.053095,30.1710537 61.8920267,29.2446624 C61.571531,27.4018817 60.9893334,25.5458552 60.1930163,23.7520026 C60.3114247,23.7325395 60.4295597,23.6990197 60.5441397,23.6465773 L67.8045174,20.3143259 C68.4892626,19.9999422 68.7867877,19.1962767 68.4687531,18.5191217 C68.1507185,17.8419667 67.3377202,17.5481274 66.652975,17.8622408 L59.3925973,21.1944922 C59.2534058,21.2585584 59.134724,21.3466832 59.0297151,21.4458911 C58.0045115,19.6417664 56.7627271,17.9430669 55.3437403,16.442513 C54.7916234,15.8586189 54.1577418,15.2455301 53.4440098,14.6367664 C53.5993354,14.5537777 53.7418083,14.4415943 53.8591229,14.2972427 L58.8724753,8.14553951 C59.346109,7.56434858 59.2534058,6.71337694 58.6654656,6.24518034 C58.0769785,5.7764431 57.2166716,5.86808204 56.7427645,6.44981361 L51.7296856,12.6012465 C51.5995183,12.7612767 51.5161129,12.9421217 51.469898,13.1294544 C49.4000751,11.7216208 46.8536104,10.5092295 43.8354263,9.97858866 C43.9532878,9.79368885 44.0317709,9.58148658 44.0468113,9.34792892 L44.5390403,1.65863781 C44.5866224,0.913632136 44.0145429,0.271618904 43.2608856,0.224312665 C42.5099629,0.176736106 41.8577595,0.743059357 41.8099039,1.48806503 L41.3174015,9.17735614 C41.3053692,9.36441853 41.3327152,9.54472287 41.3920562,9.71070019 C41.0816785,9.6969138 40.766105,9.68961512 40.446703,9.68961512 C37.8953161,9.68961512 35.2498586,10.1383486 32.8816902,10.9628287 C32.8622745,10.82091 32.8259043,10.6795319 32.7583595,10.5441009 L29.3012712,3.62333346 C28.9668289,2.95401777 28.1472676,2.67910095 27.4699058,3.00997429 C26.7928175,3.34057732 26.5147081,4.15127108 26.8491504,4.82031645 L30.3065122,11.7410839 C30.3519066,11.8319119 30.408513,11.9130083 30.4697681,11.988428 C28.0895675,13.2070367 26.3118004,14.8259913 25.278393,16.7306756 L17.9666046,15.9505282 C17.2162289,15.8664582 16.5416017,16.4071009 16.4606573,17.1494034 C16.3794396,17.8914355 16.9222588,18.558048 17.6731814,18.6377928 L24.3461659,19.349549 C23.8624142,21.8813788 24.4046865,24.5018741 24.9335592,27.0566813 C25.0935336,27.8289894 25.2543284,28.6069743 25.3825814,29.380634 L19.0839644,29.7866567 C18.3303072,29.8350442 17.7593215,30.4781388 17.808271,31.2231444 C17.8553062,31.9381444 18.4569194,32.4868968 19.1714718,32.4868968 C19.201279,32.4868968 19.2316331,32.4860858 19.2617138,32.4839233 L25.6448301,32.0727645 C25.6571358,33.9463618 25.2160439,35.7161558 23.7904941,37.2215754 C22.2757961,38.8210669 20.6615584,39.0946321 18.9516095,39.384687 C18.1120856,39.5271463 17.2583418,39.6728495 16.3463508,39.9864223 L14.7824299,34.6067569 C14.574053,33.889324 13.8168407,33.474651 13.0908029,33.6809062 C12.3647651,33.8871614 11.9455501,34.6356813 12.1542005,35.3531142 L13.869892,41.2555811 C13.6768289,41.3893902 13.481578,41.529687 13.2816784,41.6853921 C13.030915,41.8811047 11.7155698,42.9404941 10.4571043,44.5997267 C9.69524319,45.6039705 9.10921722,46.6174053 8.69629178,47.6335433 L1.88548318,44.8789686 C1.186518,44.5972938 0.388013182,44.9273561 0.101973441,45.6180272 C-0.183519379,46.3089686 0.150922881,47.098307 0.849888061,47.3810631 L7.85075174,50.2124091 C7.90681116,50.2348457 7.96396441,50.2478212 8.02084421,50.2626888 C7.99322469,50.5232786 7.9765436,50.7835981 7.97244169,51.0436473 C7.93935296,53.0561898 8.63284893,54.8565301 9.55960676,56.3587059 C9.28204429,56.3624904 9.00284106,56.4460197 8.76301616,56.6222692 L2.36732068,61.3212654 C1.76105863,61.7662144 1.63499332,62.6131312 2.08538285,63.2121633 C2.35364766,63.5689875 2.76629963,63.7576718 3.1838739,63.7576718 C3.4674525,63.7576718 3.75349224,63.6706284 3.99823944,63.4905943 L10.3942084,58.7915981 C10.6228214,58.6237285 10.7827958,58.3988212 10.8694828,58.1517474 C11.1475922,58.478566 11.4270689,58.7842994 11.6986152,59.0611085 C13.2904291,60.6822257 15.388692,62.1835905 17.5460223,63.2756888 C17.360616,63.4213921 17.2077516,63.6122389 17.1172361,63.8468779 L14.2647691,71.2371936 C13.9956839,71.9346227 14.3495418,72.7155811 15.0550701,72.9818476 C15.2155914,73.0421293 15.3802147,73.0707834 15.5421033,73.0707834 C16.0928529,73.0707834 16.611881,72.7393694 16.8199845,72.2006189 L19.6724516,64.8103032 C19.745739,64.6202673 19.7689831,64.4242843 19.7555836,64.2337078 C21.7958728,64.973307 23.9769942,65.3525679 26.2499983,65.3525679 L26.2516391,65.3525679 C26.8297347,65.3525679 27.4163076,65.3268873 28.009717,65.2784998 C28.012725,65.3495943 28.016827,65.4212295 28.0313204,65.493135 L29.6737245,73.5243826 C29.8049855,74.1658552 30.3751508,74.6086416 31.0125873,74.6086416 C31.1022824,74.6086416 31.1933448,74.5999913 31.2846806,74.5816095 C32.0249383,74.4337437 32.5037678,73.7206359 32.3539114,72.9891463 L30.7115073,64.9578987 C30.7076788,64.9395168 30.699475,64.9230272 30.6948262,64.9046454 C33.5513951,64.3488647 36.533209,63.2810953 39.5412751,61.7443183 L43.4875844,68.4669403 C43.7410824,68.8991841 44.1996757,69.1405811 44.6713952,69.1405811 C44.9041101,69.1405811 45.14038,69.081651 45.3564139,68.9575735 C46.0091642,68.5829081 46.2317611,67.7559951 45.8524713,67.1101974 L41.9305,60.4292049 C43.7599511,59.3479195 45.5888553,58.0979535 47.3956092,56.687687 C48.028397,56.1938098 48.9592567,55.4655641 50.0446216,54.5332257 L55.2354499,60.2343032 C55.5053555,60.5308457 55.8780822,60.6819554 56.2521762,60.6819554 C56.5781412,60.6819554 56.9052,60.5673391 57.1663549,60.3348628 C57.7277694,59.8355792 57.7731638,58.9810934 57.2680822,58.4261236 L52.0627605,52.7085565 C53.6718024,51.1747531 55.4197623,49.3041293 57.0047397,47.1339894 C57.4381747,46.540634 57.8434432,45.945927 58.222733,45.3495981 L64.8721999,49.3754941 C65.0947968,49.5103845 65.3414582,49.5749913 65.5848381,49.5749913 C66.0450722,49.5749913 66.4943679,49.3452181 66.7522412,48.9289233 C67.1465713,48.2925868 66.944484,47.4602673 66.3004844,47.0704639 L59.5744485,42.9980726 C60.992068,40.2413353 61.8365142,37.4605395 62.1028648,34.672445 C62.1630261,34.6854204 62.2223671,34.6997474 62.2858099,34.7046132 L70.3239095,35.3028344 C70.358639,35.3052673 70.3933685,35.3066189 70.4278245,35.3066189 C71.1366343,35.3066189 71.7360598,34.7662465 71.790205,34.0563826 C71.8468113,33.3121879 71.2821153,32.6631463 70.5290049,32.6069195" id="Fill-5"></path>
                            </g>
                        </g>
                        <g id="Group-8-Copy-7" opacity="0.0546875" transform="translate(1060.938702, 713.585149) rotate(-75.000000) translate(-1060.938702, -713.585149) translate(1034.438702, 686.585149)">
                            <path d="M32.14519,25.5257081 C29.3599619,25.5257081 27.0940896,23.4215028 27.0940896,20.8352196 C27.0940896,18.2489364 29.3599619,16.1449121 32.14519,16.1449121 C34.9304181,16.1449121 37.1964852,18.2489364 37.1964852,20.8352196 C37.1964852,23.4215028 34.9304181,25.5257081 32.14519,25.5257081 M32.14519,14.3353101 C28.2853924,14.3353101 25.1452874,17.2511218 25.1452874,20.8352196 C25.1452874,24.4194983 28.2853924,27.3353101 32.14519,27.3353101 C36.0051825,27.3353101 39.1452874,24.4194983 39.1452874,20.8352196 C39.1452874,17.2511218 36.0051825,14.3353101 32.14519,14.3353101" id="Fill-1" fill="#000000"></path>
                            <path d="M17.0439005,39.2519307 C16.1681597,39.2519307 15.4554853,38.5394085 15.4554853,37.6636199 C15.4554853,36.7878312 16.1681597,36.0755002 17.0439005,36.0755002 C17.9196413,36.0755002 18.6321246,36.7878312 18.6321246,37.6636199 C18.6321246,38.5394085 17.9196413,39.2519307 17.0439005,39.2519307 M17.0439005,34.1637154 C15.113868,34.1637154 13.5438049,35.7338643 13.5438049,37.6636199 C13.5438049,39.5935666 15.113868,41.1637154 17.0439005,41.1637154 C18.9737418,41.1637154 20.5438049,39.5935666 20.5438049,37.6636199 C20.5438049,35.7338643 18.9737418,34.1637154 17.0439005,34.1637154" id="Fill-3" fill="#000000"></path>
                            <g id="Group-7" transform="translate(0.449452, 0.781818)" fill="#000000">
                                <path d="M39.568963,32.1895555 C37.209044,35.3506719 34.2639346,37.5994429 33.0062591,38.5601181 C28.1837215,42.2436936 23.1950869,44.2722103 18.9595171,44.2722103 L18.9583321,44.2722103 C17.4525975,44.2722103 16.0155927,44.0145148 14.6876075,43.5065737 C12.9494162,42.8416084 11.1470377,41.682265 9.86605729,40.406013 C8.87638835,39.4197401 7.70265006,37.8722296 7.73247246,36.1017905 C7.75103739,34.9944064 8.2218757,33.8375463 9.13234743,32.6631117 C9.91029713,31.6598374 10.7247842,31.0267736 10.8150414,30.9580039 C12.0069496,30.0489059 12.8958939,29.901242 14.0216399,29.7144175 C15.3826075,29.4886234 17.0761639,29.2078136 18.6239658,27.6087258 C21.2459664,24.8993885 20.523119,21.4826779 19.9424711,18.7372365 C19.4615603,16.464014 19.0462193,14.5004465 19.962616,12.7854053 C21.3749334,10.1410172 25.6843679,8.75759897 29.2115078,8.75759897 C29.6027539,8.75759897 29.984125,8.77383627 30.3451537,8.80592883 C34.1424725,9.1406083 36.8906752,11.2298716 38.5275493,12.9237089 C40.701819,15.1740081 42.2421159,18.1139151 42.7532441,20.989828 C43.4140767,24.7064511 42.3426431,28.4746516 39.568963,32.1895555 M50.9376147,23.0422231 L45.1323205,22.6194801 C45.0562833,22.6145134 44.9822211,22.6198622 44.9099363,22.6309418 C44.8860389,21.9759098 44.8161242,21.3208779 44.6997971,20.6662281 C44.4683279,19.3639964 44.0478519,18.0524043 43.472734,16.7847485 C43.5582512,16.7709946 43.6435709,16.7473072 43.7263231,16.710248 L48.9699292,14.355457 C49.4644675,14.1332925 49.6793467,13.5653689 49.449655,13.086846 C49.2199633,12.6083232 48.632798,12.4006767 48.1382597,12.6226502 L42.8946536,14.9774412 C42.7941264,15.0227146 42.7084117,15.0849894 42.632572,15.1550964 C41.8921472,13.8801816 40.9953029,12.6797673 39.9704791,11.6193759 C39.571728,11.2067574 39.1139247,10.7735079 38.5984515,10.3433149 C38.7106311,10.2846696 38.8135282,10.2053933 38.8982554,10.1033849 L42.5190099,5.75618125 C42.8610787,5.345473 42.7941264,4.7441197 42.369503,4.41326077 C41.9444845,4.08201979 41.3231517,4.14677798 40.9808855,4.55786828 L37.3603285,8.90488086 C37.2663188,9.0179689 37.2060815,9.14576603 37.1727041,9.27814781 C35.677832,8.28327869 33.8387186,7.42652217 31.658919,7.05153598 C31.7440412,6.92087345 31.8007235,6.77091718 31.8115859,6.60586977 L32.1670846,1.17210405 C32.2014495,0.645633376 31.788281,0.191944025 31.243973,0.158514284 C30.7016399,0.124893515 30.2306041,0.525095279 30.1960417,1.05156595 L29.8403455,6.48533167 C29.8316555,6.61752242 29.8514055,6.7449375 29.8942628,6.86222813 C29.6701011,6.85248575 29.4421869,6.84732802 29.2115078,6.84732802 C27.3688394,6.84732802 25.4582312,7.164433 23.7478874,7.74706564 C23.7338649,7.64677641 23.7075975,7.54686924 23.6588152,7.45116467 L21.1620292,2.56048898 C20.9204876,2.08750589 20.3285822,1.89323133 19.8393764,2.1270485 C19.3503682,2.36067464 19.1495114,2.93356489 19.3910531,3.40635696 L21.8880366,8.29703265 C21.9208215,8.36121775 21.9617038,8.41852588 22.0059437,8.47182244 C20.2869098,9.33297258 19.0029669,10.4770339 18.2566171,11.8230108 L12.9758811,11.2717066 C12.4339431,11.2122971 11.9467123,11.5943513 11.8882525,12.1189117 C11.8295952,12.6432811 12.2216313,13.1143539 12.7639644,13.1707069 L17.5833421,13.6736813 C17.2339658,15.462841 17.6256069,17.3146577 18.0075705,19.1200548 C18.1231076,19.6658192 18.2392372,20.2155952 18.3318644,20.7623147 L13.7828632,21.0492374 C13.2385552,21.0834313 12.8261766,21.5378847 12.861529,22.0643554 C12.8954989,22.5696221 13.3299973,22.9574071 13.846063,22.9574071 C13.8675904,22.9574071 13.8895128,22.956834 13.9112377,22.9553058 L18.5212662,22.6647536 C18.5301536,23.9887623 18.2115873,25.2394167 17.1820235,26.3032466 C16.0880749,27.433554 14.9222366,27.6268734 13.6872736,27.8318454 C13.0809507,27.9325167 12.464358,28.0354803 11.8056978,28.2570718 L10.6761994,24.4554415 C10.5257049,23.9484556 9.97882938,23.6554201 9.45446877,23.8011737 C8.93010815,23.9469274 8.62734174,24.4758814 8.7780337,24.9828674 L10.0171442,29.153944 C9.87770975,29.2485024 9.73669525,29.3476454 9.59232327,29.4576771 C9.41121642,29.5959807 8.46124484,30.3446159 7.5523531,31.5171402 C7.00212008,32.2268058 6.5788791,32.9429664 6.28065518,33.6610373 L1.36173786,31.7144712 C0.85692967,31.5154209 0.280231743,31.748665 0.0736474853,32.2367392 C-0.132541774,32.7250045 0.108999858,33.2828036 0.613808044,33.482618 L5.66998737,35.4834357 C5.71047473,35.499291 5.75175208,35.5084603 5.79283193,35.5189668 C5.7728845,35.7031169 5.76083704,35.887076 5.75787455,36.0708441 C5.73397714,37.4930408 6.23483534,38.7652812 6.90416043,39.8268188 C6.70369866,39.8294932 6.50205188,39.8885206 6.328845,40.0130702 L1.7097316,43.3336942 C1.27187568,43.6481248 1.18082851,44.2466127 1.50610984,44.6699288 C1.69985664,44.9220845 1.99788307,45.0554214 2.29946449,45.0554214 C2.50427125,45.0554214 2.71085551,44.9939107 2.88761737,44.8666867 L7.50692827,41.5460627 C7.67203767,41.4274348 7.78757476,41.2685003 7.85018203,41.0939015 C8.05103881,41.3248533 8.25288309,41.5409049 8.44899988,41.7365167 C9.59864325,42.8821062 11.1140553,43.9430707 12.6721272,44.7148201 C12.5382227,44.8177837 12.4278206,44.9526489 12.3624483,45.1184604 L10.3023332,50.3409501 C10.1079939,50.8338 10.363558,51.3856773 10.8731062,51.573839 C10.9890383,51.616438 11.1079328,51.6366869 11.2248524,51.6366869 C11.622616,51.6366869 11.9974696,51.4024877 12.1477666,51.0217707 L14.2078817,45.7992809 C14.2608115,45.6649889 14.2775989,45.5264942 14.2679215,45.3918201 C15.7414637,45.9144703 17.316718,46.1824813 18.9583321,46.1824813 L18.9595171,46.1824813 C19.3770306,46.1824813 19.8006666,46.1643337 20.22924,46.1301399 C20.2314125,46.18038 20.234375,46.2310022 20.2448425,46.2818154 L21.4310232,51.9572304 C21.5258229,52.4105377 21.9376089,52.7234401 22.3979797,52.7234401 C22.4627595,52.7234401 22.5285268,52.7173272 22.5944915,52.7043373 C23.1291221,52.5998455 23.4749434,52.095916 23.3667138,51.5789967 L22.180533,45.9035817 C22.177768,45.8905919 22.1718431,45.8789392 22.1684856,45.8659494 C24.2315632,45.4731977 26.3850954,44.7186407 28.5575876,43.6326516 L31.4076999,48.3833045 C31.5907817,48.6887568 31.921988,48.859344 32.2626743,48.859344 C32.4307462,48.859344 32.6013856,48.8177001 32.75741,48.7300186 C33.2288408,48.4652551 33.3896052,47.8809032 33.1156737,47.4245395 L30.2831389,42.7033048 C31.6044092,41.9391964 32.9252844,41.0558871 34.2301622,40.0592988 C34.6871756,39.7102923 35.3594632,39.1956653 36.1433378,38.5368128 L39.8922694,42.5655743 C40.0872012,42.775131 40.3563927,42.8819151 40.6265717,42.8819151 C40.8619909,42.8819151 41.0982,42.8009197 41.2868119,42.6366364 C41.6922779,42.2838093 41.7250628,41.6799727 41.3602816,41.287794 L37.6008826,37.2473799 C38.7629684,36.1634922 40.0253839,34.8415847 41.1700898,33.3080192 C41.4831261,32.8887147 41.7758201,32.4684551 42.0497516,32.0470493 L46.8521444,34.8920159 C47.0129088,34.9873384 47.1910531,35.0329939 47.3668275,35.0329939 C47.6992188,35.0329939 48.0237101,34.8706208 48.209952,34.5764391 C48.4947459,34.1267613 48.348794,33.5385889 47.8836831,33.2631278 L43.0259906,30.3853046 C44.0498269,28.4372103 44.6597047,26.4721146 44.852069,24.5018611 C44.8955189,24.5110304 44.9383762,24.5211549 44.9841961,24.5245934 L50.7894902,24.9473363 C50.8145726,24.9490556 50.839655,24.9500107 50.8645399,24.9500107 C51.3764581,24.9500107 51.8093765,24.5681475 51.8484814,24.0665104 C51.8893637,23.5406128 51.4815277,23.0819567 50.9376147,23.0422231" id="Fill-5"></path>
                            </g>
                        </g>
                        <g id="Group-8-Copy-8" opacity="0.0546875" transform="translate(624.938702, 506.585149) rotate(-75.000000) translate(-624.938702, -506.585149) translate(598.438702, 479.585149)">
                            <path d="M32.14519,25.5257081 C29.3599619,25.5257081 27.0940896,23.4215028 27.0940896,20.8352196 C27.0940896,18.2489364 29.3599619,16.1449121 32.14519,16.1449121 C34.9304181,16.1449121 37.1964852,18.2489364 37.1964852,20.8352196 C37.1964852,23.4215028 34.9304181,25.5257081 32.14519,25.5257081 M32.14519,14.3353101 C28.2853924,14.3353101 25.1452874,17.2511218 25.1452874,20.8352196 C25.1452874,24.4194983 28.2853924,27.3353101 32.14519,27.3353101 C36.0051825,27.3353101 39.1452874,24.4194983 39.1452874,20.8352196 C39.1452874,17.2511218 36.0051825,14.3353101 32.14519,14.3353101" id="Fill-1" fill="#000000"></path>
                            <path d="M17.0439005,39.2519307 C16.1681597,39.2519307 15.4554853,38.5394085 15.4554853,37.6636199 C15.4554853,36.7878312 16.1681597,36.0755002 17.0439005,36.0755002 C17.9196413,36.0755002 18.6321246,36.7878312 18.6321246,37.6636199 C18.6321246,38.5394085 17.9196413,39.2519307 17.0439005,39.2519307 M17.0439005,34.1637154 C15.113868,34.1637154 13.5438049,35.7338643 13.5438049,37.6636199 C13.5438049,39.5935666 15.113868,41.1637154 17.0439005,41.1637154 C18.9737418,41.1637154 20.5438049,39.5935666 20.5438049,37.6636199 C20.5438049,35.7338643 18.9737418,34.1637154 17.0439005,34.1637154" id="Fill-3" fill="#000000"></path>
                            <g id="Group-7" transform="translate(0.449452, 0.781818)" fill="#000000">
                                <path d="M39.568963,32.1895555 C37.209044,35.3506719 34.2639346,37.5994429 33.0062591,38.5601181 C28.1837215,42.2436936 23.1950869,44.2722103 18.9595171,44.2722103 L18.9583321,44.2722103 C17.4525975,44.2722103 16.0155927,44.0145148 14.6876075,43.5065737 C12.9494162,42.8416084 11.1470377,41.682265 9.86605729,40.406013 C8.87638835,39.4197401 7.70265006,37.8722296 7.73247246,36.1017905 C7.75103739,34.9944064 8.2218757,33.8375463 9.13234743,32.6631117 C9.91029713,31.6598374 10.7247842,31.0267736 10.8150414,30.9580039 C12.0069496,30.0489059 12.8958939,29.901242 14.0216399,29.7144175 C15.3826075,29.4886234 17.0761639,29.2078136 18.6239658,27.6087258 C21.2459664,24.8993885 20.523119,21.4826779 19.9424711,18.7372365 C19.4615603,16.464014 19.0462193,14.5004465 19.962616,12.7854053 C21.3749334,10.1410172 25.6843679,8.75759897 29.2115078,8.75759897 C29.6027539,8.75759897 29.984125,8.77383627 30.3451537,8.80592883 C34.1424725,9.1406083 36.8906752,11.2298716 38.5275493,12.9237089 C40.701819,15.1740081 42.2421159,18.1139151 42.7532441,20.989828 C43.4140767,24.7064511 42.3426431,28.4746516 39.568963,32.1895555 M50.9376147,23.0422231 L45.1323205,22.6194801 C45.0562833,22.6145134 44.9822211,22.6198622 44.9099363,22.6309418 C44.8860389,21.9759098 44.8161242,21.3208779 44.6997971,20.6662281 C44.4683279,19.3639964 44.0478519,18.0524043 43.472734,16.7847485 C43.5582512,16.7709946 43.6435709,16.7473072 43.7263231,16.710248 L48.9699292,14.355457 C49.4644675,14.1332925 49.6793467,13.5653689 49.449655,13.086846 C49.2199633,12.6083232 48.632798,12.4006767 48.1382597,12.6226502 L42.8946536,14.9774412 C42.7941264,15.0227146 42.7084117,15.0849894 42.632572,15.1550964 C41.8921472,13.8801816 40.9953029,12.6797673 39.9704791,11.6193759 C39.571728,11.2067574 39.1139247,10.7735079 38.5984515,10.3433149 C38.7106311,10.2846696 38.8135282,10.2053933 38.8982554,10.1033849 L42.5190099,5.75618125 C42.8610787,5.345473 42.7941264,4.7441197 42.369503,4.41326077 C41.9444845,4.08201979 41.3231517,4.14677798 40.9808855,4.55786828 L37.3603285,8.90488086 C37.2663188,9.0179689 37.2060815,9.14576603 37.1727041,9.27814781 C35.677832,8.28327869 33.8387186,7.42652217 31.658919,7.05153598 C31.7440412,6.92087345 31.8007235,6.77091718 31.8115859,6.60586977 L32.1670846,1.17210405 C32.2014495,0.645633376 31.788281,0.191944025 31.243973,0.158514284 C30.7016399,0.124893515 30.2306041,0.525095279 30.1960417,1.05156595 L29.8403455,6.48533167 C29.8316555,6.61752242 29.8514055,6.7449375 29.8942628,6.86222813 C29.6701011,6.85248575 29.4421869,6.84732802 29.2115078,6.84732802 C27.3688394,6.84732802 25.4582312,7.164433 23.7478874,7.74706564 C23.7338649,7.64677641 23.7075975,7.54686924 23.6588152,7.45116467 L21.1620292,2.56048898 C20.9204876,2.08750589 20.3285822,1.89323133 19.8393764,2.1270485 C19.3503682,2.36067464 19.1495114,2.93356489 19.3910531,3.40635696 L21.8880366,8.29703265 C21.9208215,8.36121775 21.9617038,8.41852588 22.0059437,8.47182244 C20.2869098,9.33297258 19.0029669,10.4770339 18.2566171,11.8230108 L12.9758811,11.2717066 C12.4339431,11.2122971 11.9467123,11.5943513 11.8882525,12.1189117 C11.8295952,12.6432811 12.2216313,13.1143539 12.7639644,13.1707069 L17.5833421,13.6736813 C17.2339658,15.462841 17.6256069,17.3146577 18.0075705,19.1200548 C18.1231076,19.6658192 18.2392372,20.2155952 18.3318644,20.7623147 L13.7828632,21.0492374 C13.2385552,21.0834313 12.8261766,21.5378847 12.861529,22.0643554 C12.8954989,22.5696221 13.3299973,22.9574071 13.846063,22.9574071 C13.8675904,22.9574071 13.8895128,22.956834 13.9112377,22.9553058 L18.5212662,22.6647536 C18.5301536,23.9887623 18.2115873,25.2394167 17.1820235,26.3032466 C16.0880749,27.433554 14.9222366,27.6268734 13.6872736,27.8318454 C13.0809507,27.9325167 12.464358,28.0354803 11.8056978,28.2570718 L10.6761994,24.4554415 C10.5257049,23.9484556 9.97882938,23.6554201 9.45446877,23.8011737 C8.93010815,23.9469274 8.62734174,24.4758814 8.7780337,24.9828674 L10.0171442,29.153944 C9.87770975,29.2485024 9.73669525,29.3476454 9.59232327,29.4576771 C9.41121642,29.5959807 8.46124484,30.3446159 7.5523531,31.5171402 C7.00212008,32.2268058 6.5788791,32.9429664 6.28065518,33.6610373 L1.36173786,31.7144712 C0.85692967,31.5154209 0.280231743,31.748665 0.0736474853,32.2367392 C-0.132541774,32.7250045 0.108999858,33.2828036 0.613808044,33.482618 L5.66998737,35.4834357 C5.71047473,35.499291 5.75175208,35.5084603 5.79283193,35.5189668 C5.7728845,35.7031169 5.76083704,35.887076 5.75787455,36.0708441 C5.73397714,37.4930408 6.23483534,38.7652812 6.90416043,39.8268188 C6.70369866,39.8294932 6.50205188,39.8885206 6.328845,40.0130702 L1.7097316,43.3336942 C1.27187568,43.6481248 1.18082851,44.2466127 1.50610984,44.6699288 C1.69985664,44.9220845 1.99788307,45.0554214 2.29946449,45.0554214 C2.50427125,45.0554214 2.71085551,44.9939107 2.88761737,44.8666867 L7.50692827,41.5460627 C7.67203767,41.4274348 7.78757476,41.2685003 7.85018203,41.0939015 C8.05103881,41.3248533 8.25288309,41.5409049 8.44899988,41.7365167 C9.59864325,42.8821062 11.1140553,43.9430707 12.6721272,44.7148201 C12.5382227,44.8177837 12.4278206,44.9526489 12.3624483,45.1184604 L10.3023332,50.3409501 C10.1079939,50.8338 10.363558,51.3856773 10.8731062,51.573839 C10.9890383,51.616438 11.1079328,51.6366869 11.2248524,51.6366869 C11.622616,51.6366869 11.9974696,51.4024877 12.1477666,51.0217707 L14.2078817,45.7992809 C14.2608115,45.6649889 14.2775989,45.5264942 14.2679215,45.3918201 C15.7414637,45.9144703 17.316718,46.1824813 18.9583321,46.1824813 L18.9595171,46.1824813 C19.3770306,46.1824813 19.8006666,46.1643337 20.22924,46.1301399 C20.2314125,46.18038 20.234375,46.2310022 20.2448425,46.2818154 L21.4310232,51.9572304 C21.5258229,52.4105377 21.9376089,52.7234401 22.3979797,52.7234401 C22.4627595,52.7234401 22.5285268,52.7173272 22.5944915,52.7043373 C23.1291221,52.5998455 23.4749434,52.095916 23.3667138,51.5789967 L22.180533,45.9035817 C22.177768,45.8905919 22.1718431,45.8789392 22.1684856,45.8659494 C24.2315632,45.4731977 26.3850954,44.7186407 28.5575876,43.6326516 L31.4076999,48.3833045 C31.5907817,48.6887568 31.921988,48.859344 32.2626743,48.859344 C32.4307462,48.859344 32.6013856,48.8177001 32.75741,48.7300186 C33.2288408,48.4652551 33.3896052,47.8809032 33.1156737,47.4245395 L30.2831389,42.7033048 C31.6044092,41.9391964 32.9252844,41.0558871 34.2301622,40.0592988 C34.6871756,39.7102923 35.3594632,39.1956653 36.1433378,38.5368128 L39.8922694,42.5655743 C40.0872012,42.775131 40.3563927,42.8819151 40.6265717,42.8819151 C40.8619909,42.8819151 41.0982,42.8009197 41.2868119,42.6366364 C41.6922779,42.2838093 41.7250628,41.6799727 41.3602816,41.287794 L37.6008826,37.2473799 C38.7629684,36.1634922 40.0253839,34.8415847 41.1700898,33.3080192 C41.4831261,32.8887147 41.7758201,32.4684551 42.0497516,32.0470493 L46.8521444,34.8920159 C47.0129088,34.9873384 47.1910531,35.0329939 47.3668275,35.0329939 C47.6992188,35.0329939 48.0237101,34.8706208 48.209952,34.5764391 C48.4947459,34.1267613 48.348794,33.5385889 47.8836831,33.2631278 L43.0259906,30.3853046 C44.0498269,28.4372103 44.6597047,26.4721146 44.852069,24.5018611 C44.8955189,24.5110304 44.9383762,24.5211549 44.9841961,24.5245934 L50.7894902,24.9473363 C50.8145726,24.9490556 50.839655,24.9500107 50.8645399,24.9500107 C51.3764581,24.9500107 51.8093765,24.5681475 51.8484814,24.0665104 C51.8893637,23.5406128 51.4815277,23.0819567 50.9376147,23.0422231" id="Fill-5"></path>
                            </g>
                        </g>
                        <g id="Group-8-Copy-9" opacity="0.0546875" transform="translate(637.938702, 762.585149) rotate(18.000000) translate(-637.938702, -762.585149) translate(611.438702, 735.585149)">
                            <path d="M32.14519,25.5257081 C29.3599619,25.5257081 27.0940896,23.4215028 27.0940896,20.8352196 C27.0940896,18.2489364 29.3599619,16.1449121 32.14519,16.1449121 C34.9304181,16.1449121 37.1964852,18.2489364 37.1964852,20.8352196 C37.1964852,23.4215028 34.9304181,25.5257081 32.14519,25.5257081 M32.14519,14.3353101 C28.2853924,14.3353101 25.1452874,17.2511218 25.1452874,20.8352196 C25.1452874,24.4194983 28.2853924,27.3353101 32.14519,27.3353101 C36.0051825,27.3353101 39.1452874,24.4194983 39.1452874,20.8352196 C39.1452874,17.2511218 36.0051825,14.3353101 32.14519,14.3353101" id="Fill-1" fill="#000000"></path>
                            <path d="M17.0439005,39.2519307 C16.1681597,39.2519307 15.4554853,38.5394085 15.4554853,37.6636199 C15.4554853,36.7878312 16.1681597,36.0755002 17.0439005,36.0755002 C17.9196413,36.0755002 18.6321246,36.7878312 18.6321246,37.6636199 C18.6321246,38.5394085 17.9196413,39.2519307 17.0439005,39.2519307 M17.0439005,34.1637154 C15.113868,34.1637154 13.5438049,35.7338643 13.5438049,37.6636199 C13.5438049,39.5935666 15.113868,41.1637154 17.0439005,41.1637154 C18.9737418,41.1637154 20.5438049,39.5935666 20.5438049,37.6636199 C20.5438049,35.7338643 18.9737418,34.1637154 17.0439005,34.1637154" id="Fill-3" fill="#000000"></path>
                            <g id="Group-7" transform="translate(0.449452, 0.781818)" fill="#000000">
                                <path d="M39.568963,32.1895555 C37.209044,35.3506719 34.2639346,37.5994429 33.0062591,38.5601181 C28.1837215,42.2436936 23.1950869,44.2722103 18.9595171,44.2722103 L18.9583321,44.2722103 C17.4525975,44.2722103 16.0155927,44.0145148 14.6876075,43.5065737 C12.9494162,42.8416084 11.1470377,41.682265 9.86605729,40.406013 C8.87638835,39.4197401 7.70265006,37.8722296 7.73247246,36.1017905 C7.75103739,34.9944064 8.2218757,33.8375463 9.13234743,32.6631117 C9.91029713,31.6598374 10.7247842,31.0267736 10.8150414,30.9580039 C12.0069496,30.0489059 12.8958939,29.901242 14.0216399,29.7144175 C15.3826075,29.4886234 17.0761639,29.2078136 18.6239658,27.6087258 C21.2459664,24.8993885 20.523119,21.4826779 19.9424711,18.7372365 C19.4615603,16.464014 19.0462193,14.5004465 19.962616,12.7854053 C21.3749334,10.1410172 25.6843679,8.75759897 29.2115078,8.75759897 C29.6027539,8.75759897 29.984125,8.77383627 30.3451537,8.80592883 C34.1424725,9.1406083 36.8906752,11.2298716 38.5275493,12.9237089 C40.701819,15.1740081 42.2421159,18.1139151 42.7532441,20.989828 C43.4140767,24.7064511 42.3426431,28.4746516 39.568963,32.1895555 M50.9376147,23.0422231 L45.1323205,22.6194801 C45.0562833,22.6145134 44.9822211,22.6198622 44.9099363,22.6309418 C44.8860389,21.9759098 44.8161242,21.3208779 44.6997971,20.6662281 C44.4683279,19.3639964 44.0478519,18.0524043 43.472734,16.7847485 C43.5582512,16.7709946 43.6435709,16.7473072 43.7263231,16.710248 L48.9699292,14.355457 C49.4644675,14.1332925 49.6793467,13.5653689 49.449655,13.086846 C49.2199633,12.6083232 48.632798,12.4006767 48.1382597,12.6226502 L42.8946536,14.9774412 C42.7941264,15.0227146 42.7084117,15.0849894 42.632572,15.1550964 C41.8921472,13.8801816 40.9953029,12.6797673 39.9704791,11.6193759 C39.571728,11.2067574 39.1139247,10.7735079 38.5984515,10.3433149 C38.7106311,10.2846696 38.8135282,10.2053933 38.8982554,10.1033849 L42.5190099,5.75618125 C42.8610787,5.345473 42.7941264,4.7441197 42.369503,4.41326077 C41.9444845,4.08201979 41.3231517,4.14677798 40.9808855,4.55786828 L37.3603285,8.90488086 C37.2663188,9.0179689 37.2060815,9.14576603 37.1727041,9.27814781 C35.677832,8.28327869 33.8387186,7.42652217 31.658919,7.05153598 C31.7440412,6.92087345 31.8007235,6.77091718 31.8115859,6.60586977 L32.1670846,1.17210405 C32.2014495,0.645633376 31.788281,0.191944025 31.243973,0.158514284 C30.7016399,0.124893515 30.2306041,0.525095279 30.1960417,1.05156595 L29.8403455,6.48533167 C29.8316555,6.61752242 29.8514055,6.7449375 29.8942628,6.86222813 C29.6701011,6.85248575 29.4421869,6.84732802 29.2115078,6.84732802 C27.3688394,6.84732802 25.4582312,7.164433 23.7478874,7.74706564 C23.7338649,7.64677641 23.7075975,7.54686924 23.6588152,7.45116467 L21.1620292,2.56048898 C20.9204876,2.08750589 20.3285822,1.89323133 19.8393764,2.1270485 C19.3503682,2.36067464 19.1495114,2.93356489 19.3910531,3.40635696 L21.8880366,8.29703265 C21.9208215,8.36121775 21.9617038,8.41852588 22.0059437,8.47182244 C20.2869098,9.33297258 19.0029669,10.4770339 18.2566171,11.8230108 L12.9758811,11.2717066 C12.4339431,11.2122971 11.9467123,11.5943513 11.8882525,12.1189117 C11.8295952,12.6432811 12.2216313,13.1143539 12.7639644,13.1707069 L17.5833421,13.6736813 C17.2339658,15.462841 17.6256069,17.3146577 18.0075705,19.1200548 C18.1231076,19.6658192 18.2392372,20.2155952 18.3318644,20.7623147 L13.7828632,21.0492374 C13.2385552,21.0834313 12.8261766,21.5378847 12.861529,22.0643554 C12.8954989,22.5696221 13.3299973,22.9574071 13.846063,22.9574071 C13.8675904,22.9574071 13.8895128,22.956834 13.9112377,22.9553058 L18.5212662,22.6647536 C18.5301536,23.9887623 18.2115873,25.2394167 17.1820235,26.3032466 C16.0880749,27.433554 14.9222366,27.6268734 13.6872736,27.8318454 C13.0809507,27.9325167 12.464358,28.0354803 11.8056978,28.2570718 L10.6761994,24.4554415 C10.5257049,23.9484556 9.97882938,23.6554201 9.45446877,23.8011737 C8.93010815,23.9469274 8.62734174,24.4758814 8.7780337,24.9828674 L10.0171442,29.153944 C9.87770975,29.2485024 9.73669525,29.3476454 9.59232327,29.4576771 C9.41121642,29.5959807 8.46124484,30.3446159 7.5523531,31.5171402 C7.00212008,32.2268058 6.5788791,32.9429664 6.28065518,33.6610373 L1.36173786,31.7144712 C0.85692967,31.5154209 0.280231743,31.748665 0.0736474853,32.2367392 C-0.132541774,32.7250045 0.108999858,33.2828036 0.613808044,33.482618 L5.66998737,35.4834357 C5.71047473,35.499291 5.75175208,35.5084603 5.79283193,35.5189668 C5.7728845,35.7031169 5.76083704,35.887076 5.75787455,36.0708441 C5.73397714,37.4930408 6.23483534,38.7652812 6.90416043,39.8268188 C6.70369866,39.8294932 6.50205188,39.8885206 6.328845,40.0130702 L1.7097316,43.3336942 C1.27187568,43.6481248 1.18082851,44.2466127 1.50610984,44.6699288 C1.69985664,44.9220845 1.99788307,45.0554214 2.29946449,45.0554214 C2.50427125,45.0554214 2.71085551,44.9939107 2.88761737,44.8666867 L7.50692827,41.5460627 C7.67203767,41.4274348 7.78757476,41.2685003 7.85018203,41.0939015 C8.05103881,41.3248533 8.25288309,41.5409049 8.44899988,41.7365167 C9.59864325,42.8821062 11.1140553,43.9430707 12.6721272,44.7148201 C12.5382227,44.8177837 12.4278206,44.9526489 12.3624483,45.1184604 L10.3023332,50.3409501 C10.1079939,50.8338 10.363558,51.3856773 10.8731062,51.573839 C10.9890383,51.616438 11.1079328,51.6366869 11.2248524,51.6366869 C11.622616,51.6366869 11.9974696,51.4024877 12.1477666,51.0217707 L14.2078817,45.7992809 C14.2608115,45.6649889 14.2775989,45.5264942 14.2679215,45.3918201 C15.7414637,45.9144703 17.316718,46.1824813 18.9583321,46.1824813 L18.9595171,46.1824813 C19.3770306,46.1824813 19.8006666,46.1643337 20.22924,46.1301399 C20.2314125,46.18038 20.234375,46.2310022 20.2448425,46.2818154 L21.4310232,51.9572304 C21.5258229,52.4105377 21.9376089,52.7234401 22.3979797,52.7234401 C22.4627595,52.7234401 22.5285268,52.7173272 22.5944915,52.7043373 C23.1291221,52.5998455 23.4749434,52.095916 23.3667138,51.5789967 L22.180533,45.9035817 C22.177768,45.8905919 22.1718431,45.8789392 22.1684856,45.8659494 C24.2315632,45.4731977 26.3850954,44.7186407 28.5575876,43.6326516 L31.4076999,48.3833045 C31.5907817,48.6887568 31.921988,48.859344 32.2626743,48.859344 C32.4307462,48.859344 32.6013856,48.8177001 32.75741,48.7300186 C33.2288408,48.4652551 33.3896052,47.8809032 33.1156737,47.4245395 L30.2831389,42.7033048 C31.6044092,41.9391964 32.9252844,41.0558871 34.2301622,40.0592988 C34.6871756,39.7102923 35.3594632,39.1956653 36.1433378,38.5368128 L39.8922694,42.5655743 C40.0872012,42.775131 40.3563927,42.8819151 40.6265717,42.8819151 C40.8619909,42.8819151 41.0982,42.8009197 41.2868119,42.6366364 C41.6922779,42.2838093 41.7250628,41.6799727 41.3602816,41.287794 L37.6008826,37.2473799 C38.7629684,36.1634922 40.0253839,34.8415847 41.1700898,33.3080192 C41.4831261,32.8887147 41.7758201,32.4684551 42.0497516,32.0470493 L46.8521444,34.8920159 C47.0129088,34.9873384 47.1910531,35.0329939 47.3668275,35.0329939 C47.6992188,35.0329939 48.0237101,34.8706208 48.209952,34.5764391 C48.4947459,34.1267613 48.348794,33.5385889 47.8836831,33.2631278 L43.0259906,30.3853046 C44.0498269,28.4372103 44.6597047,26.4721146 44.852069,24.5018611 C44.8955189,24.5110304 44.9383762,24.5211549 44.9841961,24.5245934 L50.7894902,24.9473363 C50.8145726,24.9490556 50.839655,24.9500107 50.8645399,24.9500107 C51.3764581,24.9500107 51.8093765,24.5681475 51.8484814,24.0665104 C51.8893637,23.5406128 51.4815277,23.0819567 50.9376147,23.0422231" id="Fill-5"></path>
                            </g>
                        </g>
                    </g>
                </g>
            </g>
        </g>
    </g>
</svg>