<?xml version="1.0" encoding="UTF-8"?>
<svg width="337px" height="275px" viewBox="0 0 337 275" version="1.1" xmlns="http://www.w3.org/2000/svg" xmlns:xlink="http://www.w3.org/1999/xlink">
    <!-- Generator: Sketch 52.2 (67145) - http://www.bohemiancoding.com/sketch -->
    <title>Group 6</title>
    <desc>Created with Sketch.</desc>
    <defs>
        <polygon id="path-1" points="0 18 208.42843 0.161864354 327 18 327 265 0 265"></polygon>
        <polygon id="path-3" points="0 0.0481253918 2.94020924 0.0481253918 2.94020924 2.97512017 0 2.97512017"></polygon>
    </defs>
    <g id="Page-1" stroke="none" stroke-width="1" fill="none" fill-rule="evenodd">
        <g id="free-cell" transform="translate(-730.000000, -786.000000)">
            <g id="Group-6" transform="translate(730.000000, 786.000000)">
                <polygon id="Rectangle" fill="#000000" opacity="0.1" points="10 28 218.42843 10.1618644 337 28 337 275 10 275"></polygon>
                <g id="Group-4">
                    <mask id="mask-2" fill="white">
                        <use xlink:href="#path-1"></use>
                    </mask>
                    <use id="Rectangle" fill="#676767" xlink:href="#path-1"></use>
                    <g id="Group-5" mask="url(#mask-2)">
                        <g transform="translate(-35.000000, -86.000000)">
                            <polygon id="Polygon" stroke="none" fill="#D8D8D8" fill-rule="evenodd" opacity="0.0569893973" points="313.5 0 370.224664 32.75 370.224664 98.25 313.5 131 256.775336 98.25 256.775336 32.75"></polygon>
                            <polygon id="Polygon" stroke="#DCDCDC" stroke-width="4" fill="none" opacity="0.0330868676" points="65.5 57 122.224664 89.75 122.224664 155.25 65.5 188 8.77533605 155.25 8.77533605 89.75"></polygon>
                            <polygon id="Polygon-Copy" stroke="#DCDCDC" stroke-width="4" fill="none" opacity="0.0330868676" points="318.5 256 375.224664 288.75 375.224664 354.25 318.5 387 261.775336 354.25 261.775336 288.75"></polygon>
                            <g id="Group-35" opacity="0.152413504" stroke="none" stroke-width="1" fill="none" fill-rule="evenodd" transform="translate(328.294679, 147.880168) rotate(-45.000000) translate(-328.294679, -147.880168) translate(302.794679, 124.880168)">
                                <polygon id="Stroke-1" stroke="#DBDBD2" stroke-width="3" points="31.8875458 9.74667293 17.5255296 9.74667293 10.3444687 22.0570178 17.5255296 34.3673626 31.8875458 34.3673626 39.0686066 22.0570178"></polygon>
                                <path d="M38.4626163,22.2642732 L47.8419266,22.2642732" id="Stroke-2" stroke="#DBDBD2" stroke-width="3"></path>
                                <path d="M0.327616088,22.2642732 L9.70692643,22.2642732" id="Stroke-3" stroke="#DBDBD2" stroke-width="3"></path>
                                <path d="M12.2061937,1.16587918 L16.8958489,9.37277573" id="Stroke-5" stroke="#DBDBD2" stroke-width="3"></path>
                                <path d="M17.3103598,34.7412598 L12.6207046,42.9481563" id="Stroke-6" stroke="#DBDBD2" stroke-width="3"></path>
                                <path d="M31.2736938,34.3267489 L35.963349,42.5336455" id="Stroke-7" stroke="#DBDBD2" stroke-width="3"></path>
                                <path d="M35.963349,1.16587918 L31.2736938,9.37277573" id="Stroke-8" stroke="#DBDBD2" stroke-width="3"></path>
                                <g id="Group-34" transform="translate(0.207255, 0.195667)">
                                    <path d="M15.6133257,9.66052863 C15.6133257,8.85221202 16.2714739,8.19703124 17.0834515,8.19703124 C17.8953231,8.19703124 18.5535774,8.85221202 18.5535774,9.66052863 C18.5535774,10.4687397 17.8953231,11.124026 17.0834515,11.124026 C16.2714739,11.124026 15.6133257,10.4687397 15.6133257,9.66052863" id="Fill-9" fill="#DBDBD2"></path>
                                    <path d="M8.40370866,22.0915601 C8.40370866,21.283349 9.06196288,20.6280627 9.87383448,20.6280627 C10.6857061,20.6280627 11.3439603,21.283349 11.3439603,22.0915601 C11.3439603,22.8997712 10.6857061,23.5550575 9.87383448,23.5550575 C9.06196288,23.5550575 8.40370866,22.8997712 8.40370866,22.0915601" id="Fill-11" fill="#DBDBD2"></path>
                                    <path d="M37.2420603,22.0915601 C37.2420603,21.283349 37.9002085,20.6280627 38.7121861,20.6280627 C39.5240577,20.6280627 40.1823119,21.283349 40.1823119,22.0915601 C40.1823119,22.8997712 39.5240577,23.5550575 38.7121861,23.5550575 C37.9002085,23.5550575 37.2420603,22.8997712 37.2420603,22.0915601" id="Fill-13" fill="#DBDBD2"></path>
                                    <path d="M46.7835129,22.0915601 C46.7835129,21.283349 47.4416612,20.6280627 48.2536388,20.6280627 C49.0655104,20.6280627 49.7237646,21.283349 49.7237646,22.0915601 C49.7237646,22.8997712 49.0655104,23.5550575 48.2536388,23.5550575 C47.4416612,23.5550575 46.7835129,22.8997712 46.7835129,22.0915601" id="Fill-15" fill="#DBDBD2"></path>
                                    <g id="Group-19" transform="translate(0.000000, 20.579937)">
                                        <mask id="mask-4" fill="white">
                                            <use xlink:href="#path-3"></use>
                                        </mask>
                                        <g id="Clip-18"></g>
                                        <path d="M-4.24064563e-05,1.51162278 C-4.24064563e-05,0.703411703 0.658211812,0.0481253918 1.47008342,0.0481253918 C2.28206104,0.0481253918 2.94020924,0.703411703 2.94020924,1.51162278 C2.94020924,2.31983386 2.28206104,2.97512017 1.47008342,2.97512017 C0.658211812,2.97512017 -4.24064563e-05,2.31983386 -4.24064563e-05,1.51162278" id="Fill-17" fill="#DBDBD2" mask="url(#mask-4)"></path>
                                    </g>
                                    <path d="M34.7468538,1.5317278 C34.7468538,0.723411181 35.405108,0.0682304075 36.2169796,0.0682304075 C37.0289572,0.0682304075 37.6871054,0.723411181 37.6871054,1.5317278 C37.6871054,2.33993887 37.0289572,2.99522518 36.2169796,2.99522518 C35.405108,2.99522518 34.7468538,2.33993887 34.7468538,1.5317278" id="Fill-20" fill="#DBDBD2"></path>
                                    <path d="M10.9531636,1.625414 C10.9531636,0.817097388 11.6114178,0.161916614 12.4232894,0.161916614 C13.2352671,0.161916614 13.8934153,0.817097388 13.8934153,1.625414 C13.8934153,2.43362508 13.2352671,3.08891139 12.4232894,3.08891139 C11.6114178,3.08891139 10.9531636,2.43362508 10.9531636,1.625414" id="Fill-22" fill="#DBDBD2"></path>
                                    <path d="M34.7468538,42.5577167 C34.7468538,41.7495056 35.405108,41.0942193 36.2169796,41.0942193 C37.0289572,41.0942193 37.6871054,41.7495056 37.6871054,42.5577167 C37.6871054,43.3660333 37.0289572,44.0212141 36.2169796,44.0212141 C35.405108,44.0212141 34.7468538,43.3660333 34.7468538,42.5577167" id="Fill-24" fill="#DBDBD2"></path>
                                    <path d="M10.9531636,42.6514029 C10.9531636,41.8431918 11.6114178,41.1879055 12.4232894,41.1879055 C13.2352671,41.1879055 13.8934153,41.8431918 13.8934153,42.6514029 C13.8934153,43.4597195 13.2352671,44.1149003 12.4232894,44.1149003 C11.6114178,44.1149003 10.9531636,43.4597195 10.9531636,42.6514029" id="Fill-26" fill="#DBDBD2"></path>
                                    <path d="M30.0324538,9.66052863 C30.0324538,8.85221202 30.690708,8.19703124 31.5025796,8.19703124 C32.3144512,8.19703124 32.9727055,8.85221202 32.9727055,9.66052863 C32.9727055,10.4687397 32.3144512,11.124026 31.5025796,11.124026 C30.690708,11.124026 30.0324538,10.4687397 30.0324538,9.66052863" id="Fill-28" fill="#DBDBD2"></path>
                                    <path d="M15.6133257,34.5225915 C15.6133257,33.7143805 16.2714739,33.0590941 17.0834515,33.0590941 C17.8953231,33.0590941 18.5535774,33.7143805 18.5535774,34.5225915 C18.5535774,35.3309082 17.8953231,35.9860889 17.0834515,35.9860889 C16.2714739,35.9860889 15.6133257,35.3309082 15.6133257,34.5225915" id="Fill-30" fill="#DBDBD2"></path>
                                    <path d="M30.0324538,34.5225915 C30.0324538,33.7143805 30.690708,33.0590941 31.5025796,33.0590941 C32.3144512,33.0590941 32.9727055,33.7143805 32.9727055,34.5225915 C32.9727055,35.3309082 32.3144512,35.9860889 31.5025796,35.9860889 C30.690708,35.9860889 30.0324538,35.3309082 30.0324538,34.5225915" id="Fill-32" fill="#DBDBD2"></path>
                                </g>
                            </g>
                            <path d="M35.5,205.588869 L35.5,350.5 L361.5,350.5 L361.5,205.546697 L150.266975,224.432133 L150.141373,224.427503 L35.5,205.588869 Z" id="Rectangle" stroke="#979797" stroke-width="1" fill="#D8D8D8" fill-rule="evenodd" opacity="0.0455264137"></path>
                            <g id="enzyme" stroke="none" fill="none" transform="translate(134.482471, 170.719585) rotate(22.000000) translate(-134.482471, -170.719585) translate(103.482471, 144.719585)" fill-rule="evenodd" stroke-width="1">
                                <g id="Group-5">
                                    <path d="M5.9037346,23.0088496 L8.61231928,31.1760558 L23.7967716,31.1760558 L26.5053563,23.0088496 L35.30967,23.0088496 L40.0416667,31.0387877 L52.4886364,31.0387877 L57.220633,23.0088496 L61.9685453,23.0088496 C61.2318853,39.1419198 47.6485896,52 31,52 C14.3514104,52 0.768114745,39.1419198 0.0314546838,23.0088496 L5.9037346,23.0088496 Z" id="Combined-Shape" fill="#C9CA4D"></path>
                                    <polygon id="Polygon" fill="#F5B189" transform="translate(15.800310, 13.471741) rotate(-8.000000) translate(-15.800310, -13.471741) " points="15.7753784 2.01011558 28.079967 10.7922326 23.4298949 24.9333665 8.25140362 24.8909509 3.52065227 10.7236027"></polygon>
                                    <polygon id="Polygon-Copy" fill="#B3C99B" transform="translate(47.742282, 14.411081) rotate(-261.000000) translate(-47.742282, -14.411081) " points="47.7033023 1.97028495 58.2890501 8.22444001 58.3280294 20.665236 47.7812609 26.8518769 37.1955131 20.5977218 37.1565338 8.15692586"></polygon>
                                </g>
                            </g>
                            <g id="enzyme" stroke="none" fill="none" transform="translate(278.608111, 269.705973) rotate(-25.000000) translate(-278.608111, -269.705973) translate(235.608111, 232.705973)" fill-rule="evenodd" stroke-width="1">
                                <g id="Group-5">
                                    <path d="M8.18905122,32.7433628 L11.9461203,44.3659255 L33.0084252,44.3659255 L36.7654942,32.7433628 L48.9779294,32.7433628 L55.5416667,44.1705824 L72.8068182,44.1705824 L79.3705555,32.7433628 L85.9563693,32.7433628 C84.9345505,55.7019628 66.0932049,74 43,74 C19.9067951,74 1.06544948,55.7019628 0.0436306904,32.7433628 L8.18905122,32.7433628 Z" id="Combined-Shape" fill="#C9CA4D"></path>
                                    <polygon id="Polygon" fill="#F5B189" transform="translate(21.928300, 19.158175) rotate(-8.000000) translate(-21.928300, -19.158175) " points="21.9370785 2.86689833 38.9697606 15.2973909 32.4462977 35.4345157 11.3818939 35.4494508 4.88683919 15.3215563"></polygon>
                                    <polygon id="Polygon-Copy" fill="#B3C99B" transform="translate(66.223165, 20.508077) rotate(-261.000000) translate(-66.223165, -20.508077) " points="66.2368899 3.24075134 81.2571343 11.8625277 81.2434092 29.1298531 66.2094397 37.7754021 51.1891953 29.1536257 51.2029204 11.8863003"></polygon>
                                </g>
                            </g>
                            <path d="M248.101545,193.693561 C244.321593,193.693561 241.24648,190.618184 241.24648,186.838232 C241.24648,183.058279 244.321593,179.983167 248.101545,179.983167 C251.881497,179.983167 254.956874,183.058279 254.956874,186.838232 C254.956874,190.618184 251.881497,193.693561 248.101545,193.693561 M248.101545,177.338364 C242.863248,177.338364 238.601677,181.599935 238.601677,186.838232 C238.601677,192.076793 242.863248,196.338364 248.101545,196.338364 C253.340106,196.338364 257.601677,192.076793 257.601677,186.838232 C257.601677,181.599935 253.340106,177.338364 248.101545,177.338364" id="Fill-1" stroke="none" fill="#FFFFFF" fill-rule="evenodd" opacity="0.14" transform="translate(248.101677, 186.838364) rotate(13.000000) translate(-248.101677, -186.838364) "></path>
                            <path d="M222.601814,207.607243 C221.350756,207.607243 220.332649,206.589354 220.332649,205.338227 C220.332649,204.087101 221.350756,203.069485 222.601814,203.069485 C223.852872,203.069485 224.870705,204.087101 224.870705,205.338227 C224.870705,206.589354 223.852872,207.607243 222.601814,207.607243 M222.601814,200.338364 C219.844624,200.338364 217.601677,202.581434 217.601677,205.338227 C217.601677,208.095294 219.844624,210.338364 222.601814,210.338364 C225.35873,210.338364 227.601677,208.095294 227.601677,205.338227 C227.601677,202.581434 225.35873,200.338364 222.601814,200.338364" id="Fill-3" stroke="none" fill="#FFFFFF" fill-rule="evenodd" opacity="0.14" transform="translate(222.601677, 205.338364) rotate(13.000000) translate(-222.601677, -205.338364) "></path>
                            <path d="M257.296414,201.653111 C254.028833,206.126389 249.95099,209.308612 248.209593,210.668058 C241.532233,215.880665 234.624893,218.751208 228.760258,218.751208 L228.758617,218.751208 C226.673754,218.751208 224.684055,218.386544 222.845306,217.66776 C220.438579,216.726771 217.942978,215.086191 216.169313,213.280174 C214.799002,211.884504 213.173826,209.694631 213.215119,207.189293 C213.240824,205.62224 213.892754,203.985174 215.153407,202.323238 C216.230568,200.90351 217.35832,200.007665 217.483291,199.910349 C219.133626,198.62389 220.364472,198.414932 221.923197,198.150557 C223.807614,197.831037 226.152538,197.433665 228.295648,195.170805 C231.926111,191.336837 230.925245,186.501869 230.121271,182.616811 C229.455394,179.399986 228.880307,176.621353 230.149164,174.194408 C232.10468,170.452349 238.07159,168.494682 242.955322,168.494682 C243.497047,168.494682 244.025099,168.517659 244.524985,168.563073 C249.782811,169.036676 253.588015,171.993181 255.854456,174.390121 C258.864983,177.574506 260.997702,181.734752 261.705418,185.80444 C262.620417,191.063812 261.136894,196.396172 257.296414,201.653111 M273.037624,188.708773 L264.999524,188.110552 C264.894242,188.103523 264.791694,188.111092 264.691607,188.126771 C264.658519,187.199839 264.561714,186.272907 264.400645,185.346516 C264.08015,183.503735 263.497952,181.647708 262.701635,179.853856 C262.820043,179.834393 262.938178,179.800873 263.052758,179.748431 L270.313136,176.416179 C270.997881,176.101795 271.295406,175.29813 270.977372,174.620975 C270.659337,173.94382 269.846339,173.649981 269.161594,173.964094 L261.901216,177.296346 C261.762024,177.360412 261.643343,177.448536 261.538334,177.547744 C260.51313,175.74362 259.271346,174.04492 257.852359,172.544366 C257.300242,171.960472 256.66636,171.347383 255.952628,170.73862 C256.107954,170.655631 256.250427,170.543448 256.367742,170.399096 L261.381094,164.247393 C261.854728,163.666202 261.762024,162.81523 261.174084,162.347034 C260.585597,161.878296 259.72529,161.969935 259.251383,162.551667 L254.238304,168.7031 C254.108137,168.86313 254.024731,169.043975 253.978517,169.231308 C251.908694,167.823474 249.362229,166.611083 246.344045,166.080442 C246.461906,165.895542 246.54039,165.68334 246.55543,165.449782 L247.047659,157.760491 C247.095241,157.015485 246.523162,156.373472 245.769504,156.326166 C245.018582,156.278589 244.366378,156.844913 244.318523,157.589918 L243.82602,165.279209 C243.813988,165.466272 243.841334,165.646576 243.900675,165.812553 C243.590297,165.798767 243.274724,165.791468 242.955322,165.791468 C240.403935,165.791468 237.758477,166.240202 235.390309,167.064682 C235.370893,166.922763 235.334523,166.781385 235.266978,166.645954 L231.80989,159.725187 C231.475448,159.055871 230.655886,158.780954 229.978524,159.111828 C229.301436,159.442431 229.023327,160.253124 229.357769,160.92217 L232.815131,167.842937 C232.860525,167.933765 232.917132,168.014862 232.978387,168.090281 C230.598186,169.30889 228.820419,170.927845 227.787012,172.832529 L220.475223,172.052381 C219.724847,171.968312 219.05022,172.508954 218.969276,173.251257 C218.888058,173.993289 219.430877,174.659901 220.1818,174.739646 L226.854785,175.451402 C226.371033,177.983232 226.913305,180.603727 227.442178,183.158535 C227.602152,183.930843 227.762947,184.708828 227.8912,185.482487 L221.592583,185.88851 C220.838926,185.936898 220.26794,186.579992 220.31689,187.324998 C220.363925,188.039998 220.965538,188.58875 221.68009,188.58875 C221.709898,188.58875 221.740252,188.587939 221.770332,188.585777 L228.153449,188.174618 C228.165754,190.048215 227.724663,191.818009 226.299113,193.323429 C224.784415,194.92292 223.170177,195.196485 221.460228,195.48654 C220.620704,195.629 219.76696,195.774703 218.854969,196.088276 L217.291048,190.70861 C217.082672,189.991177 216.325459,189.576504 215.599422,189.78276 C214.873384,189.989015 214.454169,190.737535 214.662819,191.454967 L216.378511,197.357434 C216.185447,197.491243 215.990197,197.63154 215.790297,197.787245 C215.539534,197.982958 214.224188,199.042347 212.965723,200.70158 C212.203862,201.705824 211.617836,202.719259 211.20491,203.735397 L204.394102,200.980822 C203.695137,200.699147 202.896632,201.029209 202.610592,201.719881 C202.325099,202.410822 202.659541,203.20016 203.358507,203.482916 L210.35937,206.314262 C210.41543,206.336699 210.472583,206.349674 210.529463,206.364542 C210.501843,206.625132 210.485162,206.885451 210.48106,207.145501 C210.447972,209.158043 211.141468,210.958383 212.068225,212.460559 C211.790663,212.464344 211.51146,212.547873 211.271635,212.724122 L204.875939,217.423119 C204.269677,217.868068 204.143612,218.714984 204.594001,219.314017 C204.862266,219.670841 205.274918,219.859525 205.692492,219.859525 C205.976071,219.859525 206.262111,219.772482 206.506858,219.592448 L212.902827,214.893451 C213.13144,214.725582 213.291414,214.500674 213.378101,214.253601 C213.656211,214.580419 213.935687,214.886153 214.207234,215.162962 C215.799048,216.784079 217.897311,218.285444 220.054641,219.377542 C219.869235,219.523245 219.71637,219.714092 219.625855,219.948731 L216.773388,227.339047 C216.504302,228.036476 216.85816,228.817434 217.563689,229.083701 C217.72421,229.143983 217.888833,229.172637 218.050722,229.172637 C218.601471,229.172637 219.1205,228.841223 219.328603,228.302472 L222.18107,220.912156 C222.254358,220.722121 222.277602,220.526138 222.264202,220.335561 C224.304491,221.07516 226.485613,221.454421 228.758617,221.454421 L228.760258,221.454421 C229.338353,221.454421 229.924926,221.428741 230.518336,221.380353 C230.521344,221.451448 230.525446,221.523083 230.539939,221.594988 L232.182343,229.626236 C232.313604,230.267708 232.883769,230.710495 233.521206,230.710495 C233.610901,230.710495 233.701963,230.701845 233.793299,230.683463 C234.533557,230.535597 235.012386,229.822489 234.86253,229.091 L233.220126,221.059752 C233.216297,221.04137 233.208094,221.024881 233.203445,221.006499 C236.060014,220.450718 239.041828,219.382949 242.049894,217.846172 L245.996203,224.568794 C246.249701,225.001037 246.708294,225.242434 247.180014,225.242434 C247.412729,225.242434 247.648999,225.183504 247.865032,225.059427 C248.517783,224.684761 248.74038,223.857848 248.36109,223.212051 L244.439119,216.531058 C246.26857,215.449773 248.097474,214.199807 249.904228,212.78954 C250.537016,212.295663 251.467875,211.567417 252.55324,210.635079 L257.744068,216.336156 C258.013974,216.632699 258.386701,216.783809 258.760795,216.783809 C259.08676,216.783809 259.413819,216.669192 259.674973,216.436716 C260.236388,215.937432 260.281782,215.082947 259.776701,214.527977 L254.571379,208.81041 C256.180421,207.276606 257.928381,205.405983 259.513358,203.235843 C259.946793,202.642487 260.352062,202.04778 260.731352,201.451451 L267.380818,205.477347 C267.603415,205.612238 267.850077,205.676845 268.093457,205.676845 C268.553691,205.676845 269.002986,205.447071 269.26086,205.030777 C269.65519,204.39444 269.453103,203.562121 268.809103,203.172317 L262.083067,199.099926 C263.500687,196.343189 264.345133,193.562393 264.611483,190.774298 C264.671645,190.787274 264.730986,190.801601 264.794429,190.806467 L272.832528,191.404688 C272.867258,191.407121 272.901987,191.408472 272.936443,191.408472 C273.645253,191.408472 274.244678,190.8681 274.298824,190.158236 C274.35543,189.414041 273.790734,188.765 273.037624,188.708773" id="Fill-5" stroke="none" fill="#FFFFFF" fill-rule="evenodd" opacity="0.14" transform="translate(238.405678, 193.516935) rotate(13.000000) translate(-238.405678, -193.516935) "></path>
                            <g id="cone" stroke="none" fill="none" opacity="0.0611281622" transform="translate(81.000000, 270.000000)" stroke-width="3">
                                <polygon id="Stroke-41" stroke="#EAEAE4" points="24.5367067 43.5 8.17868205 43.5 0 29 8.17868205 14.5 24.5367067 14.5 32.7160494 29"></polygon>
                                <polygon id="Stroke-43" stroke="#EAEAE4" points="49.4015649 58 33.0435402 58 24.8641975 43.5003381 33.0435402 29 49.4015649 29 57.5802469 43.5003381"></polygon>
                                <polygon id="Stroke-45" stroke="#EAEAE4" points="72.9569553 43.5 56.5986003 43.5 48.4197531 29 56.5986003 14.5 72.9569553 14.5 81.1358025 29"></polygon>
                                <polygon id="Stroke-47" stroke="#EAEAE4" points="97.8213179 29 81.4632933 29 73.2839506 14.5 81.4632933 0 97.8213179 0 106 14.5"></polygon>
                                <polygon id="Stroke-49" stroke="#EAEAE4" points="97.8213179 58 81.4632933 58 73.2839506 43.5003381 81.4632933 29 97.8213179 29 106 43.5003381"></polygon>
                            </g>
                            <path d="M79.6601501,212.263335 C79.6601501,209.080218 77.070359,206.490427 73.8872412,206.490427 C70.7041234,206.490427 68.1145551,209.080218 68.1145551,212.263335 C68.1145551,215.446453 70.7041234,218.036022 73.8872412,218.036022 C77.070359,218.036022 79.6601501,215.446453 79.6601501,212.263335 Z M65.8873526,212.263335 C65.8873526,207.851915 69.4760439,204.263224 73.8872412,204.263224 C78.2986612,204.263224 81.8873526,207.851915 81.8873526,212.263335 C81.8873526,216.674533 78.2986612,220.263224 73.8872412,220.263224 C69.4760439,220.263224 65.8873526,216.674533 65.8873526,212.263335 Z" id="Shape" stroke="none" fill="#FFFFFF" fill-rule="evenodd" opacity="0.138578869"></path>
                            <path d="M95.7024557,229.263115 C95.7024557,228.262268 94.8881446,227.448002 93.8872433,227.448002 C92.8863421,227.448002 92.0722495,228.262268 92.0722495,229.263115 C92.0722495,230.263961 92.8863421,231.078446 93.8872433,231.078446 C94.8881446,231.078446 95.7024557,230.263961 95.7024557,229.263115 Z M89.8873526,229.263115 C89.8873526,227.057582 91.6818084,225.263224 93.8872433,225.263224 C96.0928967,225.263224 97.8873526,227.057582 97.8873526,229.263115 C97.8873526,231.468866 96.0928967,233.263224 93.8872433,233.263224 C91.6818084,233.263224 89.8873526,231.468866 89.8873526,229.263115 Z" id="Shape" stroke="none" fill="#FFFFFF" fill-rule="evenodd" opacity="0.138578869"></path>
                            <path d="M87.6504092,203.106728 C83.23458,199.906328 78.7553983,198.670059 74.3375255,199.432558 C70.9189875,200.022321 67.424381,201.799587 64.7494971,204.30836 C62.7360679,206.19706 60.2526039,209.368063 59.8547774,213.749585 C59.8166297,214.166157 59.7973287,214.6062 59.7973287,215.057638 C59.7973287,219.127415 61.4417692,224.099839 64.5850985,225.729436 C66.6237324,226.786817 68.9577844,226.307578 71.6599167,225.752681 C74.9233659,225.082702 78.9847389,224.248647 82.2052719,227.274033 C84.1060744,229.059958 84.4398672,231.014062 84.7082639,232.584409 C84.9303383,233.883346 85.1058634,234.909051 86.1864892,236.28433 C86.2682344,236.388473 87.0207442,237.328266 88.2133155,238.2259 C89.6093416,239.276444 90.9844771,239.819719 92.3008016,239.84114 C94.4052858,239.875551 96.2447794,238.521238 97.4171416,237.379312 C98.9341959,235.901257 100.312283,233.82159 101.102714,231.815985 C101.706493,230.283694 102.01281,228.625612 102.01281,226.888225 L102.01281,226.886858 C102.01281,221.999662 99.6015544,216.243545 95.2229647,210.679079 C94.08103,209.227915 91.4079626,205.829712 87.6504092,203.106728 Z M76.7771649,189.989053 C76.8243955,189.361461 77.3695904,188.890881 77.994714,188.938053 C78.5909996,188.983174 79.0449124,189.482695 79.0449124,190.07337 C79.0449124,190.102084 79.0437771,190.131025 79.0417335,190.159966 L78.5392277,196.858382 C78.5351404,196.911251 78.5231057,196.960702 78.5122064,197.010837 C80.8542058,197.232796 83.1900743,197.936501 85.5057335,199.11785 L88.9265422,193.51282 C89.2539771,192.976154 89.9531255,192.807748 90.4876481,193.136356 C90.8373358,193.351251 91.0303453,193.725664 91.0303453,194.109192 C91.0303453,194.312009 90.9760755,194.51756 90.8627676,194.703057 L87.481015,200.24428 C87.9819313,200.560355 88.4814852,200.898078 88.9799037,201.259274 C90.8028212,202.580089 92.3741452,204.036722 93.66254,205.37759 L98.4652964,201.039822 C98.931471,200.618921 99.6492391,200.65675 100.068637,201.124595 C100.263917,201.342224 100.360195,201.614773 100.360195,201.886411 C100.360195,202.198156 100.233263,202.508761 99.9841673,202.733682 L95.1952622,207.059373 C95.9784264,207.963843 96.5901528,208.73956 97.0050096,209.266883 C98.1896335,210.772511 99.2396049,212.296598 100.147885,213.821141 L105.759918,210.552831 C106.302388,210.236756 106.996995,210.422254 107.311714,210.966213 C107.415939,211.146241 107.465441,211.343132 107.465441,211.537061 C107.465441,211.930161 107.262667,212.312322 106.899582,212.52357 L101.25258,215.812161 C102.543473,218.318883 103.440399,220.803728 103.907255,223.184202 C103.922695,223.180328 103.936547,223.173492 103.951987,223.170301 L110.698235,221.801631 C111.312687,221.676751 111.911697,222.075775 112.035905,222.692657 C112.051345,222.76877 112.058612,222.844655 112.058612,222.919401 C112.058612,223.450598 111.686671,223.925736 111.147834,224.03512 L104.401586,225.40379 C104.341185,225.415868 104.281012,225.419287 104.221292,225.421793 C104.261938,225.916301 104.28351,226.405112 104.28351,226.886858 L104.28351,226.888225 C104.28351,228.782396 103.96493,230.599997 103.343667,232.300238 C103.503751,232.289071 103.668377,232.308442 103.828007,232.369514 L110.035872,234.74657 C110.488423,234.91999 110.766811,235.352513 110.766811,235.811471 C110.766811,235.946378 110.742741,236.083565 110.692105,236.217332 C110.468441,236.805273 109.812436,237.100154 109.226595,236.875916 L103.01873,234.498861 C102.821633,234.423431 102.661322,234.296044 102.538931,234.141539 C101.621569,235.939314 100.360422,237.687866 98.9986837,239.014378 C98.7661641,239.240667 98.509348,239.473564 98.2348204,239.705322 C98.4423624,239.777561 98.6312845,239.910873 98.772295,240.101384 L102.719452,245.431358 C102.87068,245.635314 102.943797,245.87368 102.943797,246.109996 C102.943797,246.457974 102.785302,246.801851 102.48557,247.025405 C101.982383,247.40073 101.270973,247.295675 100.897216,246.790457 L96.9500587,241.460711 C96.8020091,241.260857 96.7318445,241.028187 96.7286655,240.796885 C95.4668378,241.569183 93.954552,242.147097 92.2640163,242.119523 C92.045575,242.116104 91.8269066,242.102203 91.6080112,242.079187 C91.5955224,242.126587 91.584623,242.174215 91.5657762,242.220931 L89.1874456,248.054984 C88.9499304,248.637455 88.2868862,248.916157 87.7064954,248.678246 C87.1263317,248.43988 86.8490793,247.774459 87.0856862,247.191988 L89.3995289,241.516314 C88.545973,241.17221 87.6946878,240.683855 86.851123,240.04897 C85.4573676,239.000249 84.5674805,237.904128 84.4030819,237.695159 C84.2722896,237.528576 84.1544403,237.365867 84.0420407,237.204981 L79.0839685,238.634724 C78.4813249,238.808599 77.8525682,238.459253 77.6793138,237.854222 C77.5060594,237.24919 77.8543847,236.61818 78.4570284,236.444532 L82.9759473,235.141265 C82.7125462,234.381273 82.5901555,233.669819 82.4704896,232.970216 C82.2268436,231.545259 81.9970488,230.200061 80.6534759,228.937812 C79.3889234,227.749854 77.9022965,227.382278 76.3284747,227.392532 L76.6738481,232.711796 C76.6756647,232.736863 76.6763459,232.762158 76.6763459,232.786998 C76.6763459,233.382458 76.2153939,233.883802 75.6147939,233.922998 C74.9889891,233.963789 74.4487897,233.487968 74.4081442,232.85992 L74.0670852,227.611073 C73.417211,227.71795 72.7637037,227.851946 72.1149649,227.985258 C69.9689268,228.425985 67.7677108,228.877879 65.6409737,228.474752 L65.0430985,234.035573 C64.9761129,234.661342 64.4161584,235.113691 63.7928514,235.04601 C63.1693174,234.978556 62.7151775,234.416367 62.7857962,233.791054 L63.4411201,227.697897 C61.8411853,226.836724 60.4812634,225.355251 59.4576321,223.371751 C59.3942796,223.422797 59.3261586,223.469969 59.2498631,223.507797 L53.4364184,226.388932 C52.8744203,226.667634 52.1934375,226.435876 51.915731,225.871636 C51.6377974,225.307168 51.8687275,224.6242 52.4309527,224.345498 L58.2443974,221.464591 C58.3581594,221.408304 58.476917,221.377995 58.5961287,221.361816 C57.9035654,219.388342 57.5266293,217.183794 57.5266293,215.057638 C57.5266293,214.79147 57.5327602,214.528492 57.5443407,214.269844 C57.4049198,214.319295 57.2534641,214.342083 57.0963317,214.332056 L50.6373272,213.921637 C50.0115224,213.881758 49.5358109,213.338255 49.5757752,212.712486 C49.6155124,212.084438 50.1548036,211.607705 50.7806083,211.647357 L57.2396129,212.057548 C57.4358013,212.070082 57.6140512,212.135484 57.769367,212.233702 C58.2151053,209.718549 59.233514,207.596495 60.4160943,205.871642 C60.2587348,205.83313 60.106825,205.763625 59.9723996,205.655153 L54.805196,201.477587 C54.3165415,201.082664 54.2395648,200.365742 54.6333041,199.875336 C55.0265892,199.385386 55.7414054,199.308133 56.2296058,199.702828 L61.3970365,203.880622 C61.5182918,203.978384 61.6125258,204.097111 61.6822363,204.226549 C62.1935978,203.631773 62.7085924,203.103538 63.1990635,202.64344 C64.4595288,201.460951 65.8864363,200.426131 67.4019011,199.571795 C67.3185664,199.484287 67.2445416,199.385386 67.1907261,199.269393 L64.3916349,193.219078 C64.1277796,192.648457 64.3746046,191.970959 64.9434148,191.70593 C65.512225,191.440901 66.187304,191.688839 66.4513863,192.25946 L69.2504775,198.309774 C69.2945291,198.405258 69.3226858,198.503703 69.3390348,198.602377 C70.8458709,197.93878 72.4049332,197.453615 73.952869,197.186535 C74.7310377,197.052312 75.5096605,196.971641 76.2882833,196.944067 C76.2751133,196.860661 76.2687553,196.775205 76.2746591,196.68747 L76.7771649,189.989053 Z" id="Shape" stroke="none" fill="#FFFFFF" fill-rule="evenodd" opacity="0.138578869"></path>
                        </g>
                    </g>
                    <circle id="Oval" stroke="#979797" stroke-width="2" opacity="0.174386161" mask="url(#mask-2)" cx="190" cy="33" r="26"></circle>
                    <circle id="Oval" stroke="#979797" stroke-width="2" opacity="0.274158296" mask="url(#mask-2)" cx="118" cy="142" r="14"></circle>
                </g>
            </g>
        </g>
    </g>
</svg>