<?xml version="1.0" encoding="UTF-8"?>
<svg width="1200px" height="820px" viewBox="0 0 1200 820" version="1.1" xmlns="http://www.w3.org/2000/svg" xmlns:xlink="http://www.w3.org/1999/xlink">
    <!-- Generator: Sketch 52.2 (67145) - http://www.bohemiancoding.com/sketch -->
    <title>home-hero</title>
    <desc>Created with Sketch.</desc>
    <defs>
        <rect id="path-1" x="0" y="0" width="1200" height="820"></rect>
        <rect id="path-3" x="0" y="0" width="1360" height="859"></rect>
        <circle id="path-5" cx="465.5" cy="465.5" r="465.5"></circle>
    </defs>
    <g id="Page-1" stroke="none" stroke-width="1" fill="none" fill-rule="evenodd">
        <g id="home">
            <g id="home-hero">
                <mask id="mask-2" fill="white">
                    <use xlink:href="#path-1"></use>
                </mask>
                <use id="Rectangle" fill="#D8D8D8" xlink:href="#path-1"></use>
                <g id="Group-4" mask="url(#mask-2)">
                    <g transform="translate(-102.000000, -237.000000)">
                        <rect id="hero" fill="#FFFFFF" fill-rule="nonzero" opacity="0.485328311" x="100" y="0" width="1200" height="893"></rect>
                        <g id="globe" stroke-width="1" fill="none" fill-rule="evenodd" transform="translate(0.000000, 198.000000)">
                            <mask id="mask-4" fill="white">
                                <use xlink:href="#path-3"></use>
                            </mask>
                            <use id="Rectangle" fill="#FAFAF6" xlink:href="#path-3"></use>
                            <circle id="Oval" fill="#DAE3EA" opacity="0.139950707" mask="url(#mask-4)" cx="700.5" cy="689.5" r="634.5"></circle>
                            <circle id="Oval" fill="#C2DFF3" mask="url(#mask-4)" cx="700.5" cy="689.5" r="465.5"></circle>
                        </g>
                        <g id="continents" opacity="0.896972656" stroke-width="1" fill="none" fill-rule="evenodd" transform="translate(235.000000, 422.000000)">
                            <mask id="mask-6" fill="white">
                                <use xlink:href="#path-5"></use>
                            </mask>
                            <use id="Oval" fill="#C2DFF3" xlink:href="#path-5"></use>
                            <path d="M26.2989691,354 L93.5979381,420.969072 L93.5979381,487.938144 L163,557 L163,760 L-41,557 L26.2989691,354 Z M60,182 L196.161137,-20.743662 L366.886256,-189 L502,-54.1859155 L365.838863,81.6732394 L298.805687,81.6732394 L196.161137,182 L60,182 Z M670.636364,255.545024 L670.636364,182.227488 L637.181818,148.7109 L570.272727,217.838863 L501.272727,217.838863 L467.818182,182.227488 L434.363636,217.838863 L467.818182,255.545024 L534.727273,318.388626 L603.727273,318.388626 L670.636364,255.545024 Z M670.636364,-88 L909,148.7109 L909,421.033175 L806.545455,318.388626 L739.636364,387.516588 L806.545455,454.549763 L739.636364,525.772512 L739.636364,590.7109 L534.727273,796 L501.272727,760.388626 L501.272727,624.227488 L400.909091,523.677725 L265,523.677725 L265,387.516588 L400.909091,255.545024 L365.363636,217.838863 L434.363636,148.7109 L501.272727,148.7109 L570.272727,81.6777251 L570.272727,12.549763 L670.636364,-88 Z" id="Combined-Shape" fill="#BDDDBB" mask="url(#mask-6)"></path>
                            <path d="M17.2989691,346 L84.5979381,412.969072 L84.5979381,479.938144 L154,549 L154,752 L-50,549 L17.2989691,346 Z M51,174 L187.161137,-28.743662 L357.886256,-197 L493,-62.1859155 L356.838863,73.6732394 L289.805687,73.6732394 L187.161137,174 L51,174 Z M661.636364,247.545024 L661.636364,174.227488 L628.181818,140.7109 L561.272727,209.838863 L492.272727,209.838863 L458.818182,174.227488 L425.363636,209.838863 L458.818182,247.545024 L525.727273,310.388626 L594.727273,310.388626 L661.636364,247.545024 Z M661.636364,-96 L900,140.7109 L900,413.033175 L797.545455,310.388626 L730.636364,379.516588 L797.545455,446.549763 L730.636364,517.772512 L730.636364,582.7109 L525.727273,788 L492.272727,752.388626 L492.272727,616.227488 L391.909091,515.677725 L256,515.677725 L256,379.516588 L391.909091,247.545024 L356.363636,209.838863 L425.363636,140.7109 L492.272727,140.7109 L561.272727,73.6777251 L561.272727,4.54976303 L661.636364,-96 Z" id="Combined-Shape" fill="#CCE9CB" mask="url(#mask-6)"></path>
                        </g>
                        <g id="Group" stroke-width="1" fill="none" fill-rule="evenodd" transform="translate(727.000000, 468.000000)">
                            <g id="building" transform="translate(10.000000, 83.000000)">
                                <g id="Fill-1">
                                    <polygon fill="#D39577" points="4.90184049 5 0 9.91843644 0 37.9824561 9.51533742 37.9824561 18.7423313 37.9824561 19.0306748 37.9824561 27.9693252 37.9824561 28.2576687 37.9824561 37.4843742 37.9824561 47 37.9824561 47 19.1769591 42.2189755 14.5475531 37.4843742 19.1769591 37.4843742 9.91843644 27.9693252 9.91843644 27.9693252 14.5475531 23.4452147 14.5475531 19.0306748 19.1769591 9.51533742 19.1769591 9.51533742 9.91843644"></polygon>
                                    <polygon fill="#EF9F79" points="4.90184049 1.27897692e-13 0 4.91843644 0 32.9824561 9.51533742 32.9824561 18.7423313 32.9824561 19.0306748 32.9824561 27.9693252 32.9824561 28.2576687 32.9824561 37.4843742 32.9824561 47 32.9824561 47 14.1769591 42.2189755 9.54755309 37.4843742 14.1769591 37.4843742 4.91843644 27.9693252 4.91843644 27.9693252 9.54755309 23.4452147 9.54755309 19.0306748 14.1769591 9.51533742 14.1769591 9.51533742 4.91843644"></polygon>
                                </g>
                            </g>
                            <g id="co2" fill="#6B8192">
                                <g id="molecule">
                                    <g transform="translate(36.000000, 19.000000)">
                                        <circle id="Oval" cx="5.5" cy="5.5" r="3.36111111"></circle>
                                    </g>
                                    <g opacity="0.728143601" transform="translate(0.000000, 38.000000)">
                                        <circle id="Oval" cx="5.5" cy="5.5" r="3.36111111"></circle>
                                    </g>
                                    <g opacity="0.728143601" transform="translate(57.000000, 38.000000)">
                                        <circle id="Oval" cx="5.5" cy="5.5" r="3.36111111"></circle>
                                    </g>
                                    <g opacity="0.269740513" transform="translate(38.000000, 57.000000)">
                                        <circle id="Oval" cx="5.5" cy="5.5" r="3.36111111"></circle>
                                    </g>
                                    <g opacity="0.269740513" transform="translate(19.000000, 57.000000)">
                                        <circle id="Oval" cx="5.5" cy="5.5" r="3.36111111"></circle>
                                    </g>
                                    <g opacity="0.716355097" transform="translate(19.000000, 0.000000)">
                                        <circle id="Oval" cx="5.5" cy="5.5" r="3.36111111"></circle>
                                    </g>
                                </g>
                            </g>
                        </g>
                        <g id="Group-Copy" stroke-width="1" fill="none" fill-rule="evenodd" transform="translate(587.000000, 667.000000)">
                            <g id="building" transform="translate(10.000000, 83.000000)">
                                <g id="Fill-1">
                                    <polygon fill="#D39577" points="4.90184049 5 0 9.91843644 0 37.9824561 9.51533742 37.9824561 18.7423313 37.9824561 19.0306748 37.9824561 27.9693252 37.9824561 28.2576687 37.9824561 37.4843742 37.9824561 47 37.9824561 47 19.1769591 42.2189755 14.5475531 37.4843742 19.1769591 37.4843742 9.91843644 27.9693252 9.91843644 27.9693252 14.5475531 23.4452147 14.5475531 19.0306748 19.1769591 9.51533742 19.1769591 9.51533742 9.91843644"></polygon>
                                    <polygon fill="#EF9F79" points="4.90184049 1.27897692e-13 0 4.91843644 0 32.9824561 9.51533742 32.9824561 18.7423313 32.9824561 19.0306748 32.9824561 27.9693252 32.9824561 28.2576687 32.9824561 37.4843742 32.9824561 47 32.9824561 47 14.1769591 42.2189755 9.54755309 37.4843742 14.1769591 37.4843742 4.91843644 27.9693252 4.91843644 27.9693252 9.54755309 23.4452147 9.54755309 19.0306748 14.1769591 9.51533742 14.1769591 9.51533742 4.91843644"></polygon>
                                </g>
                            </g>
                            <g id="co2" fill="#6B8192">
                                <g id="molecule">
                                    <g transform="translate(36.000000, 19.000000)">
                                        <circle id="Oval" cx="5.5" cy="5.5" r="3.36111111"></circle>
                                    </g>
                                    <g opacity="0.728143601" transform="translate(0.000000, 38.000000)">
                                        <circle id="Oval" cx="5.5" cy="5.5" r="3.36111111"></circle>
                                    </g>
                                    <g opacity="0.728143601" transform="translate(57.000000, 38.000000)">
                                        <circle id="Oval" cx="5.5" cy="5.5" r="3.36111111"></circle>
                                    </g>
                                    <g opacity="0.269740513" transform="translate(38.000000, 57.000000)">
                                        <circle id="Oval" cx="5.5" cy="5.5" r="3.36111111"></circle>
                                    </g>
                                    <g opacity="0.269740513" transform="translate(19.000000, 57.000000)">
                                        <circle id="Oval" cx="5.5" cy="5.5" r="3.36111111"></circle>
                                    </g>
                                    <g opacity="0.716355097" transform="translate(19.000000, 0.000000)">
                                        <circle id="Oval" cx="5.5" cy="5.5" r="3.36111111"></circle>
                                    </g>
                                </g>
                            </g>
                        </g>
                        <g id="Group-3" stroke-width="1" fill="none" fill-rule="evenodd" transform="translate(1012.000000, 559.000000)">
                            <g id="factory" transform="translate(19.000000, 83.000000)">
                                <g id="Group-21">
                                    <polygon id="Fill-1" fill="#EF9F79" points="0 0 0 30 30 30 30 7.50005776 22.4997112 15.0001155 22.4997112 7.50005776 14.9998845 15.0001155 14.9998845 7.50005776 7.49982671 15.0001155 7.49982671 0"></polygon>
                                    <rect id="Rectangle" fill="#D29779" x="0" y="30" width="30" height="4"></rect>
                                </g>
                            </g>
                            <g id="co2" fill="#6B8192">
                                <g id="molecule">
                                    <g transform="translate(36.000000, 19.000000)">
                                        <circle id="Oval" cx="5.5" cy="5.5" r="3.36111111"></circle>
                                    </g>
                                    <g opacity="0.728143601" transform="translate(0.000000, 38.000000)">
                                        <circle id="Oval" cx="5.5" cy="5.5" r="3.36111111"></circle>
                                    </g>
                                    <g opacity="0.728143601" transform="translate(57.000000, 38.000000)">
                                        <circle id="Oval" cx="5.5" cy="5.5" r="3.36111111"></circle>
                                    </g>
                                    <g opacity="0.269740513" transform="translate(38.000000, 57.000000)">
                                        <circle id="Oval" cx="5.5" cy="5.5" r="3.36111111"></circle>
                                    </g>
                                    <g opacity="0.269740513" transform="translate(19.000000, 57.000000)">
                                        <circle id="Oval" cx="5.5" cy="5.5" r="3.36111111"></circle>
                                    </g>
                                    <g opacity="0.716355097" transform="translate(19.000000, 0.000000)">
                                        <circle id="Oval" cx="5.5" cy="5.5" r="3.36111111"></circle>
                                    </g>
                                </g>
                            </g>
                        </g>
                        <g id="Group-3-Copy" stroke-width="1" fill="none" fill-rule="evenodd" transform="translate(881.000000, 893.000000)">
                            <g id="factory" transform="translate(19.000000, 83.000000)">
                                <g id="Group-21">
                                    <polygon id="Fill-1" fill="#EF9F79" points="0 0 0 30 30 30 30 7.50005776 22.4997112 15.0001155 22.4997112 7.50005776 14.9998845 15.0001155 14.9998845 7.50005776 7.49982671 15.0001155 7.49982671 0"></polygon>
                                    <rect id="Rectangle" fill="#D29779" x="0" y="30" width="30" height="4"></rect>
                                </g>
                            </g>
                            <g id="co2" fill="#6B8192">
                                <g id="molecule">
                                    <g transform="translate(36.000000, 19.000000)">
                                        <circle id="Oval" cx="5.5" cy="5.5" r="3.36111111"></circle>
                                    </g>
                                    <g opacity="0.728143601" transform="translate(0.000000, 38.000000)">
                                        <circle id="Oval" cx="5.5" cy="5.5" r="3.36111111"></circle>
                                    </g>
                                    <g opacity="0.728143601" transform="translate(57.000000, 38.000000)">
                                        <circle id="Oval" cx="5.5" cy="5.5" r="3.36111111"></circle>
                                    </g>
                                    <g opacity="0.269740513" transform="translate(38.000000, 57.000000)">
                                        <circle id="Oval" cx="5.5" cy="5.5" r="3.36111111"></circle>
                                    </g>
                                    <g opacity="0.269740513" transform="translate(19.000000, 57.000000)">
                                        <circle id="Oval" cx="5.5" cy="5.5" r="3.36111111"></circle>
                                    </g>
                                    <g opacity="0.716355097" transform="translate(19.000000, 0.000000)">
                                        <circle id="Oval" cx="5.5" cy="5.5" r="3.36111111"></circle>
                                    </g>
                                </g>
                            </g>
                        </g>
                        <g id="cloud" fill="none" transform="translate(888.000000, 529.000000)" fill-rule="evenodd" stroke-width="1">
                            <g id="Fill-1-Copy-3">
                                <path d="M52.8262093,5 C44.1341628,5 36.871093,11.1042326 35.0798837,19.2583023 C33.4513721,18.4003023 31.5987674,17.9129767 29.6302791,17.9129767 C23.1592093,17.9129767 17.9129767,23.1592093 17.9129767,29.6302791 C17.9129767,29.7108605 17.9175814,29.789907 17.9191163,29.8697209 L10.7389302,29.8697209 C7.58244186,29.8697209 5,32.4521628 5,35.6086512 C5,38.7651395 7.58244186,41.3475814 10.7389302,41.3475814 L49.4786279,41.3475814 C49.8907442,41.3475814 50.2928837,41.3015349 50.6819767,41.2178837 C51.3857209,41.3007674 52.1002093,41.3475814 52.8262093,41.3475814 C62.8635814,41.3475814 71,33.2111628 71,23.1737907 C71,13.137186 62.8635814,5 52.8262093,5" fill="#000000" opacity="0.0891694568"></path>
                                <path d="M47.8262093,-2.98427949e-13 C39.1341628,-2.98427949e-13 31.871093,6.10423256 30.0798837,14.2583023 C28.4513721,13.4003023 26.5987674,12.9129767 24.6302791,12.9129767 C18.1592093,12.9129767 12.9129767,18.1592093 12.9129767,24.6302791 C12.9129767,24.7108605 12.9175814,24.789907 12.9191163,24.8697209 L5.73893023,24.8697209 C2.58244186,24.8697209 0,27.4521628 0,30.6086512 C0,33.7651395 2.58244186,36.3475814 5.73893023,36.3475814 L44.4786279,36.3475814 C44.8907442,36.3475814 45.2928837,36.3015349 45.6819767,36.2178837 C46.3857209,36.3007674 47.1002093,36.3475814 47.8262093,36.3475814 C57.8635814,36.3475814 66,28.2111628 66,18.1737907 C66,8.13718605 57.8635814,-2.98427949e-13 47.8262093,-2.98427949e-13" fill="#FFFFFF"></path>
                            </g>
                        </g>
                        <g id="cloud" fill="none" transform="translate(221.000000, 731.000000)" fill-rule="evenodd" stroke-width="1">
                            <g id="Fill-1-Copy-3">
                                <path d="M52.8262093,5 C44.1341628,5 36.871093,11.1042326 35.0798837,19.2583023 C33.4513721,18.4003023 31.5987674,17.9129767 29.6302791,17.9129767 C23.1592093,17.9129767 17.9129767,23.1592093 17.9129767,29.6302791 C17.9129767,29.7108605 17.9175814,29.789907 17.9191163,29.8697209 L10.7389302,29.8697209 C7.58244186,29.8697209 5,32.4521628 5,35.6086512 C5,38.7651395 7.58244186,41.3475814 10.7389302,41.3475814 L49.4786279,41.3475814 C49.8907442,41.3475814 50.2928837,41.3015349 50.6819767,41.2178837 C51.3857209,41.3007674 52.1002093,41.3475814 52.8262093,41.3475814 C62.8635814,41.3475814 71,33.2111628 71,23.1737907 C71,13.137186 62.8635814,5 52.8262093,5" fill="#000000" opacity="0.0891694568"></path>
                                <path d="M47.8262093,-2.98427949e-13 C39.1341628,-2.98427949e-13 31.871093,6.10423256 30.0798837,14.2583023 C28.4513721,13.4003023 26.5987674,12.9129767 24.6302791,12.9129767 C18.1592093,12.9129767 12.9129767,18.1592093 12.9129767,24.6302791 C12.9129767,24.7108605 12.9175814,24.789907 12.9191163,24.8697209 L5.73893023,24.8697209 C2.58244186,24.8697209 0,27.4521628 0,30.6086512 C0,33.7651395 2.58244186,36.3475814 5.73893023,36.3475814 L44.4786279,36.3475814 C44.8907442,36.3475814 45.2928837,36.3015349 45.6819767,36.2178837 C46.3857209,36.3007674 47.1002093,36.3475814 47.8262093,36.3475814 C57.8635814,36.3475814 66,28.2111628 66,18.1737907 C66,8.13718605 57.8635814,-2.98427949e-13 47.8262093,-2.98427949e-13" fill="#FFFFFF"></path>
                            </g>
                        </g>
                        <g id="cloud" fill="none" transform="translate(492.000000, 597.000000)" fill-rule="evenodd" stroke-width="1">
                            <g id="Fill-1-Copy-3">
                                <path d="M52.8262093,5 C44.1341628,5 36.871093,11.1042326 35.0798837,19.2583023 C33.4513721,18.4003023 31.5987674,17.9129767 29.6302791,17.9129767 C23.1592093,17.9129767 17.9129767,23.1592093 17.9129767,29.6302791 C17.9129767,29.7108605 17.9175814,29.789907 17.9191163,29.8697209 L10.7389302,29.8697209 C7.58244186,29.8697209 5,32.4521628 5,35.6086512 C5,38.7651395 7.58244186,41.3475814 10.7389302,41.3475814 L49.4786279,41.3475814 C49.8907442,41.3475814 50.2928837,41.3015349 50.6819767,41.2178837 C51.3857209,41.3007674 52.1002093,41.3475814 52.8262093,41.3475814 C62.8635814,41.3475814 71,33.2111628 71,23.1737907 C71,13.137186 62.8635814,5 52.8262093,5" fill="#000000" opacity="0.0891694568"></path>
                                <path d="M47.8262093,-2.98427949e-13 C39.1341628,-2.98427949e-13 31.871093,6.10423256 30.0798837,14.2583023 C28.4513721,13.4003023 26.5987674,12.9129767 24.6302791,12.9129767 C18.1592093,12.9129767 12.9129767,18.1592093 12.9129767,24.6302791 C12.9129767,24.7108605 12.9175814,24.789907 12.9191163,24.8697209 L5.73893023,24.8697209 C2.58244186,24.8697209 0,27.4521628 0,30.6086512 C0,33.7651395 2.58244186,36.3475814 5.73893023,36.3475814 L44.4786279,36.3475814 C44.8907442,36.3475814 45.2928837,36.3015349 45.6819767,36.2178837 C46.3857209,36.3007674 47.1002093,36.3475814 47.8262093,36.3475814 C57.8635814,36.3475814 66,28.2111628 66,18.1737907 C66,8.13718605 57.8635814,-2.98427949e-13 47.8262093,-2.98427949e-13" fill="#FFFFFF"></path>
                            </g>
                        </g>
                        <g id="cloud" fill="none" transform="translate(635.000000, 396.000000)" fill-rule="evenodd" stroke-width="1">
                            <g id="Fill-1-Copy-3">
                                <path d="M52.8262093,5 C44.1341628,5 36.871093,11.1042326 35.0798837,19.2583023 C33.4513721,18.4003023 31.5987674,17.9129767 29.6302791,17.9129767 C23.1592093,17.9129767 17.9129767,23.1592093 17.9129767,29.6302791 C17.9129767,29.7108605 17.9175814,29.789907 17.9191163,29.8697209 L10.7389302,29.8697209 C7.58244186,29.8697209 5,32.4521628 5,35.6086512 C5,38.7651395 7.58244186,41.3475814 10.7389302,41.3475814 L49.4786279,41.3475814 C49.8907442,41.3475814 50.2928837,41.3015349 50.6819767,41.2178837 C51.3857209,41.3007674 52.1002093,41.3475814 52.8262093,41.3475814 C62.8635814,41.3475814 71,33.2111628 71,23.1737907 C71,13.137186 62.8635814,5 52.8262093,5" fill="#000000" opacity="0.0891694568"></path>
                                <path d="M47.8262093,-2.98427949e-13 C39.1341628,-2.98427949e-13 31.871093,6.10423256 30.0798837,14.2583023 C28.4513721,13.4003023 26.5987674,12.9129767 24.6302791,12.9129767 C18.1592093,12.9129767 12.9129767,18.1592093 12.9129767,24.6302791 C12.9129767,24.7108605 12.9175814,24.789907 12.9191163,24.8697209 L5.73893023,24.8697209 C2.58244186,24.8697209 0,27.4521628 0,30.6086512 C0,33.7651395 2.58244186,36.3475814 5.73893023,36.3475814 L44.4786279,36.3475814 C44.8907442,36.3475814 45.2928837,36.3015349 45.6819767,36.2178837 C46.3857209,36.3007674 47.1002093,36.3475814 47.8262093,36.3475814 C57.8635814,36.3475814 66,28.2111628 66,18.1737907 C66,8.13718605 57.8635814,-2.98427949e-13 47.8262093,-2.98427949e-13" fill="#FFFFFF"></path>
                            </g>
                        </g>
                        <g id="Group-2" stroke-width="1" fill="none" fill-rule="evenodd" transform="translate(371.000000, 438.000000)">
                            <g id="forest" transform="translate(8.000000, 87.000000)">
                                <g id="tree" transform="translate(9.000000, 0.000000)">
                                    <g id="Triangle-2">
                                        <polygon id="Triangle" fill="#939515" points="7.5 4 15 19 0 19"></polygon>
                                        <polygon id="Triangle" fill="#C9CB28" points="7.5 0 15 15 0 15"></polygon>
                                    </g>
                                </g>
                                <g id="tree" transform="translate(26.000000, 0.000000)">
                                    <g id="Triangle-2">
                                        <polygon id="Triangle" fill="#939515" points="7.5 4 15 19 0 19"></polygon>
                                        <polygon id="Triangle" fill="#C9CB28" points="7.5 0 15 15 0 15"></polygon>
                                    </g>
                                </g>
                                <g id="tree" transform="translate(17.000000, 21.000000)">
                                    <g id="Triangle-2">
                                        <polygon id="Triangle" fill="#939515" points="7.5 4 15 19 0 19"></polygon>
                                        <polygon id="Triangle" fill="#C9CB28" points="7.5 0 15 15 0 15"></polygon>
                                    </g>
                                </g>
                                <g id="tree" transform="translate(0.000000, 21.000000)">
                                    <g id="Triangle-2">
                                        <polygon id="Triangle" fill="#939515" points="7.5 4 15 19 0 19"></polygon>
                                        <polygon id="Triangle" fill="#C9CB28" points="7.5 0 15 15 0 15"></polygon>
                                    </g>
                                </g>
                                <g id="tree" transform="translate(34.000000, 21.000000)">
                                    <g id="Triangle-2">
                                        <polygon id="Triangle" fill="#939515" points="7.5 4 15 19 0 19"></polygon>
                                        <polygon id="Triangle" fill="#C9CB28" points="7.5 0 15 15 0 15"></polygon>
                                    </g>
                                </g>
                            </g>
                            <g id="co2" fill="#6B8192">
                                <g id="molecule">
                                    <g transform="translate(36.000000, 19.000000)">
                                        <circle id="Oval" cx="5.5" cy="5.5" r="3.36111111"></circle>
                                    </g>
                                    <g opacity="0.728143601" transform="translate(0.000000, 38.000000)">
                                        <circle id="Oval" cx="5.5" cy="5.5" r="3.36111111"></circle>
                                    </g>
                                    <g opacity="0.728143601" transform="translate(57.000000, 38.000000)">
                                        <circle id="Oval" cx="5.5" cy="5.5" r="3.36111111"></circle>
                                    </g>
                                    <g opacity="0.269740513" transform="translate(38.000000, 57.000000)">
                                        <circle id="Oval" cx="5.5" cy="5.5" r="3.36111111"></circle>
                                    </g>
                                    <g opacity="0.269740513" transform="translate(19.000000, 57.000000)">
                                        <circle id="Oval" cx="5.5" cy="5.5" r="3.36111111"></circle>
                                    </g>
                                    <g opacity="0.716355097" transform="translate(19.000000, 0.000000)">
                                        <circle id="Oval" cx="5.5" cy="5.5" r="3.36111111"></circle>
                                    </g>
                                </g>
                            </g>
                        </g>
                        <g id="Group-2-Copy" stroke-width="1" fill="none" fill-rule="evenodd" transform="translate(838.000000, 628.000000)">
                            <g id="forest" transform="translate(8.000000, 87.000000)">
                                <g id="tree" transform="translate(9.000000, 0.000000)">
                                    <g id="Triangle-2">
                                        <polygon id="Triangle" fill="#939515" points="7.5 4 15 19 0 19"></polygon>
                                        <polygon id="Triangle" fill="#C9CB28" points="7.5 0 15 15 0 15"></polygon>
                                    </g>
                                </g>
                                <g id="tree" transform="translate(26.000000, 0.000000)">
                                    <g id="Triangle-2">
                                        <polygon id="Triangle" fill="#939515" points="7.5 4 15 19 0 19"></polygon>
                                        <polygon id="Triangle" fill="#C9CB28" points="7.5 0 15 15 0 15"></polygon>
                                    </g>
                                </g>
                                <g id="tree" transform="translate(17.000000, 21.000000)">
                                    <g id="Triangle-2">
                                        <polygon id="Triangle" fill="#939515" points="7.5 4 15 19 0 19"></polygon>
                                        <polygon id="Triangle" fill="#C9CB28" points="7.5 0 15 15 0 15"></polygon>
                                    </g>
                                </g>
                                <g id="tree" transform="translate(0.000000, 21.000000)">
                                    <g id="Triangle-2">
                                        <polygon id="Triangle" fill="#939515" points="7.5 4 15 19 0 19"></polygon>
                                        <polygon id="Triangle" fill="#C9CB28" points="7.5 0 15 15 0 15"></polygon>
                                    </g>
                                </g>
                                <g id="tree" transform="translate(34.000000, 21.000000)">
                                    <g id="Triangle-2">
                                        <polygon id="Triangle" fill="#939515" points="7.5 4 15 19 0 19"></polygon>
                                        <polygon id="Triangle" fill="#C9CB28" points="7.5 0 15 15 0 15"></polygon>
                                    </g>
                                </g>
                            </g>
                            <g id="co2" fill="#6B8192">
                                <g id="molecule">
                                    <g transform="translate(36.000000, 19.000000)">
                                        <circle id="Oval" cx="5.5" cy="5.5" r="3.36111111"></circle>
                                    </g>
                                    <g opacity="0.728143601" transform="translate(0.000000, 38.000000)">
                                        <circle id="Oval" cx="5.5" cy="5.5" r="3.36111111"></circle>
                                    </g>
                                    <g opacity="0.728143601" transform="translate(57.000000, 38.000000)">
                                        <circle id="Oval" cx="5.5" cy="5.5" r="3.36111111"></circle>
                                    </g>
                                    <g opacity="0.269740513" transform="translate(38.000000, 57.000000)">
                                        <circle id="Oval" cx="5.5" cy="5.5" r="3.36111111"></circle>
                                    </g>
                                    <g opacity="0.269740513" transform="translate(19.000000, 57.000000)">
                                        <circle id="Oval" cx="5.5" cy="5.5" r="3.36111111"></circle>
                                    </g>
                                    <g opacity="0.716355097" transform="translate(19.000000, 0.000000)">
                                        <circle id="Oval" cx="5.5" cy="5.5" r="3.36111111"></circle>
                                    </g>
                                </g>
                            </g>
                        </g>
                        <g id="Group-2-Copy-2" stroke-width="1" fill="none" fill-rule="evenodd" transform="translate(405.000000, 667.000000)">
                            <g id="co2" fill="#6B8192">
                                <g id="molecule">
                                    <g transform="translate(36.000000, 19.000000)">
                                        <circle id="Oval" cx="5.5" cy="5.5" r="3.36111111"></circle>
                                    </g>
                                    <g opacity="0.728143601" transform="translate(0.000000, 38.000000)">
                                        <circle id="Oval" cx="5.5" cy="5.5" r="3.36111111"></circle>
                                    </g>
                                    <g opacity="0.728143601" transform="translate(57.000000, 38.000000)">
                                        <circle id="Oval" cx="5.5" cy="5.5" r="3.36111111"></circle>
                                    </g>
                                    <g opacity="0.269740513" transform="translate(38.000000, 57.000000)">
                                        <circle id="Oval" cx="5.5" cy="5.5" r="3.36111111"></circle>
                                    </g>
                                    <g opacity="0.269740513" transform="translate(19.000000, 57.000000)">
                                        <circle id="Oval" cx="5.5" cy="5.5" r="3.36111111"></circle>
                                    </g>
                                    <g opacity="0.716355097" transform="translate(19.000000, 0.000000)">
                                        <circle id="Oval" cx="5.5" cy="5.5" r="3.36111111"></circle>
                                    </g>
                                </g>
                            </g>
                        </g>
                    </g>
                </g>
            </g>
        </g>
    </g>
</svg>