<?xml version="1.0" encoding="UTF-8"?>
<svg width="12px" height="24px" viewBox="0 0 12 24" version="1.1" xmlns="http://www.w3.org/2000/svg" xmlns:xlink="http://www.w3.org/1999/xlink">
    <!-- Generator: Sketch 52.2 (67145) - http://www.bohemiancoding.com/sketch -->
    <title>bookmark_circle_fill [#1242]</title>
    <desc>Created with Sketch.</desc>
    <g id="Page-1" stroke="none" stroke-width="1" fill="none" fill-rule="evenodd">
        <g id="crt-science-v1.1" transform="translate(-779.000000, -2390.000000)" fill="#F57C01">
            <path d="M787.4,2398.40002 C787.4,2399.06242 786.8624,2399.60002 786.2,2399.60002 L783.8,2399.60002 C783.1376,2399.60002 782.6,2399.06242 782.6,2398.40002 L782.6,2396.00001 C782.6,2395.33761 783.1376,2394.80001 783.8,2394.80001 L786.2,2394.80001 C786.8624,2394.80001 787.4,2395.33761 787.4,2396.00001 L787.4,2398.40002 Z M788.6,2390 L781.4,2390 C780.074,2390 779,2391.074 779,2392.4 L779,2412.79765 C779,2413.86685 780.2924,2414.40205 781.0484,2413.64605 L784.1516,2410.54284 C784.6196,2410.07484 785.3804,2410.07484 785.8484,2410.54284 L788.9516,2413.64605 C789.7076,2414.40205 791,2413.86685 791,2412.79765 L791,2392.4 C791,2391.074 789.926,2390 788.6,2390 L788.6,2390 Z" id="bookmark_circle_fill-[#1242]"></path>
        </g>
    </g>
</svg>