<?xml version="1.0" encoding="UTF-8"?>
<svg width="14px" height="20px" viewBox="0 0 14 20" version="1.1" xmlns="http://www.w3.org/2000/svg" xmlns:xlink="http://www.w3.org/1999/xlink">
    <!-- Generator: Sketch 52.2 (67145) - http://www.bohemiancoding.com/sketch -->
    <title>hot_air_balloon [#595]</title>
    <desc>Created with Sketch.</desc>
    <g id="Page-1" stroke="none" stroke-width="1" fill="none" fill-rule="evenodd">
        <g id="crt-landing-page-v1.2" transform="translate(-256.000000, -2704.000000)" fill="#268BD2">
            <path d="M265,2723 C265,2722.448 264.552,2722 264,2722 L262,2722 C261.448,2722 261,2722.448 261,2723 L261,2723 C261,2723.552 261.448,2724 262,2724 L264,2724 C264.552,2724 265,2723.552 265,2723 L265,2723 Z M270,2709.842 C270,2715.239 265.583,2715.05 264.93,2719.159 C264.853,2719.643 264.439,2720 263.949,2720 L261.761,2720 C261.268,2720 260.852,2719.639 260.778,2719.152 C260.152,2715.05 256,2715.234 256,2709.84 C256,2705.551 259.539,2704 262.853,2704 C266.167,2704 270,2705.553 270,2709.842 L270,2709.842 Z" id="hot_air_balloon-[#595]"></path>
        </g>
    </g>
</svg>