<?xml version="1.0" encoding="UTF-8"?>
<svg width="989px" height="562px" viewBox="0 0 989 562" version="1.1" xmlns="http://www.w3.org/2000/svg" xmlns:xlink="http://www.w3.org/1999/xlink">
    <!-- Generator: Sketch 52.2 (67145) - http://www.bohemiancoding.com/sketch -->
    <title>desert flooding 2</title>
    <desc>Created with Sketch.</desc>
    <defs>
        <polygon id="path-1" points="0 0 39 0 39 39 0 39"></polygon>
    </defs>
    <g id="Page-1" stroke="none" stroke-width="1" fill="none" fill-rule="evenodd">
        <g id="desert-flooding" transform="translate(-112.000000, -1006.000000)">
            <rect fill="#F6F6EF" x="0" y="0" width="1200" height="2747"></rect>
            <g id="desert-flooding-3" transform="translate(212.000000, 1106.000000)">
                <g id="desert-flooding-2">
                    <g id="Group-26" stroke-width="1">
                        <polygon id="Fill-1" fill="#E4E4DE" points="12 362 789 362 789 10 12 10"></polygon>
                        <polygon id="Fill-1" fill="#ECE0D1" points="0 352 777 352 777 0 0 0"></polygon>
                        <circle id="Oval" fill="#F9F9E8" cx="104.5" cy="51.5" r="27.5"></circle>
                        <polygon id="Fill-3" fill="#7CA4CA" points="0 190 0 243.999535 0 352 477 352 477 190"></polygon>
                        <path d="M287.419,262.614 L284.961,262.614 C284.856,261.593 284.458,260.598 283.76,259.771 C283.763,259.768 283.765,259.766 283.768,259.763 L285.515,258.016 C285.694,257.836 285.694,257.546 285.515,257.366 C285.335,257.186 285.044,257.186 284.864,257.366 L283.117,259.113 C283.114,259.116 283.111,259.119 283.11,259.122 C282.281,258.429 281.286,258.033 280.266,257.931 L280.266,255.462 C280.266,255.208 280.059,255 279.805,255 C279.551,255 279.345,255.208 279.345,255.462 L279.345,257.923 C278.311,258.001 277.294,258.381 276.447,259.066 L274.748,257.366 C274.567,257.186 274.277,257.186 274.097,257.366 C273.917,257.546 273.917,257.836 274.097,258.016 L275.774,259.695 L273.693,261.776 L272.014,260.099 C271.836,259.919 271.544,259.919 271.364,260.099 C271.184,260.278 271.184,260.569 271.364,260.749 L273.06,262.443 C272.358,263.289 271.963,264.306 271.875,265.347 L269.46,265.347 C269.206,265.347 269,265.553 269,265.807 C269,266.061 269.206,266.267 269.46,266.267 L271.877,266.267 C271.969,267.304 272.367,268.319 273.07,269.16 L271.364,270.866 C271.184,271.045 271.184,271.337 271.364,271.516 C271.544,271.695 271.836,271.695 272.014,271.516 L273.719,269.812 C274.56,270.52 275.575,270.922 276.614,271.017 L276.614,273.421 C276.614,273.675 276.819,273.881 277.074,273.881 C277.201,273.881 277.315,273.829 277.399,273.746 C277.482,273.663 277.533,273.548 277.533,273.421 L277.533,271.02 C278.579,270.934 279.601,270.539 280.451,269.835 L282.131,271.516 C282.311,271.695 282.603,271.695 282.782,271.516 C282.961,271.337 282.961,271.045 282.782,270.866 L281.118,269.201 L283.199,267.12 L284.864,268.783 C285.044,268.964 285.335,268.964 285.515,268.783 C285.694,268.603 285.694,268.313 285.515,268.133 L283.828,266.447 C284.516,265.595 284.898,264.574 284.973,263.535 L287.419,263.535 C287.546,263.535 287.661,263.484 287.744,263.401 C287.827,263.318 287.878,263.202 287.878,263.075 C287.88,262.822 287.673,262.614 287.419,262.614" id="Fill-20-Copy-8" fill="#3E71A3" opacity="0.600000024"></path>
                        <path d="M287.419,292.614 L284.961,292.614 C284.856,291.593 284.458,290.598 283.76,289.771 C283.763,289.768 283.765,289.766 283.768,289.763 L285.515,288.016 C285.694,287.836 285.694,287.546 285.515,287.366 C285.335,287.186 285.044,287.186 284.864,287.366 L283.117,289.113 C283.114,289.116 283.111,289.119 283.11,289.122 C282.281,288.429 281.286,288.033 280.266,287.931 L280.266,285.462 C280.266,285.208 280.059,285 279.805,285 C279.551,285 279.345,285.208 279.345,285.462 L279.345,287.923 C278.311,288.001 277.294,288.381 276.447,289.066 L274.748,287.366 C274.567,287.186 274.277,287.186 274.097,287.366 C273.917,287.546 273.917,287.836 274.097,288.016 L275.774,289.695 L273.693,291.776 L272.014,290.099 C271.836,289.919 271.544,289.919 271.364,290.099 C271.184,290.278 271.184,290.569 271.364,290.749 L273.06,292.443 C272.358,293.289 271.963,294.306 271.875,295.347 L269.46,295.347 C269.206,295.347 269,295.553 269,295.807 C269,296.061 269.206,296.267 269.46,296.267 L271.877,296.267 C271.969,297.304 272.367,298.319 273.07,299.16 L271.364,300.866 C271.184,301.045 271.184,301.337 271.364,301.516 C271.544,301.695 271.836,301.695 272.014,301.516 L273.719,299.812 C274.56,300.52 275.575,300.922 276.614,301.017 L276.614,303.421 C276.614,303.675 276.819,303.881 277.074,303.881 C277.201,303.881 277.315,303.829 277.399,303.746 C277.482,303.663 277.533,303.548 277.533,303.421 L277.533,301.02 C278.579,300.934 279.601,300.539 280.451,299.835 L282.131,301.516 C282.311,301.695 282.603,301.695 282.782,301.516 C282.961,301.337 282.961,301.045 282.782,300.866 L281.118,299.201 L283.199,297.12 L284.864,298.783 C285.044,298.964 285.335,298.964 285.515,298.783 C285.694,298.603 285.694,298.313 285.515,298.133 L283.828,296.447 C284.516,295.595 284.898,294.574 284.973,293.535 L287.419,293.535 C287.546,293.535 287.661,293.484 287.744,293.401 C287.827,293.318 287.878,293.202 287.878,293.075 C287.88,292.822 287.673,292.614 287.419,292.614" id="Fill-20-Copy-8" fill="#3E71A3" opacity="0.600000024"></path>
                        <path d="M287.419,322.614 L284.961,322.614 C284.856,321.593 284.458,320.598 283.76,319.771 C283.763,319.768 283.765,319.766 283.768,319.763 L285.515,318.016 C285.694,317.836 285.694,317.546 285.515,317.366 C285.335,317.186 285.044,317.186 284.864,317.366 L283.117,319.113 C283.114,319.116 283.111,319.119 283.11,319.122 C282.281,318.429 281.286,318.033 280.266,317.931 L280.266,315.462 C280.266,315.208 280.059,315 279.805,315 C279.551,315 279.345,315.208 279.345,315.462 L279.345,317.923 C278.311,318.001 277.294,318.381 276.447,319.066 L274.748,317.366 C274.567,317.186 274.277,317.186 274.097,317.366 C273.917,317.546 273.917,317.836 274.097,318.016 L275.774,319.695 L273.693,321.776 L272.014,320.099 C271.836,319.919 271.544,319.919 271.364,320.099 C271.184,320.278 271.184,320.569 271.364,320.749 L273.06,322.443 C272.358,323.289 271.963,324.306 271.875,325.347 L269.46,325.347 C269.206,325.347 269,325.553 269,325.807 C269,326.061 269.206,326.267 269.46,326.267 L271.877,326.267 C271.969,327.304 272.367,328.319 273.07,329.16 L271.364,330.866 C271.184,331.045 271.184,331.337 271.364,331.516 C271.544,331.695 271.836,331.695 272.014,331.516 L273.719,329.812 C274.56,330.52 275.575,330.922 276.614,331.017 L276.614,333.421 C276.614,333.675 276.819,333.881 277.074,333.881 C277.201,333.881 277.315,333.829 277.399,333.746 C277.482,333.663 277.533,333.548 277.533,333.421 L277.533,331.02 C278.579,330.934 279.601,330.539 280.451,329.835 L282.131,331.516 C282.311,331.695 282.603,331.695 282.782,331.516 C282.961,331.337 282.961,331.045 282.782,330.866 L281.118,329.201 L283.199,327.12 L284.864,328.783 C285.044,328.964 285.335,328.964 285.515,328.783 C285.694,328.603 285.694,328.313 285.515,328.133 L283.828,326.447 C284.516,325.595 284.898,324.574 284.973,323.535 L287.419,323.535 C287.546,323.535 287.661,323.484 287.744,323.401 C287.827,323.318 287.878,323.202 287.878,323.075 C287.88,322.822 287.673,322.614 287.419,322.614" id="Fill-20-Copy-8" fill="#3E71A3" opacity="0.600000024"></path>
                        <path d="M207.419,292.614 L204.961,292.614 C204.856,291.593 204.458,290.598 203.76,289.771 C203.763,289.768 203.765,289.766 203.768,289.763 L205.515,288.016 C205.694,287.836 205.694,287.546 205.515,287.366 C205.335,287.186 205.044,287.186 204.864,287.366 L203.117,289.113 C203.114,289.116 203.111,289.119 203.11,289.122 C202.281,288.429 201.286,288.033 200.266,287.931 L200.266,285.462 C200.266,285.208 200.059,285 199.805,285 C199.551,285 199.345,285.208 199.345,285.462 L199.345,287.923 C198.311,288.001 197.294,288.381 196.447,289.066 L194.748,287.366 C194.567,287.186 194.277,287.186 194.097,287.366 C193.917,287.546 193.917,287.836 194.097,288.016 L195.774,289.695 L193.693,291.776 L192.014,290.099 C191.836,289.919 191.544,289.919 191.364,290.099 C191.184,290.278 191.184,290.569 191.364,290.749 L193.06,292.443 C192.358,293.289 191.963,294.306 191.875,295.347 L189.46,295.347 C189.206,295.347 189,295.553 189,295.807 C189,296.061 189.206,296.267 189.46,296.267 L191.877,296.267 C191.969,297.304 192.367,298.319 193.07,299.16 L191.364,300.866 C191.184,301.045 191.184,301.337 191.364,301.516 C191.544,301.695 191.836,301.695 192.014,301.516 L193.719,299.812 C194.56,300.52 195.575,300.922 196.614,301.017 L196.614,303.421 C196.614,303.675 196.819,303.881 197.074,303.881 C197.201,303.881 197.315,303.829 197.399,303.746 C197.482,303.663 197.533,303.548 197.533,303.421 L197.533,301.02 C198.579,300.934 199.601,300.539 200.451,299.835 L202.131,301.516 C202.311,301.695 202.603,301.695 202.782,301.516 C202.961,301.337 202.961,301.045 202.782,300.866 L201.118,299.201 L203.199,297.12 L204.864,298.783 C205.044,298.964 205.335,298.964 205.515,298.783 C205.694,298.603 205.694,298.313 205.515,298.133 L203.828,296.447 C204.516,295.595 204.898,294.574 204.973,293.535 L207.419,293.535 C207.546,293.535 207.661,293.484 207.744,293.401 C207.827,293.318 207.878,293.202 207.878,293.075 C207.88,292.822 207.673,292.614 207.419,292.614" id="Fill-20-Copy-8" fill="#3E71A3" opacity="0.600000024"></path>
                        <polygon id="Fill-4" fill="#6290B1" points="0 249 0 352 161 352 139.045612 329.928223 139.045612 315.213937 109.773326 285.785366 65.8638568 285.785366 29.2729792 249"></polygon>
                        <g id="Group-25" transform="translate(29.000000, 55.000000)">
                            <circle id="Oval" fill="#7CA4CA" cx="609" cy="40" r="5"></circle>
                            <circle id="Oval" fill="#7CA4CA" cx="609" cy="57" r="5"></circle>
                            <polygon id="Fill-7" fill="#51728C" points="234.939973 194.096753 264.285855 194.096753 264.285855 135.403489 234.939973 135.403489"></polygon>
                            <polygon id="Fill-9" fill="#827460" points="328.748018 135.402795 332.221232 135.402795 332.221232 10.6791761 328.748018 10.6791761"></polygon>
                            <path d="M330.484486,296.810415 L330.484486,135.719494" id="Stroke-10" stroke="#51728C" stroke-width="5"></path>
                            <polygon id="Fill-11" fill="#827460" points="548.84005 57.3100105 552.313264 57.3100105 552.313264 0.922849525 548.84005 0.922849525"></polygon>
                            <polygon id="Fill-12" fill="#827460" points="475.476039 56.3100105 478.949254 56.3100105 478.949254 6.92284952 475.476039 6.92284952"></polygon>
                            <polygon id="Fill-13" fill="#827460" points="402.112029 192.146817 405.585243 192.146817 405.585243 0.922849525 402.112029 0.922849525"></polygon>
                            <path d="M234.502059,135.523069 L223.009193,123.894313 C221.080864,121.943683 220,119.311583 220,116.569031 L220,95.819273 C220,93.0551858 221.09823,90.4050242 223.052261,88.4509208 L234.502059,77 L264.018823,77 L275.596436,88.4439742 C277.576863,90.4015509 278.69107,93.0704685 278.69107,95.8547011 L278.69107,116.498174 C278.69107,119.282407 277.576863,121.951325 275.59713,123.908901 L263.847941,135.523069 L234.502059,135.523069 Z" id="Fill-14" fill="#BCC1C1"></path>
                            <g id="Group-3" transform="translate(230.000000, 87.000000)">
                                <mask id="mask-2" fill="white">
                                    <use xlink:href="#path-1"></use>
                                </mask>
                                <g id="Clip-2"></g>
                                <path d="M16.3965626,22.6035171 C14.6795248,20.8864793 14.6795248,18.102514 16.3965626,16.385556 C18.1136004,14.6685182 20.8975657,14.6685182 22.6146035,16.385556 C24.3316414,18.102514 24.3316414,20.8864793 22.6146035,22.6035171 C20.8975657,24.320555 18.1136004,24.320555 16.3965626,22.6035171 M33.2883449,33.2318759 L30.5870092,30.53062 L30.5587747,30.5023058 L30.53062,30.4742309 L27.8292844,27.7728155 L27.8010499,27.744581 L27.7728952,27.7163466 L25.0715596,25.0150907 C26.5710964,23.5003998 27.3257699,21.5217546 27.3357397,19.5399191 L31.1624657,19.5399191 L31.2023449,19.5399191 L31.2423038,19.5399191 L35.0634467,19.5399191 L35.1033259,19.5399191 L35.1431253,19.5399191 L38.9642683,19.5399191 L39,19.5399191 L39,19.4601607 L38.9642683,19.4601607 C38.9539794,14.2934146 36.939443,9.43405723 33.2882651,5.76820382 L33.3164198,5.73996936 L33.3168186,5.73965033 L33.2888234,5.71173491 L33.2885841,5.71149563 C33.2885044,5.71133612 33.2883449,5.71125636 33.2882651,5.7111766 L33.2604294,5.68326118 L33.2600306,5.68358021 L33.2317962,5.71181467 L30.5305403,8.41315031 L30.5023058,8.44138477 L30.4741511,8.46953947 L27.7728155,11.1707954 L27.744581,11.1990298 L27.7164263,11.2271845 L25.0151704,13.9285202 C23.5003998,12.4290631 21.5218344,11.6743098 19.5399191,11.6642603 L19.5398393,7.83753428 L19.5398393,7.7976551 L19.5398393,7.75777593 L19.5398393,3.93655325 L19.5398393,3.89675384 L19.5398393,3.85687466 L19.5398393,0.035731742 L19.5398393,0 L19.4600809,0 L19.4600809,0.035731742 C14.2932551,0.0459408111 9.43389771,2.06047728 5.76812406,5.71165515 L5.73996936,5.68342069 L5.73957057,5.68310166 L5.71165515,5.71101708 L5.71133612,5.71133612 L5.71109684,5.71157539 L5.68318142,5.73957057 L5.68358021,5.73980985 L5.71173491,5.7680443 L8.4129908,8.46937995 L8.44130501,8.49761441 L8.46937995,8.52576911 L11.1707954,11.2271048 L11.1990298,11.2553392 L11.2271845,11.2834939 L13.9285999,13.9848296 C12.4290631,15.4995204 11.6743098,17.4781656 11.66434,19.4600809 L7.83761404,19.4600809 L7.7976551,19.4600809 L7.75777593,19.4600809 L3.93663301,19.4600012 L3.89675384,19.4600012 L3.85687466,19.4600012 L0.035731742,19.4600012 L0,19.4600012 L0,19.4998804 L0,19.5397595 L0.035731742,19.5397595 C0.0460205695,24.7065056 2.06055704,29.5659428 5.71181467,33.2317962 L5.68365997,33.2599509 L5.68334093,33.2603497 L5.73973009,33.3167388 L5.74012888,33.31634 L5.76820382,33.2882651 L8.46953947,30.5869294 L8.49777392,30.558695 L8.52592862,30.5305403 L11.2271845,27.8292844 L11.2554987,27.8009702 L11.2836534,27.7728155 L13.9849891,25.0714798 C15.4996002,26.5710166 17.4783252,27.3257699 19.4602405,27.3357397 L19.4602405,31.162386 L19.4602405,31.2023449 L19.4602405,31.2422241 L19.4602405,35.063367 L19.4602405,35.1033259 L19.4602405,35.1432051 L19.4602405,38.9642683 L19.4602405,39 L19.5001196,39 L19.5399988,39 L19.5399988,38.9642683 C24.7067449,38.9539794 29.5661023,36.9395227 33.2319557,33.2882651 C33.2413672,33.2789334 33.2510179,33.2698409 33.2604294,33.2604294 C33.2699207,33.2510179 33.2789334,33.2412874 33.2883449,33.2318759" id="Fill-1" fill="#93A0A2" mask="url(#mask-2)"></path>
                            </g>
                            <polygon id="Fill-15" fill="#D7BF9A" points="726.651047 69.3728562 667.959977 69.3728562 653.287036 84.0463457 594.595967 84.0463457 565.24939 54.6993667 462.540192 54.6993667 418.521368 98.7198352 418.521368 113.39263 748.660806 113.39263 748.660806 91.3834378"></polygon>
                            <polygon id="Fill-16" fill="#7B9955" points="521.23147 54.6993667 521.23147 113.39263 726.651255 113.39263 726.651255 69.3728562 667.960186 69.3728562 653.28655 84.0463457 594.59548 84.0463457 565.249598 54.6993667"></polygon>
                            <polygon id="Fill-17" fill="#7CA4CA" points="667.959838 69.3728562 579.922887 69.3728562 594.595828 84.0463457 653.286897 84.0463457"></polygon>
                            <g id="trees" transform="translate(681.000000, 40.000000)">
                                <g id="Group">
                                    <polygon id="Fill-18" fill="#77A858" points="0.563029464 29.3728562 7.89915268 7.36227464 15.2359705 29.3728562 7.89915268 29.3728562"></polygon>
                                    <polygon id="Fill-19" fill="#77A858" points="15.2359705 29.3728562 22.5727884 7.36227464 29.9089116 29.3728562 22.5727884 29.3728562"></polygon>
                                    <polygon id="Fill-20" fill="#89BC68" points="15.2359705 0.0261550889 7.89915268 29.3731341 22.5727884 29.3731341"></polygon>
                                </g>
                            </g>
                            <polygon id="Fill-21" fill="#DFCFB6" points="0.0291944643 135.719842 29.6063927 106.141538 58.9515802 106.141538 73.7099623 91.3832989 103.05515 91.3832989 147.073973 135.403073"></polygon>
                            <polygon id="Fill-22" fill="#C6B08D" points="418.520882 135.403489 748.66032 135.403489 748.66032 113.392908 418.520882 113.392908"></polygon>
                            <polygon id="Fill-23" fill="#6290B1" points="418.521299 135.403073 418.521299 142.740165 352.493411 208.769826 337.821165 208.769826 293.802342 252.789599 293.802342 296.810763 748.660736 296.810763 748.660736 135.403073"></polygon>
                            <polygon id="Fill-24" fill="#567F99" points="411.185176 296.810415 506.558251 201.433081 543.240256 238.117152 565.091636 216.264955 594.595897 245.452855 623.941085 245.452855 675.296031 296.810415"></polygon>
                        </g>
                        <g id="Group-Copy-3" transform="translate(48.000000, 66.000000)">
                            <path d="M36.2319767,4 C29.647093,4 24.1453488,8.70174401 22.7877907,14.983151 C21.5546512,14.3227904 20.1505814,13.947384 18.6593023,13.947384 C13.7569767,13.947384 9.78255814,17.9887674 9.78255814,22.973692 C9.78255814,23.0357671 9.78604651,23.0966598 9.7872093,23.1581437 L4.34767442,23.1581437 C1.95639535,23.1581437 0,25.1475022 0,27.5790718 C0,30.0106414 1.95639535,32 4.34767442,32 L33.6959302,32 C34.0087209,32 34.3127907,31.9645285 34.6075581,31.8994975 C35.1406977,31.9633461 35.6819767,32 36.2319767,32 C43.8360465,32 50,25.7321904 50,18 C50,10.2678096 43.8360465,4 36.2319767,4" id="Fill-6" fill="#000000" opacity="0.0700000003"></path>
                            <path d="M36.2319767,0 C29.647093,0 24.1453488,4.70174401 22.7877907,10.983151 C21.5546512,10.3227904 20.1505814,9.94738398 18.6593023,9.94738398 C13.7569767,9.94738398 9.78255814,13.9887674 9.78255814,18.973692 C9.78255814,19.0357671 9.78604651,19.0966598 9.7872093,19.1581437 L4.34767442,19.1581437 C1.95639535,19.1581437 0,21.1475022 0,23.5790718 C0,26.0106414 1.95639535,28 4.34767442,28 L33.6959302,28 C34.0087209,28 34.3127907,27.9645285 34.6075581,27.8994975 C35.1406977,27.9633461 35.6819767,28 36.2319767,28 C43.8360465,28 50,21.7321904 50,14 C50,6.26840083 43.8360465,0 36.2319767,0" id="Fill-8" fill="#FFFFFF"></path>
                        </g>
                        <g id="Group-Copy-4" transform="translate(704.000000, 14.000000)">
                            <path d="M36.2319767,4 C29.647093,4 24.1453488,8.70174401 22.7877907,14.983151 C21.5546512,14.3227904 20.1505814,13.947384 18.6593023,13.947384 C13.7569767,13.947384 9.78255814,17.9887674 9.78255814,22.973692 C9.78255814,23.0357671 9.78604651,23.0966598 9.7872093,23.1581437 L4.34767442,23.1581437 C1.95639535,23.1581437 0,25.1475022 0,27.5790718 C0,30.0106414 1.95639535,32 4.34767442,32 L33.6959302,32 C34.0087209,32 34.3127907,31.9645285 34.6075581,31.8994975 C35.1406977,31.9633461 35.6819767,32 36.2319767,32 C43.8360465,32 50,25.7321904 50,18 C50,10.2678096 43.8360465,4 36.2319767,4" id="Fill-6" fill="#000000" opacity="0.0700000003"></path>
                            <path d="M36.2319767,0 C29.647093,0 24.1453488,4.70174401 22.7877907,10.983151 C21.5546512,10.3227904 20.1505814,9.94738398 18.6593023,9.94738398 C13.7569767,9.94738398 9.78255814,13.9887674 9.78255814,18.973692 C9.78255814,19.0357671 9.78604651,19.0966598 9.7872093,19.1581437 L4.34767442,19.1581437 C1.95639535,19.1581437 0,21.1475022 0,23.5790718 C0,26.0106414 1.95639535,28 4.34767442,28 L33.6959302,28 C34.0087209,28 34.3127907,27.9645285 34.6075581,27.8994975 C35.1406977,27.9633461 35.6819767,28 36.2319767,28 C43.8360465,28 50,21.7321904 50,14 C50,6.26840083 43.8360465,0 36.2319767,0" id="Fill-8" fill="#FFFFFF"></path>
                        </g>
                        <path d="M141.419,243.614 L138.961,243.614 C138.856,242.593 138.458,241.598 137.76,240.771 C137.763,240.768 137.765,240.766 137.768,240.763 L139.515,239.016 C139.694,238.836 139.694,238.546 139.515,238.366 C139.335,238.186 139.044,238.186 138.864,238.366 L137.117,240.113 C137.114,240.116 137.111,240.119 137.11,240.122 C136.281,239.429 135.286,239.033 134.266,238.931 L134.266,236.462 C134.266,236.208 134.059,236 133.805,236 C133.551,236 133.345,236.208 133.345,236.462 L133.345,238.923 C132.311,239.001 131.294,239.381 130.447,240.066 L128.748,238.366 C128.567,238.186 128.277,238.186 128.097,238.366 C127.917,238.546 127.917,238.836 128.097,239.016 L129.774,240.695 L127.693,242.776 L126.014,241.099 C125.836,240.919 125.544,240.919 125.364,241.099 C125.184,241.278 125.184,241.569 125.364,241.749 L127.06,243.443 C126.358,244.289 125.963,245.306 125.875,246.347 L123.46,246.347 C123.206,246.347 123,246.553 123,246.807 C123,247.061 123.206,247.267 123.46,247.267 L125.877,247.267 C125.969,248.304 126.367,249.319 127.07,250.16 L125.364,251.866 C125.184,252.045 125.184,252.337 125.364,252.516 C125.544,252.695 125.836,252.695 126.014,252.516 L127.719,250.812 C128.56,251.52 129.575,251.922 130.614,252.017 L130.614,254.421 C130.614,254.675 130.819,254.881 131.074,254.881 C131.201,254.881 131.315,254.829 131.399,254.746 C131.482,254.663 131.533,254.548 131.533,254.421 L131.533,252.02 C132.579,251.934 133.601,251.539 134.451,250.835 L136.131,252.516 C136.311,252.695 136.603,252.695 136.782,252.516 C136.961,252.337 136.961,252.045 136.782,251.866 L135.118,250.201 L137.199,248.12 L138.864,249.783 C139.044,249.964 139.335,249.964 139.515,249.783 C139.694,249.603 139.694,249.313 139.515,249.133 L137.828,247.447 C138.516,246.595 138.898,245.574 138.973,244.535 L141.419,244.535 C141.546,244.535 141.661,244.484 141.744,244.401 C141.827,244.318 141.878,244.202 141.878,244.075 C141.88,243.822 141.673,243.614 141.419,243.614" id="Fill-20-Copy-8" fill="#3E71A3" opacity="0.600000024"></path>
                        <path d="M338.419,223.614 L335.961,223.614 C335.856,222.593 335.458,221.598 334.76,220.771 C334.763,220.768 334.765,220.766 334.768,220.763 L336.515,219.016 C336.694,218.836 336.694,218.546 336.515,218.366 C336.335,218.186 336.044,218.186 335.864,218.366 L334.117,220.113 C334.114,220.116 334.111,220.119 334.11,220.122 C333.281,219.429 332.286,219.033 331.266,218.931 L331.266,216.462 C331.266,216.208 331.059,216 330.805,216 C330.551,216 330.345,216.208 330.345,216.462 L330.345,218.923 C329.311,219.001 328.294,219.381 327.447,220.066 L325.748,218.366 C325.567,218.186 325.277,218.186 325.097,218.366 C324.917,218.546 324.917,218.836 325.097,219.016 L326.774,220.695 L324.693,222.776 L323.014,221.099 C322.836,220.919 322.544,220.919 322.364,221.099 C322.184,221.278 322.184,221.569 322.364,221.749 L324.06,223.443 C323.358,224.289 322.963,225.306 322.875,226.347 L320.46,226.347 C320.206,226.347 320,226.553 320,226.807 C320,227.061 320.206,227.267 320.46,227.267 L322.877,227.267 C322.969,228.304 323.367,229.319 324.07,230.16 L322.364,231.866 C322.184,232.045 322.184,232.337 322.364,232.516 C322.544,232.695 322.836,232.695 323.014,232.516 L324.719,230.812 C325.56,231.52 326.575,231.922 327.614,232.017 L327.614,234.421 C327.614,234.675 327.819,234.881 328.074,234.881 C328.201,234.881 328.315,234.829 328.399,234.746 C328.482,234.663 328.533,234.548 328.533,234.421 L328.533,232.02 C329.579,231.934 330.601,231.539 331.451,230.835 L333.131,232.516 C333.311,232.695 333.603,232.695 333.782,232.516 C333.961,232.337 333.961,232.045 333.782,231.866 L332.118,230.201 L334.199,228.12 L335.864,229.783 C336.044,229.964 336.335,229.964 336.515,229.783 C336.694,229.603 336.694,229.313 336.515,229.133 L334.828,227.447 C335.516,226.595 335.898,225.574 335.973,224.535 L338.419,224.535 C338.546,224.535 338.661,224.484 338.744,224.401 C338.827,224.318 338.878,224.202 338.878,224.075 C338.88,223.822 338.673,223.614 338.419,223.614" id="Fill-20-Copy-13" fill="#3E71A3" opacity="0.600000024"></path>
                        <path d="M424.419,251.614 L421.961,251.614 C421.856,250.593 421.458,249.598 420.76,248.771 C420.763,248.768 420.765,248.766 420.768,248.763 L422.515,247.016 C422.694,246.836 422.694,246.546 422.515,246.366 C422.335,246.186 422.044,246.186 421.864,246.366 L420.117,248.113 C420.114,248.116 420.111,248.119 420.11,248.122 C419.281,247.429 418.286,247.033 417.266,246.931 L417.266,244.462 C417.266,244.208 417.059,244 416.805,244 C416.551,244 416.345,244.208 416.345,244.462 L416.345,246.923 C415.311,247.001 414.294,247.381 413.447,248.066 L411.748,246.366 C411.567,246.186 411.277,246.186 411.097,246.366 C410.917,246.546 410.917,246.836 411.097,247.016 L412.774,248.695 L410.693,250.776 L409.014,249.099 C408.836,248.919 408.544,248.919 408.364,249.099 C408.184,249.278 408.184,249.569 408.364,249.749 L410.06,251.443 C409.358,252.289 408.963,253.306 408.875,254.347 L406.46,254.347 C406.206,254.347 406,254.553 406,254.807 C406,255.061 406.206,255.267 406.46,255.267 L408.877,255.267 C408.969,256.304 409.367,257.319 410.07,258.16 L408.364,259.866 C408.184,260.045 408.184,260.337 408.364,260.516 C408.544,260.695 408.836,260.695 409.014,260.516 L410.719,258.812 C411.56,259.52 412.575,259.922 413.614,260.017 L413.614,262.421 C413.614,262.675 413.819,262.881 414.074,262.881 C414.201,262.881 414.315,262.829 414.399,262.746 C414.482,262.663 414.533,262.548 414.533,262.421 L414.533,260.02 C415.579,259.934 416.601,259.539 417.451,258.835 L419.131,260.516 C419.311,260.695 419.603,260.695 419.782,260.516 C419.961,260.337 419.961,260.045 419.782,259.866 L418.118,258.201 L420.199,256.12 L421.864,257.783 C422.044,257.964 422.335,257.964 422.515,257.783 C422.694,257.603 422.694,257.313 422.515,257.133 L420.828,255.447 C421.516,254.595 421.898,253.574 421.973,252.535 L424.419,252.535 C424.546,252.535 424.661,252.484 424.744,252.401 C424.827,252.318 424.878,252.202 424.878,252.075 C424.88,251.822 424.673,251.614 424.419,251.614" id="Fill-20-Copy-14" fill="#3E71A3" opacity="0.600000024"></path>
                        <path d="M544.419,237.614 L541.961,237.614 C541.856,236.593 541.458,235.598 540.76,234.771 C540.763,234.768 540.765,234.766 540.768,234.763 L542.515,233.016 C542.694,232.836 542.694,232.546 542.515,232.366 C542.335,232.186 542.044,232.186 541.864,232.366 L540.117,234.113 C540.114,234.116 540.111,234.119 540.11,234.122 C539.281,233.429 538.286,233.033 537.266,232.931 L537.266,230.462 C537.266,230.208 537.059,230 536.805,230 C536.551,230 536.345,230.208 536.345,230.462 L536.345,232.923 C535.311,233.001 534.294,233.381 533.447,234.066 L531.748,232.366 C531.567,232.186 531.277,232.186 531.097,232.366 C530.917,232.546 530.917,232.836 531.097,233.016 L532.774,234.695 L530.693,236.776 L529.014,235.099 C528.836,234.919 528.544,234.919 528.364,235.099 C528.184,235.278 528.184,235.569 528.364,235.749 L530.06,237.443 C529.358,238.289 528.963,239.306 528.875,240.347 L526.46,240.347 C526.206,240.347 526,240.553 526,240.807 C526,241.061 526.206,241.267 526.46,241.267 L528.877,241.267 C528.969,242.304 529.367,243.319 530.07,244.16 L528.364,245.866 C528.184,246.045 528.184,246.337 528.364,246.516 C528.544,246.695 528.836,246.695 529.014,246.516 L530.719,244.812 C531.56,245.52 532.575,245.922 533.614,246.017 L533.614,248.421 C533.614,248.675 533.819,248.881 534.074,248.881 C534.201,248.881 534.315,248.829 534.399,248.746 C534.482,248.663 534.533,248.548 534.533,248.421 L534.533,246.02 C535.579,245.934 536.601,245.539 537.451,244.835 L539.131,246.516 C539.311,246.695 539.603,246.695 539.782,246.516 C539.961,246.337 539.961,246.045 539.782,245.866 L538.118,244.201 L540.199,242.12 L541.864,243.783 C542.044,243.964 542.335,243.964 542.515,243.783 C542.694,243.603 542.694,243.313 542.515,243.133 L540.828,241.447 C541.516,240.595 541.898,239.574 541.973,238.535 L544.419,238.535 C544.546,238.535 544.661,238.484 544.744,238.401 C544.827,238.318 544.878,238.202 544.878,238.075 C544.88,237.822 544.673,237.614 544.419,237.614" id="Fill-20-Copy-15" fill="#3E71A3" opacity="0.600000024"></path>
                        <path d="M637.419,266.614 L634.961,266.614 C634.856,265.593 634.458,264.598 633.76,263.771 C633.763,263.768 633.765,263.766 633.768,263.763 L635.515,262.016 C635.694,261.836 635.694,261.546 635.515,261.366 C635.335,261.186 635.044,261.186 634.864,261.366 L633.117,263.113 C633.114,263.116 633.111,263.119 633.11,263.122 C632.281,262.429 631.286,262.033 630.266,261.931 L630.266,259.462 C630.266,259.208 630.059,259 629.805,259 C629.551,259 629.345,259.208 629.345,259.462 L629.345,261.923 C628.311,262.001 627.294,262.381 626.447,263.066 L624.748,261.366 C624.567,261.186 624.277,261.186 624.097,261.366 C623.917,261.546 623.917,261.836 624.097,262.016 L625.774,263.695 L623.693,265.776 L622.014,264.099 C621.836,263.919 621.544,263.919 621.364,264.099 C621.184,264.278 621.184,264.569 621.364,264.749 L623.06,266.443 C622.358,267.289 621.963,268.306 621.875,269.347 L619.46,269.347 C619.206,269.347 619,269.553 619,269.807 C619,270.061 619.206,270.267 619.46,270.267 L621.877,270.267 C621.969,271.304 622.367,272.319 623.07,273.16 L621.364,274.866 C621.184,275.045 621.184,275.337 621.364,275.516 C621.544,275.695 621.836,275.695 622.014,275.516 L623.719,273.812 C624.56,274.52 625.575,274.922 626.614,275.017 L626.614,277.421 C626.614,277.675 626.819,277.881 627.074,277.881 C627.201,277.881 627.315,277.829 627.399,277.746 C627.482,277.663 627.533,277.548 627.533,277.421 L627.533,275.02 C628.579,274.934 629.601,274.539 630.451,273.835 L632.131,275.516 C632.311,275.695 632.603,275.695 632.782,275.516 C632.961,275.337 632.961,275.045 632.782,274.866 L631.118,273.201 L633.199,271.12 L634.864,272.783 C635.044,272.964 635.335,272.964 635.515,272.783 C635.694,272.603 635.694,272.313 635.515,272.133 L633.828,270.447 C634.516,269.595 634.898,268.574 634.973,267.535 L637.419,267.535 C637.546,267.535 637.661,267.484 637.744,267.401 C637.827,267.318 637.878,267.202 637.878,267.075 C637.88,266.822 637.673,266.614 637.419,266.614" id="Fill-20-Copy-16" fill="#3E71A3" opacity="0.600000024"></path>
                        <path d="M728.419,237.614 L725.961,237.614 C725.856,236.593 725.458,235.598 724.76,234.771 C724.763,234.768 724.765,234.766 724.768,234.763 L726.515,233.016 C726.694,232.836 726.694,232.546 726.515,232.366 C726.335,232.186 726.044,232.186 725.864,232.366 L724.117,234.113 C724.114,234.116 724.111,234.119 724.11,234.122 C723.281,233.429 722.286,233.033 721.266,232.931 L721.266,230.462 C721.266,230.208 721.059,230 720.805,230 C720.551,230 720.345,230.208 720.345,230.462 L720.345,232.923 C719.311,233.001 718.294,233.381 717.447,234.066 L715.748,232.366 C715.567,232.186 715.277,232.186 715.097,232.366 C714.917,232.546 714.917,232.836 715.097,233.016 L716.774,234.695 L714.693,236.776 L713.014,235.099 C712.836,234.919 712.544,234.919 712.364,235.099 C712.184,235.278 712.184,235.569 712.364,235.749 L714.06,237.443 C713.358,238.289 712.963,239.306 712.875,240.347 L710.46,240.347 C710.206,240.347 710,240.553 710,240.807 C710,241.061 710.206,241.267 710.46,241.267 L712.877,241.267 C712.969,242.304 713.367,243.319 714.07,244.16 L712.364,245.866 C712.184,246.045 712.184,246.337 712.364,246.516 C712.544,246.695 712.836,246.695 713.014,246.516 L714.719,244.812 C715.56,245.52 716.575,245.922 717.614,246.017 L717.614,248.421 C717.614,248.675 717.819,248.881 718.074,248.881 C718.201,248.881 718.315,248.829 718.399,248.746 C718.482,248.663 718.533,248.548 718.533,248.421 L718.533,246.02 C719.579,245.934 720.601,245.539 721.451,244.835 L723.131,246.516 C723.311,246.695 723.603,246.695 723.782,246.516 C723.961,246.337 723.961,246.045 723.782,245.866 L722.118,244.201 L724.199,242.12 L725.864,243.783 C726.044,243.964 726.335,243.964 726.515,243.783 C726.694,243.603 726.694,243.313 726.515,243.133 L724.828,241.447 C725.516,240.595 725.898,239.574 725.973,238.535 L728.419,238.535 C728.546,238.535 728.661,238.484 728.744,238.401 C728.827,238.318 728.878,238.202 728.878,238.075 C728.88,237.822 728.673,237.614 728.419,237.614" id="Fill-20-Copy-17" fill="#3E71A3" opacity="0.600000024"></path>
                        <path d="M760.419,308.614 L757.961,308.614 C757.856,307.593 757.458,306.598 756.76,305.771 C756.763,305.768 756.765,305.766 756.768,305.763 L758.515,304.016 C758.694,303.836 758.694,303.546 758.515,303.366 C758.335,303.186 758.044,303.186 757.864,303.366 L756.117,305.113 C756.114,305.116 756.111,305.119 756.11,305.122 C755.281,304.429 754.286,304.033 753.266,303.931 L753.266,301.462 C753.266,301.208 753.059,301 752.805,301 C752.551,301 752.345,301.208 752.345,301.462 L752.345,303.923 C751.311,304.001 750.294,304.381 749.447,305.066 L747.748,303.366 C747.567,303.186 747.277,303.186 747.097,303.366 C746.917,303.546 746.917,303.836 747.097,304.016 L748.774,305.695 L746.693,307.776 L745.014,306.099 C744.836,305.919 744.544,305.919 744.364,306.099 C744.184,306.278 744.184,306.569 744.364,306.749 L746.06,308.443 C745.358,309.289 744.963,310.306 744.875,311.347 L742.46,311.347 C742.206,311.347 742,311.553 742,311.807 C742,312.061 742.206,312.267 742.46,312.267 L744.877,312.267 C744.969,313.304 745.367,314.319 746.07,315.16 L744.364,316.866 C744.184,317.045 744.184,317.337 744.364,317.516 C744.544,317.695 744.836,317.695 745.014,317.516 L746.719,315.812 C747.56,316.52 748.575,316.922 749.614,317.017 L749.614,319.421 C749.614,319.675 749.819,319.881 750.074,319.881 C750.201,319.881 750.315,319.829 750.399,319.746 C750.482,319.663 750.533,319.548 750.533,319.421 L750.533,317.02 C751.579,316.934 752.601,316.539 753.451,315.835 L755.131,317.516 C755.311,317.695 755.603,317.695 755.782,317.516 C755.961,317.337 755.961,317.045 755.782,316.866 L754.118,315.201 L756.199,313.12 L757.864,314.783 C758.044,314.964 758.335,314.964 758.515,314.783 C758.694,314.603 758.694,314.313 758.515,314.133 L756.828,312.447 C757.516,311.595 757.898,310.574 757.973,309.535 L760.419,309.535 C760.546,309.535 760.661,309.484 760.744,309.401 C760.827,309.318 760.878,309.202 760.878,309.075 C760.88,308.822 760.673,308.614 760.419,308.614" id="Fill-20-Copy-18" fill="#3E71A3" opacity="0.600000024"></path>
                        <path d="M57.419,232.614 L54.961,232.614 C54.856,231.593 54.458,230.598 53.76,229.771 C53.763,229.768 53.765,229.766 53.768,229.763 L55.515,228.016 C55.694,227.836 55.694,227.546 55.515,227.366 C55.335,227.186 55.044,227.186 54.864,227.366 L53.117,229.113 C53.114,229.116 53.111,229.119 53.11,229.122 C52.281,228.429 51.286,228.033 50.266,227.931 L50.266,225.462 C50.266,225.208 50.059,225 49.805,225 C49.551,225 49.345,225.208 49.345,225.462 L49.345,227.923 C48.311,228.001 47.294,228.381 46.447,229.066 L44.748,227.366 C44.567,227.186 44.277,227.186 44.097,227.366 C43.917,227.546 43.917,227.836 44.097,228.016 L45.774,229.695 L43.693,231.776 L42.014,230.099 C41.836,229.919 41.544,229.919 41.364,230.099 C41.184,230.278 41.184,230.569 41.364,230.749 L43.06,232.443 C42.358,233.289 41.963,234.306 41.875,235.347 L39.46,235.347 C39.206,235.347 39,235.553 39,235.807 C39,236.061 39.206,236.267 39.46,236.267 L41.877,236.267 C41.969,237.304 42.367,238.319 43.07,239.16 L41.364,240.866 C41.184,241.045 41.184,241.337 41.364,241.516 C41.544,241.695 41.836,241.695 42.014,241.516 L43.719,239.812 C44.56,240.52 45.575,240.922 46.614,241.017 L46.614,243.421 C46.614,243.675 46.819,243.881 47.074,243.881 C47.201,243.881 47.315,243.829 47.399,243.746 C47.482,243.663 47.533,243.548 47.533,243.421 L47.533,241.02 C48.579,240.934 49.601,240.539 50.451,239.835 L52.131,241.516 C52.311,241.695 52.603,241.695 52.782,241.516 C52.961,241.337 52.961,241.045 52.782,240.866 L51.118,239.201 L53.199,237.12 L54.864,238.783 C55.044,238.964 55.335,238.964 55.515,238.783 C55.694,238.603 55.694,238.313 55.515,238.133 L53.828,236.447 C54.516,235.595 54.898,234.574 54.973,233.535 L57.419,233.535 C57.546,233.535 57.661,233.484 57.744,233.401 C57.827,233.318 57.878,233.202 57.878,233.075 C57.88,232.822 57.673,232.614 57.419,232.614" id="Fill-20-Copy-8" fill="#3E71A3" opacity="0.600000024"></path>
                    </g>
                    <path d="M655,80 L621,80 L627.422537,62.6591494 C627.997987,61.1054364 627.204947,59.3794094 625.651234,58.8039601 C625.290508,58.6703577 624.907453,58.607377 624.522939,58.6184494 L301.740945,67.9132189 C296.873282,68.0533872 293,72.0398093 293,76.9094898 L293,132 L264,132 L264,74.5251744 C264,57.4043472 277.879173,43.5251744 295,43.5251744 C295.173585,43.5251744 295.347166,43.5266324 295.520727,43.5295482 L634.240093,49.2200336 C641.236552,49.3375741 647.344986,53.9879231 649.320476,60.7007238 L655,80 Z" id="Combined-Shape" fill="#CBD2D7"></path>
                </g>
            </g>
        </g>
    </g>
</svg>