<?xml version="1.0" encoding="UTF-8"?>
<svg width="790px" height="379px" viewBox="0 0 790 379" version="1.1" xmlns="http://www.w3.org/2000/svg" xmlns:xlink="http://www.w3.org/1999/xlink">
    <!-- Generator: Sketch 52.2 (67145) - http://www.bohemiancoding.com/sketch -->
    <title>ill-phyto-2</title>
    <desc>Created with Sketch.</desc>
    <defs>
        <rect id="path-1" x="0" y="0" width="780" height="369"></rect>
        <rect id="path-3" x="0" y="0" width="780" height="231"></rect>
        <rect id="path-5" x="0" y="0" width="255" height="355"></rect>
        <rect id="path-7" x="0" y="0" width="477" height="217"></rect>
        <rect id="path-9" x="0" y="0" width="242" height="98"></rect>
    </defs>
    <g id="Page-1" stroke="none" stroke-width="1" fill="none" fill-rule="evenodd">
        <g id="ocean-phytoplankton" transform="translate(-210.000000, -1599.000000)">
            <g id="ill-phyto-2" transform="translate(210.000000, 1599.000000)">
                <g id="Group-14-Copy">
                    <rect id="Rectangle" fill="#000000" opacity="0.0711495536" x="10" y="10" width="780" height="369"></rect>
                    <g id="Group-13">
                        <g id="Group-12">
                            <mask id="mask-2" fill="white">
                                <use xlink:href="#path-1"></use>
                            </mask>
                            <use id="Rectangle" fill="#ECE0D1" xlink:href="#path-1"></use>
                            <g id="Group-9" mask="url(#mask-2)">
                                <g transform="translate(0.000000, 138.000000)">
                                    <mask id="mask-4" fill="white">
                                        <use xlink:href="#path-3"></use>
                                    </mask>
                                    <use id="Rectangle" stroke="none" fill="#7CA4CA" fill-rule="evenodd" xlink:href="#path-3"></use>
                                    <g id="Group-5" stroke="none" stroke-width="1" fill="none" fill-rule="evenodd" mask="url(#mask-4)">
                                        <g transform="translate(418.000000, 126.500000) scale(-1, 1) translate(-418.000000, -126.500000) translate(0.000000, 22.000000)">
                                            <polygon id="Fill-1" fill="#567F99" points="638.272897 129.000189 559.182244 129.000189 539.409346 148.999432 460.318692 148.999432 401 209 836 209 804.598134 178.191584 766.796263 179.000189 717.364487 129.000189 697.590654 148.999432 658.045795 109"></polygon>
                                            <polygon id="Fill-2" fill="#6290B1" points="59.4549719 0 39.6357097 19.9039542 0 19.9039542 0 209 327 209 297.272045 179.142184 257.636335 179.142184 208.090994 129.381356 208.090994 109.47646 168.455285 69.6666667 128.818637 69.6666667"></polygon>
                                            <path d="M396.540986,116.614 L394.082986,116.614 C393.977986,115.593 393.579986,114.598 392.881986,113.771 C392.884986,113.768 392.886986,113.766 392.889986,113.763 L394.636986,112.016 C394.815986,111.836 394.815986,111.546 394.636986,111.366 C394.456986,111.186 394.165986,111.186 393.985986,111.366 L392.238986,113.113 C392.235986,113.116 392.232986,113.119 392.231986,113.122 C391.402986,112.429 390.407986,112.033 389.387986,111.931 L389.387986,109.462 C389.387986,109.208 389.180986,109 388.926986,109 C388.672986,109 388.466986,109.208 388.466986,109.462 L388.466986,111.923 C387.432986,112.001 386.415986,112.381 385.568986,113.066 L383.869986,111.366 C383.688986,111.186 383.398986,111.186 383.218986,111.366 C383.038986,111.546 383.038986,111.836 383.218986,112.016 L384.895986,113.695 L382.814986,115.776 L381.135986,114.099 C380.957986,113.919 380.665986,113.919 380.485986,114.099 C380.305986,114.278 380.305986,114.569 380.485986,114.749 L382.181986,116.443 C381.479986,117.289 381.084986,118.306 380.996986,119.347 L378.581986,119.347 C378.327986,119.347 378.121986,119.553 378.121986,119.807 C378.121986,120.061 378.327986,120.267 378.581986,120.267 L380.998986,120.267 C381.090986,121.304 381.488986,122.319 382.191986,123.16 L380.485986,124.866 C380.305986,125.045 380.305986,125.337 380.485986,125.516 C380.665986,125.695 380.957986,125.695 381.135986,125.516 L382.840986,123.812 C383.681986,124.52 384.696986,124.922 385.735986,125.017 L385.735986,127.421 C385.735986,127.675 385.940986,127.881 386.195986,127.881 C386.322986,127.881 386.436986,127.829 386.520986,127.746 C386.603986,127.663 386.654986,127.548 386.654986,127.421 L386.654986,125.02 C387.700986,124.934 388.722986,124.539 389.572986,123.835 L391.252986,125.516 C391.432986,125.695 391.724986,125.695 391.903986,125.516 C392.082986,125.337 392.082986,125.045 391.903986,124.866 L390.239986,123.201 L392.320986,121.12 L393.985986,122.783 C394.165986,122.964 394.456986,122.964 394.636986,122.783 C394.815986,122.603 394.815986,122.313 394.636986,122.133 L392.949986,120.447 C393.637986,119.595 394.019986,118.574 394.094986,117.535 L396.540986,117.535 C396.667986,117.535 396.782986,117.484 396.865986,117.401 C396.948986,117.318 396.999986,117.202 396.999986,117.075 C397.001986,116.822 396.794986,116.614 396.540986,116.614" id="Fill-20" fill="#3E71A3" opacity="0.6880906"></path>
                                            <polygon id="Fill-3" fill="#567F99" opacity="0.465587798" points="388.681955 169.666667 329.193655 169.666667 289 209 468 209 408.511701 150"></polygon>
                                            <polygon id="Fill-4" fill="#594D49" points="56 209 836 209 836 194 56 194"></polygon>
                                        </g>
                                    </g>
                                </g>
                            </g>
                        </g>
                        <g id="Group-5-Copy-3" transform="translate(27.000000, 50.000000)" fill="#6B8192">
                            <g id="molecule" transform="translate(31.000000, 31.000000)">
                                <circle id="Oval" cx="4.5" cy="4.5" r="2.75"></circle>
                            </g>
                            <g id="molecule" transform="translate(0.000000, 31.000000)">
                                <circle id="Oval" cx="4.5" cy="4.5" r="2.75"></circle>
                            </g>
                            <g id="molecule" opacity="0.728143601" transform="translate(16.000000, 47.000000)">
                                <circle id="Oval" cx="4.5" cy="4.5" r="2.75"></circle>
                            </g>
                            <g id="molecule" opacity="0.716355097" transform="translate(31.000000, 15.000000)">
                                <circle id="Oval" cx="4.5" cy="4.5" r="2.75"></circle>
                            </g>
                            <g id="molecule" opacity="0.216750372" transform="translate(47.000000, 0.000000)">
                                <circle id="Oval" cx="4.5" cy="4.5" r="2.75"></circle>
                            </g>
                            <g id="molecule" opacity="0.728143601" transform="translate(47.000000, 47.000000)">
                                <circle id="Oval" cx="4.5" cy="4.5" r="2.75"></circle>
                            </g>
                            <g id="molecule" opacity="0.269740513" transform="translate(31.000000, 62.000000)">
                                <circle id="Oval" cx="4.5" cy="4.5" r="2.75"></circle>
                            </g>
                            <g id="molecule" opacity="0.269740513" transform="translate(0.000000, 62.000000)">
                                <circle id="Oval" cx="4.5" cy="4.5" r="2.75"></circle>
                            </g>
                            <g id="molecule" opacity="0.716355097" transform="translate(16.000000, 15.000000)">
                                <circle id="Oval" cx="4.5" cy="4.5" r="2.75"></circle>
                            </g>
                        </g>
                        <g id="Group-Copy-2" transform="translate(624.000000, 89.000000)">
                            <path d="M36.2319767,4 C29.647093,4 24.1453488,8.70174401 22.7877907,14.983151 C21.5546512,14.3227904 20.1505814,13.947384 18.6593023,13.947384 C13.7569767,13.947384 9.78255814,17.9887674 9.78255814,22.973692 C9.78255814,23.0357671 9.78604651,23.0966598 9.7872093,23.1581437 L4.34767442,23.1581437 C1.95639535,23.1581437 0,25.1475022 0,27.5790718 C0,30.0106414 1.95639535,32 4.34767442,32 L33.6959302,32 C34.0087209,32 34.3127907,31.9645285 34.6075581,31.8994975 C35.1406977,31.9633461 35.6819767,32 36.2319767,32 C43.8360465,32 50,25.7321904 50,18 C50,10.2678096 43.8360465,4 36.2319767,4" id="Fill-6" fill="#000000" opacity="0.0700000003"></path>
                            <path d="M36.2319767,0 C29.647093,0 24.1453488,4.70174401 22.7877907,10.983151 C21.5546512,10.3227904 20.1505814,9.94738398 18.6593023,9.94738398 C13.7569767,9.94738398 9.78255814,13.9887674 9.78255814,18.973692 C9.78255814,19.0357671 9.78604651,19.0966598 9.7872093,19.1581437 L4.34767442,19.1581437 C1.95639535,19.1581437 0,21.1475022 0,23.5790718 C0,26.0106414 1.95639535,28 4.34767442,28 L33.6959302,28 C34.0087209,28 34.3127907,27.9645285 34.6075581,27.8994975 C35.1406977,27.9633461 35.6819767,28 36.2319767,28 C43.8360465,28 50,21.7321904 50,14 C50,6.26840083 43.8360465,0 36.2319767,0" id="Fill-8" fill="#FFFFFF"></path>
                        </g>
                        <g id="Group-Copy-5" transform="translate(297.000000, 26.000000)">
                            <path d="M36.2319767,4 C29.647093,4 24.1453488,8.70174401 22.7877907,14.983151 C21.5546512,14.3227904 20.1505814,13.947384 18.6593023,13.947384 C13.7569767,13.947384 9.78255814,17.9887674 9.78255814,22.973692 C9.78255814,23.0357671 9.78604651,23.0966598 9.7872093,23.1581437 L4.34767442,23.1581437 C1.95639535,23.1581437 0,25.1475022 0,27.5790718 C0,30.0106414 1.95639535,32 4.34767442,32 L33.6959302,32 C34.0087209,32 34.3127907,31.9645285 34.6075581,31.8994975 C35.1406977,31.9633461 35.6819767,32 36.2319767,32 C43.8360465,32 50,25.7321904 50,18 C50,10.2678096 43.8360465,4 36.2319767,4" id="Fill-6" fill="#000000" opacity="0.0700000003"></path>
                            <path d="M36.2319767,0 C29.647093,0 24.1453488,4.70174401 22.7877907,10.983151 C21.5546512,10.3227904 20.1505814,9.94738398 18.6593023,9.94738398 C13.7569767,9.94738398 9.78255814,13.9887674 9.78255814,18.973692 C9.78255814,19.0357671 9.78604651,19.0966598 9.7872093,19.1581437 L4.34767442,19.1581437 C1.95639535,19.1581437 0,21.1475022 0,23.5790718 C0,26.0106414 1.95639535,28 4.34767442,28 L33.6959302,28 C34.0087209,28 34.3127907,27.9645285 34.6075581,27.8994975 C35.1406977,27.9633461 35.6819767,28 36.2319767,28 C43.8360465,28 50,21.7321904 50,14 C50,6.26840083 43.8360465,0 36.2319767,0" id="Fill-8" fill="#FFFFFF"></path>
                        </g>
                        <g id="Group-15" transform="translate(179.000000, 278.000000)" fill="#594D49">
                            <path d="M23.9841367,76.633 C11.9021367,57.755 41.2141367,38.877 29.1321367,20 C44.6471367,38.877 18.7671367,57.755 34.2811367,76.633 L23.9841367,76.633 Z" id="Fill-46"></path>
                            <path d="M39.0605503,76.109 C30.7175503,63.073 50.9595503,50.036 42.6155503,37 C53.3295503,50.036 35.4575503,63.073 46.1715503,76.109 L39.0605503,76.109 Z" id="Fill-48"></path>
                            <path d="M1.46932857,76.155 C-4.47967143,67.77 9.95332857,59.384 4.00432857,51 C11.6433286,59.384 -1.09967143,67.77 6.53932857,76.155 L1.46932857,76.155 Z" id="Fill-50"></path>
                            <path d="M21.3162681,76.59 C33.3982681,51.061 4.08626805,25.53 16.1682681,7.10542736e-14 C0.653268053,25.53 26.5332681,51.061 11.0192681,76.59 L21.3162681,76.59 Z" id="Fill-52"></path>
                            <path d="M12.3137832,76.585 C20.8787832,62.057 0.097783167,47.528 8.66378317,33 C-2.33521683,47.528 16.0127832,62.057 5.01378317,76.585 L12.3137832,76.585 Z" id="Fill-54"></path>
                            <path d="M35.2574387,75.823 C40.2434387,65.883 28.1474387,55.941 33.1324387,46 C26.7304387,55.941 37.4104387,65.883 31.0084387,75.823 L35.2574387,75.823 Z" id="Fill-56"></path>
                        </g>
                        <g id="Group-25" transform="translate(649.000000, 206.000000)" fill="#594D49">
                            <path d="M46.8334731,150 C23.2152445,112.999347 80.5151549,75.9986933 56.8969263,39 C87.2260785,75.9986933 36.6351369,112.999347 66.9623343,150 L46.8334731,150 Z" id="Fill-46-Copy"></path>
                            <path d="M76.0383197,149 C59.6874926,123.33399 99.3582875,97.6660104 83.0055006,72 C104.003075,97.6660104 68.9770672,123.33399 89.9746414,149 L76.0383197,149 Z" id="Fill-48-Copy"></path>
                            <path d="M2.91671786,149 C-8.89245463,132.666667 19.758039,116.331385 7.9488665,100 C23.1128048,116.331385 -2.1829231,132.666667 12.9810151,149 L2.91671786,149 Z" id="Fill-50-Copy"></path>
                            <path d="M42.1665269,150 C65.7847555,100.001958 8.48484508,50 32.1030737,0 C1.77392148,50 52.3648631,100.001958 22.0376657,150 L42.1665269,150 Z" id="Fill-52-Copy"></path>
                            <path d="M23.9618479,150 C40.3122406,121.667317 0.641778105,93.3326833 16.9940798,65 C-4.00276428,93.3326833 31.0231559,121.667317 10.0263118,150 L23.9618479,150 Z" id="Fill-54-Copy"></path>
                            <path d="M69.5319935,148 C79.5240386,128.668611 55.2834094,109.333333 65.2734505,90 C52.4437127,109.333333 73.8466492,128.668611 61.0169114,148 L69.5319935,148 Z" id="Fill-56-Copy"></path>
                        </g>
                        <rect id="Rectangle" fill="#7CA4CA" x="525" y="1" width="255" height="142"></rect>
                        <rect id="Rectangle" fill="#7CA4CA" x="255" y="73.9495935" width="270" height="71"></rect>
                        <path d="M46.419,162.614 L43.961,162.614 C43.856,161.593 43.458,160.598 42.76,159.771 C42.763,159.768 42.765,159.766 42.768,159.763 L44.515,158.016 C44.694,157.836 44.694,157.546 44.515,157.366 C44.335,157.186 44.044,157.186 43.864,157.366 L42.117,159.113 C42.114,159.116 42.111,159.119 42.11,159.122 C41.281,158.429 40.286,158.033 39.266,157.931 L39.266,155.462 C39.266,155.208 39.059,155 38.805,155 C38.551,155 38.345,155.208 38.345,155.462 L38.345,157.923 C37.311,158.001 36.294,158.381 35.447,159.066 L33.748,157.366 C33.567,157.186 33.277,157.186 33.097,157.366 C32.917,157.546 32.917,157.836 33.097,158.016 L34.774,159.695 L32.693,161.776 L31.014,160.099 C30.836,159.919 30.544,159.919 30.364,160.099 C30.184,160.278 30.184,160.569 30.364,160.749 L32.06,162.443 C31.358,163.289 30.963,164.306 30.875,165.347 L28.46,165.347 C28.206,165.347 28,165.553 28,165.807 C28,166.061 28.206,166.267 28.46,166.267 L30.877,166.267 C30.969,167.304 31.367,168.319 32.07,169.16 L30.364,170.866 C30.184,171.045 30.184,171.337 30.364,171.516 C30.544,171.695 30.836,171.695 31.014,171.516 L32.719,169.812 C33.56,170.52 34.575,170.922 35.614,171.017 L35.614,173.421 C35.614,173.675 35.819,173.881 36.074,173.881 C36.201,173.881 36.315,173.829 36.399,173.746 C36.482,173.663 36.533,173.548 36.533,173.421 L36.533,171.02 C37.579,170.934 38.601,170.539 39.451,169.835 L41.131,171.516 C41.311,171.695 41.603,171.695 41.782,171.516 C41.961,171.337 41.961,171.045 41.782,170.866 L40.118,169.201 L42.199,167.12 L43.864,168.783 C44.044,168.964 44.335,168.964 44.515,168.783 C44.694,168.603 44.694,168.313 44.515,168.133 L42.828,166.447 C43.516,165.595 43.898,164.574 43.973,163.535 L46.419,163.535 C46.546,163.535 46.661,163.484 46.744,163.401 C46.827,163.318 46.878,163.202 46.878,163.075 C46.88,162.822 46.673,162.614 46.419,162.614" id="Fill-20" fill="#3E71A3" opacity="0.6880906"></path>
                        <path d="M76.419,162.614 L73.961,162.614 C73.856,161.593 73.458,160.598 72.76,159.771 C72.763,159.768 72.765,159.766 72.768,159.763 L74.515,158.016 C74.694,157.836 74.694,157.546 74.515,157.366 C74.335,157.186 74.044,157.186 73.864,157.366 L72.117,159.113 C72.114,159.116 72.111,159.119 72.11,159.122 C71.281,158.429 70.286,158.033 69.266,157.931 L69.266,155.462 C69.266,155.208 69.059,155 68.805,155 C68.551,155 68.345,155.208 68.345,155.462 L68.345,157.923 C67.311,158.001 66.294,158.381 65.447,159.066 L63.748,157.366 C63.567,157.186 63.277,157.186 63.097,157.366 C62.917,157.546 62.917,157.836 63.097,158.016 L64.774,159.695 L62.693,161.776 L61.014,160.099 C60.836,159.919 60.544,159.919 60.364,160.099 C60.184,160.278 60.184,160.569 60.364,160.749 L62.06,162.443 C61.358,163.289 60.963,164.306 60.875,165.347 L58.46,165.347 C58.206,165.347 58,165.553 58,165.807 C58,166.061 58.206,166.267 58.46,166.267 L60.877,166.267 C60.969,167.304 61.367,168.319 62.07,169.16 L60.364,170.866 C60.184,171.045 60.184,171.337 60.364,171.516 C60.544,171.695 60.836,171.695 61.014,171.516 L62.719,169.812 C63.56,170.52 64.575,170.922 65.614,171.017 L65.614,173.421 C65.614,173.675 65.819,173.881 66.074,173.881 C66.201,173.881 66.315,173.829 66.399,173.746 C66.482,173.663 66.533,173.548 66.533,173.421 L66.533,171.02 C67.579,170.934 68.601,170.539 69.451,169.835 L71.131,171.516 C71.311,171.695 71.603,171.695 71.782,171.516 C71.961,171.337 71.961,171.045 71.782,170.866 L70.118,169.201 L72.199,167.12 L73.864,168.783 C74.044,168.964 74.335,168.964 74.515,168.783 C74.694,168.603 74.694,168.313 74.515,168.133 L72.828,166.447 C73.516,165.595 73.898,164.574 73.973,163.535 L76.419,163.535 C76.546,163.535 76.661,163.484 76.744,163.401 C76.827,163.318 76.878,163.202 76.878,163.075 C76.88,162.822 76.673,162.614 76.419,162.614" id="Fill-20" fill="#3E71A3" opacity="0.6880906"></path>
                        <path d="M106.419,162.614 L103.961,162.614 C103.856,161.593 103.458,160.598 102.76,159.771 C102.763,159.768 102.765,159.766 102.768,159.763 L104.515,158.016 C104.694,157.836 104.694,157.546 104.515,157.366 C104.335,157.186 104.044,157.186 103.864,157.366 L102.117,159.113 C102.114,159.116 102.111,159.119 102.11,159.122 C101.281,158.429 100.286,158.033 99.266,157.931 L99.266,155.462 C99.266,155.208 99.059,155 98.805,155 C98.551,155 98.345,155.208 98.345,155.462 L98.345,157.923 C97.311,158.001 96.294,158.381 95.447,159.066 L93.748,157.366 C93.567,157.186 93.277,157.186 93.097,157.366 C92.917,157.546 92.917,157.836 93.097,158.016 L94.774,159.695 L92.693,161.776 L91.014,160.099 C90.836,159.919 90.544,159.919 90.364,160.099 C90.184,160.278 90.184,160.569 90.364,160.749 L92.06,162.443 C91.358,163.289 90.963,164.306 90.875,165.347 L88.46,165.347 C88.206,165.347 88,165.553 88,165.807 C88,166.061 88.206,166.267 88.46,166.267 L90.877,166.267 C90.969,167.304 91.367,168.319 92.07,169.16 L90.364,170.866 C90.184,171.045 90.184,171.337 90.364,171.516 C90.544,171.695 90.836,171.695 91.014,171.516 L92.719,169.812 C93.56,170.52 94.575,170.922 95.614,171.017 L95.614,173.421 C95.614,173.675 95.819,173.881 96.074,173.881 C96.201,173.881 96.315,173.829 96.399,173.746 C96.482,173.663 96.533,173.548 96.533,173.421 L96.533,171.02 C97.579,170.934 98.601,170.539 99.451,169.835 L101.131,171.516 C101.311,171.695 101.603,171.695 101.782,171.516 C101.961,171.337 101.961,171.045 101.782,170.866 L100.118,169.201 L102.199,167.12 L103.864,168.783 C104.044,168.964 104.335,168.964 104.515,168.783 C104.694,168.603 104.694,168.313 104.515,168.133 L102.828,166.447 C103.516,165.595 103.898,164.574 103.973,163.535 L106.419,163.535 C106.546,163.535 106.661,163.484 106.744,163.401 C106.827,163.318 106.878,163.202 106.878,163.075 C106.88,162.822 106.673,162.614 106.419,162.614" id="Fill-20" fill="#3E71A3" opacity="0.6880906"></path>
                        <path d="M136.419,162.614 L133.961,162.614 C133.856,161.593 133.458,160.598 132.76,159.771 C132.763,159.768 132.765,159.766 132.768,159.763 L134.515,158.016 C134.694,157.836 134.694,157.546 134.515,157.366 C134.335,157.186 134.044,157.186 133.864,157.366 L132.117,159.113 C132.114,159.116 132.111,159.119 132.11,159.122 C131.281,158.429 130.286,158.033 129.266,157.931 L129.266,155.462 C129.266,155.208 129.059,155 128.805,155 C128.551,155 128.345,155.208 128.345,155.462 L128.345,157.923 C127.311,158.001 126.294,158.381 125.447,159.066 L123.748,157.366 C123.567,157.186 123.277,157.186 123.097,157.366 C122.917,157.546 122.917,157.836 123.097,158.016 L124.774,159.695 L122.693,161.776 L121.014,160.099 C120.836,159.919 120.544,159.919 120.364,160.099 C120.184,160.278 120.184,160.569 120.364,160.749 L122.06,162.443 C121.358,163.289 120.963,164.306 120.875,165.347 L118.46,165.347 C118.206,165.347 118,165.553 118,165.807 C118,166.061 118.206,166.267 118.46,166.267 L120.877,166.267 C120.969,167.304 121.367,168.319 122.07,169.16 L120.364,170.866 C120.184,171.045 120.184,171.337 120.364,171.516 C120.544,171.695 120.836,171.695 121.014,171.516 L122.719,169.812 C123.56,170.52 124.575,170.922 125.614,171.017 L125.614,173.421 C125.614,173.675 125.819,173.881 126.074,173.881 C126.201,173.881 126.315,173.829 126.399,173.746 C126.482,173.663 126.533,173.548 126.533,173.421 L126.533,171.02 C127.579,170.934 128.601,170.539 129.451,169.835 L131.131,171.516 C131.311,171.695 131.603,171.695 131.782,171.516 C131.961,171.337 131.961,171.045 131.782,170.866 L130.118,169.201 L132.199,167.12 L133.864,168.783 C134.044,168.964 134.335,168.964 134.515,168.783 C134.694,168.603 134.694,168.313 134.515,168.133 L132.828,166.447 C133.516,165.595 133.898,164.574 133.973,163.535 L136.419,163.535 C136.546,163.535 136.661,163.484 136.744,163.401 C136.827,163.318 136.878,163.202 136.878,163.075 C136.88,162.822 136.673,162.614 136.419,162.614" id="Fill-20" fill="#3E71A3" opacity="0.6880906"></path>
                        <path d="M166.419,162.614 L163.961,162.614 C163.856,161.593 163.458,160.598 162.76,159.771 C162.763,159.768 162.765,159.766 162.768,159.763 L164.515,158.016 C164.694,157.836 164.694,157.546 164.515,157.366 C164.335,157.186 164.044,157.186 163.864,157.366 L162.117,159.113 C162.114,159.116 162.111,159.119 162.11,159.122 C161.281,158.429 160.286,158.033 159.266,157.931 L159.266,155.462 C159.266,155.208 159.059,155 158.805,155 C158.551,155 158.345,155.208 158.345,155.462 L158.345,157.923 C157.311,158.001 156.294,158.381 155.447,159.066 L153.748,157.366 C153.567,157.186 153.277,157.186 153.097,157.366 C152.917,157.546 152.917,157.836 153.097,158.016 L154.774,159.695 L152.693,161.776 L151.014,160.099 C150.836,159.919 150.544,159.919 150.364,160.099 C150.184,160.278 150.184,160.569 150.364,160.749 L152.06,162.443 C151.358,163.289 150.963,164.306 150.875,165.347 L148.46,165.347 C148.206,165.347 148,165.553 148,165.807 C148,166.061 148.206,166.267 148.46,166.267 L150.877,166.267 C150.969,167.304 151.367,168.319 152.07,169.16 L150.364,170.866 C150.184,171.045 150.184,171.337 150.364,171.516 C150.544,171.695 150.836,171.695 151.014,171.516 L152.719,169.812 C153.56,170.52 154.575,170.922 155.614,171.017 L155.614,173.421 C155.614,173.675 155.819,173.881 156.074,173.881 C156.201,173.881 156.315,173.829 156.399,173.746 C156.482,173.663 156.533,173.548 156.533,173.421 L156.533,171.02 C157.579,170.934 158.601,170.539 159.451,169.835 L161.131,171.516 C161.311,171.695 161.603,171.695 161.782,171.516 C161.961,171.337 161.961,171.045 161.782,170.866 L160.118,169.201 L162.199,167.12 L163.864,168.783 C164.044,168.964 164.335,168.964 164.515,168.783 C164.694,168.603 164.694,168.313 164.515,168.133 L162.828,166.447 C163.516,165.595 163.898,164.574 163.973,163.535 L166.419,163.535 C166.546,163.535 166.661,163.484 166.744,163.401 C166.827,163.318 166.878,163.202 166.878,163.075 C166.88,162.822 166.673,162.614 166.419,162.614" id="Fill-20" fill="#3E71A3" opacity="0.6880906"></path>
                        <path d="M196.419,162.614 L193.961,162.614 C193.856,161.593 193.458,160.598 192.76,159.771 C192.763,159.768 192.765,159.766 192.768,159.763 L194.515,158.016 C194.694,157.836 194.694,157.546 194.515,157.366 C194.335,157.186 194.044,157.186 193.864,157.366 L192.117,159.113 C192.114,159.116 192.111,159.119 192.11,159.122 C191.281,158.429 190.286,158.033 189.266,157.931 L189.266,155.462 C189.266,155.208 189.059,155 188.805,155 C188.551,155 188.345,155.208 188.345,155.462 L188.345,157.923 C187.311,158.001 186.294,158.381 185.447,159.066 L183.748,157.366 C183.567,157.186 183.277,157.186 183.097,157.366 C182.917,157.546 182.917,157.836 183.097,158.016 L184.774,159.695 L182.693,161.776 L181.014,160.099 C180.836,159.919 180.544,159.919 180.364,160.099 C180.184,160.278 180.184,160.569 180.364,160.749 L182.06,162.443 C181.358,163.289 180.963,164.306 180.875,165.347 L178.46,165.347 C178.206,165.347 178,165.553 178,165.807 C178,166.061 178.206,166.267 178.46,166.267 L180.877,166.267 C180.969,167.304 181.367,168.319 182.07,169.16 L180.364,170.866 C180.184,171.045 180.184,171.337 180.364,171.516 C180.544,171.695 180.836,171.695 181.014,171.516 L182.719,169.812 C183.56,170.52 184.575,170.922 185.614,171.017 L185.614,173.421 C185.614,173.675 185.819,173.881 186.074,173.881 C186.201,173.881 186.315,173.829 186.399,173.746 C186.482,173.663 186.533,173.548 186.533,173.421 L186.533,171.02 C187.579,170.934 188.601,170.539 189.451,169.835 L191.131,171.516 C191.311,171.695 191.603,171.695 191.782,171.516 C191.961,171.337 191.961,171.045 191.782,170.866 L190.118,169.201 L192.199,167.12 L193.864,168.783 C194.044,168.964 194.335,168.964 194.515,168.783 C194.694,168.603 194.694,168.313 194.515,168.133 L192.828,166.447 C193.516,165.595 193.898,164.574 193.973,163.535 L196.419,163.535 C196.546,163.535 196.661,163.484 196.744,163.401 C196.827,163.318 196.878,163.202 196.878,163.075 C196.88,162.822 196.673,162.614 196.419,162.614" id="Fill-20" fill="#3E71A3" opacity="0.6880906"></path>
                        <path d="M226.419,162.614 L223.961,162.614 C223.856,161.593 223.458,160.598 222.76,159.771 C222.763,159.768 222.765,159.766 222.768,159.763 L224.515,158.016 C224.694,157.836 224.694,157.546 224.515,157.366 C224.335,157.186 224.044,157.186 223.864,157.366 L222.117,159.113 C222.114,159.116 222.111,159.119 222.11,159.122 C221.281,158.429 220.286,158.033 219.266,157.931 L219.266,155.462 C219.266,155.208 219.059,155 218.805,155 C218.551,155 218.345,155.208 218.345,155.462 L218.345,157.923 C217.311,158.001 216.294,158.381 215.447,159.066 L213.748,157.366 C213.567,157.186 213.277,157.186 213.097,157.366 C212.917,157.546 212.917,157.836 213.097,158.016 L214.774,159.695 L212.693,161.776 L211.014,160.099 C210.836,159.919 210.544,159.919 210.364,160.099 C210.184,160.278 210.184,160.569 210.364,160.749 L212.06,162.443 C211.358,163.289 210.963,164.306 210.875,165.347 L208.46,165.347 C208.206,165.347 208,165.553 208,165.807 C208,166.061 208.206,166.267 208.46,166.267 L210.877,166.267 C210.969,167.304 211.367,168.319 212.07,169.16 L210.364,170.866 C210.184,171.045 210.184,171.337 210.364,171.516 C210.544,171.695 210.836,171.695 211.014,171.516 L212.719,169.812 C213.56,170.52 214.575,170.922 215.614,171.017 L215.614,173.421 C215.614,173.675 215.819,173.881 216.074,173.881 C216.201,173.881 216.315,173.829 216.399,173.746 C216.482,173.663 216.533,173.548 216.533,173.421 L216.533,171.02 C217.579,170.934 218.601,170.539 219.451,169.835 L221.131,171.516 C221.311,171.695 221.603,171.695 221.782,171.516 C221.961,171.337 221.961,171.045 221.782,170.866 L220.118,169.201 L222.199,167.12 L223.864,168.783 C224.044,168.964 224.335,168.964 224.515,168.783 C224.694,168.603 224.694,168.313 224.515,168.133 L222.828,166.447 C223.516,165.595 223.898,164.574 223.973,163.535 L226.419,163.535 C226.546,163.535 226.661,163.484 226.744,163.401 C226.827,163.318 226.878,163.202 226.878,163.075 C226.88,162.822 226.673,162.614 226.419,162.614" id="Fill-20" fill="#3E71A3" opacity="0.6880906"></path>
                        <path d="M307.419,122.614 L304.961,122.614 C304.856,121.593 304.458,120.598 303.76,119.771 C303.763,119.768 303.765,119.766 303.768,119.763 L305.515,118.016 C305.694,117.836 305.694,117.546 305.515,117.366 C305.335,117.186 305.044,117.186 304.864,117.366 L303.117,119.113 C303.114,119.116 303.111,119.119 303.11,119.122 C302.281,118.429 301.286,118.033 300.266,117.931 L300.266,115.462 C300.266,115.208 300.059,115 299.805,115 C299.551,115 299.345,115.208 299.345,115.462 L299.345,117.923 C298.311,118.001 297.294,118.381 296.447,119.066 L294.748,117.366 C294.567,117.186 294.277,117.186 294.097,117.366 C293.917,117.546 293.917,117.836 294.097,118.016 L295.774,119.695 L293.693,121.776 L292.014,120.099 C291.836,119.919 291.544,119.919 291.364,120.099 C291.184,120.278 291.184,120.569 291.364,120.749 L293.06,122.443 C292.358,123.289 291.963,124.306 291.875,125.347 L289.46,125.347 C289.206,125.347 289,125.553 289,125.807 C289,126.061 289.206,126.267 289.46,126.267 L291.877,126.267 C291.969,127.304 292.367,128.319 293.07,129.16 L291.364,130.866 C291.184,131.045 291.184,131.337 291.364,131.516 C291.544,131.695 291.836,131.695 292.014,131.516 L293.719,129.812 C294.56,130.52 295.575,130.922 296.614,131.017 L296.614,133.421 C296.614,133.675 296.819,133.881 297.074,133.881 C297.201,133.881 297.315,133.829 297.399,133.746 C297.482,133.663 297.533,133.548 297.533,133.421 L297.533,131.02 C298.579,130.934 299.601,130.539 300.451,129.835 L302.131,131.516 C302.311,131.695 302.603,131.695 302.782,131.516 C302.961,131.337 302.961,131.045 302.782,130.866 L301.118,129.201 L303.199,127.12 L304.864,128.783 C305.044,128.964 305.335,128.964 305.515,128.783 C305.694,128.603 305.694,128.313 305.515,128.133 L303.828,126.447 C304.516,125.595 304.898,124.574 304.973,123.535 L307.419,123.535 C307.546,123.535 307.661,123.484 307.744,123.401 C307.827,123.318 307.878,123.202 307.878,123.075 C307.88,122.822 307.673,122.614 307.419,122.614" id="Fill-20" fill="#3E71A3" opacity="0.6880906"></path>
                        <path d="M337.419,122.614 L334.961,122.614 C334.856,121.593 334.458,120.598 333.76,119.771 C333.763,119.768 333.765,119.766 333.768,119.763 L335.515,118.016 C335.694,117.836 335.694,117.546 335.515,117.366 C335.335,117.186 335.044,117.186 334.864,117.366 L333.117,119.113 C333.114,119.116 333.111,119.119 333.11,119.122 C332.281,118.429 331.286,118.033 330.266,117.931 L330.266,115.462 C330.266,115.208 330.059,115 329.805,115 C329.551,115 329.345,115.208 329.345,115.462 L329.345,117.923 C328.311,118.001 327.294,118.381 326.447,119.066 L324.748,117.366 C324.567,117.186 324.277,117.186 324.097,117.366 C323.917,117.546 323.917,117.836 324.097,118.016 L325.774,119.695 L323.693,121.776 L322.014,120.099 C321.836,119.919 321.544,119.919 321.364,120.099 C321.184,120.278 321.184,120.569 321.364,120.749 L323.06,122.443 C322.358,123.289 321.963,124.306 321.875,125.347 L319.46,125.347 C319.206,125.347 319,125.553 319,125.807 C319,126.061 319.206,126.267 319.46,126.267 L321.877,126.267 C321.969,127.304 322.367,128.319 323.07,129.16 L321.364,130.866 C321.184,131.045 321.184,131.337 321.364,131.516 C321.544,131.695 321.836,131.695 322.014,131.516 L323.719,129.812 C324.56,130.52 325.575,130.922 326.614,131.017 L326.614,133.421 C326.614,133.675 326.819,133.881 327.074,133.881 C327.201,133.881 327.315,133.829 327.399,133.746 C327.482,133.663 327.533,133.548 327.533,133.421 L327.533,131.02 C328.579,130.934 329.601,130.539 330.451,129.835 L332.131,131.516 C332.311,131.695 332.603,131.695 332.782,131.516 C332.961,131.337 332.961,131.045 332.782,130.866 L331.118,129.201 L333.199,127.12 L334.864,128.783 C335.044,128.964 335.335,128.964 335.515,128.783 C335.694,128.603 335.694,128.313 335.515,128.133 L333.828,126.447 C334.516,125.595 334.898,124.574 334.973,123.535 L337.419,123.535 C337.546,123.535 337.661,123.484 337.744,123.401 C337.827,123.318 337.878,123.202 337.878,123.075 C337.88,122.822 337.673,122.614 337.419,122.614" id="Fill-20" fill="#3E71A3" opacity="0.6880906"></path>
                        <path d="M367.419,162.614 L364.961,162.614 C364.856,161.593 364.458,160.598 363.76,159.771 C363.763,159.768 363.765,159.766 363.768,159.763 L365.515,158.016 C365.694,157.836 365.694,157.546 365.515,157.366 C365.335,157.186 365.044,157.186 364.864,157.366 L363.117,159.113 C363.114,159.116 363.111,159.119 363.11,159.122 C362.281,158.429 361.286,158.033 360.266,157.931 L360.266,155.462 C360.266,155.208 360.059,155 359.805,155 C359.551,155 359.345,155.208 359.345,155.462 L359.345,157.923 C358.311,158.001 357.294,158.381 356.447,159.066 L354.748,157.366 C354.567,157.186 354.277,157.186 354.097,157.366 C353.917,157.546 353.917,157.836 354.097,158.016 L355.774,159.695 L353.693,161.776 L352.014,160.099 C351.836,159.919 351.544,159.919 351.364,160.099 C351.184,160.278 351.184,160.569 351.364,160.749 L353.06,162.443 C352.358,163.289 351.963,164.306 351.875,165.347 L349.46,165.347 C349.206,165.347 349,165.553 349,165.807 C349,166.061 349.206,166.267 349.46,166.267 L351.877,166.267 C351.969,167.304 352.367,168.319 353.07,169.16 L351.364,170.866 C351.184,171.045 351.184,171.337 351.364,171.516 C351.544,171.695 351.836,171.695 352.014,171.516 L353.719,169.812 C354.56,170.52 355.575,170.922 356.614,171.017 L356.614,173.421 C356.614,173.675 356.819,173.881 357.074,173.881 C357.201,173.881 357.315,173.829 357.399,173.746 C357.482,173.663 357.533,173.548 357.533,173.421 L357.533,171.02 C358.579,170.934 359.601,170.539 360.451,169.835 L362.131,171.516 C362.311,171.695 362.603,171.695 362.782,171.516 C362.961,171.337 362.961,171.045 362.782,170.866 L361.118,169.201 L363.199,167.12 L364.864,168.783 C365.044,168.964 365.335,168.964 365.515,168.783 C365.694,168.603 365.694,168.313 365.515,168.133 L363.828,166.447 C364.516,165.595 364.898,164.574 364.973,163.535 L367.419,163.535 C367.546,163.535 367.661,163.484 367.744,163.401 C367.827,163.318 367.878,163.202 367.878,163.075 C367.88,162.822 367.673,162.614 367.419,162.614" id="Fill-20" fill="#3E71A3" opacity="0.6880906"></path>
                        <path d="M397.419,202.614 L394.961,202.614 C394.856,201.593 394.458,200.598 393.76,199.771 C393.763,199.768 393.765,199.766 393.768,199.763 L395.515,198.016 C395.694,197.836 395.694,197.546 395.515,197.366 C395.335,197.186 395.044,197.186 394.864,197.366 L393.117,199.113 C393.114,199.116 393.111,199.119 393.11,199.122 C392.281,198.429 391.286,198.033 390.266,197.931 L390.266,195.462 C390.266,195.208 390.059,195 389.805,195 C389.551,195 389.345,195.208 389.345,195.462 L389.345,197.923 C388.311,198.001 387.294,198.381 386.447,199.066 L384.748,197.366 C384.567,197.186 384.277,197.186 384.097,197.366 C383.917,197.546 383.917,197.836 384.097,198.016 L385.774,199.695 L383.693,201.776 L382.014,200.099 C381.836,199.919 381.544,199.919 381.364,200.099 C381.184,200.278 381.184,200.569 381.364,200.749 L383.06,202.443 C382.358,203.289 381.963,204.306 381.875,205.347 L379.46,205.347 C379.206,205.347 379,205.553 379,205.807 C379,206.061 379.206,206.267 379.46,206.267 L381.877,206.267 C381.969,207.304 382.367,208.319 383.07,209.16 L381.364,210.866 C381.184,211.045 381.184,211.337 381.364,211.516 C381.544,211.695 381.836,211.695 382.014,211.516 L383.719,209.812 C384.56,210.52 385.575,210.922 386.614,211.017 L386.614,213.421 C386.614,213.675 386.819,213.881 387.074,213.881 C387.201,213.881 387.315,213.829 387.399,213.746 C387.482,213.663 387.533,213.548 387.533,213.421 L387.533,211.02 C388.579,210.934 389.601,210.539 390.451,209.835 L392.131,211.516 C392.311,211.695 392.603,211.695 392.782,211.516 C392.961,211.337 392.961,211.045 392.782,210.866 L391.118,209.201 L393.199,207.12 L394.864,208.783 C395.044,208.964 395.335,208.964 395.515,208.783 C395.694,208.603 395.694,208.313 395.515,208.133 L393.828,206.447 C394.516,205.595 394.898,204.574 394.973,203.535 L397.419,203.535 C397.546,203.535 397.661,203.484 397.744,203.401 C397.827,203.318 397.878,203.202 397.878,203.075 C397.88,202.822 397.673,202.614 397.419,202.614" id="Fill-20" fill="#3E71A3" opacity="0.6880906"></path>
                        <polygon id="Polygon" fill="#3E71A3" points="442.5 336 447.730811 339.800407 445.732819 345.949593 439.267181 345.949593 437.269189 339.800407"></polygon>
                        <polygon id="Polygon-Copy" fill="#3E71A3" opacity="0.600000024" points="618.230811 161 623.461622 164.800407 621.46363 170.949593 614.997992 170.949593 613 164.800407"></polygon>
                        <polygon id="Polygon" fill="#3E71A3" points="462.5 316 467.730811 319.800407 465.732819 325.949593 459.267181 325.949593 457.269189 319.800407"></polygon>
                        <polygon id="Polygon-Copy-2" fill="#3E71A3" points="638.230811 141 643.461622 144.800407 641.46363 150.949593 634.997992 150.949593 633 144.800407"></polygon>
                        <polygon id="Polygon" fill="#3E71A3" points="442.5 316 447.730811 319.800407 445.732819 325.949593 439.267181 325.949593 437.269189 319.800407"></polygon>
                        <polygon id="Polygon-Copy-3" fill="#3E71A3" opacity="0.600000024" points="618.230811 141 623.461622 144.800407 621.46363 150.949593 614.997992 150.949593 613 144.800407"></polygon>
                        <polygon id="Polygon" fill="#3E71A3" points="422.5 316 427.730811 319.800407 425.732819 325.949593 419.267181 325.949593 417.269189 319.800407"></polygon>
                        <polygon id="Polygon-Copy-4" fill="#3E71A3" opacity="0.300000012" points="598.230811 141 603.461622 144.800407 601.46363 150.949593 594.997992 150.949593 593 144.800407"></polygon>
                        <polygon id="Polygon" fill="#3E71A3" points="422.5 336 427.730811 339.800407 425.732819 345.949593 419.267181 345.949593 417.269189 339.800407"></polygon>
                        <polygon id="Polygon-Copy-5" fill="#3E71A3" opacity="0.300000012" points="598.230811 161 603.461622 164.800407 601.46363 170.949593 594.997992 170.949593 593 164.800407"></polygon>
                        <polygon id="Polygon" fill="#3E71A3" points="462.5 336 467.730811 339.800407 465.732819 345.949593 459.267181 345.949593 457.269189 339.800407"></polygon>
                        <polygon id="Polygon-Copy-6" fill="#3E71A3" points="638.230811 161 643.461622 164.800407 641.46363 170.949593 634.997992 170.949593 633 164.800407"></polygon>
                        <path d="M427.419,239.614 L424.961,239.614 C424.856,238.593 424.458,237.598 423.76,236.771 C423.763,236.768 423.765,236.766 423.768,236.763 L425.515,235.016 C425.694,234.836 425.694,234.546 425.515,234.366 C425.335,234.186 425.044,234.186 424.864,234.366 L423.117,236.113 C423.114,236.116 423.111,236.119 423.11,236.122 C422.281,235.429 421.286,235.033 420.266,234.931 L420.266,232.462 C420.266,232.208 420.059,232 419.805,232 C419.551,232 419.345,232.208 419.345,232.462 L419.345,234.923 C418.311,235.001 417.294,235.381 416.447,236.066 L414.748,234.366 C414.567,234.186 414.277,234.186 414.097,234.366 C413.917,234.546 413.917,234.836 414.097,235.016 L415.774,236.695 L413.693,238.776 L412.014,237.099 C411.836,236.919 411.544,236.919 411.364,237.099 C411.184,237.278 411.184,237.569 411.364,237.749 L413.06,239.443 C412.358,240.289 411.963,241.306 411.875,242.347 L409.46,242.347 C409.206,242.347 409,242.553 409,242.807 C409,243.061 409.206,243.267 409.46,243.267 L411.877,243.267 C411.969,244.304 412.367,245.319 413.07,246.16 L411.364,247.866 C411.184,248.045 411.184,248.337 411.364,248.516 C411.544,248.695 411.836,248.695 412.014,248.516 L413.719,246.812 C414.56,247.52 415.575,247.922 416.614,248.017 L416.614,250.421 C416.614,250.675 416.819,250.881 417.074,250.881 C417.201,250.881 417.315,250.829 417.399,250.746 C417.482,250.663 417.533,250.548 417.533,250.421 L417.533,248.02 C418.579,247.934 419.601,247.539 420.451,246.835 L422.131,248.516 C422.311,248.695 422.603,248.695 422.782,248.516 C422.961,248.337 422.961,248.045 422.782,247.866 L421.118,246.201 L423.199,244.12 L424.864,245.783 C425.044,245.964 425.335,245.964 425.515,245.783 C425.694,245.603 425.694,245.313 425.515,245.133 L423.828,243.447 C424.516,242.595 424.898,241.574 424.973,240.535 L427.419,240.535 C427.546,240.535 427.661,240.484 427.744,240.401 C427.827,240.318 427.878,240.202 427.878,240.075 C427.88,239.822 427.673,239.614 427.419,239.614" id="Fill-20" fill="#3E71A3" opacity="0.6880906"></path>
                        <path d="M703.738187,150.905351 L697.634464,150.905351 C697.373728,148.370236 696.385411,145.899679 694.652133,143.846261 C694.659583,143.838812 694.664549,143.833846 694.671999,143.826397 L699.010161,139.488644 C699.454655,139.041709 699.454655,138.321647 699.010161,137.874712 C698.563184,137.427777 697.840571,137.427777 697.393593,137.874712 L693.055431,142.212465 C693.047981,142.219914 693.040532,142.227363 693.038048,142.234812 C690.97947,140.514112 688.508679,139.530855 685.975808,139.277592 L685.975808,133.147133 C685.975808,132.516458 685.461784,132 684.83105,132 C684.200315,132 683.688775,132.516458 683.688775,133.147133 L683.688775,139.257728 C681.121139,139.4514 678.595718,140.394929 676.492441,142.095765 L672.273473,137.874712 C671.824012,137.427777 671.103882,137.427777 670.656905,137.874712 C670.209928,138.321647 670.209928,139.041709 670.656905,139.488644 L674.821243,143.657555 L669.65369,148.82462 L665.484385,144.660676 C665.042375,144.213741 664.317278,144.213741 663.870301,144.660676 C663.423324,145.105128 663.423324,145.827673 663.870301,146.274608 L668.08182,150.480763 C666.338609,152.581357 665.357742,155.10654 665.13922,157.691314 L659.142275,157.691314 C658.511541,157.691314 658,158.202807 658,158.833482 C658,159.464157 658.511541,159.975649 659.142275,159.975649 L665.144186,159.975649 C665.372641,162.550491 666.360957,165.070708 668.106652,167.158888 L663.870301,171.394839 C663.423324,171.839291 663.423324,172.564318 663.870301,173.008771 C664.317278,173.453223 665.042375,173.453223 665.484385,173.008771 L669.718253,168.777786 C671.80663,170.53573 674.327085,171.533885 676.907137,171.769767 L676.907137,177.738833 C676.907137,178.369508 677.416194,178.881 678.049412,178.881 C678.364779,178.881 678.647865,178.751885 678.856454,178.545799 C679.06256,178.339712 679.189204,178.05417 679.189204,177.738833 L679.189204,171.777216 C681.786638,171.563681 684.324476,170.582907 686.435201,168.834894 L690.606989,173.008771 C691.053966,173.453223 691.779063,173.453223 692.223557,173.008771 C692.668051,172.564318 692.668051,171.839291 692.223557,171.394839 L688.0915,167.26069 L693.259054,162.093624 L697.393593,166.222807 C697.840571,166.672225 698.563184,166.672225 699.010161,166.222807 C699.454655,165.775872 699.454655,165.05581 699.010161,164.608875 L694.820991,160.422584 C696.529437,158.307092 697.478022,155.771977 697.664263,153.192169 L703.738187,153.192169 C704.053554,153.192169 704.339123,153.065537 704.545229,152.85945 C704.751335,152.653364 704.877979,152.365339 704.877979,152.050001 C704.882945,151.421809 704.368921,150.905351 703.738187,150.905351" id="Fill-20" fill="#345A7F" opacity="0.6880906"></path>
                        <path d="M487.419,252.614 L484.961,252.614 C484.856,251.593 484.458,250.598 483.76,249.771 C483.763,249.768 483.765,249.766 483.768,249.763 L485.515,248.016 C485.694,247.836 485.694,247.546 485.515,247.366 C485.335,247.186 485.044,247.186 484.864,247.366 L483.117,249.113 C483.114,249.116 483.111,249.119 483.11,249.122 C482.281,248.429 481.286,248.033 480.266,247.931 L480.266,245.462 C480.266,245.208 480.059,245 479.805,245 C479.551,245 479.345,245.208 479.345,245.462 L479.345,247.923 C478.311,248.001 477.294,248.381 476.447,249.066 L474.748,247.366 C474.567,247.186 474.277,247.186 474.097,247.366 C473.917,247.546 473.917,247.836 474.097,248.016 L475.774,249.695 L473.693,251.776 L472.014,250.099 C471.836,249.919 471.544,249.919 471.364,250.099 C471.184,250.278 471.184,250.569 471.364,250.749 L473.06,252.443 C472.358,253.289 471.963,254.306 471.875,255.347 L469.46,255.347 C469.206,255.347 469,255.553 469,255.807 C469,256.061 469.206,256.267 469.46,256.267 L471.877,256.267 C471.969,257.304 472.367,258.319 473.07,259.16 L471.364,260.866 C471.184,261.045 471.184,261.337 471.364,261.516 C471.544,261.695 471.836,261.695 472.014,261.516 L473.719,259.812 C474.56,260.52 475.575,260.922 476.614,261.017 L476.614,263.421 C476.614,263.675 476.819,263.881 477.074,263.881 C477.201,263.881 477.315,263.829 477.399,263.746 C477.482,263.663 477.533,263.548 477.533,263.421 L477.533,261.02 C478.579,260.934 479.601,260.539 480.451,259.835 L482.131,261.516 C482.311,261.695 482.603,261.695 482.782,261.516 C482.961,261.337 482.961,261.045 482.782,260.866 L481.118,259.201 L483.199,257.12 L484.864,258.783 C485.044,258.964 485.335,258.964 485.515,258.783 C485.694,258.603 485.694,258.313 485.515,258.133 L483.828,256.447 C484.516,255.595 484.898,254.574 484.973,253.535 L487.419,253.535 C487.546,253.535 487.661,253.484 487.744,253.401 C487.827,253.318 487.878,253.202 487.878,253.075 C487.88,252.822 487.673,252.614 487.419,252.614" id="Fill-20" fill="#3E71A3" opacity="0.6880906"></path>
                        <g id="Group-24">
                            <mask id="mask-6" fill="white">
                                <use xlink:href="#path-5"></use>
                            </mask>
                            <g id="Rectangle"></g>
                            <g id="Group-17" mask="url(#mask-6)">
                                <g transform="translate(-52.000000, 137.000000)">
                                    <mask id="mask-8" fill="white">
                                        <use xlink:href="#path-7"></use>
                                    </mask>
                                    <g id="Rectangle" stroke="none" fill="none"></g>
                                    <g id="Group-16" stroke="none" stroke-width="1" fill="none" fill-rule="evenodd" mask="url(#mask-8)">
                                        <g transform="translate(5.000000, -90.000000)" id="Rectangle">
                                            <polygon fill="#FFFFFF" opacity="0.240094866" points="200 3.69482223e-13 255 3.69482223e-13 455 307 -3.69482223e-13 307"></polygon>
                                            <polygon fill="#FAF5EE" opacity="0.136858259" points="200 3.69482223e-13 255 3.69482223e-13 365 307 90 307"></polygon>
                                            <polygon fill="#F9F9F8" opacity="0.0912155878" points="200 3.69482223e-13 255 3.69482223e-13 275 307 180 307"></polygon>
                                        </g>
                                    </g>
                                </g>
                            </g>
                            <g id="Group-16" mask="url(#mask-6)">
                                <g transform="translate(61.000000, 40.000000)">
                                    <mask id="mask-10" fill="white">
                                        <use xlink:href="#path-9"></use>
                                    </mask>
                                    <g id="Rectangle" stroke="none" fill="none"></g>
                                    <polygon id="Rectangle" stroke="none" fill="#F6EADC" fill-rule="evenodd" mask="url(#mask-10)" points="92 7 147 7 347 314 -108 314"></polygon>
                                    <polygon id="Rectangle" stroke="none" fill="#FAF5EE" fill-rule="evenodd" mask="url(#mask-10)" points="92 7 147 7 257 314 -18 314"></polygon>
                                    <polygon id="Rectangle" stroke="none" fill="#F9F9F8" fill-rule="evenodd" opacity="0.845819382" mask="url(#mask-10)" points="92 7 147 7 167 314 72 314"></polygon>
                                </g>
                            </g>
                            <circle id="Oval" fill="#FFFFEA" mask="url(#mask-6)" cx="180.5" cy="46.5" r="27.5"></circle>
                        </g>
                    </g>
                    <rect id="Rectangle" fill="#E4E4DE" x="251" y="1" width="8" height="369"></rect>
                    <rect id="Rectangle-Copy-2" fill="#E4E4DE" x="522" y="1" width="8" height="369"></rect>
                </g>
            </g>
        </g>
    </g>
</svg>