<?xml version="1.0" encoding="UTF-8"?>
<svg width="386px" height="375px" viewBox="0 0 386 375" version="1.1" xmlns="http://www.w3.org/2000/svg" xmlns:xlink="http://www.w3.org/1999/xlink">
    <!-- Generator: Sketch 52.2 (67145) - http://www.bohemiancoding.com/sketch -->
    <title>Group 19</title>
    <desc>Created with Sketch.</desc>
    <g id="Page-1" stroke="none" stroke-width="1" fill="none" fill-rule="evenodd">
        <g id="crt-science-v1.1" transform="translate(-730.000000, -4989.000000)">
            <g id="Group-19" transform="translate(730.000000, 4989.000000)">
                <polygon id="Fill-1" fill="#E2E3DE" points="10 375 386 375 386 121 10 121"></polygon>
                <g id="Group-11" transform="translate(0.000000, 35.000000)">
                    <polygon id="Fill-1" fill="#E5EFF5" points="0 325 376 325 376 71 0 71"></polygon>
                    <polygon id="Fill-2" fill="#71A4C7" points="0 325 376 325 376 150 0 150"></polygon>
                    <polygon id="Fill-3" fill="#D9DA76" points="102.333647 314 86.6663526 314 71 298.285377 71 94 118 94 118 298.285377"></polygon>
                    <polygon id="Fill-4" fill="#3D70A3" points="290.333647 314 274.667295 314 259 298.285377 259 94 306 94 306 298.285377"></polygon>
                    <polygon id="Fill-5" fill="#1C5780" points="86 94 94 86 102 94"></polygon>
                    <polygon id="Fill-6" fill="#1C5780" points="274 94 282.000481 86 290 94"></polygon>
                    <polyline id="Stroke-7" stroke="#1C5780" stroke-width="3" points="94 94 94 38.7781996 109.666038 23 266.333019 23 282 38.7781996 282 94"></polyline>
                    <polygon id="Fill-8" fill="#6AA339" points="149 0 149 47 227.050246 46.6862081 243 31.3330192 243 15.6669808 227.050246 0.313791928"></polygon>
                    <polygon id="Fill-9" fill="#1C5780" points="149 0 134 15.6669808 134 31.3330192 149 47"></polygon>
                    <polygon id="Fill-10" fill="#1C5780" points="181 93.8430128 181 325 196 325 196 93.8430128 188.5 86"></polygon>
                </g>
                <g id="Group-18" transform="translate(22.000000, 209.000000)" fill="#D9DA76">
                    <circle id="Oval" fill-opacity="0.5" cx="33.5" cy="18.5" r="3.5"></circle>
                    <circle id="Oval" fill-opacity="0.5" cx="33.5" cy="48.5" r="3.5"></circle>
                    <circle id="Oval" fill-opacity="0.5" cx="33.5" cy="78.5" r="3.5"></circle>
                    <circle id="Oval" fill-opacity="0.5" cx="33.5" cy="108.5" r="3.5"></circle>
                    <circle id="Oval" cx="18.5" cy="3.5" r="3.5"></circle>
                    <circle id="Oval" cx="18.5" cy="18.5" r="3.5"></circle>
                    <circle id="Oval" cx="18.5" cy="63.5" r="3.5"></circle>
                    <circle id="Oval" cx="18.5" cy="78.5" r="3.5"></circle>
                    <circle id="Oval" cx="18.5" cy="108.5" r="3.5"></circle>
                    <circle id="Oval" fill-opacity="0.5" cx="3.5" cy="3.5" r="3.5"></circle>
                    <circle id="Oval" fill-opacity="0.5" cx="3.5" cy="33.5" r="3.5"></circle>
                    <circle id="Oval" fill-opacity="0.5" cx="3.5" cy="48.5" r="3.5"></circle>
                    <circle id="Oval" fill-opacity="0.5" cx="3.5" cy="63.5" r="3.5"></circle>
                    <circle id="Oval" fill-opacity="0.5" cx="3.5" cy="93.5" r="3.5"></circle>
                    <circle id="Oval" opacity="0.5" cx="141.5" cy="3.5" r="3.5"></circle>
                    <circle id="Oval" opacity="0.5" cx="141.5" cy="48.5" r="3.5"></circle>
                    <circle id="Oval" opacity="0.5" cx="141.5" cy="93.5" r="3.5"></circle>
                    <circle id="Oval" opacity="0.5" cx="141.5" cy="108.5" r="3.5"></circle>
                    <circle id="Oval" cx="126.5" cy="18.5" r="3.5"></circle>
                    <circle id="Oval" cx="126.5" cy="63.5" r="3.5"></circle>
                    <circle id="Oval" cx="126.5" cy="93.5" r="3.5"></circle>
                    <circle id="Oval" opacity="0.5" cx="111.5" cy="3.5" r="3.5"></circle>
                    <circle id="Oval" opacity="0.5" cx="111.5" cy="33.5" r="3.5"></circle>
                    <circle id="Oval" opacity="0.5" cx="111.5" cy="48.5" r="3.5"></circle>
                    <circle id="Oval" opacity="0.5" cx="111.5" cy="93.5" r="3.5"></circle>
                    <circle id="Oval" opacity="0.5" cx="111.5" cy="108.5" r="3.5"></circle>
                </g>
                <g id="Group-18" transform="translate(211.000000, 209.000000)" fill="#3D70A3">
                    <circle id="Oval" opacity="0.5" cx="33.5" cy="18.5" r="3.5"></circle>
                    <circle id="Oval" opacity="0.5" cx="33.5" cy="48.5" r="3.5"></circle>
                    <circle id="Oval" opacity="0.5" cx="33.5" cy="78.5" r="3.5"></circle>
                    <circle id="Oval" opacity="0.5" cx="33.5" cy="108.5" r="3.5"></circle>
                    <circle id="Oval" cx="18.5" cy="3.5" r="3.5"></circle>
                    <circle id="Oval" cx="18.5" cy="18.5" r="3.5"></circle>
                    <circle id="Oval" cx="18.5" cy="63.5" r="3.5"></circle>
                    <circle id="Oval" cx="18.5" cy="78.5" r="3.5"></circle>
                    <circle id="Oval" cx="18.5" cy="108.5" r="3.5"></circle>
                    <circle id="Oval" opacity="0.5" cx="3.5" cy="3.5" r="3.5"></circle>
                    <circle id="Oval" opacity="0.5" cx="3.5" cy="33.5" r="3.5"></circle>
                    <circle id="Oval" opacity="0.5" cx="3.5" cy="48.5" r="3.5"></circle>
                    <circle id="Oval" opacity="0.5" cx="3.5" cy="63.5" r="3.5"></circle>
                    <circle id="Oval" opacity="0.5" cx="3.5" cy="93.5" r="3.5"></circle>
                    <circle id="Oval" opacity="0.5" cx="141.5" cy="3.5" r="3.5"></circle>
                    <circle id="Oval" opacity="0.5" cx="141.5" cy="48.5" r="3.5"></circle>
                    <circle id="Oval" opacity="0.5" cx="141.5" cy="93.5" r="3.5"></circle>
                    <circle id="Oval" opacity="0.5" cx="141.5" cy="108.5" r="3.5"></circle>
                    <circle id="Oval" cx="126.5" cy="18.5" r="3.5"></circle>
                    <circle id="Oval" cx="126.5" cy="63.5" r="3.5"></circle>
                    <circle id="Oval" cx="126.5" cy="93.5" r="3.5"></circle>
                    <circle id="Oval" opacity="0.5" cx="111.5" cy="3.5" r="3.5"></circle>
                    <circle id="Oval" opacity="0.5" cx="111.5" cy="33.5" r="3.5"></circle>
                    <circle id="Oval" opacity="0.5" cx="111.5" cy="48.5" r="3.5"></circle>
                    <circle id="Oval" opacity="0.5" cx="111.5" cy="93.5" r="3.5"></circle>
                    <circle id="Oval" opacity="0.5" cx="111.5" cy="108.5" r="3.5"></circle>
                </g>
                <circle id="Oval-Copy-7" stroke="#FFFFFF" opacity="0.342261905" cx="261.5" cy="226.5" r="9.5"></circle>
                <circle id="Oval-Copy-9" stroke="#FFFFFF" opacity="0.342261905" cx="342" cy="292" r="17"></circle>
                <polygon id="Fill-1" fill="#4D6F31" points="189.203475 48 178.620582 58.684 168 58.684 189.128736 69.368 199.824057 58.684 210.444 58.684"></polygon>
                <circle id="Oval-Copy-9" stroke="#FFFFFF" opacity="0.342261905" cx="30" cy="326" r="17"></circle>
                <circle id="Oval-Copy-10" stroke="#FFFFFF" opacity="0.342261905" cx="124" cy="262" r="9"></circle>
                <circle id="Oval-Copy-11" stroke="#FFFFFF" opacity="0.342261905" cx="42" cy="209" r="9"></circle>
                <circle id="Oval" fill="#D9DA76" cx="44.5" cy="34.5" r="34.5"></circle>
                <circle id="Oval" fill="#D9DA76" cx="36.5" cy="89.5" r="14.5"></circle>
                <circle id="Oval-Copy-12" fill="#D9DA76" cx="43.5" cy="119.5" r="8.5"></circle>
                <text id="CL2" font-family="Avenir-Heavy, Avenir" font-size="16" font-weight="600" fill="#FFFFFF">
                    <tspan x="30" y="40">CL2</tspan>
                </text>
            </g>
        </g>
    </g>
</svg>