<?xml version="1.0" encoding="UTF-8"?>
<svg width="786px" height="365px" viewBox="0 0 786 365" version="1.1" xmlns="http://www.w3.org/2000/svg" xmlns:xlink="http://www.w3.org/1999/xlink">
    <!-- Generator: Sketch 52.2 (67145) - http://www.bohemiancoding.com/sketch -->
    <title>Group 8</title>
    <desc>Created with Sketch.</desc>
    <defs>
        <circle id="path-1" cx="120.5" cy="120.5" r="120.5"></circle>
        <rect id="path-3" x="0" y="0" width="389" height="354"></rect>
        <path d="M43.7274727,104.754 C43.8584799,105.404513 43.9272203,106.07752 43.9272203,106.766557 C43.9272203,112.374149 39.3744135,116.92 33.7582418,116.92 C28.14207,116.92 23.5892632,112.374149 23.5892632,106.766557 C23.5892632,106.07752 23.6580037,105.404513 23.7890108,104.754 C23.137503,104.884807 22.4634662,104.953443 21.7733742,104.953443 C16.1572024,104.953443 11.6043956,100.407592 11.6043956,94.8 C11.6043956,89.1924085 16.1572024,84.6465574 21.7733742,84.6465574 C22.4634662,84.6465574 23.137503,84.7151928 23.7890108,84.8459998 C23.6580037,84.1954873 23.5892632,83.5224803 23.5892632,82.8334426 C23.5892632,77.2258511 28.14207,72.68 33.7582418,72.68 C39.3744135,72.68 43.9272203,77.2258511 43.9272203,82.8334426 C43.9272203,83.5224803 43.8584799,84.1954873 43.7274727,84.8459998 C44.3789805,84.7151928 45.0530174,84.6465574 45.7431093,84.6465574 C51.3592811,84.6465574 55.9120879,89.1924085 55.9120879,94.8 C55.9120879,100.407592 51.3592811,104.953443 45.7431093,104.953443 C45.0530174,104.953443 44.3789805,104.884807 43.7274727,104.754 Z" id="path-5"></path>
        <filter x="-5.6%" y="-5.7%" width="122.6%" height="122.6%" filterUnits="objectBoundingBox" id="filter-6">
            <feOffset dx="5" dy="5" in="SourceAlpha" result="shadowOffsetOuter1"></feOffset>
            <feColorMatrix values="0 0 0 0 0   0 0 0 0 0   0 0 0 0 0  0 0 0 0.156306612 0" type="matrix" in="shadowOffsetOuter1"></feColorMatrix>
        </filter>
        <path d="M43.7274727,41.5540002 C43.8584799,42.2045127 43.9272203,42.8775197 43.9272203,43.5665574 C43.9272203,49.1741489 39.3744135,53.72 33.7582418,53.72 C28.14207,53.72 23.5892632,49.1741489 23.5892632,43.5665574 C23.5892632,42.8775197 23.6580037,42.2045127 23.7890108,41.5540002 C23.137503,41.6848072 22.4634662,41.7534426 21.7733742,41.7534426 C16.1572024,41.7534426 11.6043956,37.2075915 11.6043956,31.6 C11.6043956,25.9924085 16.1572024,21.4465574 21.7733742,21.4465574 C22.4634662,21.4465574 23.137503,21.5151928 23.7890108,21.6459998 C23.6580037,20.9954873 23.5892632,20.3224803 23.5892632,19.6334426 C23.5892632,14.0258511 28.14207,9.48 33.7582418,9.48 C39.3744135,9.48 43.9272203,14.0258511 43.9272203,19.6334426 C43.9272203,20.3224803 43.8584799,20.9954873 43.7274727,21.6459998 C44.3789805,21.5151928 45.0530174,21.4465574 45.7431093,21.4465574 C51.3592811,21.4465574 55.9120879,25.9924085 55.9120879,31.6 C55.9120879,37.2075915 51.3592811,41.7534426 45.7431093,41.7534426 C45.0530174,41.7534426 44.3789805,41.6848072 43.7274727,41.5540002 Z" id="path-7"></path>
        <filter x="-5.6%" y="-5.7%" width="122.6%" height="122.6%" filterUnits="objectBoundingBox" id="filter-8">
            <feOffset dx="5" dy="5" in="SourceAlpha" result="shadowOffsetOuter1"></feOffset>
            <feColorMatrix values="0 0 0 0 0   0 0 0 0 0   0 0 0 0 0  0 0 0 0.156306612 0" type="matrix" in="shadowOffsetOuter1"></feColorMatrix>
        </filter>
        <path d="M62.7530101,154.765817 C65.4120069,140.66492 77.7691999,130 92.6117647,130 C109.394724,130 123,143.635678 123,160.45614 C123,175.153039 112.613172,187.418543 98.7953229,190.281303 C99.9526799,194.524581 100.570588,198.991139 100.570588,203.602339 C100.570588,231.436199 78.0570952,254 50.2852941,254 C22.513493,254 0,231.436199 0,203.602339 C0,175.76848 22.513493,153.204678 50.2852941,153.204678 C54.5888725,153.204678 58.7661817,153.746509 62.7530127,154.765818 Z" id="path-9"></path>
        <filter x="-2.0%" y="-2.0%" width="104.1%" height="104.0%" filterUnits="objectBoundingBox" id="filter-10">
            <feOffset dx="5" dy="5" in="SourceAlpha" result="shadowOffsetInner1"></feOffset>
            <feComposite in="shadowOffsetInner1" in2="SourceAlpha" operator="arithmetic" k2="-1" k3="1" result="shadowInnerInner1"></feComposite>
            <feColorMatrix values="0 0 0 0 0   0 0 0 0 0   0 0 0 0 0  0 0 0 0.146654212 0" type="matrix" in="shadowInnerInner1"></feColorMatrix>
        </filter>
        <path d="M107.024176,41.5540002 C107.155183,42.2045127 107.223924,42.8775197 107.223924,43.5665574 C107.223924,49.1741489 102.671117,53.72 97.0549451,53.72 C91.4387733,53.72 86.8859665,49.1741489 86.8859665,43.5665574 C86.8859665,42.8775197 86.954707,42.2045127 87.0857141,41.5540002 C86.4342063,41.6848072 85.7601695,41.7534426 85.0700775,41.7534426 C79.4539057,41.7534426 74.9010989,37.2075915 74.9010989,31.6 C74.9010989,25.9924085 79.4539057,21.4465574 85.0700775,21.4465574 C85.7601695,21.4465574 86.4342063,21.5151928 87.0857141,21.6459998 C86.954707,20.9954873 86.8859665,20.3224803 86.8859665,19.6334426 C86.8859665,14.0258511 91.4387733,9.48 97.0549451,9.48 C102.671117,9.48 107.223924,14.0258511 107.223924,19.6334426 C107.223924,20.3224803 107.155183,20.9954873 107.024176,21.6459998 C107.675684,21.5151928 108.349721,21.4465574 109.039813,21.4465574 C114.655984,21.4465574 119.208791,25.9924085 119.208791,31.6 C119.208791,37.2075915 114.655984,41.7534426 109.039813,41.7534426 C108.349721,41.7534426 107.675684,41.6848072 107.024176,41.5540002 Z" id="path-11"></path>
        <filter x="-5.6%" y="-5.7%" width="122.6%" height="122.6%" filterUnits="objectBoundingBox" id="filter-12">
            <feOffset dx="5" dy="5" in="SourceAlpha" result="shadowOffsetOuter1"></feOffset>
            <feColorMatrix values="0 0 0 0 0   0 0 0 0 0   0 0 0 0 0  0 0 0 0.156306612 0" type="matrix" in="shadowOffsetOuter1"></feColorMatrix>
        </filter>
        <path d="M107.024176,104.754 C107.155183,105.404513 107.223924,106.07752 107.223924,106.766557 C107.223924,112.374149 102.671117,116.92 97.0549451,116.92 C91.4387733,116.92 86.8859665,112.374149 86.8859665,106.766557 C86.8859665,106.07752 86.954707,105.404513 87.0857141,104.754 C86.4342063,104.884807 85.7601695,104.953443 85.0700775,104.953443 C79.4539057,104.953443 74.9010989,100.407592 74.9010989,94.8 C74.9010989,89.1924085 79.4539057,84.6465574 85.0700775,84.6465574 C85.7601695,84.6465574 86.4342063,84.7151928 87.0857141,84.8459998 C86.954707,84.1954873 86.8859665,83.5224803 86.8859665,82.8334426 C86.8859665,77.2258511 91.4387733,72.68 97.0549451,72.68 C102.671117,72.68 107.223924,77.2258511 107.223924,82.8334426 C107.223924,83.5224803 107.155183,84.1954873 107.024176,84.8459998 C107.675684,84.7151928 108.349721,84.6465574 109.039813,84.6465574 C114.655984,84.6465574 119.208791,89.1924085 119.208791,94.8 C119.208791,100.407592 114.655984,104.953443 109.039813,104.953443 C108.349721,104.953443 107.675684,104.884807 107.024176,104.754 Z" id="path-13"></path>
        <filter x="-5.6%" y="-5.7%" width="122.6%" height="122.6%" filterUnits="objectBoundingBox" id="filter-14">
            <feOffset dx="5" dy="5" in="SourceAlpha" result="shadowOffsetOuter1"></feOffset>
            <feColorMatrix values="0 0 0 0 0   0 0 0 0 0   0 0 0 0 0  0 0 0 0.156306612 0" type="matrix" in="shadowOffsetOuter1"></feColorMatrix>
        </filter>
        <path d="M170.320879,104.754 C170.451886,105.404513 170.520627,106.07752 170.520627,106.766557 C170.520627,112.374149 165.96782,116.92 160.351648,116.92 C154.735477,116.92 150.18267,112.374149 150.18267,106.766557 C150.18267,106.07752 150.25141,105.404513 150.382417,104.754 C149.73091,104.884807 149.056873,104.953443 148.366781,104.953443 C142.750609,104.953443 138.197802,100.407592 138.197802,94.8 C138.197802,89.1924085 142.750609,84.6465574 148.366781,84.6465574 C149.056873,84.6465574 149.73091,84.7151928 150.382417,84.8459998 C150.25141,84.1954873 150.18267,83.5224803 150.18267,82.8334426 C150.18267,77.2258511 154.735477,72.68 160.351648,72.68 C165.96782,72.68 170.520627,77.2258511 170.520627,82.8334426 C170.520627,83.5224803 170.451886,84.1954873 170.320879,84.8459998 C170.972387,84.7151928 171.646424,84.6465574 172.336516,84.6465574 C177.952688,84.6465574 182.505495,89.1924085 182.505495,94.8 C182.505495,100.407592 177.952688,104.953443 172.336516,104.953443 C171.646424,104.953443 170.972387,104.884807 170.320879,104.754 Z" id="path-15"></path>
        <filter x="-5.6%" y="-5.7%" width="122.6%" height="122.6%" filterUnits="objectBoundingBox" id="filter-16">
            <feOffset dx="5" dy="5" in="SourceAlpha" result="shadowOffsetOuter1"></feOffset>
            <feColorMatrix values="0 0 0 0 0   0 0 0 0 0   0 0 0 0 0  0 0 0 0.156306612 0" type="matrix" in="shadowOffsetOuter1"></feColorMatrix>
        </filter>
        <path d="M170.320879,167.954 C170.451886,168.604513 170.520627,169.27752 170.520627,169.966557 C170.520627,175.574149 165.96782,180.12 160.351648,180.12 C154.735477,180.12 150.18267,175.574149 150.18267,169.966557 C150.18267,169.27752 150.25141,168.604513 150.382417,167.954 C149.73091,168.084807 149.056873,168.153443 148.366781,168.153443 C142.750609,168.153443 138.197802,163.607592 138.197802,158 C138.197802,152.392408 142.750609,147.846557 148.366781,147.846557 C149.056873,147.846557 149.73091,147.915193 150.382417,148.046 C150.25141,147.395487 150.18267,146.72248 150.18267,146.033443 C150.18267,140.425851 154.735477,135.88 160.351648,135.88 C165.96782,135.88 170.520627,140.425851 170.520627,146.033443 C170.520627,146.72248 170.451886,147.395487 170.320879,148.046 C170.972387,147.915193 171.646424,147.846557 172.336516,147.846557 C177.952688,147.846557 182.505495,152.392408 182.505495,158 C182.505495,163.607592 177.952688,168.153443 172.336516,168.153443 C171.646424,168.153443 170.972387,168.084807 170.320879,167.954 Z" id="path-17"></path>
        <filter x="-5.6%" y="-5.7%" width="122.6%" height="122.6%" filterUnits="objectBoundingBox" id="filter-18">
            <feOffset dx="5" dy="5" in="SourceAlpha" result="shadowOffsetOuter1"></feOffset>
            <feColorMatrix values="0 0 0 0 0   0 0 0 0 0   0 0 0 0 0  0 0 0 0.156306612 0" type="matrix" in="shadowOffsetOuter1"></feColorMatrix>
        </filter>
        <path d="M170.320879,231.154 C170.451886,231.804513 170.520627,232.47752 170.520627,233.166557 C170.520627,238.774149 165.96782,243.32 160.351648,243.32 C154.735477,243.32 150.18267,238.774149 150.18267,233.166557 C150.18267,232.47752 150.25141,231.804513 150.382417,231.154 C149.73091,231.284807 149.056873,231.353443 148.366781,231.353443 C142.750609,231.353443 138.197802,226.807592 138.197802,221.2 C138.197802,215.592408 142.750609,211.046557 148.366781,211.046557 C149.056873,211.046557 149.73091,211.115193 150.382417,211.246 C150.25141,210.595487 150.18267,209.92248 150.18267,209.233443 C150.18267,203.625851 154.735477,199.08 160.351648,199.08 C165.96782,199.08 170.520627,203.625851 170.520627,209.233443 C170.520627,209.92248 170.451886,210.595487 170.320879,211.246 C170.972387,211.115193 171.646424,211.046557 172.336516,211.046557 C177.952688,211.046557 182.505495,215.592408 182.505495,221.2 C182.505495,226.807592 177.952688,231.353443 172.336516,231.353443 C171.646424,231.353443 170.972387,231.284807 170.320879,231.154 Z" id="path-19"></path>
        <filter x="-5.6%" y="-5.7%" width="122.6%" height="122.6%" filterUnits="objectBoundingBox" id="filter-20">
            <feOffset dx="5" dy="5" in="SourceAlpha" result="shadowOffsetOuter1"></feOffset>
            <feColorMatrix values="0 0 0 0 0   0 0 0 0 0   0 0 0 0 0  0 0 0 0.156306612 0" type="matrix" in="shadowOffsetOuter1"></feColorMatrix>
        </filter>
        <path d="M107.024176,231.154 C107.155183,231.804513 107.223924,232.47752 107.223924,233.166557 C107.223924,238.774149 102.671117,243.32 97.0549451,243.32 C91.4387733,243.32 86.8859665,238.774149 86.8859665,233.166557 C86.8859665,232.47752 86.954707,231.804513 87.0857141,231.154 C86.4342063,231.284807 85.7601695,231.353443 85.0700775,231.353443 C79.4539057,231.353443 74.9010989,226.807592 74.9010989,221.2 C74.9010989,215.592408 79.4539057,211.046557 85.0700775,211.046557 C85.7601695,211.046557 86.4342063,211.115193 87.0857141,211.246 C86.954707,210.595487 86.8859665,209.92248 86.8859665,209.233443 C86.8859665,203.625851 91.4387733,199.08 97.0549451,199.08 C102.671117,199.08 107.223924,203.625851 107.223924,209.233443 C107.223924,209.92248 107.155183,210.595487 107.024176,211.246 C107.675684,211.115193 108.349721,211.046557 109.039813,211.046557 C114.655984,211.046557 119.208791,215.592408 119.208791,221.2 C119.208791,226.807592 114.655984,231.353443 109.039813,231.353443 C108.349721,231.353443 107.675684,231.284807 107.024176,231.154 Z" id="path-21"></path>
        <filter x="-5.6%" y="-5.7%" width="122.6%" height="122.6%" filterUnits="objectBoundingBox" id="filter-22">
            <feOffset dx="5" dy="5" in="SourceAlpha" result="shadowOffsetOuter1"></feOffset>
            <feColorMatrix values="0 0 0 0 0   0 0 0 0 0   0 0 0 0 0  0 0 0 0.156306612 0" type="matrix" in="shadowOffsetOuter1"></feColorMatrix>
        </filter>
        <path d="M107.024176,294.354 C107.155183,295.004513 107.223924,295.67752 107.223924,296.366557 C107.223924,301.974149 102.671117,306.52 97.0549451,306.52 C91.4387733,306.52 86.8859665,301.974149 86.8859665,296.366557 C86.8859665,295.67752 86.954707,295.004513 87.0857141,294.354 C86.4342063,294.484807 85.7601695,294.553443 85.0700775,294.553443 C79.4539057,294.553443 74.9010989,290.007592 74.9010989,284.4 C74.9010989,278.792408 79.4539057,274.246557 85.0700775,274.246557 C85.7601695,274.246557 86.4342063,274.315193 87.0857141,274.446 C86.954707,273.795487 86.8859665,273.12248 86.8859665,272.433443 C86.8859665,266.825851 91.4387733,262.28 97.0549451,262.28 C102.671117,262.28 107.223924,266.825851 107.223924,272.433443 C107.223924,273.12248 107.155183,273.795487 107.024176,274.446 C107.675684,274.315193 108.349721,274.246557 109.039813,274.246557 C114.655984,274.246557 119.208791,278.792408 119.208791,284.4 C119.208791,290.007592 114.655984,294.553443 109.039813,294.553443 C108.349721,294.553443 107.675684,294.484807 107.024176,294.354 Z" id="path-23"></path>
        <filter x="-5.6%" y="-5.7%" width="122.6%" height="122.6%" filterUnits="objectBoundingBox" id="filter-24">
            <feOffset dx="5" dy="5" in="SourceAlpha" result="shadowOffsetOuter1"></feOffset>
            <feColorMatrix values="0 0 0 0 0   0 0 0 0 0   0 0 0 0 0  0 0 0 0.156306612 0" type="matrix" in="shadowOffsetOuter1"></feColorMatrix>
        </filter>
        <path d="M43.7274727,294.354 C43.8584799,295.004513 43.9272203,295.67752 43.9272203,296.366557 C43.9272203,301.974149 39.3744135,306.52 33.7582418,306.52 C28.14207,306.52 23.5892632,301.974149 23.5892632,296.366557 C23.5892632,295.67752 23.6580037,295.004513 23.7890108,294.354 C23.137503,294.484807 22.4634662,294.553443 21.7733742,294.553443 C16.1572024,294.553443 11.6043956,290.007592 11.6043956,284.4 C11.6043956,278.792408 16.1572024,274.246557 21.7733742,274.246557 C22.4634662,274.246557 23.137503,274.315193 23.7890108,274.446 C23.6580037,273.795487 23.5892632,273.12248 23.5892632,272.433443 C23.5892632,266.825851 28.14207,262.28 33.7582418,262.28 C39.3744135,262.28 43.9272203,266.825851 43.9272203,272.433443 C43.9272203,273.12248 43.8584799,273.795487 43.7274727,274.446 C44.3789805,274.315193 45.0530174,274.246557 45.7431093,274.246557 C51.3592811,274.246557 55.9120879,278.792408 55.9120879,284.4 C55.9120879,290.007592 51.3592811,294.553443 45.7431093,294.553443 C45.0530174,294.553443 44.3789805,294.484807 43.7274727,294.354 Z" id="path-25"></path>
        <filter x="-5.6%" y="-5.7%" width="122.6%" height="122.6%" filterUnits="objectBoundingBox" id="filter-26">
            <feOffset dx="5" dy="5" in="SourceAlpha" result="shadowOffsetOuter1"></feOffset>
            <feColorMatrix values="0 0 0 0 0   0 0 0 0 0   0 0 0 0 0  0 0 0 0.156306612 0" type="matrix" in="shadowOffsetOuter1"></feColorMatrix>
        </filter>
        <polygon id="path-27" points="0 0 12.1153846 0 12.1153846 12.4285714 0 12.4285714"></polygon>
        <polygon id="path-29" points="0 0 12.1153846 0 12.1153846 12.4285714 0 12.4285714"></polygon>
        <polygon id="path-31" points="0 0 12.1153846 0 12.1153846 12.4285714 0 12.4285714"></polygon>
        <path d="M716.40421,44.9472575 C718.440657,41.8593276 722.038773,39.8080305 726.137773,39.8080305 C732.489047,39.8080305 737.637773,44.7328983 737.637773,50.8080305 C737.637773,55.2072989 734.937864,59.0033869 731.036524,60.7629671 C736.036008,64.0955488 739.316401,69.6943644 739.316401,76.0391944 C739.316401,86.2564623 730.809811,94.5391944 720.316401,94.5391944 C711.279425,94.5391944 703.716022,88.3961089 701.790584,80.164741 C699.822726,80.6534532 697.75889,80.9134741 695.631739,80.9134741 C682.100762,80.9134741 671.131739,70.3921658 671.131739,57.4134741 C671.131739,44.4347825 682.100762,33.9134741 695.631739,33.9134741 C704.388427,33.9134741 712.072133,38.3199489 716.40421,44.9472575 Z" id="path-33"></path>
        <filter x="-3.7%" y="-4.1%" width="114.7%" height="116.5%" filterUnits="objectBoundingBox" id="filter-34">
            <feOffset dx="5" dy="5" in="SourceAlpha" result="shadowOffsetOuter1"></feOffset>
            <feColorMatrix values="0 0 0 0 0   0 0 0 0 0   0 0 0 0 0  0 0 0 0.0604619565 0" type="matrix" in="shadowOffsetOuter1"></feColorMatrix>
        </filter>
        <path d="M609.159422,283.483516 C611.195869,280.395586 614.793985,278.344289 618.892985,278.344289 C625.244259,278.344289 630.392985,283.269157 630.392985,289.344289 C630.392985,293.743558 627.693075,297.539646 623.791736,299.299226 C628.791219,302.631807 632.071613,308.230623 632.071613,314.575453 C632.071613,324.792721 623.565023,333.075453 613.071613,333.075453 C604.034637,333.075453 596.471234,326.932368 594.545796,318.701 C592.577938,319.189712 590.514102,319.449733 588.386951,319.449733 C574.855974,319.449733 563.886951,308.928424 563.886951,295.949733 C563.886951,282.971041 574.855974,272.449733 588.386951,272.449733 C597.143639,272.449733 604.827345,276.856207 609.159422,283.483516 Z" id="path-35"></path>
        <filter x="-3.7%" y="-4.1%" width="114.7%" height="116.5%" filterUnits="objectBoundingBox" id="filter-36">
            <feOffset dx="5" dy="5" in="SourceAlpha" result="shadowOffsetOuter1"></feOffset>
            <feColorMatrix values="0 0 0 0 0   0 0 0 0 0   0 0 0 0 0  0 0 0 0.0604619565 0" type="matrix" in="shadowOffsetOuter1"></feColorMatrix>
        </filter>
    </defs>
    <g id="Page-1" stroke="none" stroke-width="1" fill="none" fill-rule="evenodd">
        <g id="crt-frontier-desert-flooding-v1.0" transform="translate(-207.000000, -2571.000000)">
            <g id="Group-8" transform="translate(207.000000, 2571.000000)">
                <polygon id="Fill-1" fill="#E4E4DE" points="9 365 786 365 786 13 9 13"></polygon>
                <g id="Group-4">
                    <rect id="Rectangle" fill="#243E4E" x="0" y="0" width="777" height="354"></rect>
                    <g id="earth" transform="translate(57.000000, 60.000000)">
                        <mask id="mask-2" fill="white">
                            <use xlink:href="#path-1"></use>
                        </mask>
                        <use id="Oval" fill="#7CA4CA" xlink:href="#path-1"></use>
                        <g id="africa" mask="url(#mask-2)">
                            <g transform="translate(41.000000, -62.000000)" id="Group-4">
                                <g>
                                    <polygon id="Fill-1" fill="#F8D6A2" points="49.6720353 92.142481 34.3882319 107.499694 19.1047904 107.499694 -0.00014471243 126.696029 -0.00014471243 134.374636 15.2836586 149.731486 160.478705 149.731486 126.090328 115.178301 122.269558 111.338816 114.628019 103.660573 99.3442152 103.660573 95.5230835 107.499694 80.2392801 107.499694 63.0452727 92.142481"></polygon>
                                    <polygon id="Fill-2" fill="#A6B396" points="0 157.409984 26.746475 184.285289 72.5975232 184.285289 72.5975232 199.642139 84.0601948 211.160231 84.0601948 234.195688 72.5975232 245.713779 84.0601948 257.231508 84.0601948 272.588358 91.7020965 280.266964 129.511837 280.668289 145.195046 264.909751 145.195046 249.552901 152.836586 241.874294 160.478488 241.874294 160.279147 211.360893 194.866865 176.606682 194.866865 161.249469 179.583423 161.249469 175.762291 165.088954 160.478488 149.731377 15.2838033 149.731377 0 134.374527"></polygon>
                                    <polygon id="Fill-3" fill="#A6B396" points="126.090401 -0.000145407503 99.3439258 26.8747964 68.7763191 26.8747964 45.8509759 49.9106166 45.8509759 57.5892233 42.0302059 61.4283449 26.7467644 61.4283449 26.7467644 92.1424083 34.3883043 92.1424083 61.1347792 65.26783 68.7763191 65.26783 84.0601224 80.6250435 80.2393525 84.4641651 72.5974508 84.4641651 80.2393525 92.1424083 95.5231558 76.7855583 80.2393525 61.4283449 84.0601224 57.5892233 103.164696 76.7855583 99.3439258 80.6250435 106.985827 88.3032867 114.627729 80.6250435 122.269631 88.3032867 137.553434 88.3032867 141.374204 92.1424083 141.374204 99.821015 129.911171 111.339107 175.762581 157.41002 179.583351 153.570535 194.990521 153.446939 194.990521 38.5168481 156.657646 -0.000145407503"></polygon>
                                </g>
                            </g>
                        </g>
                    </g>
                </g>
                <g id="Group-5" transform="translate(182.000000, 114.000000)" fill="#8DB65A">
                    <rect id="Rectangle" x="0" y="0" width="10" height="10"></rect>
                    <rect id="Rectangle" x="12" y="0" width="10" height="10"></rect>
                </g>
                <g id="Group-5" transform="translate(182.000000, 126.000000)" fill="#8DB65A">
                    <rect id="Rectangle" x="0" y="0" width="10" height="10"></rect>
                    <rect id="Rectangle" x="12" y="0" width="10" height="10"></rect>
                </g>
                <rect id="Rectangle" stroke="#8DB65A" stroke-width="3" x="177.5" y="109.5" width="31" height="31"></rect>
                <g id="Group-2" transform="translate(388.000000, 0.000000)">
                    <mask id="mask-4" fill="white">
                        <use xlink:href="#path-3"></use>
                    </mask>
                    <use id="Rectangle" fill="#D7BF9A" xlink:href="#path-3"></use>
                </g>
                <polygon id="Path-4" fill="#ACA97D" opacity="0.569452195" points="588 0 608 21 648 21 668 41 668 121 708 161 708 201 648 261 648 301 608 341 588 341 588 353.823 468 353.823 488 0"></polygon>
                <rect id="Rectangle" stroke="#8DB65A" stroke-width="4" x="390" y="2" width="385" height="350"></rect>
                <polygon id="Path-3" fill="#8FB066" points="528 -4.26325641e-13 568 41 608 41 628 61 628 160 648 180 648 221 588 282 568 282 508 341 508 353.823 388 354.155 388 -4.26325641e-13"></polygon>
                <g id="Group-6" transform="translate(406.000000, 9.000000)">
                    <g id="Combined-Shape" transform="translate(33.758242, 94.800000) rotate(40.000000) translate(-33.758242, -94.800000) ">
                        <use fill="black" fill-opacity="1" filter="url(#filter-6)" xlink:href="#path-5"></use>
                        <use fill="#ABCA6A" fill-rule="evenodd" xlink:href="#path-5"></use>
                    </g>
                    <g id="Combined-Shape" transform="translate(33.758242, 31.600000) rotate(40.000000) translate(-33.758242, -31.600000) ">
                        <use fill="black" fill-opacity="1" filter="url(#filter-8)" xlink:href="#path-7"></use>
                        <use fill="#ABCA6A" fill-rule="evenodd" xlink:href="#path-7"></use>
                    </g>
                    <g id="Combined-Shape">
                        <use fill="#71A0BD" fill-rule="evenodd" xlink:href="#path-9"></use>
                        <use fill="black" fill-opacity="1" filter="url(#filter-10)" xlink:href="#path-9"></use>
                    </g>
                    <path d="M38.419,194.614 L35.961,194.614 C35.856,193.593 35.458,192.598 34.76,191.771 C34.763,191.768 34.765,191.766 34.768,191.763 L36.515,190.016 C36.694,189.836 36.694,189.546 36.515,189.366 C36.335,189.186 36.044,189.186 35.864,189.366 L34.117,191.113 C34.114,191.116 34.111,191.119 34.11,191.122 C33.281,190.429 32.286,190.033 31.266,189.931 L31.266,187.462 C31.266,187.208 31.059,187 30.805,187 C30.551,187 30.345,187.208 30.345,187.462 L30.345,189.923 C29.311,190.001 28.294,190.381 27.447,191.066 L25.748,189.366 C25.567,189.186 25.277,189.186 25.097,189.366 C24.917,189.546 24.917,189.836 25.097,190.016 L26.774,191.695 L24.693,193.776 L23.014,192.099 C22.836,191.919 22.544,191.919 22.364,192.099 C22.184,192.278 22.184,192.569 22.364,192.749 L24.06,194.443 C23.358,195.289 22.963,196.306 22.875,197.347 L20.46,197.347 C20.206,197.347 20,197.553 20,197.807 C20,198.061 20.206,198.267 20.46,198.267 L22.877,198.267 C22.969,199.304 23.367,200.319 24.07,201.16 L22.364,202.866 C22.184,203.045 22.184,203.337 22.364,203.516 C22.544,203.695 22.836,203.695 23.014,203.516 L24.719,201.812 C25.56,202.52 26.575,202.922 27.614,203.017 L27.614,205.421 C27.614,205.675 27.819,205.881 28.074,205.881 C28.201,205.881 28.315,205.829 28.399,205.746 C28.482,205.663 28.533,205.548 28.533,205.421 L28.533,203.02 C29.579,202.934 30.601,202.539 31.451,201.835 L33.131,203.516 C33.311,203.695 33.603,203.695 33.782,203.516 C33.961,203.337 33.961,203.045 33.782,202.866 L32.118,201.201 L34.199,199.12 L35.864,200.783 C36.044,200.964 36.335,200.964 36.515,200.783 C36.694,200.603 36.694,200.313 36.515,200.133 L34.828,198.447 C35.516,197.595 35.898,196.574 35.973,195.535 L38.419,195.535 C38.546,195.535 38.661,195.484 38.744,195.401 C38.827,195.318 38.878,195.202 38.878,195.075 C38.88,194.822 38.673,194.614 38.419,194.614" id="Fill-20-Copy-8" fill="#3E71A3" opacity="0.600000024"></path>
                    <path d="M74.419,181.614 L71.961,181.614 C71.856,180.593 71.458,179.598 70.76,178.771 C70.763,178.768 70.765,178.766 70.768,178.763 L72.515,177.016 C72.694,176.836 72.694,176.546 72.515,176.366 C72.335,176.186 72.044,176.186 71.864,176.366 L70.117,178.113 C70.114,178.116 70.111,178.119 70.11,178.122 C69.281,177.429 68.286,177.033 67.266,176.931 L67.266,174.462 C67.266,174.208 67.059,174 66.805,174 C66.551,174 66.345,174.208 66.345,174.462 L66.345,176.923 C65.311,177.001 64.294,177.381 63.447,178.066 L61.748,176.366 C61.567,176.186 61.277,176.186 61.097,176.366 C60.917,176.546 60.917,176.836 61.097,177.016 L62.774,178.695 L60.693,180.776 L59.014,179.099 C58.836,178.919 58.544,178.919 58.364,179.099 C58.184,179.278 58.184,179.569 58.364,179.749 L60.06,181.443 C59.358,182.289 58.963,183.306 58.875,184.347 L56.46,184.347 C56.206,184.347 56,184.553 56,184.807 C56,185.061 56.206,185.267 56.46,185.267 L58.877,185.267 C58.969,186.304 59.367,187.319 60.07,188.16 L58.364,189.866 C58.184,190.045 58.184,190.337 58.364,190.516 C58.544,190.695 58.836,190.695 59.014,190.516 L60.719,188.812 C61.56,189.52 62.575,189.922 63.614,190.017 L63.614,192.421 C63.614,192.675 63.819,192.881 64.074,192.881 C64.201,192.881 64.315,192.829 64.399,192.746 C64.482,192.663 64.533,192.548 64.533,192.421 L64.533,190.02 C65.579,189.934 66.601,189.539 67.451,188.835 L69.131,190.516 C69.311,190.695 69.603,190.695 69.782,190.516 C69.961,190.337 69.961,190.045 69.782,189.866 L68.118,188.201 L70.199,186.12 L71.864,187.783 C72.044,187.964 72.335,187.964 72.515,187.783 C72.694,187.603 72.694,187.313 72.515,187.133 L70.828,185.447 C71.516,184.595 71.898,183.574 71.973,182.535 L74.419,182.535 C74.546,182.535 74.661,182.484 74.744,182.401 C74.827,182.318 74.878,182.202 74.878,182.075 C74.88,181.822 74.673,181.614 74.419,181.614" id="Fill-20-Copy-9" fill="#3E71A3" opacity="0.600000024"></path>
                    <path d="M64.419,221.614 L61.961,221.614 C61.856,220.593 61.458,219.598 60.76,218.771 C60.763,218.768 60.765,218.766 60.768,218.763 L62.515,217.016 C62.694,216.836 62.694,216.546 62.515,216.366 C62.335,216.186 62.044,216.186 61.864,216.366 L60.117,218.113 C60.114,218.116 60.111,218.119 60.11,218.122 C59.281,217.429 58.286,217.033 57.266,216.931 L57.266,214.462 C57.266,214.208 57.059,214 56.805,214 C56.551,214 56.345,214.208 56.345,214.462 L56.345,216.923 C55.311,217.001 54.294,217.381 53.447,218.066 L51.748,216.366 C51.567,216.186 51.277,216.186 51.097,216.366 C50.917,216.546 50.917,216.836 51.097,217.016 L52.774,218.695 L50.693,220.776 L49.014,219.099 C48.836,218.919 48.544,218.919 48.364,219.099 C48.184,219.278 48.184,219.569 48.364,219.749 L50.06,221.443 C49.358,222.289 48.963,223.306 48.875,224.347 L46.46,224.347 C46.206,224.347 46,224.553 46,224.807 C46,225.061 46.206,225.267 46.46,225.267 L48.877,225.267 C48.969,226.304 49.367,227.319 50.07,228.16 L48.364,229.866 C48.184,230.045 48.184,230.337 48.364,230.516 C48.544,230.695 48.836,230.695 49.014,230.516 L50.719,228.812 C51.56,229.52 52.575,229.922 53.614,230.017 L53.614,232.421 C53.614,232.675 53.819,232.881 54.074,232.881 C54.201,232.881 54.315,232.829 54.399,232.746 C54.482,232.663 54.533,232.548 54.533,232.421 L54.533,230.02 C55.579,229.934 56.601,229.539 57.451,228.835 L59.131,230.516 C59.311,230.695 59.603,230.695 59.782,230.516 C59.961,230.337 59.961,230.045 59.782,229.866 L58.118,228.201 L60.199,226.12 L61.864,227.783 C62.044,227.964 62.335,227.964 62.515,227.783 C62.694,227.603 62.694,227.313 62.515,227.133 L60.828,225.447 C61.516,224.595 61.898,223.574 61.973,222.535 L64.419,222.535 C64.546,222.535 64.661,222.484 64.744,222.401 C64.827,222.318 64.878,222.202 64.878,222.075 C64.88,221.822 64.673,221.614 64.419,221.614" id="Fill-20-Copy-10" fill="#3E71A3" opacity="0.600000024"></path>
                    <path d="M106.419,159.614 L103.961,159.614 C103.856,158.593 103.458,157.598 102.76,156.771 C102.763,156.768 102.765,156.766 102.768,156.763 L104.515,155.016 C104.694,154.836 104.694,154.546 104.515,154.366 C104.335,154.186 104.044,154.186 103.864,154.366 L102.117,156.113 C102.114,156.116 102.111,156.119 102.11,156.122 C101.281,155.429 100.286,155.033 99.266,154.931 L99.266,152.462 C99.266,152.208 99.059,152 98.805,152 C98.551,152 98.345,152.208 98.345,152.462 L98.345,154.923 C97.311,155.001 96.294,155.381 95.447,156.066 L93.748,154.366 C93.567,154.186 93.277,154.186 93.097,154.366 C92.917,154.546 92.917,154.836 93.097,155.016 L94.774,156.695 L92.693,158.776 L91.014,157.099 C90.836,156.919 90.544,156.919 90.364,157.099 C90.184,157.278 90.184,157.569 90.364,157.749 L92.06,159.443 C91.358,160.289 90.963,161.306 90.875,162.347 L88.46,162.347 C88.206,162.347 88,162.553 88,162.807 C88,163.061 88.206,163.267 88.46,163.267 L90.877,163.267 C90.969,164.304 91.367,165.319 92.07,166.16 L90.364,167.866 C90.184,168.045 90.184,168.337 90.364,168.516 C90.544,168.695 90.836,168.695 91.014,168.516 L92.719,166.812 C93.56,167.52 94.575,167.922 95.614,168.017 L95.614,170.421 C95.614,170.675 95.819,170.881 96.074,170.881 C96.201,170.881 96.315,170.829 96.399,170.746 C96.482,170.663 96.533,170.548 96.533,170.421 L96.533,168.02 C97.579,167.934 98.601,167.539 99.451,166.835 L101.131,168.516 C101.311,168.695 101.603,168.695 101.782,168.516 C101.961,168.337 101.961,168.045 101.782,167.866 L100.118,166.201 L102.199,164.12 L103.864,165.783 C104.044,165.964 104.335,165.964 104.515,165.783 C104.694,165.603 104.694,165.313 104.515,165.133 L102.828,163.447 C103.516,162.595 103.898,161.574 103.973,160.535 L106.419,160.535 C106.546,160.535 106.661,160.484 106.744,160.401 C106.827,160.318 106.878,160.202 106.878,160.075 C106.88,159.822 106.673,159.614 106.419,159.614" id="Fill-20-Copy-11" fill="#3E71A3" opacity="0.600000024"></path>
                    <g id="Combined-Shape" transform="translate(97.054945, 31.600000) rotate(40.000000) translate(-97.054945, -31.600000) ">
                        <use fill="black" fill-opacity="1" filter="url(#filter-12)" xlink:href="#path-11"></use>
                        <use fill="#ABCA6A" fill-rule="evenodd" xlink:href="#path-11"></use>
                    </g>
                    <g id="Combined-Shape" transform="translate(97.054945, 94.800000) rotate(40.000000) translate(-97.054945, -94.800000) ">
                        <use fill="black" fill-opacity="1" filter="url(#filter-14)" xlink:href="#path-13"></use>
                        <use fill="#ABCA6A" fill-rule="evenodd" xlink:href="#path-13"></use>
                    </g>
                    <g id="Combined-Shape" transform="translate(160.351648, 94.800000) rotate(40.000000) translate(-160.351648, -94.800000) ">
                        <use fill="black" fill-opacity="1" filter="url(#filter-16)" xlink:href="#path-15"></use>
                        <use fill="#ABCA6A" fill-rule="evenodd" xlink:href="#path-15"></use>
                    </g>
                    <g id="Combined-Shape" transform="translate(160.351648, 158.000000) rotate(40.000000) translate(-160.351648, -158.000000) ">
                        <use fill="black" fill-opacity="1" filter="url(#filter-18)" xlink:href="#path-17"></use>
                        <use fill="#ABCA6A" fill-rule="evenodd" xlink:href="#path-17"></use>
                    </g>
                    <g id="Combined-Shape" transform="translate(160.351648, 221.200000) rotate(40.000000) translate(-160.351648, -221.200000) ">
                        <use fill="black" fill-opacity="1" filter="url(#filter-20)" xlink:href="#path-19"></use>
                        <use fill="#ABCA6A" fill-rule="evenodd" xlink:href="#path-19"></use>
                    </g>
                    <g id="Combined-Shape" transform="translate(97.054945, 221.200000) rotate(40.000000) translate(-97.054945, -221.200000) ">
                        <use fill="black" fill-opacity="1" filter="url(#filter-22)" xlink:href="#path-21"></use>
                        <use fill="#ABCA6A" fill-rule="evenodd" xlink:href="#path-21"></use>
                    </g>
                    <g id="Combined-Shape" transform="translate(97.054945, 284.400000) rotate(40.000000) translate(-97.054945, -284.400000) ">
                        <use fill="black" fill-opacity="1" filter="url(#filter-24)" xlink:href="#path-23"></use>
                        <use fill="#ABCA6A" fill-rule="evenodd" xlink:href="#path-23"></use>
                    </g>
                    <g id="Combined-Shape" transform="translate(33.758242, 284.400000) rotate(40.000000) translate(-33.758242, -284.400000) ">
                        <use fill="black" fill-opacity="1" filter="url(#filter-26)" xlink:href="#path-25"></use>
                        <use fill="#ABCA6A" fill-rule="evenodd" xlink:href="#path-25"></use>
                    </g>
                </g>
                <g id="pump" transform="translate(135.000000, 78.000000)">
                    <g id="Group-7" transform="translate(15.000000, 14.500000) rotate(-30.000000) translate(-15.000000, -14.500000) translate(2.884615, 5.326531)">
                        <path d="M3.84422371,11.8367347 L0,11.8367347 L0,5.91836735 L4.04085039,5.91836735 C5.32108369,2.45884222 8.58255403,0 12.4038462,0 C16.2251383,0 19.4866086,2.45884222 20.7668419,5.91836735 L24.2307692,5.91836735 L24.2307692,11.8367347 L20.9634686,11.8367347 C19.85103,15.6042779 16.4396585,18.3469388 12.4038462,18.3469388 C8.36803384,18.3469388 4.95666228,15.6042779 3.84422371,11.8367347 Z" id="Combined-Shape" fill="#E6EDF5"></path>
                        <g id="Group-3" transform="translate(6.346154, 2.959184)">
                            <mask id="mask-28" fill="white">
                                <use xlink:href="#path-27"></use>
                            </mask>
                            <g id="Clip-2"></g>
                            <path d="M5.09360673,7.20331865 C4.56020741,6.65613077 4.56020741,5.76893304 5.09360673,5.22177058 C5.62700605,4.67458271 6.49184734,4.67458271 7.02524666,5.22177058 C7.55864599,5.76893304 7.55864599,6.65613077 7.02524666,7.20331865 C6.49184734,7.75050652 5.62700605,7.75050652 5.09360673,7.20331865 M10.3410539,10.590378 L9.50188156,9.72953826 L9.4931105,9.72051505 L9.48436422,9.71156809 L8.6451919,8.85067746 L8.63642084,8.84167967 L8.62767456,8.83268188 L7.78850224,7.97184209 C8.25433468,7.4891384 8.48877468,6.85858114 8.49187181,6.22700717 L9.68064763,6.22700717 L9.69303614,6.22700717 L9.70544941,6.22700717 L10.8924909,6.22700717 L10.9048794,6.22700717 L10.9172431,6.22700717 L12.1042845,6.22700717 L12.1153846,6.22700717 L12.1153846,6.20158967 L12.1042845,6.20158967 C12.1010883,4.55504422 11.4752707,3.0064578 10.3410291,1.8382188 L10.3497754,1.82922101 L10.3498993,1.82911934 L10.3412025,1.82022321 L10.3411282,1.82014696 C10.3411034,1.82009612 10.3410539,1.82007071 10.3410291,1.82004529 L10.3323819,1.81114917 L10.332258,1.81125084 L10.323487,1.82024863 L9.48433944,2.68111384 L9.47556838,2.69011163 L9.4668221,2.69908401 L8.62764978,3.55992379 L8.61887872,3.56892159 L8.61013244,3.57789396 L7.7709849,4.43875917 C7.30042006,3.96091023 6.68577695,3.72038445 6.0700932,3.71718185 L6.07006842,2.49767576 L6.07006842,2.48496701 L6.07006842,2.47225826 L6.07006842,1.25450598 L6.07006842,1.24182265 L6.07006842,1.2291139 L6.07006842,0.0113870387 L6.07006842,0 L6.04529142,0 L6.04529142,0.0113870387 C4.44021238,0.0146404783 2.9306487,0.656635617 1.79187286,1.82019779 L1.78312658,1.8112 L1.78300269,1.81109833 L1.77433074,1.81999445 L1.77423163,1.82009612 L1.7741573,1.82017238 L1.76548535,1.82909392 L1.76560924,1.82917017 L1.77435552,1.83816797 L2.61350306,2.69903317 L2.62229889,2.70803096 L2.6310204,2.71700334 L3.47021749,3.57786855 L3.47898855,3.58686634 L3.48773483,3.59583872 L4.32693193,4.45670392 C3.86109949,4.93940761 3.62663471,5.56996487 3.62353759,6.20156426 L2.43476176,6.20156426 L2.42234848,6.20156426 L2.40995998,6.20156426 L1.22291854,6.20153884 L1.21053004,6.20153884 L1.19814154,6.20153884 L0.0111000974,6.20153884 L0,6.20153884 L0,6.21424759 L0,6.22695634 L0.0111000974,6.22695634 C0.0142963308,7.87350179 0.640113874,9.42211363 1.7743803,10.5903526 L1.76563401,10.599325 L1.76553491,10.5994521 L1.78305225,10.6174223 L1.78317613,10.6172952 L1.79189764,10.6083482 L2.63106995,9.74748301 L2.63984101,9.73848522 L2.64858729,9.72951284 L3.48773483,8.86867305 L3.49653067,8.85964984 L3.50527695,8.85067746 L4.34444927,7.98981226 C4.81496455,8.46768662 5.42965722,8.70821239 6.04534097,8.71138958 L6.04534097,9.93087025 L6.04534097,9.94360442 L6.04534097,9.95631317 L6.04534097,11.17404 L6.04534097,11.1867742 L6.04534097,11.1994829 L6.04534097,12.4171844 L6.04534097,12.4285714 L6.05772947,12.4285714 L6.07011797,12.4285714 L6.07011797,12.4171844 C7.67517223,12.4139055 9.18473592,11.7719358 10.3235365,10.6083482 C10.3264602,10.6053744 10.3294582,10.6024768 10.3323819,10.5994775 C10.3353304,10.5964782 10.3381302,10.5933773 10.3410539,10.590378" id="Fill-1" fill="#95A2AF" mask="url(#mask-28)"></path>
                        </g>
                    </g>
                </g>
                <g id="pump" transform="translate(100.000000, 92.000000)">
                    <g id="Group-7" transform="translate(15.000000, 14.500000) rotate(-30.000000) translate(-15.000000, -14.500000) translate(2.884615, 5.326531)">
                        <path d="M3.84422371,11.8367347 L0,11.8367347 L0,5.91836735 L4.04085039,5.91836735 C5.32108369,2.45884222 8.58255403,0 12.4038462,0 C16.2251383,0 19.4866086,2.45884222 20.7668419,5.91836735 L24.2307692,5.91836735 L24.2307692,11.8367347 L20.9634686,11.8367347 C19.85103,15.6042779 16.4396585,18.3469388 12.4038462,18.3469388 C8.36803384,18.3469388 4.95666228,15.6042779 3.84422371,11.8367347 Z" id="Combined-Shape" fill="#E6EDF5"></path>
                        <g id="Group-3" transform="translate(6.346154, 2.959184)">
                            <mask id="mask-30" fill="white">
                                <use xlink:href="#path-29"></use>
                            </mask>
                            <g id="Clip-2"></g>
                            <path d="M5.09360673,7.20331865 C4.56020741,6.65613077 4.56020741,5.76893304 5.09360673,5.22177058 C5.62700605,4.67458271 6.49184734,4.67458271 7.02524666,5.22177058 C7.55864599,5.76893304 7.55864599,6.65613077 7.02524666,7.20331865 C6.49184734,7.75050652 5.62700605,7.75050652 5.09360673,7.20331865 M10.3410539,10.590378 L9.50188156,9.72953826 L9.4931105,9.72051505 L9.48436422,9.71156809 L8.6451919,8.85067746 L8.63642084,8.84167967 L8.62767456,8.83268188 L7.78850224,7.97184209 C8.25433468,7.4891384 8.48877468,6.85858114 8.49187181,6.22700717 L9.68064763,6.22700717 L9.69303614,6.22700717 L9.70544941,6.22700717 L10.8924909,6.22700717 L10.9048794,6.22700717 L10.9172431,6.22700717 L12.1042845,6.22700717 L12.1153846,6.22700717 L12.1153846,6.20158967 L12.1042845,6.20158967 C12.1010883,4.55504422 11.4752707,3.0064578 10.3410291,1.8382188 L10.3497754,1.82922101 L10.3498993,1.82911934 L10.3412025,1.82022321 L10.3411282,1.82014696 C10.3411034,1.82009612 10.3410539,1.82007071 10.3410291,1.82004529 L10.3323819,1.81114917 L10.332258,1.81125084 L10.323487,1.82024863 L9.48433944,2.68111384 L9.47556838,2.69011163 L9.4668221,2.69908401 L8.62764978,3.55992379 L8.61887872,3.56892159 L8.61013244,3.57789396 L7.7709849,4.43875917 C7.30042006,3.96091023 6.68577695,3.72038445 6.0700932,3.71718185 L6.07006842,2.49767576 L6.07006842,2.48496701 L6.07006842,2.47225826 L6.07006842,1.25450598 L6.07006842,1.24182265 L6.07006842,1.2291139 L6.07006842,0.0113870387 L6.07006842,0 L6.04529142,0 L6.04529142,0.0113870387 C4.44021238,0.0146404783 2.9306487,0.656635617 1.79187286,1.82019779 L1.78312658,1.8112 L1.78300269,1.81109833 L1.77433074,1.81999445 L1.77423163,1.82009612 L1.7741573,1.82017238 L1.76548535,1.82909392 L1.76560924,1.82917017 L1.77435552,1.83816797 L2.61350306,2.69903317 L2.62229889,2.70803096 L2.6310204,2.71700334 L3.47021749,3.57786855 L3.47898855,3.58686634 L3.48773483,3.59583872 L4.32693193,4.45670392 C3.86109949,4.93940761 3.62663471,5.56996487 3.62353759,6.20156426 L2.43476176,6.20156426 L2.42234848,6.20156426 L2.40995998,6.20156426 L1.22291854,6.20153884 L1.21053004,6.20153884 L1.19814154,6.20153884 L0.0111000974,6.20153884 L0,6.20153884 L0,6.21424759 L0,6.22695634 L0.0111000974,6.22695634 C0.0142963308,7.87350179 0.640113874,9.42211363 1.7743803,10.5903526 L1.76563401,10.599325 L1.76553491,10.5994521 L1.78305225,10.6174223 L1.78317613,10.6172952 L1.79189764,10.6083482 L2.63106995,9.74748301 L2.63984101,9.73848522 L2.64858729,9.72951284 L3.48773483,8.86867305 L3.49653067,8.85964984 L3.50527695,8.85067746 L4.34444927,7.98981226 C4.81496455,8.46768662 5.42965722,8.70821239 6.04534097,8.71138958 L6.04534097,9.93087025 L6.04534097,9.94360442 L6.04534097,9.95631317 L6.04534097,11.17404 L6.04534097,11.1867742 L6.04534097,11.1994829 L6.04534097,12.4171844 L6.04534097,12.4285714 L6.05772947,12.4285714 L6.07011797,12.4285714 L6.07011797,12.4171844 C7.67517223,12.4139055 9.18473592,11.7719358 10.3235365,10.6083482 C10.3264602,10.6053744 10.3294582,10.6024768 10.3323819,10.5994775 C10.3353304,10.5964782 10.3381302,10.5933773 10.3410539,10.590378" id="Fill-1" fill="#95A2AF" mask="url(#mask-30)"></path>
                        </g>
                    </g>
                </g>
                <g id="pump" transform="translate(83.000000, 123.000000)">
                    <g id="Group-7" transform="translate(15.000000, 14.500000) rotate(-30.000000) translate(-15.000000, -14.500000) translate(2.884615, 5.326531)">
                        <path d="M3.84422371,11.8367347 L0,11.8367347 L0,5.91836735 L4.04085039,5.91836735 C5.32108369,2.45884222 8.58255403,0 12.4038462,0 C16.2251383,0 19.4866086,2.45884222 20.7668419,5.91836735 L24.2307692,5.91836735 L24.2307692,11.8367347 L20.9634686,11.8367347 C19.85103,15.6042779 16.4396585,18.3469388 12.4038462,18.3469388 C8.36803384,18.3469388 4.95666228,15.6042779 3.84422371,11.8367347 Z" id="Combined-Shape" fill="#E6EDF5"></path>
                        <g id="Group-3" transform="translate(6.346154, 2.959184)">
                            <mask id="mask-32" fill="white">
                                <use xlink:href="#path-31"></use>
                            </mask>
                            <g id="Clip-2"></g>
                            <path d="M5.09360673,7.20331865 C4.56020741,6.65613077 4.56020741,5.76893304 5.09360673,5.22177058 C5.62700605,4.67458271 6.49184734,4.67458271 7.02524666,5.22177058 C7.55864599,5.76893304 7.55864599,6.65613077 7.02524666,7.20331865 C6.49184734,7.75050652 5.62700605,7.75050652 5.09360673,7.20331865 M10.3410539,10.590378 L9.50188156,9.72953826 L9.4931105,9.72051505 L9.48436422,9.71156809 L8.6451919,8.85067746 L8.63642084,8.84167967 L8.62767456,8.83268188 L7.78850224,7.97184209 C8.25433468,7.4891384 8.48877468,6.85858114 8.49187181,6.22700717 L9.68064763,6.22700717 L9.69303614,6.22700717 L9.70544941,6.22700717 L10.8924909,6.22700717 L10.9048794,6.22700717 L10.9172431,6.22700717 L12.1042845,6.22700717 L12.1153846,6.22700717 L12.1153846,6.20158967 L12.1042845,6.20158967 C12.1010883,4.55504422 11.4752707,3.0064578 10.3410291,1.8382188 L10.3497754,1.82922101 L10.3498993,1.82911934 L10.3412025,1.82022321 L10.3411282,1.82014696 C10.3411034,1.82009612 10.3410539,1.82007071 10.3410291,1.82004529 L10.3323819,1.81114917 L10.332258,1.81125084 L10.323487,1.82024863 L9.48433944,2.68111384 L9.47556838,2.69011163 L9.4668221,2.69908401 L8.62764978,3.55992379 L8.61887872,3.56892159 L8.61013244,3.57789396 L7.7709849,4.43875917 C7.30042006,3.96091023 6.68577695,3.72038445 6.0700932,3.71718185 L6.07006842,2.49767576 L6.07006842,2.48496701 L6.07006842,2.47225826 L6.07006842,1.25450598 L6.07006842,1.24182265 L6.07006842,1.2291139 L6.07006842,0.0113870387 L6.07006842,0 L6.04529142,0 L6.04529142,0.0113870387 C4.44021238,0.0146404783 2.9306487,0.656635617 1.79187286,1.82019779 L1.78312658,1.8112 L1.78300269,1.81109833 L1.77433074,1.81999445 L1.77423163,1.82009612 L1.7741573,1.82017238 L1.76548535,1.82909392 L1.76560924,1.82917017 L1.77435552,1.83816797 L2.61350306,2.69903317 L2.62229889,2.70803096 L2.6310204,2.71700334 L3.47021749,3.57786855 L3.47898855,3.58686634 L3.48773483,3.59583872 L4.32693193,4.45670392 C3.86109949,4.93940761 3.62663471,5.56996487 3.62353759,6.20156426 L2.43476176,6.20156426 L2.42234848,6.20156426 L2.40995998,6.20156426 L1.22291854,6.20153884 L1.21053004,6.20153884 L1.19814154,6.20153884 L0.0111000974,6.20153884 L0,6.20153884 L0,6.21424759 L0,6.22695634 L0.0111000974,6.22695634 C0.0142963308,7.87350179 0.640113874,9.42211363 1.7743803,10.5903526 L1.76563401,10.599325 L1.76553491,10.5994521 L1.78305225,10.6174223 L1.78317613,10.6172952 L1.79189764,10.6083482 L2.63106995,9.74748301 L2.63984101,9.73848522 L2.64858729,9.72951284 L3.48773483,8.86867305 L3.49653067,8.85964984 L3.50527695,8.85067746 L4.34444927,7.98981226 C4.81496455,8.46768662 5.42965722,8.70821239 6.04534097,8.71138958 L6.04534097,9.93087025 L6.04534097,9.94360442 L6.04534097,9.95631317 L6.04534097,11.17404 L6.04534097,11.1867742 L6.04534097,11.1994829 L6.04534097,12.4171844 L6.04534097,12.4285714 L6.05772947,12.4285714 L6.07011797,12.4285714 L6.07011797,12.4171844 C7.67517223,12.4139055 9.18473592,11.7719358 10.3235365,10.6083482 C10.3264602,10.6053744 10.3294582,10.6024768 10.3323819,10.5994775 C10.3353304,10.5964782 10.3381302,10.5933773 10.3410539,10.590378" id="Fill-1" fill="#95A2AF" mask="url(#mask-32)"></path>
                        </g>
                    </g>
                </g>
                <g id="Group-7" transform="translate(298.000000, 31.000000)">
                    <circle id="Oval" fill="#BCBCB3" cx="20.5" cy="20.5" r="20.5"></circle>
                    <circle id="Oval" fill="#AEAEA7" cx="28" cy="11" r="5"></circle>
                    <circle id="Oval-Copy-2" fill="#AEAEA7" cx="28" cy="24" r="3"></circle>
                    <circle id="Oval-Copy-3" fill="#AEAEA7" cx="13" cy="17" r="2"></circle>
                </g>
                <circle id="Oval" fill="#BBAF9B" opacity="0.216262091" cx="60.5" cy="50.5" r="3.5"></circle>
                <circle id="Oval-Copy-4" fill="#BBAF9B" opacity="0.216262091" cx="335.5" cy="250.5" r="3.5"></circle>
                <circle id="Oval-Copy-5" fill="#BBAF9B" opacity="0.216262091" cx="347.5" cy="321.5" r="3.5"></circle>
                <circle id="Oval-Copy-6" fill="#BBAF9B" opacity="0.216262091" cx="101.5" cy="328.5" r="3.5"></circle>
                <circle id="Oval-Copy-7" fill="#BBAF9B" opacity="0.216262091" cx="26.5" cy="241.5" r="3.5"></circle>
                <circle id="Oval-Copy-8" fill="#BBAF9B" opacity="0.216262091" cx="220.5" cy="27.5" r="3.5"></circle>
                <g id="Combined-Shape-Copy" transform="translate(705.224070, 64.226334) rotate(67.000000) translate(-705.224070, -64.226334) ">
                    <use fill="black" fill-opacity="1" filter="url(#filter-34)" xlink:href="#path-33"></use>
                    <use fill="#FFFFFF" fill-rule="evenodd" xlink:href="#path-33"></use>
                </g>
                <g id="Combined-Shape-Copy-2" transform="translate(597.979282, 302.762593) rotate(8.000000) translate(-597.979282, -302.762593) ">
                    <use fill="black" fill-opacity="1" filter="url(#filter-36)" xlink:href="#path-35"></use>
                    <use fill="#FFFFFF" fill-rule="evenodd" xlink:href="#path-35"></use>
                </g>
            </g>
        </g>
    </g>
</svg>