<?xml version="1.0" encoding="UTF-8"?>
<svg width="790px" height="379px" viewBox="0 0 790 379" version="1.1" xmlns="http://www.w3.org/2000/svg" xmlns:xlink="http://www.w3.org/1999/xlink">
    <!-- Generator: Sketch 52.2 (67145) - http://www.bohemiancoding.com/sketch -->
    <title>ill-phyto-1</title>
    <desc>Created with Sketch.</desc>
    <defs>
        <rect id="path-1" x="0" y="0" width="390" height="369"></rect>
        <path d="M98.40421,33.9472575 C100.440657,30.8593276 104.038773,28.8080305 108.137773,28.8080305 C114.489047,28.8080305 119.637773,33.7328983 119.637773,39.8080305 C119.637773,44.2072989 116.937864,48.0033869 113.036524,49.7629671 C118.036008,53.0955488 121.316401,58.6943644 121.316401,65.0391944 C121.316401,75.2564623 112.809811,83.5391944 102.316401,83.5391944 C93.279425,83.5391944 85.7160219,77.3961089 83.7905838,69.164741 C81.822726,69.6534532 79.7588901,69.9134741 77.6317388,69.9134741 C64.1007624,69.9134741 53.1317388,59.3921658 53.1317388,46.4134741 C53.1317388,33.4347825 64.1007624,22.9134741 77.6317388,22.9134741 C86.3884273,22.9134741 94.0721333,27.3199489 98.40421,33.9472575 Z" id="path-3"></path>
        <filter x="-3.7%" y="-4.1%" width="114.7%" height="116.5%" filterUnits="objectBoundingBox" id="filter-4">
            <feOffset dx="5" dy="5" in="SourceAlpha" result="shadowOffsetOuter1"></feOffset>
            <feColorMatrix values="0 0 0 0 0   0 0 0 0 0   0 0 0 0 0  0 0 0 0.0604619565 0" type="matrix" in="shadowOffsetOuter1"></feColorMatrix>
        </filter>
        <path d="M321.502709,238.240996 C324.251188,234.048137 329.090163,231.265175 334.6008,231.265175 C343.161213,231.265175 350.1008,237.980904 350.1008,246.265175 C350.1008,252.465594 346.21333,257.787334 340.66842,260.072305 C347.472304,264.56179 351.948239,272.182055 351.948239,280.827232 C351.948239,294.634351 340.5315,305.827232 326.448239,305.827232 C314.394989,305.827232 304.29494,297.628555 301.633662,286.609209 C299.101641,287.212639 296.454725,287.532686 293.730722,287.532686 C275.505325,287.532686 260.730722,273.205798 260.730722,255.532686 C260.730722,237.859574 275.505325,223.532686 293.730722,223.532686 C305.387049,223.532686 315.631852,229.393006 321.502709,238.240996 Z" id="path-5"></path>
        <filter x="-2.7%" y="-3.0%" width="111.0%" height="112.2%" filterUnits="objectBoundingBox" id="filter-6">
            <feOffset dx="5" dy="5" in="SourceAlpha" result="shadowOffsetOuter1"></feOffset>
            <feColorMatrix values="0 0 0 0 0   0 0 0 0 0   0 0 0 0 0  0 0 0 0.0604619565 0" type="matrix" in="shadowOffsetOuter1"></feColorMatrix>
        </filter>
        <rect id="path-7" x="0" y="0" width="390" height="369"></rect>
        <rect id="path-9" x="0" y="0" width="390" height="187"></rect>
    </defs>
    <g id="Page-1" stroke="none" stroke-width="1" fill="none" fill-rule="evenodd">
        <g id="ocean-phytoplankton" transform="translate(-210.000000, -1134.000000)">
            <g id="ill-phyto-1" transform="translate(210.000000, 1134.000000)">
                <rect id="Rectangle" fill="#000000" opacity="0.0711495536" x="10" y="10" width="780" height="369"></rect>
                <g id="Group-13">
                    <g id="Group-8" transform="translate(390.000000, 0.000000)">
                        <g id="Group-2">
                            <rect id="Rectangle" fill="#7CA4CA" fill-rule="nonzero" x="0" y="0" width="390" height="369"></rect>
                            <polygon id="Fill-1" fill="#719AC1" points="28.5390625 0 36.2773437 369 207.171151 369 278.971151 297.25089 278.971151 256.250566 320 215.250243 320 174.25089 289.227878 143.500162 289.227878 102.500809 227.684604 41.0003235 186.656727 41.0003235 145.627878 0"></polygon>
                            <polygon id="Fill-2" fill="#6896B8" points="0 0 0 369 82 369 82 348.499838 133.251092 297.25089 133.251092 256.250566 164 225.499838 164 143.500162 123.000485 102.500809 123.000485 61.4995147 61.4997574 0"></polygon>
                        </g>
                        <g id="Group-7">
                            <mask id="mask-2" fill="white">
                                <use xlink:href="#path-1"></use>
                            </mask>
                            <use id="Rectangle" fill="#7CA4CA" fill-rule="nonzero" opacity="0" xlink:href="#path-1"></use>
                            <path d="M-78.581,180.614 L-81.039,180.614 C-81.144,179.593 -81.542,178.598 -82.24,177.771 C-82.237,177.768 -82.235,177.766 -82.232,177.763 L-80.485,176.016 C-80.306,175.836 -80.306,175.546 -80.485,175.366 C-80.665,175.186 -80.956,175.186 -81.136,175.366 L-82.883,177.113 C-82.886,177.116 -82.889,177.119 -82.89,177.122 C-83.719,176.429 -84.714,176.033 -85.734,175.931 L-85.734,173.462 C-85.734,173.208 -85.941,173 -86.195,173 C-86.449,173 -86.655,173.208 -86.655,173.462 L-86.655,175.923 C-87.689,176.001 -88.706,176.381 -89.553,177.066 L-91.252,175.366 C-91.433,175.186 -91.723,175.186 -91.903,175.366 C-92.083,175.546 -92.083,175.836 -91.903,176.016 L-90.226,177.695 L-92.307,179.776 L-93.986,178.099 C-94.164,177.919 -94.456,177.919 -94.636,178.099 C-94.816,178.278 -94.816,178.569 -94.636,178.749 L-92.94,180.443 C-93.642,181.289 -94.037,182.306 -94.125,183.347 L-96.54,183.347 C-96.794,183.347 -97,183.553 -97,183.807 C-97,184.061 -96.794,184.267 -96.54,184.267 L-94.123,184.267 C-94.031,185.304 -93.633,186.319 -92.93,187.16 L-94.636,188.866 C-94.816,189.045 -94.816,189.337 -94.636,189.516 C-94.456,189.695 -94.164,189.695 -93.986,189.516 L-92.281,187.812 C-91.44,188.52 -90.425,188.922 -89.386,189.017 L-89.386,191.421 C-89.386,191.675 -89.181,191.881 -88.926,191.881 C-88.799,191.881 -88.685,191.829 -88.601,191.746 C-88.518,191.663 -88.467,191.548 -88.467,191.421 L-88.467,189.02 C-87.421,188.934 -86.399,188.539 -85.549,187.835 L-83.869,189.516 C-83.689,189.695 -83.397,189.695 -83.218,189.516 C-83.039,189.337 -83.039,189.045 -83.218,188.866 L-84.882,187.201 L-82.801,185.12 L-81.136,186.783 C-80.956,186.964 -80.665,186.964 -80.485,186.783 C-80.306,186.603 -80.306,186.313 -80.485,186.133 L-82.172,184.447 C-81.484,183.595 -81.102,182.574 -81.027,181.535 L-78.581,181.535 C-78.454,181.535 -78.339,181.484 -78.256,181.401 C-78.173,181.318 -78.122,181.202 -78.122,181.075 C-78.12,180.822 -78.327,180.614 -78.581,180.614" id="Fill-20-Copy-3" fill="#3E71A3" opacity="0.600000024" mask="url(#mask-2)"></path>
                            <g id="Group-5-Copy-2" mask="url(#mask-2)">
                                <g transform="translate(47.961777, 251.751541) rotate(-30.000000) translate(-47.961777, -251.751541) translate(-297.538223, -5.748459)">
                                    <g id="Group-5" transform="translate(0.000000, 0.000000)">
                                        <polygon id="Path" fill="#6288AC" points="493.541744 232.949317 424.254851 170.591781 326.3921 146.792335 240.298167 95.8282896 175.332992 73.4404547 78.2066254 0.0417437701 0.54174377 0.0417437701 0.54174377 514.041744 124.620083 467.7636 211.235994 402.887879 300.448826 386.72087 399.728374 347.92589 459.156044 311.512802 493.541744 273.337633"></polygon>
                                        <polygon id="Path-2" fill="#56728C" opacity="0.547316778" points="489.907769 253.539801 415.939608 217.283206 335.735725 207.594478 231.953615 146.074212 171.059619 136.587725 60.6740886 34.2116168 0.907769174 34.2116168 0.907769174 470.211617 108.111057 430.506109 192.060163 372.478476 290.364695 355.276413 395.886742 314.904922 440.681584 293.945348"></polygon>
                                    </g>
                                    <g id="Group-4" transform="translate(477.000000, 226.000000)">
                                        <g id="Group-6" transform="translate(89.000000, 0.000000)">
                                            <path d="M123.2013,27.9141 L96.7523,1.4641 C95.6783,0.3911 94.1743,-0.1369 92.6643,0.0311 L4.4483,9.8321 C1.9153,10.1141 0.0003,12.2541 0.0003,14.8021 L0.0003,48.0971 C0.0003,50.6451 1.9153,52.7851 4.4483,53.0661 L92.6643,62.8681 C94.1743,63.0361 95.6783,62.5081 96.7523,61.4351 L123.2013,34.9851 C125.1543,33.0321 125.1543,29.8671 123.2013,27.9141" id="Fill-1" fill="#F7FBFD"></path>
                                            <polygon id="Fill-4" fill="#D5D5C6" points="76.9035 11.8433 10.0005 19.2773 10.0005 43.6213 76.9035 51.0553"></polygon>
                                        </g>
                                        <rect id="Rectangle" stroke="#F7FBFD" stroke-width="6" fill="#C2CFDC" x="3" y="10" width="76" height="42" rx="2"></rect>
                                        <circle id="Oval" fill="#AABCCE" cx="60" cy="24" r="3"></circle>
                                        <circle id="Oval-Copy-3" fill="#AABCCE" cx="56" cy="36" r="3"></circle>
                                        <circle id="Oval-Copy-4" fill="#AABCCE" cx="43" cy="36" r="3"></circle>
                                        <circle id="Oval-Copy-5" fill="#AABCCE" cx="28" cy="26" r="3"></circle>
                                        <circle id="Oval-Copy-6" fill="#AABCCE" cx="19" cy="36" r="3"></circle>
                                        <path d="M82,31 L89.0003,31" id="Line" stroke="#DDE8ED" stroke-width="4" stroke-linecap="square"></path>
                                    </g>
                                </g>
                            </g>
                        </g>
                        <g id="Combined-Shape-Copy" transform="translate(87.224070, 53.226334) rotate(67.000000) translate(-87.224070, -53.226334) ">
                            <use fill="black" fill-opacity="1" filter="url(#filter-4)" xlink:href="#path-3"></use>
                            <use fill="#FFFFFF" fill-rule="evenodd" xlink:href="#path-3"></use>
                        </g>
                        <g id="Combined-Shape-Copy-2" transform="translate(306.339481, 264.679959) rotate(141.000000) translate(-306.339481, -264.679959) ">
                            <use fill="black" fill-opacity="1" filter="url(#filter-6)" xlink:href="#path-5"></use>
                            <use fill="#FFFFFF" fill-rule="evenodd" xlink:href="#path-5"></use>
                        </g>
                    </g>
                    <g id="Group-12">
                        <mask id="mask-8" fill="white">
                            <use xlink:href="#path-7"></use>
                        </mask>
                        <use id="Rectangle" fill="#ECE0D1" xlink:href="#path-7"></use>
                        <g id="Group-9" mask="url(#mask-8)">
                            <g transform="translate(0.000000, 182.000000)">
                                <mask id="mask-10" fill="white">
                                    <use xlink:href="#path-9"></use>
                                </mask>
                                <use id="Rectangle" stroke="none" fill="#7CA4CA" fill-rule="evenodd" xlink:href="#path-9"></use>
                                <g id="Group-23" stroke="none" stroke-width="1" fill="none" fill-rule="evenodd" mask="url(#mask-10)">
                                    <g transform="translate(500.466252, 133.466252) rotate(-45.000000) translate(-500.466252, -133.466252) translate(481.966252, 107.466252)" fill="#4A4A4A" id="Oval">
                                        <circle opacity="0.300000012" cx="33.5" cy="3.5" r="3.5"></circle>
                                        <circle opacity="0.600000024" cx="33.5" cy="18.5" r="3.5"></circle>
                                        <circle opacity="0.600000024" cx="33.5" cy="48.5" r="3.5"></circle>
                                        <circle opacity="0.600000024" cx="18.5" cy="18.5" r="3.5"></circle>
                                        <circle cx="18.5" cy="33.5" r="3.5"></circle>
                                        <circle opacity="0.300000012" cx="3.5" cy="3.5" r="3.5"></circle>
                                        <circle cx="3.5" cy="33.5" r="3.5"></circle>
                                        <circle opacity="0.600000024" cx="3.5" cy="48.5" r="3.5"></circle>
                                    </g>
                                </g>
                                <g id="Group-5" stroke="none" stroke-width="1" fill="none" fill-rule="evenodd" mask="url(#mask-10)">
                                    <g transform="translate(0.000000, 35.000000)">
                                        <polygon id="Fill-1" fill="#567F99" points="423.909215 93.6001382 366.273037 93.6001382 351.863822 108.199585 294.227645 108.199585 251 152 568 152 545.116341 129.509857 517.568771 130.100138 481.546075 93.6001382 467.136178 108.199585 438.31843 79"></polygon>
                                        <polygon id="Fill-2" fill="#6290B1" points="43.2730377 0 28.8480089 14.475603 0 14.475603 0 152 238 152 216.36314 130.285225 187.515131 130.285225 151.454608 94.0955318 151.454608 79.6192434 122.606599 50.6666667 93.7579068 50.6666667"></polygon>
                                        <polygon id="Fill-3" fill="#567F99" points="94.3947156 123.333333 51.1909227 123.333333 22 152 152 152 108.796207 109"></polygon>
                                        <polygon id="Fill-4" fill="#594D49" points="0 152 390 152 390 141 0 141"></polygon>
                                    </g>
                                </g>
                            </g>
                        </g>
                    </g>
                    <g id="Group-11" transform="translate(183.000000, 139.000000)">
                        <g id="Group-4-Copy" transform="translate(77.000000, 0.000000)">
                            <polygon id="Fill-1" fill="#F7FBFD" points="21.5532 21.5537 0.0002 21.5537 22.0612 42.7537 85.4302 42.7537 105.6142 21.5537"></polygon>
                            <polygon id="Fill-2" fill="#E8F2F7" points="21.5532 0.0005 21.5532 21.5535 85.3522 21.5535 73.9302 10.1305 52.8072 10.1305 42.6762 0.0005"></polygon>
                            <polygon id="Fill-3" fill="#6290B1" points="22.0617 42.7541 32.1147 52.8071 74.3607 52.8071 84.4137 42.7541"></polygon>
                        </g>
                        <g id="Group-10" transform="translate(0.000000, 14.000000)">
                            <polygon id="Rectangle" fill="#F7FBFD" points="0 0 70 0 70 29 0 29"></polygon>
                            <path d="M0,29 L70,29 L70,34 C70,37.8659932 66.8659932,41 63,41 L7,41 C3.13400675,41 4.73447626e-16,37.8659932 0,34 L0,29 Z" id="Rectangle" fill="#6794B5"></path>
                        </g>
                        <rect id="Rectangle" fill="#F7FBFD" x="67" y="31" width="31" height="3"></rect>
                    </g>
                    <circle id="Oval" fill="#F9F9E8" cx="49.5" cy="46.5" r="27.5"></circle>
                    <path d="M139.419,160.614 L136.961,160.614 C136.856,159.593 136.458,158.598 135.76,157.771 C135.763,157.768 135.765,157.766 135.768,157.763 L137.515,156.016 C137.694,155.836 137.694,155.546 137.515,155.366 C137.335,155.186 137.044,155.186 136.864,155.366 L135.117,157.113 C135.114,157.116 135.111,157.119 135.11,157.122 C134.281,156.429 133.286,156.033 132.266,155.931 L132.266,153.462 C132.266,153.208 132.059,153 131.805,153 C131.551,153 131.345,153.208 131.345,153.462 L131.345,155.923 C130.311,156.001 129.294,156.381 128.447,157.066 L126.748,155.366 C126.567,155.186 126.277,155.186 126.097,155.366 C125.917,155.546 125.917,155.836 126.097,156.016 L127.774,157.695 L125.693,159.776 L124.014,158.099 C123.836,157.919 123.544,157.919 123.364,158.099 C123.184,158.278 123.184,158.569 123.364,158.749 L125.06,160.443 C124.358,161.289 123.963,162.306 123.875,163.347 L121.46,163.347 C121.206,163.347 121,163.553 121,163.807 C121,164.061 121.206,164.267 121.46,164.267 L123.877,164.267 C123.969,165.304 124.367,166.319 125.07,167.16 L123.364,168.866 C123.184,169.045 123.184,169.337 123.364,169.516 C123.544,169.695 123.836,169.695 124.014,169.516 L125.719,167.812 C126.56,168.52 127.575,168.922 128.614,169.017 L128.614,171.421 C128.614,171.675 128.819,171.881 129.074,171.881 C129.201,171.881 129.315,171.829 129.399,171.746 C129.482,171.663 129.533,171.548 129.533,171.421 L129.533,169.02 C130.579,168.934 131.601,168.539 132.451,167.835 L134.131,169.516 C134.311,169.695 134.603,169.695 134.782,169.516 C134.961,169.337 134.961,169.045 134.782,168.866 L133.118,167.201 L135.199,165.12 L136.864,166.783 C137.044,166.964 137.335,166.964 137.515,166.783 C137.694,166.603 137.694,166.313 137.515,166.133 L135.828,164.447 C136.516,163.595 136.898,162.574 136.973,161.535 L139.419,161.535 C139.546,161.535 139.661,161.484 139.744,161.401 C139.827,161.318 139.878,161.202 139.878,161.075 C139.88,160.822 139.673,160.614 139.419,160.614" id="Fill-20" fill="#3E71A3" opacity="0.300000012"></path>
                    <path d="M139.419,189.614 L136.961,189.614 C136.856,188.593 136.458,187.598 135.76,186.771 C135.763,186.768 135.765,186.766 135.768,186.763 L137.515,185.016 C137.694,184.836 137.694,184.546 137.515,184.366 C137.335,184.186 137.044,184.186 136.864,184.366 L135.117,186.113 C135.114,186.116 135.111,186.119 135.11,186.122 C134.281,185.429 133.286,185.033 132.266,184.931 L132.266,182.462 C132.266,182.208 132.059,182 131.805,182 C131.551,182 131.345,182.208 131.345,182.462 L131.345,184.923 C130.311,185.001 129.294,185.381 128.447,186.066 L126.748,184.366 C126.567,184.186 126.277,184.186 126.097,184.366 C125.917,184.546 125.917,184.836 126.097,185.016 L127.774,186.695 L125.693,188.776 L124.014,187.099 C123.836,186.919 123.544,186.919 123.364,187.099 C123.184,187.278 123.184,187.569 123.364,187.749 L125.06,189.443 C124.358,190.289 123.963,191.306 123.875,192.347 L121.46,192.347 C121.206,192.347 121,192.553 121,192.807 C121,193.061 121.206,193.267 121.46,193.267 L123.877,193.267 C123.969,194.304 124.367,195.319 125.07,196.16 L123.364,197.866 C123.184,198.045 123.184,198.337 123.364,198.516 C123.544,198.695 123.836,198.695 124.014,198.516 L125.719,196.812 C126.56,197.52 127.575,197.922 128.614,198.017 L128.614,200.421 C128.614,200.675 128.819,200.881 129.074,200.881 C129.201,200.881 129.315,200.829 129.399,200.746 C129.482,200.663 129.533,200.548 129.533,200.421 L129.533,198.02 C130.579,197.934 131.601,197.539 132.451,196.835 L134.131,198.516 C134.311,198.695 134.603,198.695 134.782,198.516 C134.961,198.337 134.961,198.045 134.782,197.866 L133.118,196.201 L135.199,194.12 L136.864,195.783 C137.044,195.964 137.335,195.964 137.515,195.783 C137.694,195.603 137.694,195.313 137.515,195.133 L135.828,193.447 C136.516,192.595 136.898,191.574 136.973,190.535 L139.419,190.535 C139.546,190.535 139.661,190.484 139.744,190.401 C139.827,190.318 139.878,190.202 139.878,190.075 C139.88,189.822 139.673,189.614 139.419,189.614" id="Fill-20-Copy-2" fill="#3E71A3" opacity="0.600000024"></path>
                    <path d="M165.419,189.614 L162.961,189.614 C162.856,188.593 162.458,187.598 161.76,186.771 C161.763,186.768 161.765,186.766 161.768,186.763 L163.515,185.016 C163.694,184.836 163.694,184.546 163.515,184.366 C163.335,184.186 163.044,184.186 162.864,184.366 L161.117,186.113 C161.114,186.116 161.111,186.119 161.11,186.122 C160.281,185.429 159.286,185.033 158.266,184.931 L158.266,182.462 C158.266,182.208 158.059,182 157.805,182 C157.551,182 157.345,182.208 157.345,182.462 L157.345,184.923 C156.311,185.001 155.294,185.381 154.447,186.066 L152.748,184.366 C152.567,184.186 152.277,184.186 152.097,184.366 C151.917,184.546 151.917,184.836 152.097,185.016 L153.774,186.695 L151.693,188.776 L150.014,187.099 C149.836,186.919 149.544,186.919 149.364,187.099 C149.184,187.278 149.184,187.569 149.364,187.749 L151.06,189.443 C150.358,190.289 149.963,191.306 149.875,192.347 L147.46,192.347 C147.206,192.347 147,192.553 147,192.807 C147,193.061 147.206,193.267 147.46,193.267 L149.877,193.267 C149.969,194.304 150.367,195.319 151.07,196.16 L149.364,197.866 C149.184,198.045 149.184,198.337 149.364,198.516 C149.544,198.695 149.836,198.695 150.014,198.516 L151.719,196.812 C152.56,197.52 153.575,197.922 154.614,198.017 L154.614,200.421 C154.614,200.675 154.819,200.881 155.074,200.881 C155.201,200.881 155.315,200.829 155.399,200.746 C155.482,200.663 155.533,200.548 155.533,200.421 L155.533,198.02 C156.579,197.934 157.601,197.539 158.451,196.835 L160.131,198.516 C160.311,198.695 160.603,198.695 160.782,198.516 C160.961,198.337 160.961,198.045 160.782,197.866 L159.118,196.201 L161.199,194.12 L162.864,195.783 C163.044,195.964 163.335,195.964 163.515,195.783 C163.694,195.603 163.694,195.313 163.515,195.133 L161.828,193.447 C162.516,192.595 162.898,191.574 162.973,190.535 L165.419,190.535 C165.546,190.535 165.661,190.484 165.744,190.401 C165.827,190.318 165.878,190.202 165.878,190.075 C165.88,189.822 165.673,189.614 165.419,189.614" id="Fill-20-Copy-6" fill="#3E71A3" opacity="0.600000024"></path>
                    <path d="M113.419,189.614 L110.961,189.614 C110.856,188.593 110.458,187.598 109.76,186.771 C109.763,186.768 109.765,186.766 109.768,186.763 L111.515,185.016 C111.694,184.836 111.694,184.546 111.515,184.366 C111.335,184.186 111.044,184.186 110.864,184.366 L109.117,186.113 C109.114,186.116 109.111,186.119 109.11,186.122 C108.281,185.429 107.286,185.033 106.266,184.931 L106.266,182.462 C106.266,182.208 106.059,182 105.805,182 C105.551,182 105.345,182.208 105.345,182.462 L105.345,184.923 C104.311,185.001 103.294,185.381 102.447,186.066 L100.748,184.366 C100.567,184.186 100.277,184.186 100.097,184.366 C99.917,184.546 99.917,184.836 100.097,185.016 L101.774,186.695 L99.693,188.776 L98.014,187.099 C97.836,186.919 97.544,186.919 97.364,187.099 C97.184,187.278 97.184,187.569 97.364,187.749 L99.06,189.443 C98.358,190.289 97.963,191.306 97.875,192.347 L95.46,192.347 C95.206,192.347 95,192.553 95,192.807 C95,193.061 95.206,193.267 95.46,193.267 L97.877,193.267 C97.969,194.304 98.367,195.319 99.07,196.16 L97.364,197.866 C97.184,198.045 97.184,198.337 97.364,198.516 C97.544,198.695 97.836,198.695 98.014,198.516 L99.719,196.812 C100.56,197.52 101.575,197.922 102.614,198.017 L102.614,200.421 C102.614,200.675 102.819,200.881 103.074,200.881 C103.201,200.881 103.315,200.829 103.399,200.746 C103.482,200.663 103.533,200.548 103.533,200.421 L103.533,198.02 C104.579,197.934 105.601,197.539 106.451,196.835 L108.131,198.516 C108.311,198.695 108.603,198.695 108.782,198.516 C108.961,198.337 108.961,198.045 108.782,197.866 L107.118,196.201 L109.199,194.12 L110.864,195.783 C111.044,195.964 111.335,195.964 111.515,195.783 C111.694,195.603 111.694,195.313 111.515,195.133 L109.828,193.447 C110.516,192.595 110.898,191.574 110.973,190.535 L113.419,190.535 C113.546,190.535 113.661,190.484 113.744,190.401 C113.827,190.318 113.878,190.202 113.878,190.075 C113.88,189.822 113.673,189.614 113.419,189.614" id="Fill-20-Copy-6" fill="#3E71A3" opacity="0.600000024"></path>
                    <path d="M85.419,189.614 L82.961,189.614 C82.856,188.593 82.458,187.598 81.76,186.771 C81.763,186.768 81.765,186.766 81.768,186.763 L83.515,185.016 C83.694,184.836 83.694,184.546 83.515,184.366 C83.335,184.186 83.044,184.186 82.864,184.366 L81.117,186.113 C81.114,186.116 81.111,186.119 81.11,186.122 C80.281,185.429 79.286,185.033 78.266,184.931 L78.266,182.462 C78.266,182.208 78.059,182 77.805,182 C77.551,182 77.345,182.208 77.345,182.462 L77.345,184.923 C76.311,185.001 75.294,185.381 74.447,186.066 L72.748,184.366 C72.567,184.186 72.277,184.186 72.097,184.366 C71.917,184.546 71.917,184.836 72.097,185.016 L73.774,186.695 L71.693,188.776 L70.014,187.099 C69.836,186.919 69.544,186.919 69.364,187.099 C69.184,187.278 69.184,187.569 69.364,187.749 L71.06,189.443 C70.358,190.289 69.963,191.306 69.875,192.347 L67.46,192.347 C67.206,192.347 67,192.553 67,192.807 C67,193.061 67.206,193.267 67.46,193.267 L69.877,193.267 C69.969,194.304 70.367,195.319 71.07,196.16 L69.364,197.866 C69.184,198.045 69.184,198.337 69.364,198.516 C69.544,198.695 69.836,198.695 70.014,198.516 L71.719,196.812 C72.56,197.52 73.575,197.922 74.614,198.017 L74.614,200.421 C74.614,200.675 74.819,200.881 75.074,200.881 C75.201,200.881 75.315,200.829 75.399,200.746 C75.482,200.663 75.533,200.548 75.533,200.421 L75.533,198.02 C76.579,197.934 77.601,197.539 78.451,196.835 L80.131,198.516 C80.311,198.695 80.603,198.695 80.782,198.516 C80.961,198.337 80.961,198.045 80.782,197.866 L79.118,196.201 L81.199,194.12 L82.864,195.783 C83.044,195.964 83.335,195.964 83.515,195.783 C83.694,195.603 83.694,195.313 83.515,195.133 L81.828,193.447 C82.516,192.595 82.898,191.574 82.973,190.535 L85.419,190.535 C85.546,190.535 85.661,190.484 85.744,190.401 C85.827,190.318 85.878,190.202 85.878,190.075 C85.88,189.822 85.673,189.614 85.419,189.614" id="Fill-20-Copy-6" fill="#3E71A3" opacity="0.600000024"></path>
                    <path d="M57.419,189.614 L54.961,189.614 C54.856,188.593 54.458,187.598 53.76,186.771 C53.763,186.768 53.765,186.766 53.768,186.763 L55.515,185.016 C55.694,184.836 55.694,184.546 55.515,184.366 C55.335,184.186 55.044,184.186 54.864,184.366 L53.117,186.113 C53.114,186.116 53.111,186.119 53.11,186.122 C52.281,185.429 51.286,185.033 50.266,184.931 L50.266,182.462 C50.266,182.208 50.059,182 49.805,182 C49.551,182 49.345,182.208 49.345,182.462 L49.345,184.923 C48.311,185.001 47.294,185.381 46.447,186.066 L44.748,184.366 C44.567,184.186 44.277,184.186 44.097,184.366 C43.917,184.546 43.917,184.836 44.097,185.016 L45.774,186.695 L43.693,188.776 L42.014,187.099 C41.836,186.919 41.544,186.919 41.364,187.099 C41.184,187.278 41.184,187.569 41.364,187.749 L43.06,189.443 C42.358,190.289 41.963,191.306 41.875,192.347 L39.46,192.347 C39.206,192.347 39,192.553 39,192.807 C39,193.061 39.206,193.267 39.46,193.267 L41.877,193.267 C41.969,194.304 42.367,195.319 43.07,196.16 L41.364,197.866 C41.184,198.045 41.184,198.337 41.364,198.516 C41.544,198.695 41.836,198.695 42.014,198.516 L43.719,196.812 C44.56,197.52 45.575,197.922 46.614,198.017 L46.614,200.421 C46.614,200.675 46.819,200.881 47.074,200.881 C47.201,200.881 47.315,200.829 47.399,200.746 C47.482,200.663 47.533,200.548 47.533,200.421 L47.533,198.02 C48.579,197.934 49.601,197.539 50.451,196.835 L52.131,198.516 C52.311,198.695 52.603,198.695 52.782,198.516 C52.961,198.337 52.961,198.045 52.782,197.866 L51.118,196.201 L53.199,194.12 L54.864,195.783 C55.044,195.964 55.335,195.964 55.515,195.783 C55.694,195.603 55.694,195.313 55.515,195.133 L53.828,193.447 C54.516,192.595 54.898,191.574 54.973,190.535 L57.419,190.535 C57.546,190.535 57.661,190.484 57.744,190.401 C57.827,190.318 57.878,190.202 57.878,190.075 C57.88,189.822 57.673,189.614 57.419,189.614" id="Fill-20-Copy-6" fill="#3E71A3" opacity="0.600000024"></path>
                    <path d="M515.419,230.614 L512.961,230.614 C512.856,229.593 512.458,228.598 511.76,227.771 C511.763,227.768 511.765,227.766 511.768,227.763 L513.515,226.016 C513.694,225.836 513.694,225.546 513.515,225.366 C513.335,225.186 513.044,225.186 512.864,225.366 L511.117,227.113 C511.114,227.116 511.111,227.119 511.11,227.122 C510.281,226.429 509.286,226.033 508.266,225.931 L508.266,223.462 C508.266,223.208 508.059,223 507.805,223 C507.551,223 507.345,223.208 507.345,223.462 L507.345,225.923 C506.311,226.001 505.294,226.381 504.447,227.066 L502.748,225.366 C502.567,225.186 502.277,225.186 502.097,225.366 C501.917,225.546 501.917,225.836 502.097,226.016 L503.774,227.695 L501.693,229.776 L500.014,228.099 C499.836,227.919 499.544,227.919 499.364,228.099 C499.184,228.278 499.184,228.569 499.364,228.749 L501.06,230.443 C500.358,231.289 499.963,232.306 499.875,233.347 L497.46,233.347 C497.206,233.347 497,233.553 497,233.807 C497,234.061 497.206,234.267 497.46,234.267 L499.877,234.267 C499.969,235.304 500.367,236.319 501.07,237.16 L499.364,238.866 C499.184,239.045 499.184,239.337 499.364,239.516 C499.544,239.695 499.836,239.695 500.014,239.516 L501.719,237.812 C502.56,238.52 503.575,238.922 504.614,239.017 L504.614,241.421 C504.614,241.675 504.819,241.881 505.074,241.881 C505.201,241.881 505.315,241.829 505.399,241.746 C505.482,241.663 505.533,241.548 505.533,241.421 L505.533,239.02 C506.579,238.934 507.601,238.539 508.451,237.835 L510.131,239.516 C510.311,239.695 510.603,239.695 510.782,239.516 C510.961,239.337 510.961,239.045 510.782,238.866 L509.118,237.201 L511.199,235.12 L512.864,236.783 C513.044,236.964 513.335,236.964 513.515,236.783 C513.694,236.603 513.694,236.313 513.515,236.133 L511.828,234.447 C512.516,233.595 512.898,232.574 512.973,231.535 L515.419,231.535 C515.546,231.535 515.661,231.484 515.744,231.401 C515.827,231.318 515.878,231.202 515.878,231.075 C515.88,230.822 515.673,230.614 515.419,230.614" id="Fill-20-Copy-12" fill="#375E84"></path>
                    <path d="M480.419,220.614 L477.961,220.614 C477.856,219.593 477.458,218.598 476.76,217.771 C476.763,217.768 476.765,217.766 476.768,217.763 L478.515,216.016 C478.694,215.836 478.694,215.546 478.515,215.366 C478.335,215.186 478.044,215.186 477.864,215.366 L476.117,217.113 C476.114,217.116 476.111,217.119 476.11,217.122 C475.281,216.429 474.286,216.033 473.266,215.931 L473.266,213.462 C473.266,213.208 473.059,213 472.805,213 C472.551,213 472.345,213.208 472.345,213.462 L472.345,215.923 C471.311,216.001 470.294,216.381 469.447,217.066 L467.748,215.366 C467.567,215.186 467.277,215.186 467.097,215.366 C466.917,215.546 466.917,215.836 467.097,216.016 L468.774,217.695 L466.693,219.776 L465.014,218.099 C464.836,217.919 464.544,217.919 464.364,218.099 C464.184,218.278 464.184,218.569 464.364,218.749 L466.06,220.443 C465.358,221.289 464.963,222.306 464.875,223.347 L462.46,223.347 C462.206,223.347 462,223.553 462,223.807 C462,224.061 462.206,224.267 462.46,224.267 L464.877,224.267 C464.969,225.304 465.367,226.319 466.07,227.16 L464.364,228.866 C464.184,229.045 464.184,229.337 464.364,229.516 C464.544,229.695 464.836,229.695 465.014,229.516 L466.719,227.812 C467.56,228.52 468.575,228.922 469.614,229.017 L469.614,231.421 C469.614,231.675 469.819,231.881 470.074,231.881 C470.201,231.881 470.315,231.829 470.399,231.746 C470.482,231.663 470.533,231.548 470.533,231.421 L470.533,229.02 C471.579,228.934 472.601,228.539 473.451,227.835 L475.131,229.516 C475.311,229.695 475.603,229.695 475.782,229.516 C475.961,229.337 475.961,229.045 475.782,228.866 L474.118,227.201 L476.199,225.12 L477.864,226.783 C478.044,226.964 478.335,226.964 478.515,226.783 C478.694,226.603 478.694,226.313 478.515,226.133 L476.828,224.447 C477.516,223.595 477.898,222.574 477.973,221.535 L480.419,221.535 C480.546,221.535 480.661,221.484 480.744,221.401 C480.827,221.318 480.878,221.202 480.878,221.075 C480.88,220.822 480.673,220.614 480.419,220.614" id="Fill-20-Copy-14" fill="#375E84"></path>
                    <path d="M479.419,268.614 L476.961,268.614 C476.856,267.593 476.458,266.598 475.76,265.771 C475.763,265.768 475.765,265.766 475.768,265.763 L477.515,264.016 C477.694,263.836 477.694,263.546 477.515,263.366 C477.335,263.186 477.044,263.186 476.864,263.366 L475.117,265.113 C475.114,265.116 475.111,265.119 475.11,265.122 C474.281,264.429 473.286,264.033 472.266,263.931 L472.266,261.462 C472.266,261.208 472.059,261 471.805,261 C471.551,261 471.345,261.208 471.345,261.462 L471.345,263.923 C470.311,264.001 469.294,264.381 468.447,265.066 L466.748,263.366 C466.567,263.186 466.277,263.186 466.097,263.366 C465.917,263.546 465.917,263.836 466.097,264.016 L467.774,265.695 L465.693,267.776 L464.014,266.099 C463.836,265.919 463.544,265.919 463.364,266.099 C463.184,266.278 463.184,266.569 463.364,266.749 L465.06,268.443 C464.358,269.289 463.963,270.306 463.875,271.347 L461.46,271.347 C461.206,271.347 461,271.553 461,271.807 C461,272.061 461.206,272.267 461.46,272.267 L463.877,272.267 C463.969,273.304 464.367,274.319 465.07,275.16 L463.364,276.866 C463.184,277.045 463.184,277.337 463.364,277.516 C463.544,277.695 463.836,277.695 464.014,277.516 L465.719,275.812 C466.56,276.52 467.575,276.922 468.614,277.017 L468.614,279.421 C468.614,279.675 468.819,279.881 469.074,279.881 C469.201,279.881 469.315,279.829 469.399,279.746 C469.482,279.663 469.533,279.548 469.533,279.421 L469.533,277.02 C470.579,276.934 471.601,276.539 472.451,275.835 L474.131,277.516 C474.311,277.695 474.603,277.695 474.782,277.516 C474.961,277.337 474.961,277.045 474.782,276.866 L473.118,275.201 L475.199,273.12 L476.864,274.783 C477.044,274.964 477.335,274.964 477.515,274.783 C477.694,274.603 477.694,274.313 477.515,274.133 L475.828,272.447 C476.516,271.595 476.898,270.574 476.973,269.535 L479.419,269.535 C479.546,269.535 479.661,269.484 479.744,269.401 C479.827,269.318 479.878,269.202 479.878,269.075 C479.88,268.822 479.673,268.614 479.419,268.614" id="Fill-20-Copy-15" fill="#375E84"></path>
                    <path d="M437.419,247.614 L434.961,247.614 C434.856,246.593 434.458,245.598 433.76,244.771 C433.763,244.768 433.765,244.766 433.768,244.763 L435.515,243.016 C435.694,242.836 435.694,242.546 435.515,242.366 C435.335,242.186 435.044,242.186 434.864,242.366 L433.117,244.113 C433.114,244.116 433.111,244.119 433.11,244.122 C432.281,243.429 431.286,243.033 430.266,242.931 L430.266,240.462 C430.266,240.208 430.059,240 429.805,240 C429.551,240 429.345,240.208 429.345,240.462 L429.345,242.923 C428.311,243.001 427.294,243.381 426.447,244.066 L424.748,242.366 C424.567,242.186 424.277,242.186 424.097,242.366 C423.917,242.546 423.917,242.836 424.097,243.016 L425.774,244.695 L423.693,246.776 L422.014,245.099 C421.836,244.919 421.544,244.919 421.364,245.099 C421.184,245.278 421.184,245.569 421.364,245.749 L423.06,247.443 C422.358,248.289 421.963,249.306 421.875,250.347 L419.46,250.347 C419.206,250.347 419,250.553 419,250.807 C419,251.061 419.206,251.267 419.46,251.267 L421.877,251.267 C421.969,252.304 422.367,253.319 423.07,254.16 L421.364,255.866 C421.184,256.045 421.184,256.337 421.364,256.516 C421.544,256.695 421.836,256.695 422.014,256.516 L423.719,254.812 C424.56,255.52 425.575,255.922 426.614,256.017 L426.614,258.421 C426.614,258.675 426.819,258.881 427.074,258.881 C427.201,258.881 427.315,258.829 427.399,258.746 C427.482,258.663 427.533,258.548 427.533,258.421 L427.533,256.02 C428.579,255.934 429.601,255.539 430.451,254.835 L432.131,256.516 C432.311,256.695 432.603,256.695 432.782,256.516 C432.961,256.337 432.961,256.045 432.782,255.866 L431.118,254.201 L433.199,252.12 L434.864,253.783 C435.044,253.964 435.335,253.964 435.515,253.783 C435.694,253.603 435.694,253.313 435.515,253.133 L433.828,251.447 C434.516,250.595 434.898,249.574 434.973,248.535 L437.419,248.535 C437.546,248.535 437.661,248.484 437.744,248.401 C437.827,248.318 437.878,248.202 437.878,248.075 C437.88,247.822 437.673,247.614 437.419,247.614" id="Fill-20-Copy-17" fill="#375E84"></path>
                    <path d="M428.419,291.614 L425.961,291.614 C425.856,290.593 425.458,289.598 424.76,288.771 C424.763,288.768 424.765,288.766 424.768,288.763 L426.515,287.016 C426.694,286.836 426.694,286.546 426.515,286.366 C426.335,286.186 426.044,286.186 425.864,286.366 L424.117,288.113 C424.114,288.116 424.111,288.119 424.11,288.122 C423.281,287.429 422.286,287.033 421.266,286.931 L421.266,284.462 C421.266,284.208 421.059,284 420.805,284 C420.551,284 420.345,284.208 420.345,284.462 L420.345,286.923 C419.311,287.001 418.294,287.381 417.447,288.066 L415.748,286.366 C415.567,286.186 415.277,286.186 415.097,286.366 C414.917,286.546 414.917,286.836 415.097,287.016 L416.774,288.695 L414.693,290.776 L413.014,289.099 C412.836,288.919 412.544,288.919 412.364,289.099 C412.184,289.278 412.184,289.569 412.364,289.749 L414.06,291.443 C413.358,292.289 412.963,293.306 412.875,294.347 L410.46,294.347 C410.206,294.347 410,294.553 410,294.807 C410,295.061 410.206,295.267 410.46,295.267 L412.877,295.267 C412.969,296.304 413.367,297.319 414.07,298.16 L412.364,299.866 C412.184,300.045 412.184,300.337 412.364,300.516 C412.544,300.695 412.836,300.695 413.014,300.516 L414.719,298.812 C415.56,299.52 416.575,299.922 417.614,300.017 L417.614,302.421 C417.614,302.675 417.819,302.881 418.074,302.881 C418.201,302.881 418.315,302.829 418.399,302.746 C418.482,302.663 418.533,302.548 418.533,302.421 L418.533,300.02 C419.579,299.934 420.601,299.539 421.451,298.835 L423.131,300.516 C423.311,300.695 423.603,300.695 423.782,300.516 C423.961,300.337 423.961,300.045 423.782,299.866 L422.118,298.201 L424.199,296.12 L425.864,297.783 C426.044,297.964 426.335,297.964 426.515,297.783 C426.694,297.603 426.694,297.313 426.515,297.133 L424.828,295.447 C425.516,294.595 425.898,293.574 425.973,292.535 L428.419,292.535 C428.546,292.535 428.661,292.484 428.744,292.401 C428.827,292.318 428.878,292.202 428.878,292.075 C428.88,291.822 428.673,291.614 428.419,291.614" id="Fill-20-Copy-16" fill="#375E84"></path>
                    <path d="M428.419,344.614 L425.961,344.614 C425.856,343.593 425.458,342.598 424.76,341.771 C424.763,341.768 424.765,341.766 424.768,341.763 L426.515,340.016 C426.694,339.836 426.694,339.546 426.515,339.366 C426.335,339.186 426.044,339.186 425.864,339.366 L424.117,341.113 C424.114,341.116 424.111,341.119 424.11,341.122 C423.281,340.429 422.286,340.033 421.266,339.931 L421.266,337.462 C421.266,337.208 421.059,337 420.805,337 C420.551,337 420.345,337.208 420.345,337.462 L420.345,339.923 C419.311,340.001 418.294,340.381 417.447,341.066 L415.748,339.366 C415.567,339.186 415.277,339.186 415.097,339.366 C414.917,339.546 414.917,339.836 415.097,340.016 L416.774,341.695 L414.693,343.776 L413.014,342.099 C412.836,341.919 412.544,341.919 412.364,342.099 C412.184,342.278 412.184,342.569 412.364,342.749 L414.06,344.443 C413.358,345.289 412.963,346.306 412.875,347.347 L410.46,347.347 C410.206,347.347 410,347.553 410,347.807 C410,348.061 410.206,348.267 410.46,348.267 L412.877,348.267 C412.969,349.304 413.367,350.319 414.07,351.16 L412.364,352.866 C412.184,353.045 412.184,353.337 412.364,353.516 C412.544,353.695 412.836,353.695 413.014,353.516 L414.719,351.812 C415.56,352.52 416.575,352.922 417.614,353.017 L417.614,355.421 C417.614,355.675 417.819,355.881 418.074,355.881 C418.201,355.881 418.315,355.829 418.399,355.746 C418.482,355.663 418.533,355.548 418.533,355.421 L418.533,353.02 C419.579,352.934 420.601,352.539 421.451,351.835 L423.131,353.516 C423.311,353.695 423.603,353.695 423.782,353.516 C423.961,353.337 423.961,353.045 423.782,352.866 L422.118,351.201 L424.199,349.12 L425.864,350.783 C426.044,350.964 426.335,350.964 426.515,350.783 C426.694,350.603 426.694,350.313 426.515,350.133 L424.828,348.447 C425.516,347.595 425.898,346.574 425.973,345.535 L428.419,345.535 C428.546,345.535 428.661,345.484 428.744,345.401 C428.827,345.318 428.878,345.202 428.878,345.075 C428.88,344.822 428.673,344.614 428.419,344.614" id="Fill-20-Copy-18" fill="#375E84"></path>
                    <g id="Group-Copy-2" transform="translate(286.000000, 62.000000)">
                        <path d="M36.2319767,4 C29.647093,4 24.1453488,8.70174401 22.7877907,14.983151 C21.5546512,14.3227904 20.1505814,13.947384 18.6593023,13.947384 C13.7569767,13.947384 9.78255814,17.9887674 9.78255814,22.973692 C9.78255814,23.0357671 9.78604651,23.0966598 9.7872093,23.1581437 L4.34767442,23.1581437 C1.95639535,23.1581437 0,25.1475022 0,27.5790718 C0,30.0106414 1.95639535,32 4.34767442,32 L33.6959302,32 C34.0087209,32 34.3127907,31.9645285 34.6075581,31.8994975 C35.1406977,31.9633461 35.6819767,32 36.2319767,32 C43.8360465,32 50,25.7321904 50,18 C50,10.2678096 43.8360465,4 36.2319767,4" id="Fill-6" fill="#000000" opacity="0.0700000003"></path>
                        <path d="M36.2319767,0 C29.647093,0 24.1453488,4.70174401 22.7877907,10.983151 C21.5546512,10.3227904 20.1505814,9.94738398 18.6593023,9.94738398 C13.7569767,9.94738398 9.78255814,13.9887674 9.78255814,18.973692 C9.78255814,19.0357671 9.78604651,19.0966598 9.7872093,19.1581437 L4.34767442,19.1581437 C1.95639535,19.1581437 0,21.1475022 0,23.5790718 C0,26.0106414 1.95639535,28 4.34767442,28 L33.6959302,28 C34.0087209,28 34.3127907,27.9645285 34.6075581,27.8994975 C35.1406977,27.9633461 35.6819767,28 36.2319767,28 C43.8360465,28 50,21.7321904 50,14 C50,6.26840083 43.8360465,0 36.2319767,0" id="Fill-8" fill="#FFFFFF"></path>
                    </g>
                    <g id="Group-Copy-3" transform="translate(187.000000, 32.000000)">
                        <path d="M36.2319767,4 C29.647093,4 24.1453488,8.70174401 22.7877907,14.983151 C21.5546512,14.3227904 20.1505814,13.947384 18.6593023,13.947384 C13.7569767,13.947384 9.78255814,17.9887674 9.78255814,22.973692 C9.78255814,23.0357671 9.78604651,23.0966598 9.7872093,23.1581437 L4.34767442,23.1581437 C1.95639535,23.1581437 0,25.1475022 0,27.5790718 C0,30.0106414 1.95639535,32 4.34767442,32 L33.6959302,32 C34.0087209,32 34.3127907,31.9645285 34.6075581,31.8994975 C35.1406977,31.9633461 35.6819767,32 36.2319767,32 C43.8360465,32 50,25.7321904 50,18 C50,10.2678096 43.8360465,4 36.2319767,4" id="Fill-6" fill="#000000" opacity="0.0700000003"></path>
                        <path d="M36.2319767,0 C29.647093,0 24.1453488,4.70174401 22.7877907,10.983151 C21.5546512,10.3227904 20.1505814,9.94738398 18.6593023,9.94738398 C13.7569767,9.94738398 9.78255814,13.9887674 9.78255814,18.973692 C9.78255814,19.0357671 9.78604651,19.0966598 9.7872093,19.1581437 L4.34767442,19.1581437 C1.95639535,19.1581437 0,21.1475022 0,23.5790718 C0,26.0106414 1.95639535,28 4.34767442,28 L33.6959302,28 C34.0087209,28 34.3127907,27.9645285 34.6075581,27.8994975 C35.1406977,27.9633461 35.6819767,28 36.2319767,28 C43.8360465,28 50,21.7321904 50,14 C50,6.26840083 43.8360465,0 36.2319767,0" id="Fill-8" fill="#FFFFFF"></path>
                    </g>
                    <rect id="Rectangle" fill="#E4E4DE" x="386" y="0" width="8" height="369"></rect>
                    <path d="M190,118 L197,118 C199.761424,118 202,120.238576 202,123 L202,153 L190,153 L190,130 L136,130 L136,144 L124,144 L124,123 C124,120.238576 126.238576,118 129,118 L136,118 L190,118 Z" id="Combined-Shape" fill="#E8F2F7"></path>
                </g>
                <g id="Group-23" transform="translate(46.258896, 113.291123)" fill="#4A4A4A">
                    <circle id="Oval" opacity="0.300000012" cx="33.5" cy="3.5" r="3.5"></circle>
                    <circle id="Oval" opacity="0.600000024" cx="33.5" cy="18.5" r="3.5"></circle>
                    <circle id="Oval" opacity="0.600000024" cx="33.5" cy="48.5" r="3.5"></circle>
                    <circle id="Oval" opacity="0.600000024" cx="18.5" cy="18.5" r="3.5"></circle>
                    <circle id="Oval" cx="18.5" cy="33.5" r="3.5"></circle>
                    <circle id="Oval" opacity="0.300000012" cx="3.5" cy="3.5" r="3.5"></circle>
                    <circle id="Oval" cx="3.5" cy="33.5" r="3.5"></circle>
                    <circle id="Oval" opacity="0.600000024" cx="3.5" cy="48.5" r="3.5"></circle>
                </g>
                <g id="Group-23-Copy" transform="translate(445.466252, 164.466252) rotate(-45.000000) translate(-445.466252, -164.466252) translate(426.966252, 138.466252)" fill="#4A4A4A">
                    <circle id="Oval" opacity="0.300000012" cx="33.5" cy="3.5" r="3.5"></circle>
                    <circle id="Oval" opacity="0.600000024" cx="33.5" cy="18.5" r="3.5"></circle>
                    <circle id="Oval" opacity="0.600000024" cx="33.5" cy="48.5" r="3.5"></circle>
                    <circle id="Oval" opacity="0.600000024" cx="18.5" cy="18.5" r="3.5"></circle>
                    <circle id="Oval" cx="18.5" cy="33.5" r="3.5"></circle>
                    <circle id="Oval" opacity="0.300000012" cx="3.5" cy="3.5" r="3.5"></circle>
                    <circle id="Oval" cx="3.5" cy="33.5" r="3.5"></circle>
                    <circle id="Oval" opacity="0.600000024" cx="3.5" cy="48.5" r="3.5"></circle>
                </g>
                <g id="Group-23-Copy" transform="translate(558.466252, 287.466252) rotate(-45.000000) translate(-558.466252, -287.466252) translate(539.966252, 261.466252)" fill="#4A4A4A">
                    <circle id="Oval" opacity="0.300000012" cx="33.5" cy="3.5" r="3.5"></circle>
                    <circle id="Oval" opacity="0.600000024" cx="33.5" cy="18.5" r="3.5"></circle>
                    <circle id="Oval" opacity="0.600000024" cx="33.5" cy="48.5" r="3.5"></circle>
                    <circle id="Oval" opacity="0.600000024" cx="18.5" cy="18.5" r="3.5"></circle>
                    <circle id="Oval" cx="18.5" cy="33.5" r="3.5"></circle>
                    <circle id="Oval" opacity="0.300000012" cx="3.5" cy="3.5" r="3.5"></circle>
                    <circle id="Oval" cx="3.5" cy="33.5" r="3.5"></circle>
                    <circle id="Oval" opacity="0.600000024" cx="3.5" cy="48.5" r="3.5"></circle>
                </g>
                <rect id="Rectangle" fill="#B7D2E0" x="187" y="148" width="63" height="5"></rect>
            </g>
        </g>
    </g>
</svg>