<?xml version="1.0" encoding="UTF-8"?>
<svg width="790px" height="379px" viewBox="0 0 790 379" version="1.1" xmlns="http://www.w3.org/2000/svg" xmlns:xlink="http://www.w3.org/1999/xlink">
    <!-- Generator: Sketch 52.2 (67145) - http://www.bohemiancoding.com/sketch -->
    <title>Group 14</title>
    <desc>Created with Sketch.</desc>
    <defs>
        <rect id="path-1" x="0" y="0" width="390" height="369"></rect>
        <path d="M98.40421,33.9472575 C100.440657,30.8593276 104.038773,28.8080305 108.137773,28.8080305 C114.489047,28.8080305 119.637773,33.7328983 119.637773,39.8080305 C119.637773,44.2072989 116.937864,48.0033869 113.036524,49.7629671 C118.036008,53.0955488 121.316401,58.6943644 121.316401,65.0391944 C121.316401,75.2564623 112.809811,83.5391944 102.316401,83.5391944 C93.279425,83.5391944 85.7160219,77.3961089 83.7905838,69.164741 C81.822726,69.6534532 79.7588901,69.9134741 77.6317388,69.9134741 C64.1007624,69.9134741 53.1317388,59.3921658 53.1317388,46.4134741 C53.1317388,33.4347825 64.1007624,22.9134741 77.6317388,22.9134741 C86.3884273,22.9134741 94.0721333,27.3199489 98.40421,33.9472575 Z" id="path-3"></path>
        <filter x="-3.7%" y="-4.1%" width="114.7%" height="116.5%" filterUnits="objectBoundingBox" id="filter-4">
            <feOffset dx="5" dy="5" in="SourceAlpha" result="shadowOffsetOuter1"></feOffset>
            <feColorMatrix values="0 0 0 0 0   0 0 0 0 0   0 0 0 0 0  0 0 0 0.0604619565 0" type="matrix" in="shadowOffsetOuter1"></feColorMatrix>
        </filter>
        <path d="M183.502709,271.240996 C186.251188,267.048137 191.090163,264.265175 196.6008,264.265175 C205.161213,264.265175 212.1008,270.980904 212.1008,279.265175 C212.1008,285.465594 208.21333,290.787334 202.66842,293.072305 C209.472304,297.56179 213.948239,305.182055 213.948239,313.827232 C213.948239,327.634351 202.5315,338.827232 188.448239,338.827232 C176.394989,338.827232 166.29494,330.628555 163.633662,319.609209 C161.101641,320.212639 158.454725,320.532686 155.730722,320.532686 C137.505325,320.532686 122.730722,306.205798 122.730722,288.532686 C122.730722,270.859574 137.505325,256.532686 155.730722,256.532686 C167.387049,256.532686 177.631852,262.393006 183.502709,271.240996 Z" id="path-5"></path>
        <filter x="-2.7%" y="-3.0%" width="111.0%" height="112.2%" filterUnits="objectBoundingBox" id="filter-6">
            <feOffset dx="5" dy="5" in="SourceAlpha" result="shadowOffsetOuter1"></feOffset>
            <feColorMatrix values="0 0 0 0 0   0 0 0 0 0   0 0 0 0 0  0 0 0 0.0604619565 0" type="matrix" in="shadowOffsetOuter1"></feColorMatrix>
        </filter>
        <rect id="path-7" x="0" y="0" width="390" height="369"></rect>
        <rect id="path-9" x="0" y="0" width="390" height="187"></rect>
    </defs>
    <g id="Page-1" stroke="none" stroke-width="1" fill="none" fill-rule="evenodd">
        <g id="crt-frontier-ocean-phytoplankton-v1.1" transform="translate(-205.000000, -2860.000000)">
            <g id="Group-14" transform="translate(205.000000, 2860.000000)">
                <rect id="Rectangle" fill="#000000" opacity="0.0711495536" x="10" y="10" width="780" height="369"></rect>
                <g id="Group-13">
                    <g id="Group-8" transform="translate(390.000000, 0.000000)">
                        <g id="Group-2">
                            <rect id="Rectangle" fill="#7CA4CA" fill-rule="nonzero" x="0" y="0" width="390" height="369"></rect>
                            <polygon id="Fill-1" fill="#719AC1" points="28.5390625 0 36.2773437 369 207.171151 369 278.971151 297.25089 278.971151 256.250566 320 215.250243 320 174.25089 289.227878 143.500162 289.227878 102.500809 227.684604 41.0003235 186.656727 41.0003235 145.627878 0"></polygon>
                            <polygon id="Fill-2" fill="#6896B8" points="0 0 0 369 82 369 82 348.499838 133.251092 297.25089 133.251092 256.250566 164 225.499838 164 143.500162 123.000485 102.500809 123.000485 61.4995147 61.4997574 0"></polygon>
                        </g>
                        <g id="Group-7">
                            <mask id="mask-2" fill="white">
                                <use xlink:href="#path-1"></use>
                            </mask>
                            <use id="Rectangle" fill="#7CA4CA" fill-rule="nonzero" opacity="0" xlink:href="#path-1"></use>
                            <path d="M-178.581,240.614 L-181.039,240.614 C-181.144,239.593 -181.542,238.598 -182.24,237.771 C-182.237,237.768 -182.235,237.766 -182.232,237.763 L-180.485,236.016 C-180.306,235.836 -180.306,235.546 -180.485,235.366 C-180.665,235.186 -180.956,235.186 -181.136,235.366 L-182.883,237.113 C-182.886,237.116 -182.889,237.119 -182.89,237.122 C-183.719,236.429 -184.714,236.033 -185.734,235.931 L-185.734,233.462 C-185.734,233.208 -185.941,233 -186.195,233 C-186.449,233 -186.655,233.208 -186.655,233.462 L-186.655,235.923 C-187.689,236.001 -188.706,236.381 -189.553,237.066 L-191.252,235.366 C-191.433,235.186 -191.723,235.186 -191.903,235.366 C-192.083,235.546 -192.083,235.836 -191.903,236.016 L-190.226,237.695 L-192.307,239.776 L-193.986,238.099 C-194.164,237.919 -194.456,237.919 -194.636,238.099 C-194.816,238.278 -194.816,238.569 -194.636,238.749 L-192.94,240.443 C-193.642,241.289 -194.037,242.306 -194.125,243.347 L-196.54,243.347 C-196.794,243.347 -197,243.553 -197,243.807 C-197,244.061 -196.794,244.267 -196.54,244.267 L-194.123,244.267 C-194.031,245.304 -193.633,246.319 -192.93,247.16 L-194.636,248.866 C-194.816,249.045 -194.816,249.337 -194.636,249.516 C-194.456,249.695 -194.164,249.695 -193.986,249.516 L-192.281,247.812 C-191.44,248.52 -190.425,248.922 -189.386,249.017 L-189.386,251.421 C-189.386,251.675 -189.181,251.881 -188.926,251.881 C-188.799,251.881 -188.685,251.829 -188.601,251.746 C-188.518,251.663 -188.467,251.548 -188.467,251.421 L-188.467,249.02 C-187.421,248.934 -186.399,248.539 -185.549,247.835 L-183.869,249.516 C-183.689,249.695 -183.397,249.695 -183.218,249.516 C-183.039,249.337 -183.039,249.045 -183.218,248.866 L-184.882,247.201 L-182.801,245.12 L-181.136,246.783 C-180.956,246.964 -180.665,246.964 -180.485,246.783 C-180.306,246.603 -180.306,246.313 -180.485,246.133 L-182.172,244.447 C-181.484,243.595 -181.102,242.574 -181.027,241.535 L-178.581,241.535 C-178.454,241.535 -178.339,241.484 -178.256,241.401 C-178.173,241.318 -178.122,241.202 -178.122,241.075 C-178.12,240.822 -178.327,240.614 -178.581,240.614" id="Fill-20-Copy-3" fill="#3E71A3" opacity="0.600000024" mask="url(#mask-2)"></path>
                            <g id="Group-5-Copy-2" mask="url(#mask-2)">
                                <g transform="translate(-52.038223, 311.751541) rotate(-30.000000) translate(52.038223, -311.751541) translate(-397.538223, 54.251541)">
                                    <g id="Group-5" transform="translate(0.000000, 0.000000)">
                                        <polygon id="Path" fill="#6288AC" points="493.541744 232.949317 424.254851 170.591781 326.3921 146.792335 240.298167 95.8282896 175.332992 73.4404547 78.2066254 0.0417437701 0.54174377 0.0417437701 0.54174377 514.041744 124.620083 467.7636 211.235994 402.887879 300.448826 386.72087 399.728374 347.92589 459.156044 311.512802 493.541744 273.337633"></polygon>
                                        <polygon id="Path-2" fill="#56728C" opacity="0.547316778" points="489.907769 253.539801 415.939608 217.283206 335.735725 207.594478 231.953615 146.074212 171.059619 136.587725 60.6740886 34.2116168 0.907769174 34.2116168 0.907769174 470.211617 108.111057 430.506109 192.060163 372.478476 290.364695 355.276413 395.886742 314.904922 440.681584 293.945348"></polygon>
                                    </g>
                                    <g id="Group-4" transform="translate(477.000000, 226.000000)">
                                        <g id="Group-6" transform="translate(89.000000, 0.000000)">
                                            <path d="M123.2013,27.9141 L96.7523,1.4641 C95.6783,0.3911 94.1743,-0.1369 92.6643,0.0311 L4.4483,9.8321 C1.9153,10.1141 0.0003,12.2541 0.0003,14.8021 L0.0003,48.0971 C0.0003,50.6451 1.9153,52.7851 4.4483,53.0661 L92.6643,62.8681 C94.1743,63.0361 95.6783,62.5081 96.7523,61.4351 L123.2013,34.9851 C125.1543,33.0321 125.1543,29.8671 123.2013,27.9141" id="Fill-1" fill="#F7FBFD"></path>
                                            <polygon id="Fill-4" fill="#D5D5C6" points="76.9035 11.8433 10.0005 19.2773 10.0005 43.6213 76.9035 51.0553"></polygon>
                                        </g>
                                        <rect id="Rectangle" stroke="#F7FBFD" stroke-width="6" fill="#C2CFDC" x="3" y="10" width="76" height="42" rx="2"></rect>
                                        <circle id="Oval" fill="#AABCCE" cx="60" cy="24" r="3"></circle>
                                        <circle id="Oval-Copy-3" fill="#AABCCE" cx="56" cy="36" r="3"></circle>
                                        <circle id="Oval-Copy-4" fill="#AABCCE" cx="43" cy="36" r="3"></circle>
                                        <circle id="Oval-Copy-5" fill="#AABCCE" cx="28" cy="26" r="3"></circle>
                                        <circle id="Oval-Copy-6" fill="#AABCCE" cx="19" cy="36" r="3"></circle>
                                        <path d="M82,31 L89.0003,31" id="Line" stroke="#DDE8ED" stroke-width="4" stroke-linecap="square"></path>
                                    </g>
                                </g>
                            </g>
                        </g>
                        <g id="Combined-Shape-Copy" transform="translate(87.224070, 53.226334) rotate(67.000000) translate(-87.224070, -53.226334) ">
                            <use fill="black" fill-opacity="1" filter="url(#filter-4)" xlink:href="#path-3"></use>
                            <use fill="#FFFFFF" fill-rule="evenodd" xlink:href="#path-3"></use>
                        </g>
                        <g id="Combined-Shape-Copy-2" transform="translate(168.339481, 297.679959) rotate(141.000000) translate(-168.339481, -297.679959) ">
                            <use fill="black" fill-opacity="1" filter="url(#filter-6)" xlink:href="#path-5"></use>
                            <use fill="#FFFFFF" fill-rule="evenodd" xlink:href="#path-5"></use>
                        </g>
                    </g>
                    <g id="Group-12">
                        <mask id="mask-8" fill="white">
                            <use xlink:href="#path-7"></use>
                        </mask>
                        <use id="Rectangle" fill="#ECE0D1" xlink:href="#path-7"></use>
                        <g id="Group-9" mask="url(#mask-8)">
                            <g transform="translate(0.000000, 182.000000)">
                                <mask id="mask-10" fill="white">
                                    <use xlink:href="#path-9"></use>
                                </mask>
                                <use id="Rectangle" stroke="none" fill="#7CA4CA" fill-rule="evenodd" xlink:href="#path-9"></use>
                                <g id="Group-5" stroke="none" stroke-width="1" fill="none" fill-rule="evenodd" mask="url(#mask-10)">
                                    <g transform="translate(0.000000, 35.000000)">
                                        <polygon id="Fill-1" fill="#567F99" points="423.909215 93.6001382 366.273037 93.6001382 351.863822 108.199585 294.227645 108.199585 251 152 568 152 545.116341 129.509857 517.568771 130.100138 481.546075 93.6001382 467.136178 108.199585 438.31843 79"></polygon>
                                        <polygon id="Fill-2" fill="#6290B1" points="43.2730377 0 28.8480089 14.475603 0 14.475603 0 152 238 152 216.36314 130.285225 187.515131 130.285225 151.454608 94.0955318 151.454608 79.6192434 122.606599 50.6666667 93.7579068 50.6666667"></polygon>
                                        <polygon id="Fill-3" fill="#567F99" points="94.3947156 123.333333 51.1909227 123.333333 22 152 152 152 108.796207 109"></polygon>
                                        <polygon id="Fill-4" fill="#594D49" points="0 152 390 152 390 141 0 141"></polygon>
                                    </g>
                                </g>
                            </g>
                        </g>
                    </g>
                    <g id="Group-5-Copy-2" transform="translate(102.000000, 124.000000)" fill="#6B8192">
                        <g id="molecule" transform="translate(31.000000, 31.000000)">
                            <circle id="Oval" cx="4.5" cy="4.5" r="2.75"></circle>
                        </g>
                        <g id="molecule" transform="translate(0.000000, 31.000000)">
                            <circle id="Oval" cx="4.5" cy="4.5" r="2.75"></circle>
                        </g>
                        <g id="molecule" opacity="0.728143601" transform="translate(16.000000, 47.000000)">
                            <circle id="Oval" cx="4.5" cy="4.5" r="2.75"></circle>
                        </g>
                        <g id="molecule" opacity="0.716355097" transform="translate(31.000000, 15.000000)">
                            <circle id="Oval" cx="4.5" cy="4.5" r="2.75"></circle>
                        </g>
                        <g id="molecule" opacity="0.216750372" transform="translate(47.000000, 0.000000)">
                            <circle id="Oval" cx="4.5" cy="4.5" r="2.75"></circle>
                        </g>
                        <g id="molecule" opacity="0.728143601" transform="translate(47.000000, 47.000000)">
                            <circle id="Oval" cx="4.5" cy="4.5" r="2.75"></circle>
                        </g>
                        <g id="molecule" opacity="0.269740513" transform="translate(31.000000, 62.000000)">
                            <circle id="Oval" cx="4.5" cy="4.5" r="2.75"></circle>
                        </g>
                        <g id="molecule" opacity="0.269740513" transform="translate(0.000000, 62.000000)">
                            <circle id="Oval" cx="4.5" cy="4.5" r="2.75"></circle>
                        </g>
                        <g id="molecule" opacity="0.716355097" transform="translate(16.000000, 15.000000)">
                            <circle id="Oval" cx="4.5" cy="4.5" r="2.75"></circle>
                        </g>
                    </g>
                    <g id="Group-5-Copy-2" transform="translate(102.000000, 199.000000)" fill="#6B8192">
                        <g id="molecule" transform="translate(31.000000, 31.000000)">
                            <circle id="Oval" cx="4.5" cy="4.5" r="2.75"></circle>
                        </g>
                        <g id="molecule" transform="translate(0.000000, 31.000000)">
                            <circle id="Oval" cx="4.5" cy="4.5" r="2.75"></circle>
                        </g>
                        <g id="molecule" opacity="0.728143601" transform="translate(16.000000, 47.000000)">
                            <circle id="Oval" cx="4.5" cy="4.5" r="2.75"></circle>
                        </g>
                        <g id="molecule" opacity="0.716355097" transform="translate(31.000000, 15.000000)">
                            <circle id="Oval" cx="4.5" cy="4.5" r="2.75"></circle>
                        </g>
                        <g id="molecule" opacity="0.216750372" transform="translate(47.000000, 0.000000)">
                            <circle id="Oval" cx="4.5" cy="4.5" r="2.75"></circle>
                        </g>
                        <g id="molecule" opacity="0.728143601" transform="translate(47.000000, 47.000000)">
                            <circle id="Oval" cx="4.5" cy="4.5" r="2.75"></circle>
                        </g>
                        <g id="molecule" opacity="0.269740513" transform="translate(31.000000, 62.000000)">
                            <circle id="Oval" cx="4.5" cy="4.5" r="2.75"></circle>
                        </g>
                        <g id="molecule" opacity="0.269740513" transform="translate(0.000000, 62.000000)">
                            <circle id="Oval" cx="4.5" cy="4.5" r="2.75"></circle>
                        </g>
                        <g id="molecule" opacity="0.716355097" transform="translate(16.000000, 15.000000)">
                            <circle id="Oval" cx="4.5" cy="4.5" r="2.75"></circle>
                        </g>
                    </g>
                    <g id="Group-11" transform="translate(183.000000, 139.000000)">
                        <g id="Group-4-Copy" transform="translate(77.000000, 0.000000)">
                            <polygon id="Fill-1" fill="#F7FBFD" points="21.5532 21.5537 0.0002 21.5537 22.0612 42.7537 85.4302 42.7537 105.6142 21.5537"></polygon>
                            <polygon id="Fill-2" fill="#E8F2F7" points="21.5532 0.0005 21.5532 21.5535 85.3522 21.5535 73.9302 10.1305 52.8072 10.1305 42.6762 0.0005"></polygon>
                            <polygon id="Fill-3" fill="#6290B1" points="22.0617 42.7541 32.1147 52.8071 74.3607 52.8071 84.4137 42.7541"></polygon>
                        </g>
                        <g id="Group-10" transform="translate(0.000000, 22.000000)">
                            <polygon id="Rectangle" fill="#F7FBFD" points="0 1.42108547e-14 70 1.42108547e-14 70 21 0 21"></polygon>
                            <path d="M0,21 L70,21 L70,26 C70,29.8659932 66.8659932,33 63,33 L7,33 C3.13400675,33 4.73447626e-16,29.8659932 0,26 L0,21 Z" id="Rectangle" fill="#6794B5"></path>
                        </g>
                        <rect id="Rectangle" fill="#F7FBFD" x="67" y="22" width="31" height="5"></rect>
                    </g>
                    <circle id="Oval" fill="#F9F9E8" cx="49.5" cy="46.5" r="27.5"></circle>
                    <path d="M243.419,211.614 L240.961,211.614 C240.856,210.593 240.458,209.598 239.76,208.771 C239.763,208.768 239.765,208.766 239.768,208.763 L241.515,207.016 C241.694,206.836 241.694,206.546 241.515,206.366 C241.335,206.186 241.044,206.186 240.864,206.366 L239.117,208.113 C239.114,208.116 239.111,208.119 239.11,208.122 C238.281,207.429 237.286,207.033 236.266,206.931 L236.266,204.462 C236.266,204.208 236.059,204 235.805,204 C235.551,204 235.345,204.208 235.345,204.462 L235.345,206.923 C234.311,207.001 233.294,207.381 232.447,208.066 L230.748,206.366 C230.567,206.186 230.277,206.186 230.097,206.366 C229.917,206.546 229.917,206.836 230.097,207.016 L231.774,208.695 L229.693,210.776 L228.014,209.099 C227.836,208.919 227.544,208.919 227.364,209.099 C227.184,209.278 227.184,209.569 227.364,209.749 L229.06,211.443 C228.358,212.289 227.963,213.306 227.875,214.347 L225.46,214.347 C225.206,214.347 225,214.553 225,214.807 C225,215.061 225.206,215.267 225.46,215.267 L227.877,215.267 C227.969,216.304 228.367,217.319 229.07,218.16 L227.364,219.866 C227.184,220.045 227.184,220.337 227.364,220.516 C227.544,220.695 227.836,220.695 228.014,220.516 L229.719,218.812 C230.56,219.52 231.575,219.922 232.614,220.017 L232.614,222.421 C232.614,222.675 232.819,222.881 233.074,222.881 C233.201,222.881 233.315,222.829 233.399,222.746 C233.482,222.663 233.533,222.548 233.533,222.421 L233.533,220.02 C234.579,219.934 235.601,219.539 236.451,218.835 L238.131,220.516 C238.311,220.695 238.603,220.695 238.782,220.516 C238.961,220.337 238.961,220.045 238.782,219.866 L237.118,218.201 L239.199,216.12 L240.864,217.783 C241.044,217.964 241.335,217.964 241.515,217.783 C241.694,217.603 241.694,217.313 241.515,217.133 L239.828,215.447 C240.516,214.595 240.898,213.574 240.973,212.535 L243.419,212.535 C243.546,212.535 243.661,212.484 243.744,212.401 C243.827,212.318 243.878,212.202 243.878,212.075 C243.88,211.822 243.673,211.614 243.419,211.614" id="Fill-20" fill="#3E71A3" opacity="0.300000012"></path>
                    <path d="M243.419,240.614 L240.961,240.614 C240.856,239.593 240.458,238.598 239.76,237.771 C239.763,237.768 239.765,237.766 239.768,237.763 L241.515,236.016 C241.694,235.836 241.694,235.546 241.515,235.366 C241.335,235.186 241.044,235.186 240.864,235.366 L239.117,237.113 C239.114,237.116 239.111,237.119 239.11,237.122 C238.281,236.429 237.286,236.033 236.266,235.931 L236.266,233.462 C236.266,233.208 236.059,233 235.805,233 C235.551,233 235.345,233.208 235.345,233.462 L235.345,235.923 C234.311,236.001 233.294,236.381 232.447,237.066 L230.748,235.366 C230.567,235.186 230.277,235.186 230.097,235.366 C229.917,235.546 229.917,235.836 230.097,236.016 L231.774,237.695 L229.693,239.776 L228.014,238.099 C227.836,237.919 227.544,237.919 227.364,238.099 C227.184,238.278 227.184,238.569 227.364,238.749 L229.06,240.443 C228.358,241.289 227.963,242.306 227.875,243.347 L225.46,243.347 C225.206,243.347 225,243.553 225,243.807 C225,244.061 225.206,244.267 225.46,244.267 L227.877,244.267 C227.969,245.304 228.367,246.319 229.07,247.16 L227.364,248.866 C227.184,249.045 227.184,249.337 227.364,249.516 C227.544,249.695 227.836,249.695 228.014,249.516 L229.719,247.812 C230.56,248.52 231.575,248.922 232.614,249.017 L232.614,251.421 C232.614,251.675 232.819,251.881 233.074,251.881 C233.201,251.881 233.315,251.829 233.399,251.746 C233.482,251.663 233.533,251.548 233.533,251.421 L233.533,249.02 C234.579,248.934 235.601,248.539 236.451,247.835 L238.131,249.516 C238.311,249.695 238.603,249.695 238.782,249.516 C238.961,249.337 238.961,249.045 238.782,248.866 L237.118,247.201 L239.199,245.12 L240.864,246.783 C241.044,246.964 241.335,246.964 241.515,246.783 C241.694,246.603 241.694,246.313 241.515,246.133 L239.828,244.447 C240.516,243.595 240.898,242.574 240.973,241.535 L243.419,241.535 C243.546,241.535 243.661,241.484 243.744,241.401 C243.827,241.318 243.878,241.202 243.878,241.075 C243.88,240.822 243.673,240.614 243.419,240.614" id="Fill-20-Copy-2" fill="#3E71A3" opacity="0.600000024"></path>
                    <path d="M243.419,268.614 L240.961,268.614 C240.856,267.593 240.458,266.598 239.76,265.771 C239.763,265.768 239.765,265.766 239.768,265.763 L241.515,264.016 C241.694,263.836 241.694,263.546 241.515,263.366 C241.335,263.186 241.044,263.186 240.864,263.366 L239.117,265.113 C239.114,265.116 239.111,265.119 239.11,265.122 C238.281,264.429 237.286,264.033 236.266,263.931 L236.266,261.462 C236.266,261.208 236.059,261 235.805,261 C235.551,261 235.345,261.208 235.345,261.462 L235.345,263.923 C234.311,264.001 233.294,264.381 232.447,265.066 L230.748,263.366 C230.567,263.186 230.277,263.186 230.097,263.366 C229.917,263.546 229.917,263.836 230.097,264.016 L231.774,265.695 L229.693,267.776 L228.014,266.099 C227.836,265.919 227.544,265.919 227.364,266.099 C227.184,266.278 227.184,266.569 227.364,266.749 L229.06,268.443 C228.358,269.289 227.963,270.306 227.875,271.347 L225.46,271.347 C225.206,271.347 225,271.553 225,271.807 C225,272.061 225.206,272.267 225.46,272.267 L227.877,272.267 C227.969,273.304 228.367,274.319 229.07,275.16 L227.364,276.866 C227.184,277.045 227.184,277.337 227.364,277.516 C227.544,277.695 227.836,277.695 228.014,277.516 L229.719,275.812 C230.56,276.52 231.575,276.922 232.614,277.017 L232.614,279.421 C232.614,279.675 232.819,279.881 233.074,279.881 C233.201,279.881 233.315,279.829 233.399,279.746 C233.482,279.663 233.533,279.548 233.533,279.421 L233.533,277.02 C234.579,276.934 235.601,276.539 236.451,275.835 L238.131,277.516 C238.311,277.695 238.603,277.695 238.782,277.516 C238.961,277.337 238.961,277.045 238.782,276.866 L237.118,275.201 L239.199,273.12 L240.864,274.783 C241.044,274.964 241.335,274.964 241.515,274.783 C241.694,274.603 241.694,274.313 241.515,274.133 L239.828,272.447 C240.516,271.595 240.898,270.574 240.973,269.535 L243.419,269.535 C243.546,269.535 243.661,269.484 243.744,269.401 C243.827,269.318 243.878,269.202 243.878,269.075 C243.88,268.822 243.673,268.614 243.419,268.614" id="Fill-20-Copy-4" fill="#3E71A3"></path>
                    <path d="M243.419,300.614 L240.961,300.614 C240.856,299.593 240.458,298.598 239.76,297.771 C239.763,297.768 239.765,297.766 239.768,297.763 L241.515,296.016 C241.694,295.836 241.694,295.546 241.515,295.366 C241.335,295.186 241.044,295.186 240.864,295.366 L239.117,297.113 C239.114,297.116 239.111,297.119 239.11,297.122 C238.281,296.429 237.286,296.033 236.266,295.931 L236.266,293.462 C236.266,293.208 236.059,293 235.805,293 C235.551,293 235.345,293.208 235.345,293.462 L235.345,295.923 C234.311,296.001 233.294,296.381 232.447,297.066 L230.748,295.366 C230.567,295.186 230.277,295.186 230.097,295.366 C229.917,295.546 229.917,295.836 230.097,296.016 L231.774,297.695 L229.693,299.776 L228.014,298.099 C227.836,297.919 227.544,297.919 227.364,298.099 C227.184,298.278 227.184,298.569 227.364,298.749 L229.06,300.443 C228.358,301.289 227.963,302.306 227.875,303.347 L225.46,303.347 C225.206,303.347 225,303.553 225,303.807 C225,304.061 225.206,304.267 225.46,304.267 L227.877,304.267 C227.969,305.304 228.367,306.319 229.07,307.16 L227.364,308.866 C227.184,309.045 227.184,309.337 227.364,309.516 C227.544,309.695 227.836,309.695 228.014,309.516 L229.719,307.812 C230.56,308.52 231.575,308.922 232.614,309.017 L232.614,311.421 C232.614,311.675 232.819,311.881 233.074,311.881 C233.201,311.881 233.315,311.829 233.399,311.746 C233.482,311.663 233.533,311.548 233.533,311.421 L233.533,309.02 C234.579,308.934 235.601,308.539 236.451,307.835 L238.131,309.516 C238.311,309.695 238.603,309.695 238.782,309.516 C238.961,309.337 238.961,309.045 238.782,308.866 L237.118,307.201 L239.199,305.12 L240.864,306.783 C241.044,306.964 241.335,306.964 241.515,306.783 C241.694,306.603 241.694,306.313 241.515,306.133 L239.828,304.447 C240.516,303.595 240.898,302.574 240.973,301.535 L243.419,301.535 C243.546,301.535 243.661,301.484 243.744,301.401 C243.827,301.318 243.878,301.202 243.878,301.075 C243.88,300.822 243.673,300.614 243.419,300.614" id="Fill-20-Copy-6" fill="#3E71A3" opacity="0.600000024"></path>
                    <path d="M211.419,211.614 L208.961,211.614 C208.856,210.593 208.458,209.598 207.76,208.771 C207.763,208.768 207.765,208.766 207.768,208.763 L209.515,207.016 C209.694,206.836 209.694,206.546 209.515,206.366 C209.335,206.186 209.044,206.186 208.864,206.366 L207.117,208.113 C207.114,208.116 207.111,208.119 207.11,208.122 C206.281,207.429 205.286,207.033 204.266,206.931 L204.266,204.462 C204.266,204.208 204.059,204 203.805,204 C203.551,204 203.345,204.208 203.345,204.462 L203.345,206.923 C202.311,207.001 201.294,207.381 200.447,208.066 L198.748,206.366 C198.567,206.186 198.277,206.186 198.097,206.366 C197.917,206.546 197.917,206.836 198.097,207.016 L199.774,208.695 L197.693,210.776 L196.014,209.099 C195.836,208.919 195.544,208.919 195.364,209.099 C195.184,209.278 195.184,209.569 195.364,209.749 L197.06,211.443 C196.358,212.289 195.963,213.306 195.875,214.347 L193.46,214.347 C193.206,214.347 193,214.553 193,214.807 C193,215.061 193.206,215.267 193.46,215.267 L195.877,215.267 C195.969,216.304 196.367,217.319 197.07,218.16 L195.364,219.866 C195.184,220.045 195.184,220.337 195.364,220.516 C195.544,220.695 195.836,220.695 196.014,220.516 L197.719,218.812 C198.56,219.52 199.575,219.922 200.614,220.017 L200.614,222.421 C200.614,222.675 200.819,222.881 201.074,222.881 C201.201,222.881 201.315,222.829 201.399,222.746 C201.482,222.663 201.533,222.548 201.533,222.421 L201.533,220.02 C202.579,219.934 203.601,219.539 204.451,218.835 L206.131,220.516 C206.311,220.695 206.603,220.695 206.782,220.516 C206.961,220.337 206.961,220.045 206.782,219.866 L205.118,218.201 L207.199,216.12 L208.864,217.783 C209.044,217.964 209.335,217.964 209.515,217.783 C209.694,217.603 209.694,217.313 209.515,217.133 L207.828,215.447 C208.516,214.595 208.898,213.574 208.973,212.535 L211.419,212.535 C211.546,212.535 211.661,212.484 211.744,212.401 C211.827,212.318 211.878,212.202 211.878,212.075 C211.88,211.822 211.673,211.614 211.419,211.614" id="Fill-20-Copy" fill="#3E71A3" opacity="0.300000012"></path>
                    <path d="M708.419,46.614 L705.961,46.614 C705.856,45.593 705.458,44.598 704.76,43.771 C704.763,43.768 704.765,43.766 704.768,43.763 L706.515,42.016 C706.694,41.836 706.694,41.546 706.515,41.366 C706.335,41.186 706.044,41.186 705.864,41.366 L704.117,43.113 C704.114,43.116 704.111,43.119 704.11,43.122 C703.281,42.429 702.286,42.033 701.266,41.931 L701.266,39.462 C701.266,39.208 701.059,39 700.805,39 C700.551,39 700.345,39.208 700.345,39.462 L700.345,41.923 C699.311,42.001 698.294,42.381 697.447,43.066 L695.748,41.366 C695.567,41.186 695.277,41.186 695.097,41.366 C694.917,41.546 694.917,41.836 695.097,42.016 L696.774,43.695 L694.693,45.776 L693.014,44.099 C692.836,43.919 692.544,43.919 692.364,44.099 C692.184,44.278 692.184,44.569 692.364,44.749 L694.06,46.443 C693.358,47.289 692.963,48.306 692.875,49.347 L690.46,49.347 C690.206,49.347 690,49.553 690,49.807 C690,50.061 690.206,50.267 690.46,50.267 L692.877,50.267 C692.969,51.304 693.367,52.319 694.07,53.16 L692.364,54.866 C692.184,55.045 692.184,55.337 692.364,55.516 C692.544,55.695 692.836,55.695 693.014,55.516 L694.719,53.812 C695.56,54.52 696.575,54.922 697.614,55.017 L697.614,57.421 C697.614,57.675 697.819,57.881 698.074,57.881 C698.201,57.881 698.315,57.829 698.399,57.746 C698.482,57.663 698.533,57.548 698.533,57.421 L698.533,55.02 C699.579,54.934 700.601,54.539 701.451,53.835 L703.131,55.516 C703.311,55.695 703.603,55.695 703.782,55.516 C703.961,55.337 703.961,55.045 703.782,54.866 L702.118,53.201 L704.199,51.12 L705.864,52.783 C706.044,52.964 706.335,52.964 706.515,52.783 C706.694,52.603 706.694,52.313 706.515,52.133 L704.828,50.447 C705.516,49.595 705.898,48.574 705.973,47.535 L708.419,47.535 C708.546,47.535 708.661,47.484 708.744,47.401 C708.827,47.318 708.878,47.202 708.878,47.075 C708.88,46.822 708.673,46.614 708.419,46.614" id="Fill-20-Copy-3" fill="#3E71A3" opacity="0.600000024"></path>
                    <path d="M767.419,122.614 L764.961,122.614 C764.856,121.593 764.458,120.598 763.76,119.771 C763.763,119.768 763.765,119.766 763.768,119.763 L765.515,118.016 C765.694,117.836 765.694,117.546 765.515,117.366 C765.335,117.186 765.044,117.186 764.864,117.366 L763.117,119.113 C763.114,119.116 763.111,119.119 763.11,119.122 C762.281,118.429 761.286,118.033 760.266,117.931 L760.266,115.462 C760.266,115.208 760.059,115 759.805,115 C759.551,115 759.345,115.208 759.345,115.462 L759.345,117.923 C758.311,118.001 757.294,118.381 756.447,119.066 L754.748,117.366 C754.567,117.186 754.277,117.186 754.097,117.366 C753.917,117.546 753.917,117.836 754.097,118.016 L755.774,119.695 L753.693,121.776 L752.014,120.099 C751.836,119.919 751.544,119.919 751.364,120.099 C751.184,120.278 751.184,120.569 751.364,120.749 L753.06,122.443 C752.358,123.289 751.963,124.306 751.875,125.347 L749.46,125.347 C749.206,125.347 749,125.553 749,125.807 C749,126.061 749.206,126.267 749.46,126.267 L751.877,126.267 C751.969,127.304 752.367,128.319 753.07,129.16 L751.364,130.866 C751.184,131.045 751.184,131.337 751.364,131.516 C751.544,131.695 751.836,131.695 752.014,131.516 L753.719,129.812 C754.56,130.52 755.575,130.922 756.614,131.017 L756.614,133.421 C756.614,133.675 756.819,133.881 757.074,133.881 C757.201,133.881 757.315,133.829 757.399,133.746 C757.482,133.663 757.533,133.548 757.533,133.421 L757.533,131.02 C758.579,130.934 759.601,130.539 760.451,129.835 L762.131,131.516 C762.311,131.695 762.603,131.695 762.782,131.516 C762.961,131.337 762.961,131.045 762.782,130.866 L761.118,129.201 L763.199,127.12 L764.864,128.783 C765.044,128.964 765.335,128.964 765.515,128.783 C765.694,128.603 765.694,128.313 765.515,128.133 L763.828,126.447 C764.516,125.595 764.898,124.574 764.973,123.535 L767.419,123.535 C767.546,123.535 767.661,123.484 767.744,123.401 C767.827,123.318 767.878,123.202 767.878,123.075 C767.88,122.822 767.673,122.614 767.419,122.614" id="Fill-20-Copy-8" fill="#3E71A3" opacity="0.600000024"></path>
                    <path d="M675.419,268.614 L672.961,268.614 C672.856,267.593 672.458,266.598 671.76,265.771 C671.763,265.768 671.765,265.766 671.768,265.763 L673.515,264.016 C673.694,263.836 673.694,263.546 673.515,263.366 C673.335,263.186 673.044,263.186 672.864,263.366 L671.117,265.113 C671.114,265.116 671.111,265.119 671.11,265.122 C670.281,264.429 669.286,264.033 668.266,263.931 L668.266,261.462 C668.266,261.208 668.059,261 667.805,261 C667.551,261 667.345,261.208 667.345,261.462 L667.345,263.923 C666.311,264.001 665.294,264.381 664.447,265.066 L662.748,263.366 C662.567,263.186 662.277,263.186 662.097,263.366 C661.917,263.546 661.917,263.836 662.097,264.016 L663.774,265.695 L661.693,267.776 L660.014,266.099 C659.836,265.919 659.544,265.919 659.364,266.099 C659.184,266.278 659.184,266.569 659.364,266.749 L661.06,268.443 C660.358,269.289 659.963,270.306 659.875,271.347 L657.46,271.347 C657.206,271.347 657,271.553 657,271.807 C657,272.061 657.206,272.267 657.46,272.267 L659.877,272.267 C659.969,273.304 660.367,274.319 661.07,275.16 L659.364,276.866 C659.184,277.045 659.184,277.337 659.364,277.516 C659.544,277.695 659.836,277.695 660.014,277.516 L661.719,275.812 C662.56,276.52 663.575,276.922 664.614,277.017 L664.614,279.421 C664.614,279.675 664.819,279.881 665.074,279.881 C665.201,279.881 665.315,279.829 665.399,279.746 C665.482,279.663 665.533,279.548 665.533,279.421 L665.533,277.02 C666.579,276.934 667.601,276.539 668.451,275.835 L670.131,277.516 C670.311,277.695 670.603,277.695 670.782,277.516 C670.961,277.337 670.961,277.045 670.782,276.866 L669.118,275.201 L671.199,273.12 L672.864,274.783 C673.044,274.964 673.335,274.964 673.515,274.783 C673.694,274.603 673.694,274.313 673.515,274.133 L671.828,272.447 C672.516,271.595 672.898,270.574 672.973,269.535 L675.419,269.535 C675.546,269.535 675.661,269.484 675.744,269.401 C675.827,269.318 675.878,269.202 675.878,269.075 C675.88,268.822 675.673,268.614 675.419,268.614" id="Fill-20-Copy-9" fill="#3E71A3" opacity="0.600000024"></path>
                    <path d="M727.419,334.614 L724.961,334.614 C724.856,333.593 724.458,332.598 723.76,331.771 C723.763,331.768 723.765,331.766 723.768,331.763 L725.515,330.016 C725.694,329.836 725.694,329.546 725.515,329.366 C725.335,329.186 725.044,329.186 724.864,329.366 L723.117,331.113 C723.114,331.116 723.111,331.119 723.11,331.122 C722.281,330.429 721.286,330.033 720.266,329.931 L720.266,327.462 C720.266,327.208 720.059,327 719.805,327 C719.551,327 719.345,327.208 719.345,327.462 L719.345,329.923 C718.311,330.001 717.294,330.381 716.447,331.066 L714.748,329.366 C714.567,329.186 714.277,329.186 714.097,329.366 C713.917,329.546 713.917,329.836 714.097,330.016 L715.774,331.695 L713.693,333.776 L712.014,332.099 C711.836,331.919 711.544,331.919 711.364,332.099 C711.184,332.278 711.184,332.569 711.364,332.749 L713.06,334.443 C712.358,335.289 711.963,336.306 711.875,337.347 L709.46,337.347 C709.206,337.347 709,337.553 709,337.807 C709,338.061 709.206,338.267 709.46,338.267 L711.877,338.267 C711.969,339.304 712.367,340.319 713.07,341.16 L711.364,342.866 C711.184,343.045 711.184,343.337 711.364,343.516 C711.544,343.695 711.836,343.695 712.014,343.516 L713.719,341.812 C714.56,342.52 715.575,342.922 716.614,343.017 L716.614,345.421 C716.614,345.675 716.819,345.881 717.074,345.881 C717.201,345.881 717.315,345.829 717.399,345.746 C717.482,345.663 717.533,345.548 717.533,345.421 L717.533,343.02 C718.579,342.934 719.601,342.539 720.451,341.835 L722.131,343.516 C722.311,343.695 722.603,343.695 722.782,343.516 C722.961,343.337 722.961,343.045 722.782,342.866 L721.118,341.201 L723.199,339.12 L724.864,340.783 C725.044,340.964 725.335,340.964 725.515,340.783 C725.694,340.603 725.694,340.313 725.515,340.133 L723.828,338.447 C724.516,337.595 724.898,336.574 724.973,335.535 L727.419,335.535 C727.546,335.535 727.661,335.484 727.744,335.401 C727.827,335.318 727.878,335.202 727.878,335.075 C727.88,334.822 727.673,334.614 727.419,334.614" id="Fill-20-Copy-10" fill="#3E71A3" opacity="0.600000024"></path>
                    <path d="M603.419,69.614 L600.961,69.614 C600.856,68.593 600.458,67.598 599.76,66.771 C599.763,66.768 599.765,66.766 599.768,66.763 L601.515,65.016 C601.694,64.836 601.694,64.546 601.515,64.366 C601.335,64.186 601.044,64.186 600.864,64.366 L599.117,66.113 C599.114,66.116 599.111,66.119 599.11,66.122 C598.281,65.429 597.286,65.033 596.266,64.931 L596.266,62.462 C596.266,62.208 596.059,62 595.805,62 C595.551,62 595.345,62.208 595.345,62.462 L595.345,64.923 C594.311,65.001 593.294,65.381 592.447,66.066 L590.748,64.366 C590.567,64.186 590.277,64.186 590.097,64.366 C589.917,64.546 589.917,64.836 590.097,65.016 L591.774,66.695 L589.693,68.776 L588.014,67.099 C587.836,66.919 587.544,66.919 587.364,67.099 C587.184,67.278 587.184,67.569 587.364,67.749 L589.06,69.443 C588.358,70.289 587.963,71.306 587.875,72.347 L585.46,72.347 C585.206,72.347 585,72.553 585,72.807 C585,73.061 585.206,73.267 585.46,73.267 L587.877,73.267 C587.969,74.304 588.367,75.319 589.07,76.16 L587.364,77.866 C587.184,78.045 587.184,78.337 587.364,78.516 C587.544,78.695 587.836,78.695 588.014,78.516 L589.719,76.812 C590.56,77.52 591.575,77.922 592.614,78.017 L592.614,80.421 C592.614,80.675 592.819,80.881 593.074,80.881 C593.201,80.881 593.315,80.829 593.399,80.746 C593.482,80.663 593.533,80.548 593.533,80.421 L593.533,78.02 C594.579,77.934 595.601,77.539 596.451,76.835 L598.131,78.516 C598.311,78.695 598.603,78.695 598.782,78.516 C598.961,78.337 598.961,78.045 598.782,77.866 L597.118,76.201 L599.199,74.12 L600.864,75.783 C601.044,75.964 601.335,75.964 601.515,75.783 C601.694,75.603 601.694,75.313 601.515,75.133 L599.828,73.447 C600.516,72.595 600.898,71.574 600.973,70.535 L603.419,70.535 C603.546,70.535 603.661,70.484 603.744,70.401 C603.827,70.318 603.878,70.202 603.878,70.075 C603.88,69.822 603.673,69.614 603.419,69.614" id="Fill-20-Copy-11" fill="#3E71A3" opacity="0.600000024"></path>
                    <path d="M469.419,137.614 L466.961,137.614 C466.856,136.593 466.458,135.598 465.76,134.771 C465.763,134.768 465.765,134.766 465.768,134.763 L467.515,133.016 C467.694,132.836 467.694,132.546 467.515,132.366 C467.335,132.186 467.044,132.186 466.864,132.366 L465.117,134.113 C465.114,134.116 465.111,134.119 465.11,134.122 C464.281,133.429 463.286,133.033 462.266,132.931 L462.266,130.462 C462.266,130.208 462.059,130 461.805,130 C461.551,130 461.345,130.208 461.345,130.462 L461.345,132.923 C460.311,133.001 459.294,133.381 458.447,134.066 L456.748,132.366 C456.567,132.186 456.277,132.186 456.097,132.366 C455.917,132.546 455.917,132.836 456.097,133.016 L457.774,134.695 L455.693,136.776 L454.014,135.099 C453.836,134.919 453.544,134.919 453.364,135.099 C453.184,135.278 453.184,135.569 453.364,135.749 L455.06,137.443 C454.358,138.289 453.963,139.306 453.875,140.347 L451.46,140.347 C451.206,140.347 451,140.553 451,140.807 C451,141.061 451.206,141.267 451.46,141.267 L453.877,141.267 C453.969,142.304 454.367,143.319 455.07,144.16 L453.364,145.866 C453.184,146.045 453.184,146.337 453.364,146.516 C453.544,146.695 453.836,146.695 454.014,146.516 L455.719,144.812 C456.56,145.52 457.575,145.922 458.614,146.017 L458.614,148.421 C458.614,148.675 458.819,148.881 459.074,148.881 C459.201,148.881 459.315,148.829 459.399,148.746 C459.482,148.663 459.533,148.548 459.533,148.421 L459.533,146.02 C460.579,145.934 461.601,145.539 462.451,144.835 L464.131,146.516 C464.311,146.695 464.603,146.695 464.782,146.516 C464.961,146.337 464.961,146.045 464.782,145.866 L463.118,144.201 L465.199,142.12 L466.864,143.783 C467.044,143.964 467.335,143.964 467.515,143.783 C467.694,143.603 467.694,143.313 467.515,143.133 L465.828,141.447 C466.516,140.595 466.898,139.574 466.973,138.535 L469.419,138.535 C469.546,138.535 469.661,138.484 469.744,138.401 C469.827,138.318 469.878,138.202 469.878,138.075 C469.88,137.822 469.673,137.614 469.419,137.614" id="Fill-20-Copy-12" fill="#3E71A3" opacity="0.600000024"></path>
                    <path d="M211.419,268.614 L208.961,268.614 C208.856,267.593 208.458,266.598 207.76,265.771 C207.763,265.768 207.765,265.766 207.768,265.763 L209.515,264.016 C209.694,263.836 209.694,263.546 209.515,263.366 C209.335,263.186 209.044,263.186 208.864,263.366 L207.117,265.113 C207.114,265.116 207.111,265.119 207.11,265.122 C206.281,264.429 205.286,264.033 204.266,263.931 L204.266,261.462 C204.266,261.208 204.059,261 203.805,261 C203.551,261 203.345,261.208 203.345,261.462 L203.345,263.923 C202.311,264.001 201.294,264.381 200.447,265.066 L198.748,263.366 C198.567,263.186 198.277,263.186 198.097,263.366 C197.917,263.546 197.917,263.836 198.097,264.016 L199.774,265.695 L197.693,267.776 L196.014,266.099 C195.836,265.919 195.544,265.919 195.364,266.099 C195.184,266.278 195.184,266.569 195.364,266.749 L197.06,268.443 C196.358,269.289 195.963,270.306 195.875,271.347 L193.46,271.347 C193.206,271.347 193,271.553 193,271.807 C193,272.061 193.206,272.267 193.46,272.267 L195.877,272.267 C195.969,273.304 196.367,274.319 197.07,275.16 L195.364,276.866 C195.184,277.045 195.184,277.337 195.364,277.516 C195.544,277.695 195.836,277.695 196.014,277.516 L197.719,275.812 C198.56,276.52 199.575,276.922 200.614,277.017 L200.614,279.421 C200.614,279.675 200.819,279.881 201.074,279.881 C201.201,279.881 201.315,279.829 201.399,279.746 C201.482,279.663 201.533,279.548 201.533,279.421 L201.533,277.02 C202.579,276.934 203.601,276.539 204.451,275.835 L206.131,277.516 C206.311,277.695 206.603,277.695 206.782,277.516 C206.961,277.337 206.961,277.045 206.782,276.866 L205.118,275.201 L207.199,273.12 L208.864,274.783 C209.044,274.964 209.335,274.964 209.515,274.783 C209.694,274.603 209.694,274.313 209.515,274.133 L207.828,272.447 C208.516,271.595 208.898,270.574 208.973,269.535 L211.419,269.535 C211.546,269.535 211.661,269.484 211.744,269.401 C211.827,269.318 211.878,269.202 211.878,269.075 C211.88,268.822 211.673,268.614 211.419,268.614" id="Fill-20-Copy-5" fill="#3E71A3"></path>
                    <path d="M211.419,300.614 L208.961,300.614 C208.856,299.593 208.458,298.598 207.76,297.771 C207.763,297.768 207.765,297.766 207.768,297.763 L209.515,296.016 C209.694,295.836 209.694,295.546 209.515,295.366 C209.335,295.186 209.044,295.186 208.864,295.366 L207.117,297.113 C207.114,297.116 207.111,297.119 207.11,297.122 C206.281,296.429 205.286,296.033 204.266,295.931 L204.266,293.462 C204.266,293.208 204.059,293 203.805,293 C203.551,293 203.345,293.208 203.345,293.462 L203.345,295.923 C202.311,296.001 201.294,296.381 200.447,297.066 L198.748,295.366 C198.567,295.186 198.277,295.186 198.097,295.366 C197.917,295.546 197.917,295.836 198.097,296.016 L199.774,297.695 L197.693,299.776 L196.014,298.099 C195.836,297.919 195.544,297.919 195.364,298.099 C195.184,298.278 195.184,298.569 195.364,298.749 L197.06,300.443 C196.358,301.289 195.963,302.306 195.875,303.347 L193.46,303.347 C193.206,303.347 193,303.553 193,303.807 C193,304.061 193.206,304.267 193.46,304.267 L195.877,304.267 C195.969,305.304 196.367,306.319 197.07,307.16 L195.364,308.866 C195.184,309.045 195.184,309.337 195.364,309.516 C195.544,309.695 195.836,309.695 196.014,309.516 L197.719,307.812 C198.56,308.52 199.575,308.922 200.614,309.017 L200.614,311.421 C200.614,311.675 200.819,311.881 201.074,311.881 C201.201,311.881 201.315,311.829 201.399,311.746 C201.482,311.663 201.533,311.548 201.533,311.421 L201.533,309.02 C202.579,308.934 203.601,308.539 204.451,307.835 L206.131,309.516 C206.311,309.695 206.603,309.695 206.782,309.516 C206.961,309.337 206.961,309.045 206.782,308.866 L205.118,307.201 L207.199,305.12 L208.864,306.783 C209.044,306.964 209.335,306.964 209.515,306.783 C209.694,306.603 209.694,306.313 209.515,306.133 L207.828,304.447 C208.516,303.595 208.898,302.574 208.973,301.535 L211.419,301.535 C211.546,301.535 211.661,301.484 211.744,301.401 C211.827,301.318 211.878,301.202 211.878,301.075 C211.88,300.822 211.673,300.614 211.419,300.614" id="Fill-20-Copy-7" fill="#3E71A3" opacity="0.600000024"></path>
                    <g id="Group-Copy-2" transform="translate(286.000000, 62.000000)">
                        <path d="M36.2319767,4 C29.647093,4 24.1453488,8.70174401 22.7877907,14.983151 C21.5546512,14.3227904 20.1505814,13.947384 18.6593023,13.947384 C13.7569767,13.947384 9.78255814,17.9887674 9.78255814,22.973692 C9.78255814,23.0357671 9.78604651,23.0966598 9.7872093,23.1581437 L4.34767442,23.1581437 C1.95639535,23.1581437 0,25.1475022 0,27.5790718 C0,30.0106414 1.95639535,32 4.34767442,32 L33.6959302,32 C34.0087209,32 34.3127907,31.9645285 34.6075581,31.8994975 C35.1406977,31.9633461 35.6819767,32 36.2319767,32 C43.8360465,32 50,25.7321904 50,18 C50,10.2678096 43.8360465,4 36.2319767,4" id="Fill-6" fill="#000000" opacity="0.0700000003"></path>
                        <path d="M36.2319767,0 C29.647093,0 24.1453488,4.70174401 22.7877907,10.983151 C21.5546512,10.3227904 20.1505814,9.94738398 18.6593023,9.94738398 C13.7569767,9.94738398 9.78255814,13.9887674 9.78255814,18.973692 C9.78255814,19.0357671 9.78604651,19.0966598 9.7872093,19.1581437 L4.34767442,19.1581437 C1.95639535,19.1581437 0,21.1475022 0,23.5790718 C0,26.0106414 1.95639535,28 4.34767442,28 L33.6959302,28 C34.0087209,28 34.3127907,27.9645285 34.6075581,27.8994975 C35.1406977,27.9633461 35.6819767,28 36.2319767,28 C43.8360465,28 50,21.7321904 50,14 C50,6.26840083 43.8360465,0 36.2319767,0" id="Fill-8" fill="#FFFFFF"></path>
                    </g>
                    <g id="Group-Copy-3" transform="translate(187.000000, 32.000000)">
                        <path d="M36.2319767,4 C29.647093,4 24.1453488,8.70174401 22.7877907,14.983151 C21.5546512,14.3227904 20.1505814,13.947384 18.6593023,13.947384 C13.7569767,13.947384 9.78255814,17.9887674 9.78255814,22.973692 C9.78255814,23.0357671 9.78604651,23.0966598 9.7872093,23.1581437 L4.34767442,23.1581437 C1.95639535,23.1581437 0,25.1475022 0,27.5790718 C0,30.0106414 1.95639535,32 4.34767442,32 L33.6959302,32 C34.0087209,32 34.3127907,31.9645285 34.6075581,31.8994975 C35.1406977,31.9633461 35.6819767,32 36.2319767,32 C43.8360465,32 50,25.7321904 50,18 C50,10.2678096 43.8360465,4 36.2319767,4" id="Fill-6" fill="#000000" opacity="0.0700000003"></path>
                        <path d="M36.2319767,0 C29.647093,0 24.1453488,4.70174401 22.7877907,10.983151 C21.5546512,10.3227904 20.1505814,9.94738398 18.6593023,9.94738398 C13.7569767,9.94738398 9.78255814,13.9887674 9.78255814,18.973692 C9.78255814,19.0357671 9.78604651,19.0966598 9.7872093,19.1581437 L4.34767442,19.1581437 C1.95639535,19.1581437 0,21.1475022 0,23.5790718 C0,26.0106414 1.95639535,28 4.34767442,28 L33.6959302,28 C34.0087209,28 34.3127907,27.9645285 34.6075581,27.8994975 C35.1406977,27.9633461 35.6819767,28 36.2319767,28 C43.8360465,28 50,21.7321904 50,14 C50,6.26840083 43.8360465,0 36.2319767,0" id="Fill-8" fill="#FFFFFF"></path>
                    </g>
                    <rect id="Rectangle" fill="#E4E4DE" x="386" y="0" width="8" height="369"></rect>
                </g>
            </g>
        </g>
    </g>
</svg>