<?xml version="1.0" encoding="UTF-8"?>
<svg width="388px" height="363px" viewBox="0 0 388 363" version="1.1" xmlns="http://www.w3.org/2000/svg" xmlns:xlink="http://www.w3.org/1999/xlink">
    <!-- Generator: Sketch 52.2 (67145) - http://www.bohemiancoding.com/sketch -->
    <title>Group 17</title>
    <desc>Created with Sketch.</desc>
    <defs>
        <path d="M0,80.6712931 C0,125.196731 36.0472813,161.292556 80.5138906,161.292556 C124.9805,161.292556 161.02731,125.196731 161.02731,80.6712931 C161.02731,36.1453836 124.9805,0.0500301724 80.5138906,0.0500301724 C36.0472813,0.0500301724 0,36.1453836 0,80.6712931" id="path-1"></path>
    </defs>
    <g id="Page-1" stroke="none" stroke-width="1" fill="none" fill-rule="evenodd">
        <g id="crt-science-v1.1" transform="translate(-82.000000, -2921.000000)">
            <g id="Group-17" transform="translate(82.000000, 2921.000000)">
                <g id="phytoplankton-copy-3" transform="translate(0.000000, 127.000000)">
                    <rect id="Rectangle" fill="#000000" opacity="0.05" x="10" y="121" width="378" height="115"></rect>
                    <polygon id="Rectangle" fill="#71A4C7" points="0 44 227 34 378 44 378 226 0 226"></polygon>
                    <g id="Group-3" transform="translate(0.000000, 72.000000)" fill="#6290B1">
                        <polygon id="Fill-1" points="26.9995379 0 0 26.8003303 0 80.4001651 0 134 243 134 188.999261 80.4001651 135.000185 80.4001651 94.4996303 40.2004954 67.5000924 40.2004954"></polygon>
                        <polygon id="Fill-2" points="350.999723 26.4453649 350.999723 53.3327811 324.001109 53.3327811 297 80.2226824 297 134 378 134 378 26.4453649 364.499861 13"></polygon>
                    </g>
                    <circle id="Oval" stroke="#FFFFFF" opacity="0.133463542" cx="130.5" cy="58.5" r="11.5"></circle>
                    <circle id="Oval-Copy" stroke="#FFFFFF" opacity="0.133463542" cx="266.5" cy="6.5" r="6.5"></circle>
                    <circle id="Oval-Copy-3" stroke="#FFFFFF" opacity="0.133463542" cx="28.5" cy="80.5" r="6.5"></circle>
                    <circle id="Oval-Copy-5" stroke="#FFFFFF" opacity="0.133463542" cx="231.5" cy="110.5" r="6.5"></circle>
                    <circle id="Oval-Copy-6" stroke="#FFFFFF" opacity="0.133463542" cx="344.5" cy="82.5" r="10.5"></circle>
                    <circle id="Oval-Copy-7" stroke="#FFFFFF" opacity="0.133463542" cx="59.5" cy="150.5" r="9.5"></circle>
                    <g id="Group-4" transform="translate(0.000000, 165.000000)" fill="#5C87A6">
                        <polygon id="Fill-1" points="40.4996673 0 26.9995009 13.6661053 0 13.6661053 0 41 135 41 121.499834 27.3330526 94.5003327 27.3330526 67.5 0"></polygon>
                        <polygon id="Fill-2" points="229.500728 0 215.999584 13.6661053 188.999792 13.6661053 162 41 270 41"></polygon>
                        <polygon id="Fill-3" points="324 41 378 41 350.998752 14"></polygon>
                    </g>
                    <rect id="Rectangle" fill="#5F442C" x="0" y="206" width="378" height="20"></rect>
                    <g id="Group" transform="translate(315.000000, 178.000000)" stroke="#5F442C" stroke-linecap="round" stroke-width="3">
                        <path d="M0.5,28.5 L0.5,0.631681444" id="Line"></path>
                        <path d="M5.5,35.5 L5.5,7.63168144" id="Line"></path>
                        <path d="M10.5,33.5 L10.5,5.63168144" id="Line"></path>
                    </g>
                    <g id="Group" transform="translate(55.000000, 178.000000)" stroke="#5F442C" stroke-linecap="round" stroke-width="3">
                        <path d="M0.5,39.5 L0.5,11.6316814" id="Line"></path>
                        <path d="M5.5,28.5 L5.5,0.631681444" id="Line"></path>
                        <path d="M10.5,33.5 L10.5,5.63168144" id="Line"></path>
                    </g>
                </g>
                <g id="Group-5-Copy-3" transform="translate(27.000000, 63.000000)" fill="#6B8192">
                    <g id="molecule" transform="translate(28.977273, 28.977273)">
                        <circle id="Oval" cx="4" cy="4" r="2.44444444"></circle>
                    </g>
                    <g id="molecule" transform="translate(0.000000, 28.977273)">
                        <circle id="Oval" cx="4" cy="4" r="2.44444444"></circle>
                    </g>
                    <g id="molecule" opacity="0.728143601" transform="translate(13.909091, 42.886364)">
                        <circle id="Oval" cx="4" cy="4" r="2.44444444"></circle>
                    </g>
                    <g id="molecule" opacity="0.716355097" transform="translate(28.977273, 13.909091)">
                        <circle id="Oval" cx="4" cy="4" r="2.44444444"></circle>
                    </g>
                    <g id="molecule" opacity="0.216750372" transform="translate(42.886364, 0.000000)">
                        <circle id="Oval" cx="4" cy="4" r="2.44444444"></circle>
                    </g>
                    <g id="molecule" opacity="0.728143601" transform="translate(42.886364, 42.886364)">
                        <circle id="Oval" cx="4" cy="4" r="2.44444444"></circle>
                    </g>
                    <g id="molecule" opacity="0.269740513" transform="translate(28.977273, 56.795455)">
                        <circle id="Oval" cx="4" cy="4" r="2.44444444"></circle>
                    </g>
                    <g id="molecule" opacity="0.269740513" transform="translate(0.000000, 56.795455)">
                        <circle id="Oval" cx="4" cy="4" r="2.44444444"></circle>
                    </g>
                    <g id="molecule" opacity="0.716355097" transform="translate(13.909091, 13.909091)">
                        <circle id="Oval" cx="4" cy="4" r="2.44444444"></circle>
                    </g>
                </g>
                <g id="Group-5-Copy-4" transform="translate(96.000000, 77.000000)" fill="#6B8192">
                    <g id="molecule" transform="translate(28.977273, 28.977273)">
                        <circle id="Oval" cx="4" cy="4" r="2.44444444"></circle>
                    </g>
                    <g id="molecule" transform="translate(0.000000, 28.977273)">
                        <circle id="Oval" cx="4" cy="4" r="2.44444444"></circle>
                    </g>
                    <g id="molecule" opacity="0.728143601" transform="translate(13.909091, 42.886364)">
                        <circle id="Oval" cx="4" cy="4" r="2.44444444"></circle>
                    </g>
                    <g id="molecule" opacity="0.716355097" transform="translate(28.977273, 13.909091)">
                        <circle id="Oval" cx="4" cy="4" r="2.44444444"></circle>
                    </g>
                    <g id="molecule" opacity="0.216750372" transform="translate(42.886364, 0.000000)">
                        <circle id="Oval" cx="4" cy="4" r="2.44444444"></circle>
                    </g>
                    <g id="molecule" opacity="0.728143601" transform="translate(42.886364, 42.886364)">
                        <circle id="Oval" cx="4" cy="4" r="2.44444444"></circle>
                    </g>
                    <g id="molecule" opacity="0.269740513" transform="translate(28.977273, 56.795455)">
                        <circle id="Oval" cx="4" cy="4" r="2.44444444"></circle>
                    </g>
                    <g id="molecule" opacity="0.269740513" transform="translate(0.000000, 56.795455)">
                        <circle id="Oval" cx="4" cy="4" r="2.44444444"></circle>
                    </g>
                    <g id="molecule" opacity="0.716355097" transform="translate(13.909091, 13.909091)">
                        <circle id="Oval" cx="4" cy="4" r="2.44444444"></circle>
                    </g>
                </g>
                <g id="ph-indicator" transform="translate(176.000000, 0.000000)">
                    <g id="Group-33">
                        <g id="Group-29" transform="translate(0.000000, 0.421953)">
                            <path d="M90.4123281,176.160013 C43.2872812,176.160013 4.94921875,137.770351 4.94921875,90.582931 C4.94921875,43.3955108 43.2872812,5.00584914 90.4123281,5.00584914 C137.536904,5.00584914 175.874966,43.3955108 175.874966,90.582931 C175.874966,137.770351 137.536904,176.160013 90.4123281,176.160013" id="Fill-1" fill="#F6F6F0"></path>
                            <path d="M90.4123281,0.0500773707 C78.2108542,0.0500773707 66.3694948,2.44491789 55.2167839,7.16852134 C44.4491693,11.7288187 34.7816953,18.2553963 26.4811484,26.5665407 C18.1810729,34.8776851 11.6636589,44.5585235 7.1094349,55.3404976 C2.3921224,66.5080817 0,78.3652325 0,90.5825062 C0,102.800252 2.3921224,114.657403 7.1094349,125.825459 C11.6636589,136.606961 18.1810729,146.287799 26.4811484,154.599416 C34.7816953,162.91056 44.4491693,169.436666 55.2167839,173.996963 C66.3694948,178.720567 78.2108542,181.115407 90.4123281,181.115407 C102.613331,181.115407 114.455161,178.720567 125.607872,173.996963 C136.375487,169.436666 146.042961,162.91056 154.343508,154.599416 C162.643583,146.287799 169.160997,136.606961 173.715221,125.824987 C178.432534,114.657403 180.824185,102.800252 180.824185,90.5825062 C180.824185,78.3652325 178.432534,66.5080817 173.715221,55.3404976 C169.160997,44.5585235 162.643583,34.8776851 154.343508,26.5665407 C146.042961,18.2553963 136.375487,11.7288187 125.607872,7.16852134 C114.455161,2.44491789 102.613331,0.0500773707 90.4123281,0.0500773707 M90.4123281,9.9617153 C134.878938,9.9617153 170.925747,46.0570687 170.925747,90.5825062 C170.925747,135.108416 134.878938,171.204241 90.4123281,171.204241 C45.9457187,171.204241 9.8984375,135.108416 9.8984375,90.5825062 C9.8984375,46.0570687 45.9457187,9.9617153 90.4123281,9.9617153" id="Fill-3" fill="#9AB0C1"></path>
                            <path d="M139.968526,89.3859356 C139.82052,85.4467675 139.208231,81.5590455 138.142028,77.7845994 L162.498783,69.8600088 C164.37713,76.1935455 165.408924,82.7446662 165.572955,89.3859356 L139.968526,89.3859356 Z" id="Fill-5" fill="#411F8F"></path>
                            <path d="M136.977453,74.1930938 C135.624667,70.5073804 133.837763,67.0019644 131.645024,63.7320679 L152.360097,48.6621304 C156.125274,54.1239149 159.136755,60.0317231 161.334209,66.2685032 L136.977453,74.1930938 Z" id="Fill-7" fill="#512DC2"></path>
                            <path d="M104.051668,43.6485407 C100.281777,42.5809157 96.3992331,41.9678101 92.4657826,41.8196075 L92.4657826,16.1810321 C99.098207,16.3452821 105.640603,17.3784524 111.965704,19.2593037 L104.051668,43.6485407 Z" id="Fill-9" fill="#01BCBB"></path>
                            <path d="M48.0250034,29.4116528 C53.4790424,25.6414545 59.3789826,22.6264287 65.6083992,20.4255731 L73.5224357,44.8148101 C69.8406883,46.1698726 66.3399409,47.9586873 63.0753419,50.1538791 L48.0250034,29.4116528 Z" id="Fill-11" fill="#B9DF00"></path>
                            <path d="M69.1945089,19.2593981 C75.5196104,17.3785468 82.0620062,16.3453765 88.6949021,16.1811265 L88.6949021,41.81923 C84.7614516,41.9679045 80.8789073,42.5810101 77.1085453,43.6486351 L69.1945089,19.2593981 Z" id="Fill-13" fill="#016B00"></path>
                            <path d="M118.08506,50.1537375 C114.81999,47.9590177 111.319242,46.170203 107.637966,44.8146685 L115.552003,20.4254315 C121.781419,22.6262871 127.680888,25.6413129 133.13587,29.4115112 L118.08506,50.1537375 Z" id="Fill-15" fill="#1178BB"></path>
                            <path d="M129.426548,60.6788586 C126.998132,57.5897315 124.219027,54.8073931 121.134014,52.3752659 L136.184353,31.6335116 C141.434296,35.6637724 146.116728,40.3524491 150.14115,45.6089211 L129.426548,60.6788586 Z" id="Fill-17" fill="#0341B8"></path>
                            <path d="M15.5876352,89.3859356 C15.7521378,82.7437222 16.7829893,76.1926015 18.661807,69.8600088 L43.0180909,77.7845994 C41.9523591,81.5590455 41.3400701,85.4467675 41.1915935,89.3859356 L15.5876352,89.3859356 Z" id="Fill-19" fill="#D3013A"></path>
                            <path d="M31.0193935,45.6090627 C35.0442867,40.3521188 39.726719,35.66297 44.9761904,31.6336532 L60.0260576,52.3754075 C56.9410445,54.8075347 54.1624117,57.5898731 51.7335237,60.6790002 L31.0193935,45.6090627 Z" id="Fill-21" fill="#FFEE01"></path>
                            <path d="M19.8265703,66.268692 C22.0244948,60.0304959 25.0355052,54.1231597 28.8006823,48.6618472 L49.5148125,63.7317847 C47.3230156,67.0012093 45.5365833,70.5066252 44.1828542,74.1932825 L19.8265703,66.268692 Z" id="Fill-23" fill="#F4A713"></path>
                            <path d="M76.248701,91.3964877 C76.248701,83.5639338 90.4124224,56.7076429 90.4124224,56.7076429 C90.4124224,56.7076429 104.575672,83.5639338 104.575672,91.3964877 C104.575672,99.2290416 98.2345448,105.578626 90.4124224,105.578626 C82.5898286,105.578626 76.248701,99.2290416 76.248701,91.3964877" id="Fill-25" fill="#515D67"></path>
                            <polygon id="Fill-27" fill="#9AB0C1" points="92.4657826 218.527828 118.046173 174.162865 66.8853919 174.162865"></polygon>
                        </g>
                        <g id="Group-32" transform="translate(9.898438, 10.333591)">
                            <mask id="mask-2" fill="white">
                                <use xlink:href="#path-1"></use>
                            </mask>
                            <g id="Clip-31"></g>
                            <path d="M166.126843,171.281174 C153.019898,176.036873 150.58064,162.124237 136.639398,162.124237 C122.69957,162.124237 122.69957,171.563892 108.759742,171.563892 C94.8189711,171.563892 94.8189711,162.124237 80.8782003,162.124237 C66.9369581,162.124237 66.9369581,171.563892 52.9957159,171.563892 C39.0540023,171.563892 39.0540023,162.124237 25.1122888,162.124237 C11.1705753,162.124237 8.7317888,176.036401 -4.37609922,171.281646 C-9.12499245,169.559381 1.94240339,161.786769 1.94240339,156.729474 C1.94240339,151.672179 -7.48467995,151.672179 -7.48467995,146.614883 C-7.48467995,141.557588 1.94240339,141.557588 1.94240339,136.500293 C1.94240339,131.442998 -7.48467995,131.442998 -7.48467995,126.38523 C-7.48467995,121.327463 1.94240339,121.327463 1.94240339,116.269224 C1.94240339,111.210985 -9.12640651,103.438373 -4.37657057,101.715164 C8.72943203,96.9599373 11.1696326,110.872573 25.109932,110.872573 C39.0497602,110.872573 39.0497602,101.432918 52.990531,101.432918 C66.9308305,101.432918 66.9308305,110.872573 80.8716013,110.872573 C94.8128435,110.872573 94.8128435,101.432918 108.753614,101.432918 C122.695328,101.432918 122.695328,110.872573 136.637513,110.872573 C150.579226,110.872573 153.018013,96.9604093 166.126372,101.715164 C170.874794,103.437429 159.807398,111.210041 159.807398,116.267336 C159.807398,121.324631 169.234482,121.324631 169.234482,126.381927 C169.234482,131.43875 159.807398,131.43875 159.807398,136.496045 C159.807398,141.553812 169.234482,141.553812 169.234482,146.611108 C169.234482,151.669347 158.629013,153.114558 159.978971,157.988724 C162.09158,165.618797 170.875737,169.558437 166.126843,171.281174" id="Fill-30" fill="#3E71A3" mask="url(#mask-2)"></path>
                        </g>
                    </g>
                </g>
                <text id="pH" font-family="Avenir-Medium, Avenir" font-size="26" font-weight="400" fill="#FAFAFA">
                    <tspan x="251" y="150">pH</tspan>
                </text>
                <g id="simple-fish" opacity="0.323869978" transform="translate(102.000000, 204.000000)" fill="#4D6C83">
                    <g id="Group-6">
                        <path d="M38.2895429,9.64236933 C37.3103048,9.64236933 36.516019,10.4354368 36.516019,11.4129828 C36.516019,12.3924307 37.3103048,13.1835963 38.2895429,13.1835963 C39.2704952,13.1835963 40.064781,12.3924307 40.064781,11.4129828 C40.064781,10.4354368 39.2704952,9.64236933 38.2895429,9.64236933" id="Fill-1"></path>
                        <g id="Group-5" transform="translate(0.000000, 0.100798)">
                            <path d="M45.5542286,15.4961583 C45.5466095,15.5094712 45.5370857,15.5246859 45.5275619,15.538189 C45.5066095,15.5741337 45.4837524,15.6104589 45.4589905,15.6483055 C45.4458476,15.6711276 45.4306095,15.6939497 45.4170857,15.7167718 C45.3961333,15.7491031 45.3753714,15.7814344 45.3542286,15.8158577 C45.3370857,15.8441951 45.3201333,15.871011 45.3008952,15.9012503 C45.2970857,15.9069558 45.2932762,15.9109497 45.2894667,15.916465 C45.230419,16.0115571 45.1656571,16.1104528 45.0972762,16.2169558 C45.0896571,16.2285571 45.0820381,16.2397779 45.0742286,16.2513791 C45.0399429,16.3044405 45.0020381,16.3614957 44.9637524,16.4187411 C44.9599429,16.4242564 44.9561333,16.429962 44.954419,16.4356675 C43.5199429,18.6018638 40.5734667,22.593827 36.6799429,25.4389804 C34.0037524,22.774692 32.4837524,19.1400847 32.4837524,15.3535202 C32.4837524,11.5690479 34.0037524,7.93634233 36.6780381,5.2718638 C41.3694667,8.70278405 44.695181,13.8037104 45.6418476,15.3535202 C45.615181,15.3991644 45.5847048,15.4467104 45.5542286,15.4961583 Z M47.5789905,14.891373 C47.2418476,14.2867779 39.1753714,0.0893484663 27.8247048,0.0893484663 C19.5942286,0.0893484663 12.990419,3.67640982 10.2818476,9.52628098 L6.36946667,7.27069816 C5.03994286,6.50444663 3.45346667,6.50444663 2.12375238,7.27069816 C0.794419048,8.03713988 -5.71428571e-05,9.40836687 -5.71428571e-05,10.9412503 L-5.71428571e-05,19.767692 C-5.71428571e-05,21.2986736 0.794419048,22.6718025 2.12375238,23.4382442 C3.45346667,24.2046859 5.03994286,24.2046859 6.36946667,23.4382442 L10.2818476,21.1826613 C12.990419,27.0327227 19.5942286,30.619784 27.8247048,30.619784 C39.1753714,30.619784 47.2418476,16.4223546 47.5789905,15.8175693 L47.8380381,15.3535202 L47.5789905,14.891373 Z" id="Fill-3"></path>
                        </g>
                    </g>
                </g>
                <g id="simple-fish" opacity="0.323869978" transform="translate(5.000000, 232.000000)" fill="#4D6C83">
                    <g id="Group-6">
                        <path d="M38.2895429,9.64236933 C37.3103048,9.64236933 36.516019,10.4354368 36.516019,11.4129828 C36.516019,12.3924307 37.3103048,13.1835963 38.2895429,13.1835963 C39.2704952,13.1835963 40.064781,12.3924307 40.064781,11.4129828 C40.064781,10.4354368 39.2704952,9.64236933 38.2895429,9.64236933" id="Fill-1"></path>
                        <g id="Group-5" transform="translate(0.000000, 0.100798)">
                            <path d="M45.5542286,15.4961583 C45.5466095,15.5094712 45.5370857,15.5246859 45.5275619,15.538189 C45.5066095,15.5741337 45.4837524,15.6104589 45.4589905,15.6483055 C45.4458476,15.6711276 45.4306095,15.6939497 45.4170857,15.7167718 C45.3961333,15.7491031 45.3753714,15.7814344 45.3542286,15.8158577 C45.3370857,15.8441951 45.3201333,15.871011 45.3008952,15.9012503 C45.2970857,15.9069558 45.2932762,15.9109497 45.2894667,15.916465 C45.230419,16.0115571 45.1656571,16.1104528 45.0972762,16.2169558 C45.0896571,16.2285571 45.0820381,16.2397779 45.0742286,16.2513791 C45.0399429,16.3044405 45.0020381,16.3614957 44.9637524,16.4187411 C44.9599429,16.4242564 44.9561333,16.429962 44.954419,16.4356675 C43.5199429,18.6018638 40.5734667,22.593827 36.6799429,25.4389804 C34.0037524,22.774692 32.4837524,19.1400847 32.4837524,15.3535202 C32.4837524,11.5690479 34.0037524,7.93634233 36.6780381,5.2718638 C41.3694667,8.70278405 44.695181,13.8037104 45.6418476,15.3535202 C45.615181,15.3991644 45.5847048,15.4467104 45.5542286,15.4961583 Z M47.5789905,14.891373 C47.2418476,14.2867779 39.1753714,0.0893484663 27.8247048,0.0893484663 C19.5942286,0.0893484663 12.990419,3.67640982 10.2818476,9.52628098 L6.36946667,7.27069816 C5.03994286,6.50444663 3.45346667,6.50444663 2.12375238,7.27069816 C0.794419048,8.03713988 -5.71428571e-05,9.40836687 -5.71428571e-05,10.9412503 L-5.71428571e-05,19.767692 C-5.71428571e-05,21.2986736 0.794419048,22.6718025 2.12375238,23.4382442 C3.45346667,24.2046859 5.03994286,24.2046859 6.36946667,23.4382442 L10.2818476,21.1826613 C12.990419,27.0327227 19.5942286,30.619784 27.8247048,30.619784 C39.1753714,30.619784 47.2418476,16.4223546 47.5789905,15.8175693 L47.8380381,15.3535202 L47.5789905,14.891373 Z" id="Fill-3"></path>
                        </g>
                    </g>
                </g>
                <g id="simple-fish" opacity="0.323869978" transform="translate(201.000000, 253.000000)" fill="#4D6C83">
                    <g id="Group-6">
                        <path d="M38.2895429,9.64236933 C37.3103048,9.64236933 36.516019,10.4354368 36.516019,11.4129828 C36.516019,12.3924307 37.3103048,13.1835963 38.2895429,13.1835963 C39.2704952,13.1835963 40.064781,12.3924307 40.064781,11.4129828 C40.064781,10.4354368 39.2704952,9.64236933 38.2895429,9.64236933" id="Fill-1"></path>
                        <g id="Group-5" transform="translate(0.000000, 0.100798)">
                            <path d="M45.5542286,15.4961583 C45.5466095,15.5094712 45.5370857,15.5246859 45.5275619,15.538189 C45.5066095,15.5741337 45.4837524,15.6104589 45.4589905,15.6483055 C45.4458476,15.6711276 45.4306095,15.6939497 45.4170857,15.7167718 C45.3961333,15.7491031 45.3753714,15.7814344 45.3542286,15.8158577 C45.3370857,15.8441951 45.3201333,15.871011 45.3008952,15.9012503 C45.2970857,15.9069558 45.2932762,15.9109497 45.2894667,15.916465 C45.230419,16.0115571 45.1656571,16.1104528 45.0972762,16.2169558 C45.0896571,16.2285571 45.0820381,16.2397779 45.0742286,16.2513791 C45.0399429,16.3044405 45.0020381,16.3614957 44.9637524,16.4187411 C44.9599429,16.4242564 44.9561333,16.429962 44.954419,16.4356675 C43.5199429,18.6018638 40.5734667,22.593827 36.6799429,25.4389804 C34.0037524,22.774692 32.4837524,19.1400847 32.4837524,15.3535202 C32.4837524,11.5690479 34.0037524,7.93634233 36.6780381,5.2718638 C41.3694667,8.70278405 44.695181,13.8037104 45.6418476,15.3535202 C45.615181,15.3991644 45.5847048,15.4467104 45.5542286,15.4961583 Z M47.5789905,14.891373 C47.2418476,14.2867779 39.1753714,0.0893484663 27.8247048,0.0893484663 C19.5942286,0.0893484663 12.990419,3.67640982 10.2818476,9.52628098 L6.36946667,7.27069816 C5.03994286,6.50444663 3.45346667,6.50444663 2.12375238,7.27069816 C0.794419048,8.03713988 -5.71428571e-05,9.40836687 -5.71428571e-05,10.9412503 L-5.71428571e-05,19.767692 C-5.71428571e-05,21.2986736 0.794419048,22.6718025 2.12375238,23.4382442 C3.45346667,24.2046859 5.03994286,24.2046859 6.36946667,23.4382442 L10.2818476,21.1826613 C12.990419,27.0327227 19.5942286,30.619784 27.8247048,30.619784 C39.1753714,30.619784 47.2418476,16.4223546 47.5789905,15.8175693 L47.8380381,15.3535202 L47.5789905,14.891373 Z" id="Fill-3"></path>
                        </g>
                    </g>
                </g>
                <g id="simple-fish" opacity="0.323869978" transform="translate(316.000000, 266.000000)" fill="#4D6C83">
                    <g id="Group-6">
                        <path d="M38.2895429,9.64236933 C37.3103048,9.64236933 36.516019,10.4354368 36.516019,11.4129828 C36.516019,12.3924307 37.3103048,13.1835963 38.2895429,13.1835963 C39.2704952,13.1835963 40.064781,12.3924307 40.064781,11.4129828 C40.064781,10.4354368 39.2704952,9.64236933 38.2895429,9.64236933" id="Fill-1"></path>
                        <g id="Group-5" transform="translate(0.000000, 0.100798)">
                            <path d="M45.5542286,15.4961583 C45.5466095,15.5094712 45.5370857,15.5246859 45.5275619,15.538189 C45.5066095,15.5741337 45.4837524,15.6104589 45.4589905,15.6483055 C45.4458476,15.6711276 45.4306095,15.6939497 45.4170857,15.7167718 C45.3961333,15.7491031 45.3753714,15.7814344 45.3542286,15.8158577 C45.3370857,15.8441951 45.3201333,15.871011 45.3008952,15.9012503 C45.2970857,15.9069558 45.2932762,15.9109497 45.2894667,15.916465 C45.230419,16.0115571 45.1656571,16.1104528 45.0972762,16.2169558 C45.0896571,16.2285571 45.0820381,16.2397779 45.0742286,16.2513791 C45.0399429,16.3044405 45.0020381,16.3614957 44.9637524,16.4187411 C44.9599429,16.4242564 44.9561333,16.429962 44.954419,16.4356675 C43.5199429,18.6018638 40.5734667,22.593827 36.6799429,25.4389804 C34.0037524,22.774692 32.4837524,19.1400847 32.4837524,15.3535202 C32.4837524,11.5690479 34.0037524,7.93634233 36.6780381,5.2718638 C41.3694667,8.70278405 44.695181,13.8037104 45.6418476,15.3535202 C45.615181,15.3991644 45.5847048,15.4467104 45.5542286,15.4961583 Z M47.5789905,14.891373 C47.2418476,14.2867779 39.1753714,0.0893484663 27.8247048,0.0893484663 C19.5942286,0.0893484663 12.990419,3.67640982 10.2818476,9.52628098 L6.36946667,7.27069816 C5.03994286,6.50444663 3.45346667,6.50444663 2.12375238,7.27069816 C0.794419048,8.03713988 -5.71428571e-05,9.40836687 -5.71428571e-05,10.9412503 L-5.71428571e-05,19.767692 C-5.71428571e-05,21.2986736 0.794419048,22.6718025 2.12375238,23.4382442 C3.45346667,24.2046859 5.03994286,24.2046859 6.36946667,23.4382442 L10.2818476,21.1826613 C12.990419,27.0327227 19.5942286,30.619784 27.8247048,30.619784 C39.1753714,30.619784 47.2418476,16.4223546 47.5789905,15.8175693 L47.8380381,15.3535202 L47.5789905,14.891373 Z" id="Fill-3"></path>
                        </g>
                    </g>
                </g>
            </g>
        </g>
    </g>
</svg>