<?xml version="1.0" encoding="UTF-8"?>
<svg width="342px" height="60px" viewBox="0 0 342 60" version="1.1" xmlns="http://www.w3.org/2000/svg" xmlns:xlink="http://www.w3.org/1999/xlink">
    <!-- Generator: Sketch 52.2 (67145) - http://www.bohemiancoding.com/sketch -->
    <title>logo</title>
    <desc>Created with Sketch.</desc>
    <g id="Page-1" stroke="none" stroke-width="1" fill="none" fill-rule="evenodd">
        <g id="crt-science-v1.1" transform="translate(-70.000000, -50.000000)">
            <g id="logo" transform="translate(70.000000, 50.000000)">
                <path d="M94.564,27.912 L98.484,27.912 C99.4546715,27.912 100.24333,27.7906679 100.85,27.548 C101.45667,27.3053321 101.927998,27.0066684 102.264,26.652 C102.600002,26.2973316 102.828666,25.9146687 102.95,25.504 C103.071334,25.0933313 103.132,24.7200017 103.132,24.384 C103.132,24.0479983 103.071334,23.6746687 102.95,23.264 C102.828666,22.8533313 102.600002,22.4706684 102.264,22.116 C101.927998,21.7613316 101.45667,21.4626679 100.85,21.22 C100.24333,20.9773321 99.4546715,20.856 98.484,20.856 L94.564,20.856 L94.564,27.912 Z M92.716,19.176 L97.924,19.176 C98.1853346,19.176 98.5399978,19.1853332 98.988,19.204 C99.4360022,19.2226668 99.9213307,19.2786662 100.444,19.372 C100.966669,19.4653338 101.498664,19.6146656 102.04,19.82 C102.581336,20.0253344 103.066665,20.323998 103.496,20.716 C103.925335,21.108002 104.279999,21.6026637 104.56,22.2 C104.840001,22.7973363 104.98,23.525329 104.98,24.384 C104.98,25.3360048 104.816668,26.1199969 104.49,26.736 C104.163332,27.3520031 103.752669,27.8513314 103.258,28.234 C102.763331,28.6166686 102.217336,28.9013324 101.62,29.088 C101.022664,29.2746676 100.453336,29.405333 99.912,29.48 L105.68,39 L103.58,39 L98.008,29.592 L94.564,29.592 L94.564,39 L92.716,39 L92.716,19.176 Z M120.268,36.564 C119.614663,37.5533383 118.807338,38.2626645 117.846,38.692 C116.884662,39.1213355 115.825339,39.336 114.668,39.336 C113.678662,39.336 112.782671,39.1680017 111.98,38.832 C111.177329,38.4959983 110.48667,38.0246697 109.908,37.418 C109.32933,36.8113303 108.886002,36.0926708 108.578,35.262 C108.269998,34.4313292 108.116,33.512005 108.116,32.504 C108.116,31.5333285 108.274665,30.6373374 108.592,29.816 C108.909335,28.9946626 109.35733,28.2806697 109.936,27.674 C110.51467,27.0673303 111.195996,26.5913351 111.98,26.246 C112.764004,25.9006649 113.631995,25.728 114.584,25.728 C115.573338,25.728 116.445996,25.9006649 117.202,26.246 C117.958004,26.5913351 118.592664,27.0486638 119.106,27.618 C119.619336,28.1873362 120.006665,28.8359964 120.268,29.564 C120.529335,30.2920036 120.66,31.0293296 120.66,31.776 L120.66,32.952 L109.796,32.952 C109.796,33.3066684 109.865999,33.7593306 110.006,34.31 C110.146001,34.8606694 110.402665,35.3973307 110.776,35.92 C111.149335,36.4426693 111.648664,36.8906648 112.274,37.264 C112.899336,37.6373352 113.706662,37.824 114.696,37.824 C115.554671,37.824 116.385329,37.6186687 117.188,37.208 C117.990671,36.7973313 118.606665,36.2373369 119.036,35.528 L120.268,36.564 Z M118.98,31.44 C118.98,30.8613304 118.863334,30.3200025 118.63,29.816 C118.396665,29.3119975 118.079335,28.8686686 117.678,28.486 C117.276665,28.1033314 116.800669,27.8000011 116.25,27.576 C115.699331,27.3519989 115.116003,27.24 114.5,27.24 C113.585329,27.24 112.82467,27.4266648 112.218,27.8 C111.61133,28.1733352 111.130668,28.6026642 110.776,29.088 C110.421332,29.5733358 110.169334,30.0446644 110.02,30.502 C109.870666,30.9593356 109.796,31.2719992 109.796,31.44 L118.98,31.44 Z M135.724,36.732 L135.668,36.732 C135.406665,37.1800022 135.080002,37.5673317 134.688,37.894 C134.295998,38.2206683 133.871336,38.4913323 133.414,38.706 C132.956664,38.9206677 132.476003,39.0793328 131.972,39.182 C131.467997,39.2846672 130.973336,39.336 130.488,39.336 C129.498662,39.336 128.584004,39.1680017 127.744,38.832 C126.903996,38.4959983 126.185336,38.0246697 125.588,37.418 C124.990664,36.8113303 124.524002,36.0926708 124.188,35.262 C123.851998,34.4313292 123.684,33.5213383 123.684,32.532 C123.684,31.5426617 123.851998,30.6326708 124.188,29.802 C124.524002,28.9713292 124.990664,28.2526697 125.588,27.646 C126.185336,27.0393303 126.903996,26.5680017 127.744,26.232 C128.584004,25.8959983 129.498662,25.728 130.488,25.728 C130.973336,25.728 131.467997,25.7793328 131.972,25.882 C132.476003,25.9846672 132.956664,26.1433323 133.414,26.358 C133.871336,26.5726677 134.295998,26.8433317 134.688,27.17 C135.080002,27.4966683 135.406665,27.8839978 135.668,28.332 L135.724,28.332 L135.724,26.064 L137.404,26.064 L137.404,45.384 L135.724,45.384 L135.724,36.732 Z M135.892,32.532 C135.892,31.8039964 135.752001,31.1180032 135.472,30.474 C135.191999,29.8299968 134.809336,29.2700024 134.324,28.794 C133.838664,28.3179976 133.269337,27.9400014 132.616,27.66 C131.962663,27.3799986 131.253337,27.24 130.488,27.24 C129.703996,27.24 128.99467,27.3799986 128.36,27.66 C127.72533,27.9400014 127.184002,28.3179976 126.736,28.794 C126.287998,29.2700024 125.947334,29.8299968 125.714,30.474 C125.480666,31.1180032 125.364,31.8039964 125.364,32.532 C125.364,33.2600036 125.480666,33.9459968 125.714,34.59 C125.947334,35.2340032 126.287998,35.7939976 126.736,36.27 C127.184002,36.7460024 127.72533,37.1239986 128.36,37.404 C128.99467,37.6840014 129.703996,37.824 130.488,37.824 C131.253337,37.824 131.962663,37.6840014 132.616,37.404 C133.269337,37.1239986 133.838664,36.7460024 134.324,36.27 C134.809336,35.7939976 135.191999,35.2340032 135.472,34.59 C135.752001,33.9459968 135.892,33.2600036 135.892,32.532 Z M152.468,35.36 C152.468,35.6026679 152.477333,35.8966649 152.496,36.242 C152.514667,36.5873351 152.528667,36.9373316 152.538,37.292 C152.547333,37.6466684 152.561333,37.9779985 152.58,38.286 C152.598667,38.5940015 152.608,38.8319992 152.608,39 L150.928,39 C150.909333,38.5146642 150.895333,38.0480022 150.886,37.6 C150.876667,37.1519978 150.853334,36.8626673 150.816,36.732 L150.732,36.732 C150.395998,37.4413369 149.836004,38.0526641 149.052,38.566 C148.267996,39.0793359 147.353339,39.336 146.308,39.336 C145.299995,39.336 144.474003,39.1773349 143.83,38.86 C143.185997,38.5426651 142.682002,38.1273359 142.318,37.614 C141.953998,37.1006641 141.706667,36.5080034 141.576,35.836 C141.445333,35.1639966 141.38,34.4733369 141.38,33.764 L141.38,26.064 L143.06,26.064 L143.06,33.68 C143.06,34.2026693 143.106666,34.7113309 143.2,35.206 C143.293334,35.7006691 143.456665,36.143998 143.69,36.536 C143.923335,36.928002 144.249998,37.2406655 144.67,37.474 C145.090002,37.7073345 145.635997,37.824 146.308,37.824 C146.924003,37.824 147.507331,37.7166677 148.058,37.502 C148.608669,37.2873323 149.084665,36.9606689 149.486,36.522 C149.887335,36.0833311 150.204666,35.53267 150.438,34.87 C150.671335,34.20733 150.788,33.4280045 150.788,32.532 L150.788,26.064 L152.468,26.064 L152.468,35.36 Z M168.512,36.564 C167.858663,37.5533383 167.051338,38.2626645 166.09,38.692 C165.128662,39.1213355 164.069339,39.336 162.912,39.336 C161.922662,39.336 161.026671,39.1680017 160.224,38.832 C159.421329,38.4959983 158.73067,38.0246697 158.152,37.418 C157.57333,36.8113303 157.130002,36.0926708 156.822,35.262 C156.513998,34.4313292 156.36,33.512005 156.36,32.504 C156.36,31.5333285 156.518665,30.6373374 156.836,29.816 C157.153335,28.9946626 157.60133,28.2806697 158.18,27.674 C158.75867,27.0673303 159.439996,26.5913351 160.224,26.246 C161.008004,25.9006649 161.875995,25.728 162.828,25.728 C163.817338,25.728 164.689996,25.9006649 165.446,26.246 C166.202004,26.5913351 166.836664,27.0486638 167.35,27.618 C167.863336,28.1873362 168.250665,28.8359964 168.512,29.564 C168.773335,30.2920036 168.904,31.0293296 168.904,31.776 L168.904,32.952 L158.04,32.952 C158.04,33.3066684 158.109999,33.7593306 158.25,34.31 C158.390001,34.8606694 158.646665,35.3973307 159.02,35.92 C159.393335,36.4426693 159.892664,36.8906648 160.518,37.264 C161.143336,37.6373352 161.950662,37.824 162.94,37.824 C163.798671,37.824 164.629329,37.6186687 165.432,37.208 C166.234671,36.7973313 166.850665,36.2373369 167.28,35.528 L168.512,36.564 Z M167.224,31.44 C167.224,30.8613304 167.107335,30.3200025 166.874,29.816 C166.640666,29.3119975 166.323335,28.8686686 165.922,28.486 C165.520665,28.1033314 165.044669,27.8000011 164.494,27.576 C163.943331,27.3519989 163.360003,27.24 162.744,27.24 C161.829329,27.24 161.06867,27.4266648 160.462,27.8 C159.85533,28.1733352 159.374668,28.6026642 159.02,29.088 C158.665332,29.5733358 158.413334,30.0446644 158.264,30.502 C158.114666,30.9593356 158.04,31.2719992 158.04,31.44 L167.224,31.44 Z M172.684,35.696 C173.038668,36.3866701 173.56133,36.9139982 174.252,37.278 C174.94267,37.6420018 175.670663,37.824 176.436,37.824 C176.790668,37.824 177.145332,37.7680006 177.5,37.656 C177.854668,37.5439994 178.171999,37.3853344 178.452,37.18 C178.732001,36.9746656 178.960666,36.7273348 179.138,36.438 C179.315334,36.1486652 179.404,35.8173352 179.404,35.444 C179.404,34.8466637 179.212669,34.3986682 178.83,34.1 C178.447331,33.8013318 177.976003,33.5680008 177.416,33.4 C176.855997,33.2319992 176.240003,33.0873339 175.568,32.966 C174.895997,32.8446661 174.280003,32.6580013 173.72,32.406 C173.159997,32.1539987 172.688669,31.8040022 172.306,31.356 C171.923331,30.9079978 171.732,30.2733374 171.732,29.452 C171.732,28.8173302 171.862665,28.266669 172.124,27.8 C172.385335,27.333331 172.725998,26.9460015 173.146,26.638 C173.566002,26.3299985 174.037331,26.1013341 174.56,25.952 C175.082669,25.8026659 175.614664,25.728 176.156,25.728 C177.220005,25.728 178.139329,25.923998 178.914,26.316 C179.688671,26.708002 180.290665,27.3239958 180.72,28.164 L179.208,29.06 C178.890665,28.4626637 178.494002,28.0100015 178.018,27.702 C177.541998,27.3939985 176.921337,27.24 176.156,27.24 C175.857332,27.24 175.544668,27.2866662 175.218,27.38 C174.891332,27.4733338 174.597335,27.6039992 174.336,27.772 C174.074665,27.9400008 173.855334,28.1546654 173.678,28.416 C173.500666,28.6773346 173.412,28.9759983 173.412,29.312 C173.412,29.8906696 173.603331,30.3199986 173.986,30.6 C174.368669,30.8800014 174.839997,31.0993325 175.4,31.258 C175.960003,31.4166675 176.575997,31.5519994 177.248,31.664 C177.920003,31.7760006 178.535997,31.9579987 179.096,32.21 C179.656003,32.4620013 180.127331,32.8259976 180.51,33.302 C180.892669,33.7780024 181.084,34.4546623 181.084,35.332 C181.084,36.0040034 180.958001,36.5873309 180.706,37.082 C180.453999,37.5766691 180.108669,37.9919983 179.67,38.328 C179.231331,38.6640017 178.732003,38.9159992 178.172,39.084 C177.611997,39.2520008 177.024003,39.336 176.408,39.336 C175.287994,39.336 174.266005,39.1213355 173.342,38.692 C172.417995,38.2626645 171.704003,37.6000045 171.2,36.704 L172.684,35.696 Z M190.912,27.576 L187.216,27.576 L187.216,36.004 C187.216,36.5826696 187.374665,37.0306651 187.692,37.348 C188.009335,37.6653349 188.447997,37.824 189.008,37.824 C189.325335,37.824 189.647332,37.7820004 189.974,37.698 C190.300668,37.6139996 190.613332,37.5066673 190.912,37.376 L191.052,38.888 C190.734665,39.0000006 190.370669,39.1026662 189.96,39.196 C189.549331,39.2893338 189.185335,39.336 188.868,39.336 C188.270664,39.336 187.757335,39.2473342 187.328,39.07 C186.898665,38.8926658 186.553335,38.6546682 186.292,38.356 C186.030665,38.0573318 185.839334,37.7073353 185.718,37.306 C185.596666,36.9046647 185.536,36.470669 185.536,36.004 L185.536,27.576 L182.736,27.576 L182.736,26.064 L185.536,26.064 L185.536,22.34 L187.216,22.34 L187.216,26.064 L190.912,26.064 L190.912,27.576 Z M202.14,27.576 L199.452,27.576 L199.452,26.064 L202.14,26.064 L202.14,21.836 C202.14,20.9959958 202.265999,20.3006694 202.518,19.75 C202.770001,19.1993306 203.082665,18.7560017 203.456,18.42 C203.829335,18.0839983 204.244664,17.8460007 204.702,17.706 C205.159336,17.5659993 205.593331,17.496 206.004,17.496 C206.788004,17.496 207.431997,17.6079989 207.936,17.832 L207.6,19.288 C207.226665,19.1013324 206.72267,19.008 206.088,19.008 C204.575992,19.008 203.82,20.1559885 203.82,22.452 L203.82,26.064 L206.844,26.064 L206.844,27.576 L203.82,27.576 L203.82,39 L202.14,39 L202.14,27.576 Z M208.748,32.532 C208.748,31.5426617 208.915998,30.6326708 209.252,29.802 C209.588002,28.9713292 210.054664,28.2526697 210.652,27.646 C211.249336,27.0393303 211.967996,26.5680017 212.808,26.232 C213.648004,25.8959983 214.562662,25.728 215.552,25.728 C216.541338,25.728 217.451329,25.8959983 218.282,26.232 C219.112671,26.5680017 219.83133,27.0393303 220.438,27.646 C221.04467,28.2526697 221.515998,28.9713292 221.852,29.802 C222.188002,30.6326708 222.356,31.5426617 222.356,32.532 C222.356,33.5213383 222.188002,34.4313292 221.852,35.262 C221.515998,36.0926708 221.04467,36.8113303 220.438,37.418 C219.83133,38.0246697 219.112671,38.4959983 218.282,38.832 C217.451329,39.1680017 216.541338,39.336 215.552,39.336 C214.562662,39.336 213.648004,39.1680017 212.808,38.832 C211.967996,38.4959983 211.249336,38.0246697 210.652,37.418 C210.054664,36.8113303 209.588002,36.0926708 209.252,35.262 C208.915998,34.4313292 208.748,33.5213383 208.748,32.532 Z M210.428,32.532 C210.428,33.2600036 210.544666,33.9459968 210.778,34.59 C211.011334,35.2340032 211.351998,35.7939976 211.8,36.27 C212.248002,36.7460024 212.78933,37.1239986 213.424,37.404 C214.05867,37.6840014 214.767996,37.824 215.552,37.824 C216.336004,37.824 217.04533,37.6840014 217.68,37.404 C218.31467,37.1239986 218.855998,36.7460024 219.304,36.27 C219.752002,35.7939976 220.092666,35.2340032 220.326,34.59 C220.559334,33.9459968 220.676,33.2600036 220.676,32.532 C220.676,31.8039964 220.559334,31.1180032 220.326,30.474 C220.092666,29.8299968 219.752002,29.2700024 219.304,28.794 C218.855998,28.3179976 218.31467,27.9400014 217.68,27.66 C217.04533,27.3799986 216.336004,27.24 215.552,27.24 C214.767996,27.24 214.05867,27.3799986 213.424,27.66 C212.78933,27.9400014 212.248002,28.3179976 211.8,28.794 C211.351998,29.2700024 211.011334,29.8299968 210.778,30.474 C210.544666,31.1180032 210.428,31.8039964 210.428,32.532 Z M226.108,29.704 C226.108,29.4613321 226.098667,29.1673351 226.08,28.822 C226.061333,28.4766649 226.047333,28.1266684 226.038,27.772 C226.028667,27.4173316 226.014667,27.0860015 225.996,26.778 C225.977333,26.4699985 225.968,26.2320008 225.968,26.064 L227.648,26.064 C227.666667,26.5493358 227.680667,27.0159978 227.69,27.464 C227.699333,27.9120022 227.722666,28.2013327 227.76,28.332 C228.189335,27.5666628 228.739997,26.9413358 229.412,26.456 C230.084003,25.9706642 230.905328,25.728 231.876,25.728 C232.044001,25.728 232.207333,25.7419999 232.366,25.77 C232.524667,25.7980001 232.687999,25.8306665 232.856,25.868 L232.66,27.52 C232.435999,27.445333 232.221334,27.408 232.016,27.408 C231.287996,27.408 230.658003,27.5246655 230.126,27.758 C229.593997,27.9913345 229.155335,28.3133313 228.81,28.724 C228.464665,29.1346687 228.208001,29.6153306 228.04,30.166 C227.871999,30.7166694 227.788,31.3093302 227.788,31.944 L227.788,39 L226.108,39 L226.108,29.704 Z M243.72,35.332 C244.205336,36.1720042 244.835329,36.7973313 245.61,37.208 C246.384671,37.6186687 247.266662,37.824 248.256,37.824 C248.872003,37.824 249.450664,37.7306676 249.992,37.544 C250.533336,37.3573324 251.004665,37.0960017 251.406,36.76 C251.807335,36.4239983 252.124666,36.0180024 252.358,35.542 C252.591335,35.0659976 252.708,34.5293363 252.708,33.932 C252.708,33.2413299 252.563335,32.6720022 252.274,32.224 C251.984665,31.7759978 251.597336,31.4073348 251.112,31.118 C250.626664,30.8286652 250.08067,30.5813344 249.474,30.376 C248.86733,30.1706656 248.242003,29.9653344 247.598,29.76 C246.953997,29.5546656 246.32867,29.3213346 245.722,29.06 C245.11533,28.7986654 244.569336,28.4580021 244.084,28.038 C243.598664,27.6179979 243.211335,27.0906698 242.922,26.456 C242.632665,25.8213302 242.488,25.037338 242.488,24.104 C242.488,23.2266623 242.660665,22.4473367 243.006,21.766 C243.351335,21.0846633 243.817997,20.5153356 244.406,20.058 C244.994003,19.6006644 245.670663,19.2553345 246.436,19.022 C247.201337,18.7886655 248.003996,18.672 248.844,18.672 C249.926672,18.672 250.929995,18.8633314 251.854,19.246 C252.778005,19.6286686 253.575997,20.2679955 254.248,21.164 L252.652,22.312 C252.185331,21.6586634 251.639336,21.1686683 251.014,20.842 C250.388664,20.5153317 249.646671,20.352 248.788,20.352 C248.190664,20.352 247.621336,20.4313325 247.08,20.59 C246.538664,20.7486675 246.067335,20.9819985 245.666,21.29 C245.264665,21.5980015 244.942668,21.985331 244.7,22.452 C244.457332,22.918669 244.336,23.4693302 244.336,24.104 C244.336,25.0933383 244.587997,25.8539973 245.092,26.386 C245.596003,26.9180027 246.225996,27.3379985 246.982,27.646 C247.738004,27.9540015 248.559329,28.2246655 249.446,28.458 C250.332671,28.6913345 251.153996,29.003998 251.91,29.396 C252.666004,29.788002 253.295997,30.3339965 253.8,31.034 C254.304003,31.7340035 254.556,32.6999938 254.556,33.932 C254.556,34.8280045 254.388002,35.6213299 254.052,36.312 C253.715998,37.0026701 253.263336,37.5859976 252.694,38.062 C252.124664,38.5380024 251.46667,38.8973321 250.72,39.14 C249.97333,39.3826679 249.198671,39.504 248.396,39.504 C247.089327,39.504 245.885339,39.2753356 244.784,38.818 C243.682661,38.3606644 242.740004,37.5906721 241.956,36.508 L243.72,35.332 Z M264.608,27.576 L260.912,27.576 L260.912,36.004 C260.912,36.5826696 261.070665,37.0306651 261.388,37.348 C261.705335,37.6653349 262.143997,37.824 262.704,37.824 C263.021335,37.824 263.343332,37.7820004 263.67,37.698 C263.996668,37.6139996 264.309332,37.5066673 264.608,37.376 L264.748,38.888 C264.430665,39.0000006 264.066669,39.1026662 263.656,39.196 C263.245331,39.2893338 262.881335,39.336 262.564,39.336 C261.966664,39.336 261.453335,39.2473342 261.024,39.07 C260.594665,38.8926658 260.249335,38.6546682 259.988,38.356 C259.726665,38.0573318 259.535334,37.7073353 259.414,37.306 C259.292666,36.9046647 259.232,36.470669 259.232,36.004 L259.232,27.576 L256.432,27.576 L256.432,26.064 L259.232,26.064 L259.232,22.34 L260.912,22.34 L260.912,26.064 L264.608,26.064 L264.608,27.576 Z M277.656,33.568 C277.656,34.2026698 277.660667,34.7719975 277.67,35.276 C277.679333,35.7800025 277.693333,36.2466645 277.712,36.676 C277.730667,37.1053355 277.754,37.5066648 277.782,37.88 C277.81,38.2533352 277.852,38.6266648 277.908,39 L276.34,39 C276.227999,38.3653302 276.172,37.6653372 276.172,36.9 L276.116,36.9 C275.630664,37.7400042 275.02867,38.355998 274.31,38.748 C273.59133,39.140002 272.681339,39.336 271.58,39.336 C271.019997,39.336 270.469336,39.2660007 269.928,39.126 C269.386664,38.9859993 268.901335,38.7620015 268.472,38.454 C268.042665,38.1459985 267.692668,37.7493358 267.422,37.264 C267.151332,36.7786642 267.016,36.1906701 267.016,35.5 C267.016,34.5106617 267.267997,33.7266696 267.772,33.148 C268.276003,32.5693304 268.896663,32.1353348 269.634,31.846 C270.371337,31.5566652 271.155329,31.3700004 271.986,31.286 C272.816671,31.2019996 273.54933,31.16 274.184,31.16 L276.144,31.16 L276.144,30.376 C276.144,29.2559944 275.79867,28.4533358 275.108,27.968 C274.41733,27.4826642 273.549339,27.24 272.504,27.24 C271.010659,27.24 269.694672,27.7253285 268.556,28.696 L267.576,27.548 C268.192003,26.9506637 268.957329,26.4980015 269.872,26.19 C270.786671,25.8819985 271.663996,25.728 272.504,25.728 C274.072008,25.728 275.322662,26.096663 276.256,26.834 C277.189338,27.571337 277.656,28.7613251 277.656,30.404 L277.656,33.568 Z M274.296,32.504 C273.586663,32.504 272.90067,32.5506662 272.238,32.644 C271.57533,32.7373338 270.978003,32.8959989 270.446,33.12 C269.913997,33.3440011 269.489335,33.6426648 269.172,34.016 C268.854665,34.3893352 268.696,34.8559972 268.696,35.416 C268.696,35.808002 268.784666,36.1579985 268.962,36.466 C269.139334,36.7740015 269.367999,37.025999 269.648,37.222 C269.928001,37.418001 270.240665,37.5673328 270.586,37.67 C270.931335,37.7726672 271.281332,37.824 271.636,37.824 C272.532004,37.824 273.26933,37.6933346 273.848,37.432 C274.42667,37.1706654 274.888665,36.8300021 275.234,36.41 C275.579335,35.9899979 275.817333,35.5140027 275.948,34.982 C276.078667,34.4499973 276.144,33.913336 276.144,33.372 L276.144,32.504 L274.296,32.504 Z M282.136,29.704 C282.136,29.4613321 282.126667,29.1673351 282.108,28.822 C282.089333,28.4766649 282.075333,28.1266684 282.066,27.772 C282.056667,27.4173316 282.042667,27.0860015 282.024,26.778 C282.005333,26.4699985 281.996,26.2320008 281.996,26.064 L283.676,26.064 C283.694667,26.5493358 283.708667,27.0159978 283.718,27.464 C283.727333,27.9120022 283.750666,28.2013327 283.788,28.332 C284.217335,27.5666628 284.767997,26.9413358 285.44,26.456 C286.112003,25.9706642 286.933328,25.728 287.904,25.728 C288.072001,25.728 288.235333,25.7419999 288.394,25.77 C288.552667,25.7980001 288.715999,25.8306665 288.884,25.868 L288.688,27.52 C288.463999,27.445333 288.249334,27.408 288.044,27.408 C287.315996,27.408 286.686003,27.5246655 286.154,27.758 C285.621997,27.9913345 285.183335,28.3133313 284.838,28.724 C284.492665,29.1346687 284.236001,29.6153306 284.068,30.166 C283.899999,30.7166694 283.816,31.3093302 283.816,31.944 L283.816,39 L282.136,39 L282.136,29.704 Z M297.788,27.576 L294.092,27.576 L294.092,36.004 C294.092,36.5826696 294.250665,37.0306651 294.568,37.348 C294.885335,37.6653349 295.323997,37.824 295.884,37.824 C296.201335,37.824 296.523332,37.7820004 296.85,37.698 C297.176668,37.6139996 297.489332,37.5066673 297.788,37.376 L297.928,38.888 C297.610665,39.0000006 297.246669,39.1026662 296.836,39.196 C296.425331,39.2893338 296.061335,39.336 295.744,39.336 C295.146664,39.336 294.633335,39.2473342 294.204,39.07 C293.774665,38.8926658 293.429335,38.6546682 293.168,38.356 C292.906665,38.0573318 292.715334,37.7073353 292.594,37.306 C292.472666,36.9046647 292.412,36.470669 292.412,36.004 L292.412,27.576 L289.612,27.576 L289.612,26.064 L292.412,26.064 L292.412,22.34 L294.092,22.34 L294.092,26.064 L297.788,26.064 L297.788,27.576 Z M311.732,35.36 C311.732,35.6026679 311.741333,35.8966649 311.76,36.242 C311.778667,36.5873351 311.792667,36.9373316 311.802,37.292 C311.811333,37.6466684 311.825333,37.9779985 311.844,38.286 C311.862667,38.5940015 311.872,38.8319992 311.872,39 L310.192,39 C310.173333,38.5146642 310.159333,38.0480022 310.15,37.6 C310.140667,37.1519978 310.117334,36.8626673 310.08,36.732 L309.996,36.732 C309.659998,37.4413369 309.100004,38.0526641 308.316,38.566 C307.531996,39.0793359 306.617339,39.336 305.572,39.336 C304.563995,39.336 303.738003,39.1773349 303.094,38.86 C302.449997,38.5426651 301.946002,38.1273359 301.582,37.614 C301.217998,37.1006641 300.970667,36.5080034 300.84,35.836 C300.709333,35.1639966 300.644,34.4733369 300.644,33.764 L300.644,26.064 L302.324,26.064 L302.324,33.68 C302.324,34.2026693 302.370666,34.7113309 302.464,35.206 C302.557334,35.7006691 302.720666,36.143998 302.954,36.536 C303.187335,36.928002 303.513998,37.2406655 303.934,37.474 C304.354002,37.7073345 304.899997,37.824 305.572,37.824 C306.188003,37.824 306.771331,37.7166677 307.322,37.502 C307.872669,37.2873323 308.348665,36.9606689 308.75,36.522 C309.151335,36.0833311 309.468666,35.53267 309.702,34.87 C309.935335,34.20733 310.052,33.4280045 310.052,32.532 L310.052,26.064 L311.732,26.064 L311.732,35.36 Z M315.988,26.064 L317.668,26.064 L317.668,28.332 L317.724,28.332 C317.985335,27.8839978 318.311998,27.4966683 318.704,27.17 C319.096002,26.8433317 319.520664,26.5726677 319.978,26.358 C320.435336,26.1433323 320.915997,25.9846672 321.42,25.882 C321.924003,25.7793328 322.418664,25.728 322.904,25.728 C323.893338,25.728 324.803329,25.8959983 325.634,26.232 C326.464671,26.5680017 327.18333,27.0393303 327.79,27.646 C328.39667,28.2526697 328.867998,28.9713292 329.204,29.802 C329.540002,30.6326708 329.708,31.5426617 329.708,32.532 C329.708,33.5213383 329.540002,34.4313292 329.204,35.262 C328.867998,36.0926708 328.39667,36.8113303 327.79,37.418 C327.18333,38.0246697 326.464671,38.4959983 325.634,38.832 C324.803329,39.1680017 323.893338,39.336 322.904,39.336 C322.418664,39.336 321.924003,39.2846672 321.42,39.182 C320.915997,39.0793328 320.435336,38.9206677 319.978,38.706 C319.520664,38.4913323 319.096002,38.2206683 318.704,37.894 C318.311998,37.5673317 317.985335,37.1800022 317.724,36.732 L317.668,36.732 L317.668,45.384 L315.988,45.384 L315.988,26.064 Z M317.5,32.532 C317.5,33.2600036 317.639999,33.9459968 317.92,34.59 C318.200001,35.2340032 318.582664,35.7939976 319.068,36.27 C319.553336,36.7460024 320.122663,37.1239986 320.776,37.404 C321.429337,37.6840014 322.138663,37.824 322.904,37.824 C323.688004,37.824 324.39733,37.6840014 325.032,37.404 C325.66667,37.1239986 326.207998,36.7460024 326.656,36.27 C327.104002,35.7939976 327.444666,35.2340032 327.678,34.59 C327.911335,33.9459968 328.028,33.2600036 328.028,32.532 C328.028,31.8039964 327.911335,31.1180032 327.678,30.474 C327.444666,29.8299968 327.104002,29.2700024 326.656,28.794 C326.207998,28.3179976 325.66667,27.9400014 325.032,27.66 C324.39733,27.3799986 323.688004,27.24 322.904,27.24 C322.138663,27.24 321.429337,27.3799986 320.776,27.66 C320.122663,27.9400014 319.553336,28.3179976 319.068,28.794 C318.582664,29.2700024 318.200001,29.8299968 317.92,30.474 C317.639999,31.1180032 317.5,31.8039964 317.5,32.532 Z M333.488,35.696 C333.842668,36.3866701 334.36533,36.9139982 335.056,37.278 C335.74667,37.6420018 336.474663,37.824 337.24,37.824 C337.594668,37.824 337.949332,37.7680006 338.304,37.656 C338.658668,37.5439994 338.975999,37.3853344 339.256,37.18 C339.536001,36.9746656 339.764666,36.7273348 339.942,36.438 C340.119334,36.1486652 340.208,35.8173352 340.208,35.444 C340.208,34.8466637 340.016669,34.3986682 339.634,34.1 C339.251331,33.8013318 338.780003,33.5680008 338.22,33.4 C337.659997,33.2319992 337.044003,33.0873339 336.372,32.966 C335.699997,32.8446661 335.084003,32.6580013 334.524,32.406 C333.963997,32.1539987 333.492669,31.8040022 333.11,31.356 C332.727331,30.9079978 332.536,30.2733374 332.536,29.452 C332.536,28.8173302 332.666665,28.266669 332.928,27.8 C333.189335,27.333331 333.529998,26.9460015 333.95,26.638 C334.370002,26.3299985 334.841331,26.1013341 335.364,25.952 C335.886669,25.8026659 336.418664,25.728 336.96,25.728 C338.024005,25.728 338.943329,25.923998 339.718,26.316 C340.492671,26.708002 341.094665,27.3239958 341.524,28.164 L340.012,29.06 C339.694665,28.4626637 339.298002,28.0100015 338.822,27.702 C338.345998,27.3939985 337.725337,27.24 336.96,27.24 C336.661332,27.24 336.348668,27.2866662 336.022,27.38 C335.695332,27.4733338 335.401335,27.6039992 335.14,27.772 C334.878665,27.9400008 334.659334,28.1546654 334.482,28.416 C334.304666,28.6773346 334.216,28.9759983 334.216,29.312 C334.216,29.8906696 334.407331,30.3199986 334.79,30.6 C335.172669,30.8800014 335.643997,31.0993325 336.204,31.258 C336.764003,31.4166675 337.379997,31.5519994 338.052,31.664 C338.724003,31.7760006 339.339997,31.9579987 339.9,32.21 C340.460003,32.4620013 340.931331,32.8259976 341.314,33.302 C341.696669,33.7780024 341.888,34.4546623 341.888,35.332 C341.888,36.0040034 341.762001,36.5873309 341.51,37.082 C341.257999,37.5766691 340.912669,37.9919983 340.474,38.328 C340.035331,38.6640017 339.536003,38.9159992 338.976,39.084 C338.415997,39.2520008 337.828003,39.336 337.212,39.336 C336.091994,39.336 335.070005,39.1213355 334.146,38.692 C333.221995,38.2626645 332.508003,37.6000045 332.004,36.704 L333.488,35.696 Z" id="Request-for-Startups-Copy" fill="#464545"></path>
                <g>
                    <polygon id="Fill-1" fill="#F06827" points="0 60 60 60 60 0 0 0"></polygon>
                    <path d="M18,14 L22.6561538,14 L28.6492308,26.0792308 C29.5253846,27.8776923 30.2630769,29.6292308 30.2630769,29.6292308 C30.2630769,29.6292308 31.0469231,27.9238462 31.9692308,26.0792308 L38.0553846,14 L42.3892308,14 L32.1069231,33.3176923 L32.1069231,45.6276923 L28.1892308,45.6276923 L28.1892308,33.0876923 L18,14" id="Fill-3" fill="#FFFFFE"></path>
                </g>
            </g>
        </g>
    </g>
</svg>